<svg width="186" height="60" viewBox="0 0 186 60" fill="none" xmlns="http://www.w3.org/2000/svg">
<rect width="186" height="60" rx="16" fill="white"/>
<path opacity="0.2" d="M55.4648 16.5L37.4648 33L19.4648 16.5H55.4648Z" fill="black"/>
<path d="M55.4648 15H19.4648C19.067 15 18.6855 15.158 18.4042 15.4393C18.1229 15.7206 17.9648 16.1022 17.9648 16.5V42C17.9648 42.7956 18.2809 43.5587 18.8435 44.1213C19.4061 44.6839 20.1692 45 20.9648 45H53.9648C54.7605 45 55.5236 44.6839 56.0862 44.1213C56.6488 43.5587 56.9648 42.7956 56.9648 42V16.5C56.9648 16.1022 56.8068 15.7206 56.5255 15.4393C56.2442 15.158 55.8627 15 55.4648 15ZM37.4648 30.9656L23.3217 18H51.608L37.4648 30.9656ZM31.973 30L20.9648 40.0894V19.9106L31.973 30ZM34.193 32.0344L36.443 34.1062C36.7197 34.3603 37.0817 34.5012 37.4573 34.5012C37.833 34.5012 38.195 34.3603 38.4717 34.1062L40.7217 32.0344L51.5967 42H23.3217L34.193 32.0344ZM42.9567 30L53.9648 19.9088V40.0913L42.9567 30Z" fill="black"/>
<path d="M101.753 41H89.7407V20.952H101.725V22.8H90.4967L91.7567 21.708V30.024H100.801V31.844H91.7567V40.244L90.4967 39.152H101.753V41ZM107.358 41H105.426V27.448H107.106L107.386 29.996L107.106 29.912C107.386 29.0533 107.909 28.372 108.674 27.868C109.458 27.3453 110.373 27.084 111.418 27.084C112.631 27.084 113.639 27.42 114.442 28.092C115.263 28.7453 115.786 29.6413 116.01 30.78H115.59C115.777 29.6413 116.281 28.7453 117.102 28.092C117.942 27.42 118.987 27.084 120.238 27.084C121.694 27.084 122.87 27.532 123.766 28.428C124.662 29.324 125.11 30.556 125.11 32.124V41H123.234V32.516C123.234 31.3587 122.935 30.4533 122.338 29.8C121.741 29.1467 120.919 28.82 119.874 28.82C119.127 28.82 118.483 28.9973 117.942 29.352C117.401 29.688 116.981 30.1453 116.682 30.724C116.402 31.3027 116.262 31.9373 116.262 32.628V41H114.358V32.488C114.358 31.3307 114.05 30.4347 113.434 29.8C112.837 29.1653 112.025 28.848 110.998 28.848C110.251 28.848 109.598 29.016 109.038 29.352C108.497 29.688 108.077 30.1453 107.778 30.724C107.498 31.284 107.358 31.9093 107.358 32.6V41ZM132.888 41.336C131.451 41.336 130.322 40.9627 129.5 40.216C128.698 39.4693 128.296 38.508 128.296 37.332C128.296 36.0813 128.744 35.0827 129.64 34.336C130.536 33.5893 131.778 33.1507 133.364 33.02L137.844 32.656V32.208C137.844 31.312 137.686 30.612 137.368 30.108C137.051 29.5853 136.622 29.2213 136.08 29.016C135.539 28.8107 134.932 28.708 134.26 28.708C133.066 28.708 132.142 28.96 131.488 29.464C130.835 29.968 130.508 30.6773 130.508 31.592H128.744C128.744 30.6773 128.978 29.884 129.444 29.212C129.911 28.54 130.564 28.0173 131.404 27.644C132.244 27.2707 133.215 27.084 134.316 27.084C135.38 27.084 136.314 27.2707 137.116 27.644C137.919 27.9987 138.554 28.5587 139.02 29.324C139.506 30.0707 139.748 31.0413 139.748 32.236V41H138.124L137.872 38.62C137.462 39.4787 136.808 40.1507 135.912 40.636C135.035 41.1027 134.027 41.336 132.888 41.336ZM133.336 39.768C134.774 39.768 135.884 39.3107 136.668 38.396C137.452 37.4813 137.844 36.296 137.844 34.84V34.112L133.84 34.42C132.571 34.532 131.656 34.8493 131.096 35.372C130.536 35.8947 130.256 36.5293 130.256 37.276C130.256 38.0973 130.536 38.7227 131.096 39.152C131.656 39.5627 132.403 39.768 133.336 39.768ZM143.625 41V27.448H145.557V41H143.625ZM144.577 23.724C144.185 23.724 143.849 23.584 143.569 23.304C143.289 23.024 143.149 22.688 143.149 22.296C143.149 21.904 143.289 21.568 143.569 21.288C143.849 20.9893 144.185 20.84 144.577 20.84C144.969 20.84 145.305 20.9893 145.585 21.288C145.884 21.568 146.033 21.904 146.033 22.296C146.033 22.688 145.884 23.024 145.585 23.304C145.305 23.584 144.969 23.724 144.577 23.724ZM151.602 41H149.67V20.588H151.602V41Z" fill="black"/>
</svg>
