<svg width="186" height="60" viewBox="0 0 186 60" fill="none" xmlns="http://www.w3.org/2000/svg">
<rect width="186" height="60" rx="16" fill="white"/>
<path opacity="0.2" d="M54.6172 13.8223V46.8223C54.6172 47.2201 54.4592 47.6016 54.1778 47.8829C53.8965 48.1642 53.515 48.3223 53.1172 48.3223H20.1172C19.7194 48.3223 19.3378 48.1642 19.0565 47.8829C18.7752 47.6016 18.6172 47.2201 18.6172 46.8223V13.8223C18.6172 13.4244 18.7752 13.0429 19.0565 12.7616C19.3378 12.4803 19.7194 12.3223 20.1172 12.3223H53.1172C53.515 12.3223 53.8965 12.4803 54.1778 12.7616C54.4592 13.0429 54.6172 13.4244 54.6172 13.8223Z" fill="#0D47D4"/>
<path d="M53.1172 10.8223H20.1172C19.3215 10.8223 18.5585 11.1383 17.9959 11.7009C17.4333 12.2636 17.1172 13.0266 17.1172 13.8223V46.8223C17.1172 47.6179 17.4333 48.381 17.9959 48.9436C18.5585 49.5062 19.3215 49.8223 20.1172 49.8223H53.1172C53.9128 49.8223 54.6759 49.5062 55.2385 48.9436C55.8011 48.381 56.1172 47.6179 56.1172 46.8223V13.8223C56.1172 13.0266 55.8011 12.2636 55.2385 11.7009C54.6759 11.1383 53.9128 10.8223 53.1172 10.8223ZM53.1172 46.8223H20.1172V13.8223H53.1172V46.8223ZM30.6172 27.3223V39.3223C30.6172 39.7201 30.4592 40.1016 30.1778 40.3829C29.8965 40.6642 29.515 40.8223 29.1172 40.8223C28.7194 40.8223 28.3378 40.6642 28.0565 40.3829C27.7752 40.1016 27.6172 39.7201 27.6172 39.3223V27.3223C27.6172 26.9244 27.7752 26.5429 28.0565 26.2616C28.3378 25.9803 28.7194 25.8223 29.1172 25.8223C29.515 25.8223 29.8965 25.9803 30.1778 26.2616C30.4592 26.5429 30.6172 26.9244 30.6172 27.3223ZM47.1172 32.5723V39.3223C47.1172 39.7201 46.9592 40.1016 46.6778 40.3829C46.3965 40.6642 46.015 40.8223 45.6172 40.8223C45.2194 40.8223 44.8378 40.6642 44.5565 40.3829C44.2752 40.1016 44.1172 39.7201 44.1172 39.3223V32.5723C44.1172 31.5777 43.7221 30.6239 43.0188 29.9206C42.3156 29.2174 41.3617 28.8223 40.3672 28.8223C39.3726 28.8223 38.4188 29.2174 37.7155 29.9206C37.0123 30.6239 36.6172 31.5777 36.6172 32.5723V39.3223C36.6172 39.7201 36.4592 40.1016 36.1778 40.3829C35.8965 40.6642 35.515 40.8223 35.1172 40.8223C34.7194 40.8223 34.3378 40.6642 34.0565 40.3829C33.7752 40.1016 33.6172 39.7201 33.6172 39.3223V27.3223C33.619 26.9548 33.7557 26.6009 34.0012 26.3275C34.2467 26.0542 34.584 25.8805 34.9491 25.8393C35.3142 25.7981 35.6818 25.8924 35.982 26.1043C36.2822 26.3161 36.4942 26.6307 36.5778 26.9885C37.5925 26.3002 38.7756 25.9012 40 25.8345C41.2243 25.7678 42.4437 26.0358 43.5272 26.6099C44.6107 27.1839 45.5174 28.0423 46.1499 29.0927C46.7824 30.1432 47.1168 31.3461 47.1172 32.5723ZM31.3672 22.0723C31.3672 22.5173 31.2352 22.9523 30.988 23.3223C30.7408 23.6923 30.3894 23.9807 29.9782 24.151C29.5671 24.3213 29.1147 24.3658 28.6782 24.279C28.2418 24.1922 27.8409 23.9779 27.5262 23.6633C27.2115 23.3486 26.9972 22.9477 26.9104 22.5112C26.8236 22.0748 26.8682 21.6224 27.0385 21.2112C27.2088 20.8001 27.4971 20.4487 27.8672 20.2015C28.2372 19.9542 28.6722 19.8223 29.1172 19.8223C29.7139 19.8223 30.2862 20.0593 30.7082 20.4813C31.1301 20.9032 31.3672 21.4755 31.3672 22.0723Z" fill="#0D47D4"/>
<path d="M73.6004 20.952V41H71.5844V20.952H73.6004ZM71.9204 41V39.152H82.8124V41H71.9204ZM85.4105 41V27.448H87.3425V41H85.4105ZM86.3625 23.724C85.9705 23.724 85.6345 23.584 85.3545 23.304C85.0745 23.024 84.9345 22.688 84.9345 22.296C84.9345 21.904 85.0745 21.568 85.3545 21.288C85.6345 20.9893 85.9705 20.84 86.3625 20.84C86.7545 20.84 87.0905 20.9893 87.3705 21.288C87.6692 21.568 87.8185 21.904 87.8185 22.296C87.8185 22.688 87.6692 23.024 87.3705 23.304C87.0905 23.584 86.7545 23.724 86.3625 23.724ZM93.3035 41H91.3715V27.448H93.0515L93.3315 29.8C93.7795 28.9413 94.4141 28.2787 95.2355 27.812C96.0755 27.3267 96.9901 27.084 97.9795 27.084C99.8461 27.084 101.19 27.5973 102.011 28.624C102.833 29.6507 103.243 31.0133 103.243 32.712V41H101.311V33.132C101.311 31.5453 100.975 30.4347 100.303 29.8C99.6501 29.1653 98.7635 28.848 97.6435 28.848C96.2621 28.848 95.1888 29.3147 94.4235 30.248C93.6768 31.1627 93.3035 32.3853 93.3035 33.916V41ZM109.11 41H107.178V20.588H109.11V34.448L115.83 27.448H118.266L113.058 32.852L118.294 41H116.054L111.742 34.224L109.11 36.94V41ZM125.794 41.336C124.487 41.336 123.33 41.0373 122.322 40.44C121.332 39.8427 120.558 39.012 119.998 37.948C119.438 36.884 119.158 35.6427 119.158 34.224C119.158 32.824 119.428 31.592 119.97 30.528C120.53 29.4453 121.295 28.6053 122.266 28.008C123.236 27.392 124.366 27.084 125.654 27.084C126.886 27.084 127.959 27.3547 128.874 27.896C129.807 28.4373 130.526 29.1933 131.03 30.164C131.552 31.116 131.814 32.236 131.814 33.524V34.476H120.222L120.278 33.076H129.882C129.882 31.7693 129.49 30.724 128.706 29.94C127.94 29.1373 126.923 28.736 125.654 28.736C124.72 28.736 123.899 28.9507 123.19 29.38C122.499 29.8093 121.967 30.4253 121.594 31.228C121.22 32.012 121.034 32.9453 121.034 34.028C121.034 35.82 121.444 37.2107 122.266 38.2C123.106 39.1893 124.291 39.684 125.822 39.684C126.923 39.684 127.828 39.4507 128.538 38.984C129.247 38.5173 129.723 37.836 129.966 36.94H131.814C131.459 38.3587 130.768 39.4507 129.742 40.216C128.715 40.9627 127.399 41.336 125.794 41.336ZM140.223 41.336C138.916 41.336 137.796 41.028 136.863 40.412C135.929 39.796 135.211 38.956 134.707 37.892C134.203 36.8093 133.951 35.596 133.951 34.252C133.951 32.8893 134.203 31.6667 134.707 30.584C135.211 29.5013 135.929 28.652 136.863 28.036C137.815 27.4013 138.963 27.084 140.307 27.084C141.427 27.084 142.416 27.3267 143.275 27.812C144.152 28.2973 144.824 29.0347 145.291 30.024V20.588H147.223V41H145.543L145.347 38.228C144.861 39.2733 144.171 40.0573 143.275 40.58C142.379 41.084 141.361 41.336 140.223 41.336ZM140.559 39.572C141.567 39.572 142.416 39.348 143.107 38.9C143.797 38.4333 144.329 37.7987 144.703 36.996C145.076 36.1747 145.263 35.2413 145.263 34.196C145.263 33.1507 145.076 32.2267 144.703 31.424C144.329 30.6213 143.797 29.9867 143.107 29.52C142.416 29.0533 141.567 28.82 140.559 28.82C139.588 28.82 138.748 29.0533 138.039 29.52C137.348 29.9867 136.816 30.6213 136.443 31.424C136.088 32.2267 135.911 33.1507 135.911 34.196C135.911 35.2413 136.088 36.1747 136.443 36.996C136.816 37.7987 137.348 38.4333 138.039 38.9C138.748 39.348 139.588 39.572 140.559 39.572ZM153.69 20.952V41H151.674V20.952H153.69ZM160.077 41H158.145V27.448H159.825L160.105 29.8C160.553 28.9413 161.188 28.2787 162.009 27.812C162.849 27.3267 163.764 27.084 164.753 27.084C166.62 27.084 167.964 27.5973 168.785 28.624C169.606 29.6507 170.017 31.0133 170.017 32.712V41H168.085V33.132C168.085 31.5453 167.749 30.4347 167.077 29.8C166.424 29.1653 165.537 28.848 164.417 28.848C163.036 28.848 161.962 29.3147 161.197 30.248C160.45 31.1627 160.077 32.3853 160.077 33.916V41Z" fill="black"/>
</svg>
