<svg width="186" height="50" viewBox="0 0 186 60" fill="none" xmlns="http://www.w3.org/2000/svg">
<rect width="186" height="60" rx="16" fill="white"/>
<path opacity="0.2" d="M55 30C55 33.5601 53.9443 37.0402 51.9665 40.0003C49.9886 42.9604 47.1774 45.2675 43.8883 46.6298C40.5992 47.9922 36.98 48.3487 33.4884 47.6541C29.9967 46.9596 26.7894 45.2453 24.2721 42.7279C21.7547 40.2106 20.0404 37.0033 19.3459 33.5116C18.6513 30.02 19.0078 26.4008 20.3702 23.1117C21.7326 19.8226 24.0397 17.0114 26.9997 15.0335C29.9598 13.0557 33.4399 12 37 12C41.7739 12 46.3523 13.8964 49.7279 17.2721C53.1036 20.6477 55 25.2261 55 30Z" fill="#0D47D4"/>
<path d="M37 10.5C33.1433 10.5 29.3731 11.6437 26.1664 13.7863C22.9596 15.929 20.4603 18.9745 18.9844 22.5377C17.5084 26.1008 17.1223 30.0216 17.8747 33.8043C18.6271 37.5869 20.4843 41.0615 23.2114 43.7886C25.9386 46.5157 29.4131 48.3729 33.1957 49.1253C36.9784 49.8777 40.8992 49.4916 44.4623 48.0156C48.0255 46.5397 51.071 44.0404 53.2137 40.8336C55.3564 37.6269 56.5 33.8567 56.5 30C56.4941 24.8301 54.4377 19.8737 50.782 16.218C47.1263 12.5623 42.1699 10.506 37 10.5ZM53.5 30C53.5013 31.5217 53.2912 33.0362 52.8756 34.5H45.655C46.115 31.5176 46.115 28.4824 45.655 25.5H52.8756C53.2912 26.9638 53.5013 28.4783 53.5 30ZM32.125 37.5H41.875C40.9145 40.6474 39.247 43.5334 37 45.9375C34.7539 43.5328 33.0865 40.6469 32.125 37.5ZM31.3938 34.5C30.8788 31.5221 30.8788 28.4779 31.3938 25.5H42.6213C43.1362 28.4779 43.1362 31.5221 42.6213 34.5H31.3938ZM20.5 30C20.4987 28.4783 20.7088 26.9638 21.1244 25.5H28.345C27.885 28.4824 27.885 31.5176 28.345 34.5H21.1244C20.7088 33.0362 20.4987 31.5217 20.5 30ZM41.875 22.5H32.125C33.0855 19.3526 34.753 16.4666 37 14.0625C39.2461 16.4672 40.9135 19.3531 41.875 22.5ZM51.6869 22.5H45.0081C44.1664 19.4117 42.7476 16.5106 40.8269 13.95C43.1476 14.5075 45.3203 15.5602 47.1961 17.036C49.0719 18.5118 50.6064 20.3757 51.6944 22.5H51.6869ZM33.1731 13.95C31.2524 16.5106 29.8337 19.4117 28.9919 22.5H22.3056C23.3936 20.3757 24.9281 18.5118 26.8039 17.036C28.6797 15.5602 30.8524 14.5075 33.1731 13.95ZM22.3056 37.5H28.9919C29.8337 40.5883 31.2524 43.4894 33.1731 46.05C30.8524 45.4925 28.6797 44.4398 26.8039 42.964C24.9281 41.4882 23.3936 39.6243 22.3056 37.5ZM40.8269 46.05C42.7476 43.4894 44.1664 40.5883 45.0081 37.5H51.6944C50.6064 39.6243 49.0719 41.4882 47.1961 42.964C45.3203 44.4398 43.1476 45.4925 40.8269 46.05Z" fill="#0D47D4"/>
<path d="M73.4637 20.952V41H71.4477V20.952H73.4637ZM79.0917 33.636H73.0437V31.816H78.6997C80.1557 31.816 81.2851 31.396 82.0877 30.556C82.8904 29.6973 83.2917 28.5867 83.2917 27.224C83.2917 25.8427 82.8904 24.76 82.0877 23.976C81.2851 23.1733 80.1931 22.772 78.8117 22.772H72.1757V20.952H79.0917C80.3797 20.952 81.4904 21.2133 82.4237 21.736C83.3757 22.2587 84.1037 22.996 84.6077 23.948C85.1304 24.9 85.3917 26.0013 85.3917 27.252C85.3917 28.4653 85.1304 29.5573 84.6077 30.528C84.1037 31.4987 83.3757 32.264 82.4237 32.824C81.4904 33.3653 80.3797 33.636 79.0917 33.636ZM86.6734 34.224C86.6734 32.824 86.972 31.592 87.5694 30.528C88.1667 29.464 88.988 28.624 90.0334 28.008C91.0787 27.392 92.2547 27.084 93.5614 27.084C94.8867 27.084 96.0627 27.392 97.0894 28.008C98.1347 28.624 98.956 29.464 99.5534 30.528C100.151 31.592 100.449 32.824 100.449 34.224C100.449 35.5867 100.151 36.8093 99.5534 37.892C98.956 38.956 98.1347 39.796 97.0894 40.412C96.0627 41.028 94.8867 41.336 93.5614 41.336C92.2547 41.336 91.0787 41.028 90.0334 40.412C88.988 39.796 88.1667 38.956 87.5694 37.892C86.972 36.8093 86.6734 35.5867 86.6734 34.224ZM88.6334 34.196C88.6334 35.26 88.8387 36.2027 89.2494 37.024C89.6787 37.8267 90.2574 38.4613 90.9854 38.928C91.732 39.376 92.5907 39.6 93.5614 39.6C94.532 39.6 95.3814 39.376 96.1094 38.928C96.856 38.4613 97.4347 37.8267 97.8454 37.024C98.2747 36.2027 98.4894 35.26 98.4894 34.196C98.4894 33.1507 98.2747 32.2267 97.8454 31.424C97.4347 30.6213 96.856 29.9867 96.1094 29.52C95.3814 29.0533 94.532 28.82 93.5614 28.82C92.5907 28.82 91.732 29.0533 90.9854 29.52C90.2574 29.9867 89.6787 30.6213 89.2494 31.424C88.8387 32.2267 88.6334 33.1507 88.6334 34.196ZM110.623 27.28V29.016H109.559C108.309 29.016 107.31 29.3987 106.563 30.164C105.835 30.9293 105.471 31.9653 105.471 33.272V41H103.539V27.448H105.359L105.527 30.108H105.331C105.518 29.2307 105.975 28.5213 106.703 27.98C107.431 27.42 108.318 27.14 109.363 27.14C109.569 27.14 109.774 27.1493 109.979 27.168C110.185 27.1867 110.399 27.224 110.623 27.28ZM112.227 27.448H119.563V29.072H112.227V27.448ZM116.847 41H114.943V23.164H116.847V41ZM120.676 27.448H127.872V29.072H120.676V27.448ZM127.984 20.7V22.352C127.853 22.352 127.685 22.352 127.48 22.352C127.275 22.352 127.06 22.352 126.836 22.352C125.977 22.352 125.399 22.5667 125.1 22.996C124.82 23.4067 124.68 24.0133 124.68 24.816V41H122.748V24.816C122.748 23.808 122.916 22.996 123.252 22.38C123.588 21.7453 124.036 21.288 124.596 21.008C125.175 20.728 125.809 20.588 126.5 20.588C126.743 20.588 126.995 20.5973 127.256 20.616C127.517 20.6347 127.76 20.6627 127.984 20.7ZM129.138 34.224C129.138 32.824 129.437 31.592 130.034 30.528C130.632 29.464 131.453 28.624 132.498 28.008C133.544 27.392 134.72 27.084 136.026 27.084C137.352 27.084 138.528 27.392 139.554 28.008C140.6 28.624 141.421 29.464 142.018 30.528C142.616 31.592 142.914 32.824 142.914 34.224C142.914 35.5867 142.616 36.8093 142.018 37.892C141.421 38.956 140.6 39.796 139.554 40.412C138.528 41.028 137.352 41.336 136.026 41.336C134.72 41.336 133.544 41.028 132.498 40.412C131.453 39.796 130.632 38.956 130.034 37.892C129.437 36.8093 129.138 35.5867 129.138 34.224ZM131.098 34.196C131.098 35.26 131.304 36.2027 131.714 37.024C132.144 37.8267 132.722 38.4613 133.45 38.928C134.197 39.376 135.056 39.6 136.026 39.6C136.997 39.6 137.846 39.376 138.574 38.928C139.321 38.4613 139.9 37.8267 140.31 37.024C140.74 36.2027 140.954 35.26 140.954 34.196C140.954 33.1507 140.74 32.2267 140.31 31.424C139.9 30.6213 139.321 29.9867 138.574 29.52C137.846 29.0533 136.997 28.82 136.026 28.82C135.056 28.82 134.197 29.0533 133.45 29.52C132.722 29.9867 132.144 30.6213 131.714 31.424C131.304 32.2267 131.098 33.1507 131.098 34.196ZM148.02 41H146.088V20.588H148.02V41ZM152.129 41V27.448H154.061V41H152.129ZM153.081 23.724C152.689 23.724 152.353 23.584 152.073 23.304C151.793 23.024 151.653 22.688 151.653 22.296C151.653 21.904 151.793 21.568 152.073 21.288C152.353 20.9893 152.689 20.84 153.081 20.84C153.473 20.84 153.809 20.9893 154.089 21.288C154.388 21.568 154.537 21.904 154.537 22.296C154.537 22.688 154.388 23.024 154.089 23.304C153.809 23.584 153.473 23.724 153.081 23.724ZM157.138 34.224C157.138 32.824 157.437 31.592 158.034 30.528C158.632 29.464 159.453 28.624 160.498 28.008C161.544 27.392 162.72 27.084 164.026 27.084C165.352 27.084 166.528 27.392 167.554 28.008C168.6 28.624 169.421 29.464 170.018 30.528C170.616 31.592 170.914 32.824 170.914 34.224C170.914 35.5867 170.616 36.8093 170.018 37.892C169.421 38.956 168.6 39.796 167.554 40.412C166.528 41.028 165.352 41.336 164.026 41.336C162.72 41.336 161.544 41.028 160.498 40.412C159.453 39.796 158.632 38.956 158.034 37.892C157.437 36.8093 157.138 35.5867 157.138 34.224ZM159.098 34.196C159.098 35.26 159.304 36.2027 159.714 37.024C160.144 37.8267 160.722 38.4613 161.45 38.928C162.197 39.376 163.056 39.6 164.026 39.6C164.997 39.6 165.846 39.376 166.574 38.928C167.321 38.4613 167.9 37.8267 168.31 37.024C168.74 36.2027 168.954 35.26 168.954 34.196C168.954 33.1507 168.74 32.2267 168.31 31.424C167.9 30.6213 167.321 29.9867 166.574 29.52C165.846 29.0533 164.997 28.82 164.026 28.82C163.056 28.82 162.197 29.0533 161.45 29.52C160.722 29.9867 160.144 30.6213 159.714 31.424C159.304 32.2267 159.098 33.1507 159.098 34.196Z" fill="black"/>
</svg>
