<svg width="186" height="60" viewBox="0 0 186 60" fill="none" xmlns="http://www.w3.org/2000/svg">
<rect width="186" height="60" rx="16" fill="white"/>
<path opacity="0.2" d="M52.418 46.709H43.418L22.418 13.709H31.418L52.418 46.709Z" fill="black"/>
<path d="M53.684 45.9046L41.9465 27.4584L53.5283 14.7177C53.7903 14.4225 53.9253 14.0359 53.9041 13.6417C53.8829 13.2476 53.7072 12.8777 53.4151 12.6122C53.123 12.3468 52.738 12.2071 52.3436 12.2236C51.9493 12.2401 51.5773 12.4113 51.3083 12.7002L40.2758 24.8352L32.684 12.9046C32.5486 12.6915 32.3616 12.5161 32.1404 12.3945C31.9191 12.2729 31.6708 12.2091 31.4183 12.209H22.4183C22.1494 12.2089 21.8854 12.281 21.6539 12.418C21.4224 12.5549 21.232 12.7516 21.1026 12.9873C20.9732 13.2231 20.9096 13.4893 20.9184 13.7581C20.9272 14.027 21.0082 14.2884 21.1527 14.5152L32.8902 32.9596L21.3083 45.7096C21.1731 45.8549 21.068 46.0256 20.9992 46.2118C20.9304 46.398 20.8993 46.596 20.9076 46.7943C20.9158 46.9926 20.9634 47.1873 21.0475 47.3671C21.1316 47.5469 21.2505 47.7083 21.3974 47.8417C21.5443 47.9752 21.7163 48.0783 21.9033 48.1448C22.0903 48.2114 22.2886 48.2402 22.4868 48.2295C22.685 48.2188 22.8792 48.1689 23.0579 48.0827C23.2367 47.9965 23.3966 47.8756 23.5283 47.7271L34.5608 35.5921L42.1527 47.5227C42.2892 47.7341 42.4767 47.9077 42.6978 48.0276C42.919 48.1475 43.1668 48.2099 43.4183 48.209H52.4183C52.687 48.2089 52.9507 48.1367 53.1819 47.9998C53.4131 47.863 53.6033 47.6666 53.7326 47.4311C53.862 47.1956 53.9257 46.9297 53.9171 46.6612C53.9086 46.3927 53.828 46.1314 53.684 45.9046ZM44.2415 45.209L25.1502 15.209H30.5877L49.6865 45.209H44.2415Z" fill="black"/>
<path d="M87.5511 21.848V41H85.5351V21.848H87.5511ZM79.3751 22.8V20.952H93.7391V22.8H79.3751ZM97.9931 41L93.5131 27.448H95.5011L98.1611 35.624C98.3104 36.072 98.4504 36.5293 98.5811 36.996C98.7304 37.4627 98.8704 37.976 99.0011 38.536C99.0758 38.1813 99.1691 37.808 99.2811 37.416C99.3931 37.0053 99.4958 36.6413 99.5891 36.324C99.7011 36.0067 99.7758 35.7733 99.8131 35.624L102.501 27.448H104.489L107.149 35.624C107.205 35.8107 107.27 36.0253 107.345 36.268C107.42 36.492 107.494 36.7253 107.569 36.968C107.644 37.2107 107.709 37.472 107.765 37.752C107.84 38.0133 107.914 38.2747 107.989 38.536C108.082 38.144 108.157 37.8267 108.213 37.584C108.269 37.3227 108.344 37.052 108.437 36.772C108.53 36.492 108.652 36.1093 108.801 35.624L111.489 27.448H113.505L108.913 41H107.037L104.237 32.488C104.069 31.984 103.92 31.5173 103.789 31.088C103.677 30.6587 103.584 30.2387 103.509 29.828C103.416 30.2013 103.304 30.6027 103.173 31.032C103.061 31.4427 102.912 31.928 102.725 32.488L99.9251 41H97.9931ZM115.918 41V27.448H117.85V41H115.918ZM116.87 23.724C116.478 23.724 116.142 23.584 115.862 23.304C115.582 23.024 115.442 22.688 115.442 22.296C115.442 21.904 115.582 21.568 115.862 21.288C116.142 20.9893 116.478 20.84 116.87 20.84C117.262 20.84 117.598 20.9893 117.878 21.288C118.177 21.568 118.326 21.904 118.326 22.296C118.326 22.688 118.177 23.024 117.878 23.304C117.598 23.584 117.262 23.724 116.87 23.724ZM120.367 27.448H127.703V29.072H120.367V27.448ZM124.987 41H123.083V23.164H124.987V41ZM128.817 27.448H136.153V29.072H128.817V27.448ZM133.437 41H131.533V23.164H133.437V41ZM144.216 41.336C142.909 41.336 141.752 41.0373 140.744 40.44C139.754 39.8427 138.98 39.012 138.42 37.948C137.86 36.884 137.58 35.6427 137.58 34.224C137.58 32.824 137.85 31.592 138.392 30.528C138.952 29.4453 139.717 28.6053 140.688 28.008C141.658 27.392 142.788 27.084 144.076 27.084C145.308 27.084 146.381 27.3547 147.296 27.896C148.229 28.4373 148.948 29.1933 149.452 30.164C149.974 31.116 150.236 32.236 150.236 33.524V34.476H138.644L138.7 33.076H148.304C148.304 31.7693 147.912 30.724 147.128 29.94C146.362 29.1373 145.345 28.736 144.076 28.736C143.142 28.736 142.321 28.9507 141.612 29.38C140.921 29.8093 140.389 30.4253 140.016 31.228C139.642 32.012 139.456 32.9453 139.456 34.028C139.456 35.82 139.866 37.2107 140.688 38.2C141.528 39.1893 142.713 39.684 144.244 39.684C145.345 39.684 146.25 39.4507 146.96 38.984C147.669 38.5173 148.145 37.836 148.388 36.94H150.236C149.881 38.3587 149.19 39.4507 148.164 40.216C147.137 40.9627 145.821 41.336 144.216 41.336ZM160.409 27.28V29.016H159.345C158.094 29.016 157.095 29.3987 156.349 30.164C155.621 30.9293 155.257 31.9653 155.257 33.272V41H153.325V27.448H155.145L155.313 30.108H155.117C155.303 29.2307 155.761 28.5213 156.489 27.98C157.217 27.42 158.103 27.14 159.149 27.14C159.354 27.14 159.559 27.1493 159.765 27.168C159.97 27.1867 160.185 27.224 160.409 27.28Z" fill="black"/>
</svg>
