<svg width="1000" height="200" viewBox="0 0 1000 200" fill="none" xmlns="http://www.w3.org/2000/svg">
<mask id="path-1-inside-1_486_579" fill="white">
<path d="M0 0H333V200H0V0Z"/>
</mask>
<path d="M333 0H334V-1H333V0ZM333 200V201H334V200H333ZM0 0V1H333V0V-1H0V0ZM333 0H332V200H333H334V0H333ZM333 200V199H0V200V201H333V200Z" fill="white" fill-opacity="0.2" mask="url(#path-1-inside-1_486_579)"/>
<mask id="path-3-inside-2_486_579" fill="white">
<path d="M333 0H667V200H333V0Z"/>
</mask>
<path d="M333 0V1H667V0V-1H333V0ZM667 200V199H333V200V201H667V200Z" fill="white" fill-opacity="0.2" mask="url(#path-3-inside-2_486_579)"/>
<mask id="path-5-inside-3_486_579" fill="white">
<path d="M667 0H1000V200H667V0Z"/>
</mask>
<path d="M667 0V-1H666V0H667ZM667 200H666V201H667V200ZM667 0V1H1000V0V-1H667V0ZM1000 200V199H667V200V201H1000V200ZM667 200H668V0H667H666V200H667Z" fill="white" fill-opacity="0.2" mask="url(#path-5-inside-3_486_579)"/>
<path d="M99.0543 124V109.455H104.14C105.153 109.455 105.989 109.63 106.647 109.98C107.305 110.326 107.795 110.792 108.117 111.379C108.439 111.962 108.6 112.608 108.6 113.318C108.6 113.943 108.489 114.459 108.266 114.866C108.048 115.274 107.759 115.596 107.4 115.832C107.044 116.069 106.658 116.244 106.242 116.358V116.5C106.687 116.528 107.134 116.685 107.584 116.969C108.034 117.253 108.41 117.66 108.713 118.19C109.016 118.721 109.168 119.369 109.168 120.136C109.168 120.866 109.002 121.521 108.671 122.104C108.339 122.686 107.816 123.148 107.101 123.489C106.386 123.83 105.456 124 104.31 124H99.0543ZM100.816 122.438H104.31C105.461 122.438 106.277 122.215 106.76 121.77C107.248 121.32 107.492 120.776 107.492 120.136C107.492 119.644 107.366 119.189 107.115 118.773C106.864 118.351 106.507 118.015 106.043 117.764C105.579 117.509 105.03 117.381 104.395 117.381H100.816V122.438ZM100.816 115.847H104.083C104.613 115.847 105.091 115.742 105.517 115.534C105.948 115.326 106.289 115.032 106.54 114.653C106.796 114.275 106.924 113.83 106.924 113.318C106.924 112.679 106.701 112.137 106.256 111.692C105.811 111.242 105.105 111.017 104.14 111.017H100.816V115.847ZM115.045 124.256C114.354 124.256 113.726 124.125 113.163 123.865C112.6 123.6 112.152 123.219 111.821 122.722C111.489 122.22 111.324 121.614 111.324 120.903C111.324 120.278 111.447 119.772 111.693 119.384C111.939 118.991 112.268 118.683 112.68 118.46C113.092 118.238 113.547 118.072 114.044 117.963C114.546 117.849 115.05 117.759 115.556 117.693C116.219 117.608 116.757 117.544 117.169 117.501C117.585 117.454 117.888 117.376 118.078 117.267C118.272 117.158 118.369 116.969 118.369 116.699V116.642C118.369 115.941 118.177 115.397 117.794 115.009C117.415 114.62 116.84 114.426 116.068 114.426C115.268 114.426 114.64 114.601 114.186 114.952C113.731 115.302 113.412 115.676 113.227 116.074L111.636 115.506C111.92 114.843 112.299 114.327 112.772 113.957C113.251 113.583 113.771 113.323 114.335 113.176C114.903 113.025 115.462 112.949 116.011 112.949C116.361 112.949 116.764 112.991 117.218 113.077C117.678 113.157 118.12 113.325 118.547 113.581C118.977 113.837 119.335 114.223 119.619 114.739C119.903 115.255 120.045 115.946 120.045 116.812V124H118.369V122.523H118.284C118.17 122.759 117.981 123.013 117.716 123.283C117.45 123.553 117.098 123.782 116.657 123.972C116.217 124.161 115.68 124.256 115.045 124.256ZM115.301 122.75C115.964 122.75 116.522 122.62 116.977 122.359C117.436 122.099 117.782 121.763 118.014 121.351C118.251 120.939 118.369 120.506 118.369 120.051V118.517C118.298 118.602 118.142 118.68 117.9 118.751C117.663 118.818 117.389 118.877 117.076 118.929C116.769 118.976 116.468 119.019 116.174 119.057C115.886 119.09 115.651 119.118 115.471 119.142C115.036 119.199 114.628 119.291 114.25 119.419C113.876 119.542 113.573 119.729 113.341 119.98C113.113 120.226 113 120.562 113 120.989C113 121.571 113.215 122.011 113.646 122.31C114.082 122.603 114.633 122.75 115.301 122.75ZM130.832 115.534L129.326 115.96C129.231 115.709 129.092 115.465 128.907 115.229C128.727 114.987 128.481 114.788 128.168 114.632C127.856 114.476 127.456 114.398 126.968 114.398C126.3 114.398 125.744 114.552 125.299 114.859C124.859 115.162 124.638 115.548 124.638 116.017C124.638 116.434 124.79 116.763 125.093 117.004C125.396 117.246 125.87 117.447 126.513 117.608L128.133 118.006C129.108 118.242 129.835 118.605 130.313 119.092C130.791 119.575 131.031 120.198 131.031 120.96C131.031 121.585 130.851 122.144 130.491 122.636C130.136 123.129 129.638 123.517 128.999 123.801C128.36 124.085 127.617 124.227 126.769 124.227C125.656 124.227 124.736 123.986 124.006 123.503C123.277 123.02 122.816 122.314 122.621 121.386L124.212 120.989C124.364 121.576 124.65 122.016 125.072 122.31C125.498 122.603 126.054 122.75 126.741 122.75C127.522 122.75 128.142 122.584 128.602 122.253C129.066 121.917 129.298 121.514 129.298 121.045C129.298 120.667 129.165 120.349 128.9 120.094C128.635 119.833 128.228 119.639 127.678 119.511L125.86 119.085C124.861 118.848 124.127 118.482 123.658 117.984C123.194 117.482 122.962 116.855 122.962 116.102C122.962 115.487 123.135 114.942 123.481 114.469C123.831 113.995 124.307 113.624 124.908 113.354C125.514 113.084 126.201 112.949 126.968 112.949C128.048 112.949 128.895 113.186 129.511 113.659C130.131 114.133 130.571 114.758 130.832 115.534ZM138.127 124.227C137.076 124.227 136.17 123.995 135.407 123.531C134.65 123.062 134.065 122.409 133.653 121.571C133.246 120.728 133.042 119.748 133.042 118.631C133.042 117.513 133.246 116.528 133.653 115.676C134.065 114.819 134.638 114.152 135.372 113.673C136.11 113.19 136.972 112.949 137.957 112.949C138.525 112.949 139.086 113.044 139.64 113.233C140.194 113.422 140.699 113.73 141.153 114.156C141.608 114.578 141.97 115.136 142.24 115.832C142.51 116.528 142.645 117.385 142.645 118.403V119.114H134.235V117.665H140.94C140.94 117.049 140.817 116.5 140.571 116.017C140.329 115.534 139.984 115.153 139.534 114.874C139.089 114.594 138.563 114.455 137.957 114.455C137.289 114.455 136.712 114.62 136.224 114.952C135.741 115.278 135.369 115.705 135.109 116.23C134.849 116.756 134.718 117.319 134.718 117.92V118.886C134.718 119.71 134.86 120.409 135.145 120.982C135.433 121.55 135.833 121.983 136.345 122.281C136.856 122.575 137.45 122.722 138.127 122.722C138.568 122.722 138.966 122.66 139.321 122.537C139.681 122.409 139.991 122.22 140.251 121.969C140.511 121.713 140.713 121.396 140.855 121.017L142.474 121.472C142.304 122.021 142.017 122.504 141.615 122.92C141.212 123.332 140.715 123.654 140.123 123.886C139.531 124.114 138.866 124.227 138.127 124.227ZM149.314 124.227C148.404 124.227 147.602 123.998 146.906 123.538C146.21 123.074 145.665 122.421 145.272 121.578C144.879 120.731 144.683 119.729 144.683 118.574C144.683 117.428 144.879 116.434 145.272 115.591C145.665 114.748 146.212 114.097 146.913 113.638C147.614 113.179 148.423 112.949 149.342 112.949C150.052 112.949 150.613 113.067 151.025 113.304C151.442 113.536 151.759 113.801 151.977 114.099C152.199 114.393 152.372 114.634 152.495 114.824H152.637V109.455H154.314V124H152.694V122.324H152.495C152.372 122.523 152.197 122.774 151.97 123.077C151.743 123.375 151.418 123.643 150.997 123.879C150.575 124.111 150.014 124.227 149.314 124.227ZM149.541 122.722C150.213 122.722 150.781 122.546 151.245 122.196C151.709 121.841 152.062 121.351 152.304 120.726C152.545 120.096 152.666 119.369 152.666 118.545C152.666 117.731 152.547 117.018 152.311 116.408C152.074 115.792 151.724 115.314 151.26 114.973C150.796 114.627 150.223 114.455 149.541 114.455C148.831 114.455 148.239 114.637 147.765 115.001C147.297 115.361 146.944 115.851 146.707 116.472C146.475 117.087 146.359 117.778 146.359 118.545C146.359 119.322 146.477 120.027 146.714 120.662C146.956 121.292 147.311 121.794 147.779 122.168C148.253 122.537 148.84 122.722 149.541 122.722ZM163.241 124V113.091H164.917V124H163.241ZM164.093 111.273C163.767 111.273 163.485 111.161 163.248 110.939C163.016 110.716 162.9 110.449 162.9 110.136C162.9 109.824 163.016 109.556 163.248 109.334C163.485 109.111 163.767 109 164.093 109C164.42 109 164.699 109.111 164.931 109.334C165.168 109.556 165.287 109.824 165.287 110.136C165.287 110.449 165.168 110.716 164.931 110.939C164.699 111.161 164.42 111.273 164.093 111.273ZM169.663 117.438V124H167.987V113.091H169.607V114.795H169.749C170.004 114.241 170.393 113.796 170.913 113.46C171.434 113.119 172.107 112.949 172.93 112.949C173.669 112.949 174.315 113.1 174.869 113.403C175.423 113.702 175.854 114.156 176.162 114.767C176.47 115.373 176.624 116.14 176.624 117.068V124H174.947V117.182C174.947 116.325 174.725 115.657 174.28 115.179C173.835 114.696 173.224 114.455 172.447 114.455C171.912 114.455 171.434 114.571 171.013 114.803C170.596 115.035 170.267 115.373 170.026 115.818C169.784 116.263 169.663 116.803 169.663 117.438ZM190.027 124H185.539V109.455H190.226C191.637 109.455 192.845 109.746 193.848 110.328C194.852 110.906 195.622 111.737 196.157 112.821C196.692 113.901 196.959 115.193 196.959 116.699C196.959 118.214 196.689 119.518 196.15 120.612C195.61 121.701 194.824 122.539 193.792 123.126C192.759 123.709 191.505 124 190.027 124ZM187.3 122.438H189.914C191.116 122.438 192.113 122.205 192.904 121.741C193.694 121.277 194.284 120.617 194.672 119.76C195.06 118.903 195.255 117.883 195.255 116.699C195.255 115.525 195.063 114.514 194.679 113.666C194.296 112.814 193.723 112.161 192.961 111.706C192.198 111.247 191.249 111.017 190.113 111.017H187.3V122.438ZM204.26 124.227C203.209 124.227 202.302 123.995 201.54 123.531C200.783 123.062 200.198 122.409 199.786 121.571C199.379 120.728 199.175 119.748 199.175 118.631C199.175 117.513 199.379 116.528 199.786 115.676C200.198 114.819 200.771 114.152 201.505 113.673C202.243 113.19 203.105 112.949 204.09 112.949C204.658 112.949 205.219 113.044 205.773 113.233C206.327 113.422 206.831 113.73 207.286 114.156C207.74 114.578 208.103 115.136 208.373 115.832C208.642 116.528 208.777 117.385 208.777 118.403V119.114H200.368V117.665H207.073C207.073 117.049 206.95 116.5 206.703 116.017C206.462 115.534 206.116 115.153 205.667 114.874C205.221 114.594 204.696 114.455 204.09 114.455C203.422 114.455 202.845 114.62 202.357 114.952C201.874 115.278 201.502 115.705 201.242 116.23C200.981 116.756 200.851 117.319 200.851 117.92V118.886C200.851 119.71 200.993 120.409 201.277 120.982C201.566 121.55 201.966 121.983 202.478 122.281C202.989 122.575 203.583 122.722 204.26 122.722C204.701 122.722 205.098 122.66 205.453 122.537C205.813 122.409 206.123 122.22 206.384 121.969C206.644 121.713 206.846 121.396 206.988 121.017L208.607 121.472C208.436 122.021 208.15 122.504 207.748 122.92C207.345 123.332 206.848 123.654 206.256 123.886C205.664 124.114 204.999 124.227 204.26 124.227ZM213.003 109.455V124H211.327V109.455H213.003ZM217.749 117.438V124H216.073V109.455H217.749V114.795H217.891C218.147 114.232 218.531 113.785 219.042 113.453C219.558 113.117 220.245 112.949 221.102 112.949C221.845 112.949 222.496 113.098 223.055 113.396C223.613 113.69 224.047 114.142 224.354 114.753C224.667 115.359 224.823 116.131 224.823 117.068V124H223.147V117.182C223.147 116.315 222.922 115.645 222.472 115.172C222.027 114.694 221.409 114.455 220.619 114.455C220.069 114.455 219.577 114.571 219.141 114.803C218.71 115.035 218.37 115.373 218.119 115.818C217.872 116.263 217.749 116.803 217.749 117.438ZM227.89 124V113.091H229.566V124H227.89ZM228.742 111.273C228.415 111.273 228.133 111.161 227.897 110.939C227.665 110.716 227.549 110.449 227.549 110.136C227.549 109.824 227.665 109.556 227.897 109.334C228.133 109.111 228.415 109 228.742 109C229.069 109 229.348 109.111 229.58 109.334C229.817 109.556 229.935 109.824 229.935 110.136C229.935 110.449 229.817 110.716 229.58 110.939C229.348 111.161 229.069 111.273 228.742 111.273ZM235.136 122.011L235.022 122.778C234.942 123.318 234.818 123.896 234.653 124.511C234.492 125.127 234.324 125.707 234.148 126.251C233.973 126.796 233.829 127.229 233.715 127.551H232.437C232.498 127.248 232.579 126.848 232.678 126.351C232.778 125.854 232.877 125.297 232.977 124.682C233.081 124.071 233.166 123.446 233.232 122.807L233.317 122.011H235.136ZM147.808 133.455V148H146.047V133.455H147.808ZM152.788 141.438V148H151.112V137.091H152.732V138.795H152.874C153.129 138.241 153.518 137.796 154.038 137.46C154.559 137.119 155.232 136.949 156.055 136.949C156.794 136.949 157.44 137.1 157.994 137.403C158.548 137.702 158.979 138.156 159.287 138.767C159.595 139.373 159.749 140.14 159.749 141.068V148H158.072V141.182C158.072 140.325 157.85 139.657 157.405 139.179C156.96 138.696 156.349 138.455 155.572 138.455C155.037 138.455 154.559 138.571 154.138 138.803C153.721 139.035 153.392 139.373 153.151 139.818C152.909 140.263 152.788 140.803 152.788 141.438ZM166.931 148.227C166.022 148.227 165.219 147.998 164.523 147.538C163.827 147.074 163.283 146.421 162.89 145.578C162.497 144.731 162.3 143.729 162.3 142.574C162.3 141.428 162.497 140.434 162.89 139.591C163.283 138.748 163.829 138.097 164.53 137.638C165.231 137.179 166.041 136.949 166.959 136.949C167.669 136.949 168.23 137.067 168.642 137.304C169.059 137.536 169.376 137.801 169.594 138.099C169.817 138.393 169.989 138.634 170.113 138.824H170.255V133.455H171.931V148H170.311V146.324H170.113C169.989 146.523 169.814 146.774 169.587 147.077C169.36 147.375 169.035 147.643 168.614 147.879C168.193 148.111 167.632 148.227 166.931 148.227ZM167.158 146.722C167.83 146.722 168.399 146.546 168.863 146.196C169.327 145.841 169.679 145.351 169.921 144.726C170.162 144.096 170.283 143.369 170.283 142.545C170.283 141.731 170.165 141.018 169.928 140.408C169.691 139.792 169.341 139.314 168.877 138.973C168.413 138.627 167.84 138.455 167.158 138.455C166.448 138.455 165.856 138.637 165.382 139.001C164.914 139.361 164.561 139.851 164.324 140.472C164.092 141.087 163.976 141.778 163.976 142.545C163.976 143.322 164.095 144.027 164.331 144.662C164.573 145.292 164.928 145.794 165.397 146.168C165.87 146.537 166.457 146.722 167.158 146.722ZM175.233 148V137.091H176.909V148H175.233ZM176.086 135.273C175.759 135.273 175.477 135.161 175.24 134.939C175.008 134.716 174.892 134.449 174.892 134.136C174.892 133.824 175.008 133.556 175.24 133.334C175.477 133.111 175.759 133 176.086 133C176.412 133 176.692 133.111 176.924 133.334C177.16 133.556 177.279 133.824 177.279 134.136C177.279 134.449 177.16 134.716 176.924 134.939C176.692 135.161 176.412 135.273 176.086 135.273ZM183.19 148.256C182.498 148.256 181.871 148.125 181.308 147.865C180.744 147.6 180.297 147.219 179.965 146.722C179.634 146.22 179.468 145.614 179.468 144.903C179.468 144.278 179.591 143.772 179.837 143.384C180.084 142.991 180.413 142.683 180.825 142.46C181.237 142.238 181.691 142.072 182.188 141.963C182.69 141.849 183.194 141.759 183.701 141.693C184.364 141.608 184.901 141.544 185.313 141.501C185.73 141.454 186.033 141.376 186.222 141.267C186.416 141.158 186.513 140.969 186.513 140.699V140.642C186.513 139.941 186.322 139.397 185.938 139.009C185.559 138.62 184.984 138.426 184.212 138.426C183.412 138.426 182.785 138.601 182.33 138.952C181.876 139.302 181.556 139.676 181.371 140.074L179.781 139.506C180.065 138.843 180.443 138.327 180.917 137.957C181.395 137.583 181.916 137.323 182.479 137.176C183.048 137.025 183.606 136.949 184.156 136.949C184.506 136.949 184.908 136.991 185.363 137.077C185.822 137.157 186.265 137.325 186.691 137.581C187.122 137.837 187.479 138.223 187.763 138.739C188.048 139.255 188.19 139.946 188.19 140.812V148H186.513V146.523H186.428C186.315 146.759 186.125 147.013 185.86 147.283C185.595 147.553 185.242 147.782 184.802 147.972C184.362 148.161 183.824 148.256 183.19 148.256ZM183.445 146.75C184.108 146.75 184.667 146.62 185.121 146.359C185.581 146.099 185.926 145.763 186.158 145.351C186.395 144.939 186.513 144.506 186.513 144.051V142.517C186.442 142.602 186.286 142.68 186.045 142.751C185.808 142.818 185.533 142.877 185.221 142.929C184.913 142.976 184.612 143.019 184.319 143.057C184.03 143.09 183.796 143.118 183.616 143.142C183.18 143.199 182.773 143.291 182.394 143.419C182.02 143.542 181.717 143.729 181.485 143.98C181.258 144.226 181.144 144.562 181.144 144.989C181.144 145.571 181.36 146.011 181.79 146.31C182.226 146.603 182.778 146.75 183.445 146.75Z" fill="white"/>
<path opacity="0.2" d="M177.5 62C177.5 72.5 167 78.5 167 78.5C167 78.5 156.5 72.5 156.5 62C156.5 59.2152 157.606 56.5445 159.575 54.5754C161.545 52.6062 164.215 51.5 167 51.5C169.785 51.5 172.455 52.6062 174.425 54.5754C176.394 56.5445 177.5 59.2152 177.5 62Z" fill="#0D47D4"/>
<path d="M164 62C164 61.4067 164.176 60.8266 164.506 60.3333C164.835 59.8399 165.304 59.4554 165.852 59.2284C166.4 59.0013 167.003 58.9419 167.585 59.0576C168.167 59.1734 168.702 59.4591 169.121 59.8787C169.541 60.2982 169.827 60.8328 169.942 61.4147C170.058 61.9967 169.999 62.5999 169.772 63.148C169.545 63.6962 169.16 64.1648 168.667 64.4944C168.173 64.8241 167.593 65 167 65C166.204 65 165.441 64.6839 164.879 64.1213C164.316 63.5587 164 62.7956 164 62ZM155 62C155 58.8174 156.264 55.7652 158.515 53.5147C160.765 51.2643 163.817 50 167 50C170.183 50 173.235 51.2643 175.485 53.5147C177.736 55.7652 179 58.8174 179 62C179 73.2406 168.204 79.5387 167.75 79.8031C167.523 79.9327 167.267 80.0009 167.006 80.0009C166.745 80.0009 166.488 79.9327 166.261 79.8031C165.796 79.5387 155 73.25 155 62ZM158 62C158 69.9125 164.72 75.1644 167 76.7188C169.278 75.1663 176 69.9125 176 62C176 59.6131 175.052 57.3239 173.364 55.636C171.676 53.9482 169.387 53 167 53C164.613 53 162.324 53.9482 160.636 55.636C158.948 57.3239 158 59.6131 158 62ZM181.019 74.6806C180.65 74.5587 180.248 74.5848 179.898 74.7536C179.548 74.9223 179.276 75.2205 179.142 75.5852C179.007 75.95 179.019 76.3527 179.176 76.7087C179.332 77.0646 179.621 77.3458 179.981 77.4931C183.076 78.6388 185 80.1725 185 81.5C185 84.005 178.152 87.5 167 87.5C155.848 87.5 149 84.005 149 81.5C149 80.1725 150.924 78.6387 154.019 77.495C154.379 77.3477 154.668 77.0665 154.824 76.7105C154.981 76.3546 154.993 75.9518 154.858 75.5871C154.724 75.2224 154.452 74.9242 154.102 74.7554C153.752 74.5867 153.35 74.5605 152.981 74.6825C148.479 76.3419 146 78.7644 146 81.5C146 87.3463 156.821 90.5 167 90.5C177.179 90.5 188 87.3463 188 81.5C188 78.7644 185.521 76.3419 181.019 74.6806Z" fill="#0D47D4"/>
<path d="M444.585 124H442.738L448.079 109.455H449.897L455.238 124H453.391L449.045 111.756H448.931L444.585 124ZM445.266 118.318H452.71V119.881H445.266V118.318ZM464.83 113.091L460.795 124H459.091L455.057 113.091H456.875L459.886 121.784H460L463.011 113.091H464.83ZM469.92 124.256C469.229 124.256 468.601 124.125 468.038 123.865C467.475 123.6 467.027 123.219 466.696 122.722C466.364 122.22 466.199 121.614 466.199 120.903C466.199 120.278 466.322 119.772 466.568 119.384C466.814 118.991 467.143 118.683 467.555 118.46C467.967 118.238 468.422 118.072 468.919 117.963C469.421 117.849 469.925 117.759 470.431 117.693C471.094 117.608 471.632 117.544 472.044 117.501C472.46 117.454 472.763 117.376 472.953 117.267C473.147 117.158 473.244 116.969 473.244 116.699V116.642C473.244 115.941 473.052 115.397 472.669 115.009C472.29 114.62 471.715 114.426 470.943 114.426C470.143 114.426 469.515 114.601 469.061 114.952C468.606 115.302 468.287 115.676 468.102 116.074L466.511 115.506C466.795 114.843 467.174 114.327 467.647 113.957C468.126 113.583 468.646 113.323 469.21 113.176C469.778 113.025 470.337 112.949 470.886 112.949C471.236 112.949 471.639 112.991 472.093 113.077C472.553 113.157 472.995 113.325 473.422 113.581C473.852 113.837 474.21 114.223 474.494 114.739C474.778 115.255 474.92 115.946 474.92 116.812V124H473.244V122.523H473.159C473.045 122.759 472.856 123.013 472.591 123.283C472.325 123.553 471.973 123.782 471.532 123.972C471.092 124.161 470.555 124.256 469.92 124.256ZM470.176 122.75C470.839 122.75 471.397 122.62 471.852 122.359C472.311 122.099 472.657 121.763 472.889 121.351C473.126 120.939 473.244 120.506 473.244 120.051V118.517C473.173 118.602 473.017 118.68 472.775 118.751C472.538 118.818 472.264 118.877 471.951 118.929C471.644 118.976 471.343 119.019 471.049 119.057C470.761 119.09 470.526 119.118 470.346 119.142C469.911 119.199 469.503 119.291 469.125 119.419C468.751 119.542 468.448 119.729 468.216 119.98C467.988 120.226 467.875 120.562 467.875 120.989C467.875 121.571 468.09 122.011 468.521 122.31C468.957 122.603 469.508 122.75 470.176 122.75ZM477.979 124V113.091H479.656V124H477.979ZM478.832 111.273C478.505 111.273 478.223 111.161 477.987 110.939C477.754 110.716 477.638 110.449 477.638 110.136C477.638 109.824 477.754 109.556 477.987 109.334C478.223 109.111 478.505 109 478.832 109C479.158 109 479.438 109.111 479.67 109.334C479.906 109.556 480.025 109.824 480.025 110.136C480.025 110.449 479.906 110.716 479.67 110.939C479.438 111.161 479.158 111.273 478.832 111.273ZM484.402 109.455V124H482.725V109.455H484.402ZM490.682 124.256C489.991 124.256 489.363 124.125 488.8 123.865C488.236 123.6 487.789 123.219 487.457 122.722C487.126 122.22 486.96 121.614 486.96 120.903C486.96 120.278 487.083 119.772 487.33 119.384C487.576 118.991 487.905 118.683 488.317 118.46C488.729 118.238 489.183 118.072 489.68 117.963C490.182 117.849 490.687 117.759 491.193 117.693C491.856 117.608 492.393 117.544 492.805 117.501C493.222 117.454 493.525 117.376 493.714 117.267C493.909 117.158 494.006 116.969 494.006 116.699V116.642C494.006 115.941 493.814 115.397 493.43 115.009C493.052 114.62 492.476 114.426 491.705 114.426C490.904 114.426 490.277 114.601 489.822 114.952C489.368 115.302 489.048 115.676 488.864 116.074L487.273 115.506C487.557 114.843 487.936 114.327 488.409 113.957C488.887 113.583 489.408 113.323 489.972 113.176C490.54 113.025 491.098 112.949 491.648 112.949C491.998 112.949 492.401 112.991 492.855 113.077C493.314 113.157 493.757 113.325 494.183 113.581C494.614 113.837 494.972 114.223 495.256 114.739C495.54 115.255 495.682 115.946 495.682 116.812V124H494.006V122.523H493.92C493.807 122.759 493.617 123.013 493.352 123.283C493.087 123.553 492.734 123.782 492.294 123.972C491.854 124.161 491.316 124.256 490.682 124.256ZM490.938 122.75C491.6 122.75 492.159 122.62 492.614 122.359C493.073 122.099 493.419 121.763 493.651 121.351C493.887 120.939 494.006 120.506 494.006 120.051V118.517C493.935 118.602 493.778 118.68 493.537 118.751C493.3 118.818 493.026 118.877 492.713 118.929C492.405 118.976 492.105 119.019 491.811 119.057C491.522 119.09 491.288 119.118 491.108 119.142C490.672 119.199 490.265 119.291 489.886 119.419C489.512 119.542 489.209 119.729 488.977 119.98C488.75 120.226 488.636 120.562 488.636 120.989C488.636 121.571 488.852 122.011 489.283 122.31C489.718 122.603 490.27 122.75 490.938 122.75ZM498.968 124V109.455H500.645V114.824H500.787C500.91 114.634 501.08 114.393 501.298 114.099C501.52 113.801 501.838 113.536 502.25 113.304C502.666 113.067 503.23 112.949 503.94 112.949C504.859 112.949 505.668 113.179 506.369 113.638C507.07 114.097 507.617 114.748 508.01 115.591C508.403 116.434 508.599 117.428 508.599 118.574C508.599 119.729 508.403 120.731 508.01 121.578C507.617 122.421 507.072 123.074 506.376 123.538C505.68 123.998 504.877 124.227 503.968 124.227C503.268 124.227 502.707 124.111 502.285 123.879C501.864 123.643 501.539 123.375 501.312 123.077C501.085 122.774 500.91 122.523 500.787 122.324H500.588V124H498.968ZM500.616 118.545C500.616 119.369 500.737 120.096 500.978 120.726C501.22 121.351 501.573 121.841 502.037 122.196C502.501 122.546 503.069 122.722 503.741 122.722C504.442 122.722 505.027 122.537 505.495 122.168C505.969 121.794 506.324 121.292 506.561 120.662C506.802 120.027 506.923 119.322 506.923 118.545C506.923 117.778 506.805 117.087 506.568 116.472C506.336 115.851 505.983 115.361 505.51 115.001C505.041 114.637 504.451 114.455 503.741 114.455C503.059 114.455 502.486 114.627 502.022 114.973C501.558 115.314 501.208 115.792 500.971 116.408C500.734 117.018 500.616 117.731 500.616 118.545ZM512.839 109.455V124H511.163V109.455H512.839ZM520.483 124.227C519.432 124.227 518.525 123.995 517.763 123.531C517.005 123.062 516.42 122.409 516.009 121.571C515.601 120.728 515.398 119.748 515.398 118.631C515.398 117.513 515.601 116.528 516.009 115.676C516.42 114.819 516.993 114.152 517.727 113.673C518.466 113.19 519.328 112.949 520.312 112.949C520.881 112.949 521.442 113.044 521.996 113.233C522.55 113.422 523.054 113.73 523.509 114.156C523.963 114.578 524.325 115.136 524.595 115.832C524.865 116.528 525 117.385 525 118.403V119.114H516.591V117.665H523.295C523.295 117.049 523.172 116.5 522.926 116.017C522.685 115.534 522.339 115.153 521.889 114.874C521.444 114.594 520.919 114.455 520.312 114.455C519.645 114.455 519.067 114.62 518.58 114.952C518.097 115.278 517.725 115.705 517.464 116.23C517.204 116.756 517.074 117.319 517.074 117.92V118.886C517.074 119.71 517.216 120.409 517.5 120.982C517.789 121.55 518.189 121.983 518.7 122.281C519.212 122.575 519.806 122.722 520.483 122.722C520.923 122.722 521.321 122.66 521.676 122.537C522.036 122.409 522.346 122.22 522.607 121.969C522.867 121.713 523.068 121.396 523.21 121.017L524.83 121.472C524.659 122.021 524.373 122.504 523.97 122.92C523.568 123.332 523.071 123.654 522.479 123.886C521.887 124.114 521.222 124.227 520.483 124.227ZM538.033 113.091V114.511H532.152V113.091H538.033ZM533.913 124V111.585C533.913 110.96 534.06 110.439 534.354 110.023C534.647 109.606 535.028 109.294 535.497 109.085C535.966 108.877 536.461 108.773 536.982 108.773C537.393 108.773 537.73 108.806 537.99 108.872C538.25 108.938 538.445 109 538.572 109.057L538.089 110.506C538.004 110.477 537.886 110.442 537.734 110.399C537.588 110.357 537.393 110.335 537.152 110.335C536.598 110.335 536.198 110.475 535.952 110.754C535.71 111.034 535.589 111.443 535.589 111.983V124H533.913ZM544.364 124.227C543.379 124.227 542.515 123.993 541.772 123.524C541.033 123.055 540.456 122.4 540.039 121.557C539.627 120.714 539.421 119.729 539.421 118.602C539.421 117.466 539.627 116.474 540.039 115.626C540.456 114.779 541.033 114.121 541.772 113.652C542.515 113.183 543.379 112.949 544.364 112.949C545.349 112.949 546.211 113.183 546.95 113.652C547.693 114.121 548.271 114.779 548.683 115.626C549.099 116.474 549.308 117.466 549.308 118.602C549.308 119.729 549.099 120.714 548.683 121.557C548.271 122.4 547.693 123.055 546.95 123.524C546.211 123.993 545.349 124.227 544.364 124.227ZM544.364 122.722C545.112 122.722 545.728 122.53 546.211 122.146C546.694 121.763 547.051 121.259 547.283 120.634C547.515 120.009 547.631 119.331 547.631 118.602C547.631 117.873 547.515 117.194 547.283 116.564C547.051 115.934 546.694 115.425 546.211 115.037C545.728 114.649 545.112 114.455 544.364 114.455C543.616 114.455 543.001 114.649 542.518 115.037C542.035 115.425 541.677 115.934 541.445 116.564C541.213 117.194 541.097 117.873 541.097 118.602C541.097 119.331 541.213 120.009 541.445 120.634C541.677 121.259 542.035 121.763 542.518 122.146C543.001 122.53 543.616 122.722 544.364 122.722ZM551.866 124V113.091H553.485V114.739H553.599C553.798 114.199 554.158 113.761 554.679 113.425C555.199 113.089 555.787 112.92 556.44 112.92C556.563 112.92 556.717 112.923 556.902 112.928C557.086 112.932 557.226 112.939 557.321 112.949V114.653C557.264 114.639 557.134 114.618 556.93 114.589C556.731 114.556 556.52 114.54 556.298 114.54C555.768 114.54 555.294 114.651 554.877 114.874C554.466 115.091 554.139 115.394 553.897 115.783C553.661 116.166 553.542 116.604 553.542 117.097V124H551.866ZM480.292 148L476.315 133.455H478.105L481.144 145.301H481.286L484.383 133.455H486.372L489.468 145.301H489.61L492.65 133.455H494.44L490.463 148H488.644L485.434 136.409H485.32L482.11 148H480.292ZM499.823 148.227C498.838 148.227 497.974 147.993 497.231 147.524C496.492 147.055 495.915 146.4 495.498 145.557C495.086 144.714 494.88 143.729 494.88 142.602C494.88 141.466 495.086 140.474 495.498 139.626C495.915 138.779 496.492 138.121 497.231 137.652C497.974 137.183 498.838 136.949 499.823 136.949C500.808 136.949 501.67 137.183 502.409 137.652C503.152 138.121 503.73 138.779 504.142 139.626C504.558 140.474 504.767 141.466 504.767 142.602C504.767 143.729 504.558 144.714 504.142 145.557C503.73 146.4 503.152 147.055 502.409 147.524C501.67 147.993 500.808 148.227 499.823 148.227ZM499.823 146.722C500.571 146.722 501.187 146.53 501.67 146.146C502.153 145.763 502.51 145.259 502.742 144.634C502.974 144.009 503.09 143.331 503.09 142.602C503.09 141.873 502.974 141.194 502.742 140.564C502.51 139.934 502.153 139.425 501.67 139.037C501.187 138.649 500.571 138.455 499.823 138.455C499.075 138.455 498.46 138.649 497.977 139.037C497.494 139.425 497.136 139.934 496.904 140.564C496.672 141.194 496.556 141.873 496.556 142.602C496.556 143.331 496.672 144.009 496.904 144.634C497.136 145.259 497.494 145.763 497.977 146.146C498.46 146.53 499.075 146.722 499.823 146.722ZM507.325 148V137.091H508.944V138.739H509.058C509.257 138.199 509.617 137.761 510.138 137.425C510.658 137.089 511.246 136.92 511.899 136.92C512.022 136.92 512.176 136.923 512.361 136.928C512.545 136.932 512.685 136.939 512.78 136.949V138.653C512.723 138.639 512.593 138.618 512.389 138.589C512.19 138.556 511.979 138.54 511.757 138.54C511.227 138.54 510.753 138.651 510.336 138.874C509.925 139.091 509.598 139.394 509.356 139.783C509.12 140.166 509.001 140.604 509.001 141.097V148H507.325ZM516.329 144.023L516.301 141.949H516.642L521.414 137.091H523.488L518.403 142.233H518.261L516.329 144.023ZM514.767 148V133.455H516.443V148H514.767ZM521.698 148L517.437 142.602L518.63 141.438L523.829 148H521.698Z" fill="white"/>
<path opacity="0.2" d="M518 71C518 74.5601 516.944 78.0402 514.966 81.0003C512.989 83.9604 510.177 86.2675 506.888 87.6298C503.599 88.9922 499.98 89.3487 496.488 88.6541C492.997 87.9596 489.789 86.2453 487.272 83.7279C484.755 81.2106 483.04 78.0033 482.346 74.5116C481.651 71.02 482.008 67.4008 483.37 64.1117C484.733 60.8226 487.04 58.0114 490 56.0335C492.96 54.0557 496.44 53 500 53C504.774 53 509.352 54.8964 512.728 58.2721C516.104 61.6477 518 66.2261 518 71Z" fill="#008000"/>
<path d="M508.561 65.4387C508.701 65.5781 508.811 65.7435 508.887 65.9256C508.962 66.1077 509.001 66.3029 509.001 66.5C509.001 66.6971 508.962 66.8923 508.887 67.0744C508.811 67.2565 508.701 67.4219 508.561 67.5613L498.061 78.0613C497.922 78.2007 497.757 78.3114 497.574 78.3868C497.392 78.4623 497.197 78.5012 497 78.5012C496.803 78.5012 496.608 78.4623 496.426 78.3868C496.244 78.3114 496.078 78.2007 495.939 78.0613L491.439 73.5613C491.157 73.2798 490.999 72.898 490.999 72.5C490.999 72.102 491.157 71.7202 491.439 71.4387C491.72 71.1573 492.102 70.9992 492.5 70.9992C492.898 70.9992 493.28 71.1573 493.561 71.4387L497 74.8794L506.439 65.4387C506.578 65.2993 506.744 65.1886 506.926 65.1132C507.108 65.0377 507.303 64.9988 507.5 64.9988C507.697 64.9988 507.892 65.0377 508.074 65.1132C508.257 65.1886 508.422 65.2993 508.561 65.4387ZM519.5 71C519.5 74.8567 518.356 78.6269 516.214 81.8336C514.071 85.0404 511.025 87.5397 507.462 89.0156C503.899 90.4916 499.978 90.8777 496.196 90.1253C492.413 89.3729 488.939 87.5157 486.211 84.7886C483.484 82.0615 481.627 78.5869 480.875 74.8043C480.122 71.0216 480.508 67.1008 481.984 63.5377C483.46 59.9745 485.96 56.929 489.166 54.7863C492.373 52.6437 496.143 51.5 500 51.5C505.17 51.5055 510.127 53.5617 513.783 57.2174C517.438 60.8732 519.495 65.83 519.5 71ZM516.5 71C516.5 67.7366 515.532 64.5465 513.719 61.8331C511.906 59.1197 509.329 57.0048 506.314 55.756C503.299 54.5071 499.982 54.1804 496.781 54.817C493.58 55.4537 490.64 57.0252 488.333 59.3327C486.025 61.6403 484.454 64.5803 483.817 67.781C483.18 70.9817 483.507 74.2993 484.756 77.3143C486.005 80.3293 488.12 82.9062 490.833 84.7192C493.547 86.5323 496.737 87.5 500 87.5C504.375 87.495 508.569 85.7551 511.662 82.6618C514.755 79.5685 516.495 75.3745 516.5 71Z" fill="#008000"/>
<path d="M792.625 124V109.455H801.346V111.017H794.386V115.932H800.693V117.494H794.386V124H792.625ZM804.018 124V113.091H805.638V114.739H805.751C805.95 114.199 806.31 113.761 806.831 113.425C807.352 113.089 807.939 112.92 808.592 112.92C808.715 112.92 808.869 112.923 809.054 112.928C809.239 112.932 809.378 112.939 809.473 112.949V114.653C809.416 114.639 809.286 114.618 809.082 114.589C808.884 114.556 808.673 114.54 808.45 114.54C807.92 114.54 807.446 114.651 807.03 114.874C806.618 115.091 806.291 115.394 806.05 115.783C805.813 116.166 805.695 116.604 805.695 117.097V124H804.018ZM815.56 124.227C814.575 124.227 813.711 123.993 812.967 123.524C812.229 123.055 811.651 122.4 811.234 121.557C810.822 120.714 810.616 119.729 810.616 118.602C810.616 117.466 810.822 116.474 811.234 115.626C811.651 114.779 812.229 114.121 812.967 113.652C813.711 113.183 814.575 112.949 815.56 112.949C816.545 112.949 817.406 113.183 818.145 113.652C818.888 114.121 819.466 114.779 819.878 115.626C820.295 116.474 820.503 117.466 820.503 118.602C820.503 119.729 820.295 120.714 819.878 121.557C819.466 122.4 818.888 123.055 818.145 123.524C817.406 123.993 816.545 124.227 815.56 124.227ZM815.56 122.722C816.308 122.722 816.923 122.53 817.406 122.146C817.889 121.763 818.247 121.259 818.479 120.634C818.711 120.009 818.827 119.331 818.827 118.602C818.827 117.873 818.711 117.194 818.479 116.564C818.247 115.934 817.889 115.425 817.406 115.037C816.923 114.649 816.308 114.455 815.56 114.455C814.812 114.455 814.196 114.649 813.713 115.037C813.23 115.425 812.873 115.934 812.641 116.564C812.409 117.194 812.293 117.873 812.293 118.602C812.293 119.331 812.409 120.009 812.641 120.634C812.873 121.259 813.23 121.763 813.713 122.146C814.196 122.53 814.812 122.722 815.56 122.722ZM824.738 117.438V124H823.061V113.091H824.681V114.795H824.823C825.078 114.241 825.467 113.796 825.988 113.46C826.508 113.119 827.181 112.949 828.005 112.949C828.743 112.949 829.39 113.1 829.944 113.403C830.498 113.702 830.928 114.156 831.236 114.767C831.544 115.373 831.698 116.14 831.698 117.068V124H830.022V117.182C830.022 116.325 829.799 115.657 829.354 115.179C828.909 114.696 828.298 114.455 827.522 114.455C826.987 114.455 826.508 114.571 826.087 114.803C825.67 115.035 825.341 115.373 825.1 115.818C824.858 116.263 824.738 116.803 824.738 117.438ZM839.505 113.091V114.511H833.852V113.091H839.505ZM835.499 110.477H837.175V120.875C837.175 121.348 837.244 121.704 837.381 121.94C837.523 122.172 837.703 122.329 837.921 122.409C838.144 122.485 838.378 122.523 838.624 122.523C838.809 122.523 838.96 122.513 839.079 122.494C839.197 122.471 839.292 122.452 839.363 122.438L839.704 123.943C839.59 123.986 839.432 124.028 839.228 124.071C839.024 124.118 838.766 124.142 838.454 124.142C837.98 124.142 837.516 124.04 837.062 123.837C836.612 123.633 836.238 123.323 835.94 122.906C835.646 122.49 835.499 121.964 835.499 121.33V110.477ZM846.483 124.227C845.432 124.227 844.525 123.995 843.763 123.531C843.005 123.062 842.42 122.409 842.009 121.571C841.601 120.728 841.398 119.748 841.398 118.631C841.398 117.513 841.601 116.528 842.009 115.676C842.42 114.819 842.993 114.152 843.727 113.673C844.466 113.19 845.328 112.949 846.312 112.949C846.881 112.949 847.442 113.044 847.996 113.233C848.55 113.422 849.054 113.73 849.509 114.156C849.963 114.578 850.325 115.136 850.595 115.832C850.865 116.528 851 117.385 851 118.403V119.114H842.591V117.665H849.295C849.295 117.049 849.172 116.5 848.926 116.017C848.685 115.534 848.339 115.153 847.889 114.874C847.444 114.594 846.919 114.455 846.312 114.455C845.645 114.455 845.067 114.62 844.58 114.952C844.097 115.278 843.725 115.705 843.464 116.23C843.204 116.756 843.074 117.319 843.074 117.92V118.886C843.074 119.71 843.216 120.409 843.5 120.982C843.789 121.55 844.189 121.983 844.7 122.281C845.212 122.575 845.806 122.722 846.483 122.722C846.923 122.722 847.321 122.66 847.676 122.537C848.036 122.409 848.346 122.22 848.607 121.969C848.867 121.713 849.068 121.396 849.21 121.017L850.83 121.472C850.659 122.021 850.373 122.504 849.97 122.92C849.568 123.332 849.071 123.654 848.479 123.886C847.887 124.114 847.222 124.227 846.483 124.227ZM855.226 117.438V124H853.55V113.091H855.169V114.795H855.311C855.567 114.241 855.955 113.796 856.476 113.46C856.997 113.119 857.669 112.949 858.493 112.949C859.232 112.949 859.878 113.1 860.432 113.403C860.986 113.702 861.417 114.156 861.724 114.767C862.032 115.373 862.186 116.14 862.186 117.068V124H860.51V117.182C860.51 116.325 860.287 115.657 859.842 115.179C859.397 114.696 858.786 114.455 858.01 114.455C857.475 114.455 856.997 114.571 856.575 114.803C856.159 115.035 855.83 115.373 855.588 115.818C855.347 116.263 855.226 116.803 855.226 117.438ZM869.368 124.227C868.459 124.227 867.657 123.998 866.961 123.538C866.265 123.074 865.72 122.421 865.327 121.578C864.934 120.731 864.738 119.729 864.738 118.574C864.738 117.428 864.934 116.434 865.327 115.591C865.72 114.748 866.267 114.097 866.968 113.638C867.668 113.179 868.478 112.949 869.397 112.949C870.107 112.949 870.668 113.067 871.08 113.304C871.497 113.536 871.814 113.801 872.032 114.099C872.254 114.393 872.427 114.634 872.55 114.824H872.692V109.455H874.368V124H872.749V122.324H872.55C872.427 122.523 872.252 122.774 872.025 123.077C871.797 123.375 871.473 123.643 871.051 123.879C870.63 124.111 870.069 124.227 869.368 124.227ZM869.596 122.722C870.268 122.722 870.836 122.546 871.3 122.196C871.764 121.841 872.117 121.351 872.358 120.726C872.6 120.096 872.721 119.369 872.721 118.545C872.721 117.731 872.602 117.018 872.365 116.408C872.129 115.792 871.778 115.314 871.314 114.973C870.85 114.627 870.277 114.455 869.596 114.455C868.885 114.455 868.293 114.637 867.82 115.001C867.351 115.361 866.998 115.851 866.762 116.472C866.53 117.087 866.414 117.778 866.414 118.545C866.414 119.322 866.532 120.027 866.769 120.662C867.01 121.292 867.365 121.794 867.834 122.168C868.308 122.537 868.895 122.722 869.596 122.722ZM791.742 148H787.254V133.455H791.941C793.352 133.455 794.559 133.746 795.563 134.328C796.567 134.906 797.336 135.737 797.871 136.821C798.406 137.901 798.674 139.193 798.674 140.699C798.674 142.214 798.404 143.518 797.864 144.612C797.325 145.701 796.539 146.539 795.506 147.126C794.474 147.709 793.219 148 791.742 148ZM789.015 146.438H791.629C792.831 146.438 793.828 146.205 794.619 145.741C795.409 145.277 795.999 144.617 796.387 143.76C796.775 142.903 796.969 141.883 796.969 140.699C796.969 139.525 796.778 138.514 796.394 137.666C796.011 136.814 795.438 136.161 794.675 135.706C793.913 135.247 792.964 135.017 791.827 135.017H789.015V146.438ZM805.975 148.227C804.924 148.227 804.017 147.995 803.255 147.531C802.497 147.062 801.913 146.409 801.501 145.571C801.094 144.728 800.89 143.748 800.89 142.631C800.89 141.513 801.094 140.528 801.501 139.676C801.913 138.819 802.486 138.152 803.219 137.673C803.958 137.19 804.82 136.949 805.805 136.949C806.373 136.949 806.934 137.044 807.488 137.233C808.042 137.422 808.546 137.73 809.001 138.156C809.455 138.578 809.817 139.136 810.087 139.832C810.357 140.528 810.492 141.385 810.492 142.403V143.114H802.083V141.665H808.788C808.788 141.049 808.665 140.5 808.418 140.017C808.177 139.534 807.831 139.153 807.381 138.874C806.936 138.594 806.411 138.455 805.805 138.455C805.137 138.455 804.559 138.62 804.072 138.952C803.589 139.278 803.217 139.705 802.957 140.23C802.696 140.756 802.566 141.319 802.566 141.92V142.886C802.566 143.71 802.708 144.409 802.992 144.982C803.281 145.55 803.681 145.983 804.192 146.281C804.704 146.575 805.298 146.722 805.975 146.722C806.415 146.722 806.813 146.66 807.168 146.537C807.528 146.409 807.838 146.22 808.099 145.969C808.359 145.713 808.56 145.396 808.702 145.017L810.322 145.472C810.151 146.021 809.865 146.504 809.462 146.92C809.06 147.332 808.563 147.654 807.971 147.886C807.379 148.114 806.714 148.227 805.975 148.227ZM821.63 137.091L817.596 148H815.892L811.858 137.091H813.676L816.687 145.784H816.801L819.812 137.091H821.63ZM828.026 148.227C826.975 148.227 826.068 147.995 825.306 147.531C824.548 147.062 823.963 146.409 823.551 145.571C823.144 144.728 822.941 143.748 822.941 142.631C822.941 141.513 823.144 140.528 823.551 139.676C823.963 138.819 824.536 138.152 825.27 137.673C826.009 137.19 826.871 136.949 827.855 136.949C828.424 136.949 828.985 137.044 829.539 137.233C830.093 137.422 830.597 137.73 831.051 138.156C831.506 138.578 831.868 139.136 832.138 139.832C832.408 140.528 832.543 141.385 832.543 142.403V143.114H824.134V141.665H830.838C830.838 141.049 830.715 140.5 830.469 140.017C830.228 139.534 829.882 139.153 829.432 138.874C828.987 138.594 828.462 138.455 827.855 138.455C827.188 138.455 826.61 138.62 826.123 138.952C825.64 139.278 825.268 139.705 825.007 140.23C824.747 140.756 824.617 141.319 824.617 141.92V142.886C824.617 143.71 824.759 144.409 825.043 144.982C825.332 145.55 825.732 145.983 826.243 146.281C826.755 146.575 827.349 146.722 828.026 146.722C828.466 146.722 828.864 146.66 829.219 146.537C829.579 146.409 829.889 146.22 830.15 145.969C830.41 145.713 830.611 145.396 830.753 145.017L832.373 145.472C832.202 146.021 831.916 146.504 831.513 146.92C831.111 147.332 830.614 147.654 830.022 147.886C829.43 148.114 828.765 148.227 828.026 148.227ZM836.769 133.455V148H835.093V133.455H836.769ZM844.271 148.227C843.286 148.227 842.422 147.993 841.678 147.524C840.94 147.055 840.362 146.4 839.945 145.557C839.533 144.714 839.327 143.729 839.327 142.602C839.327 141.466 839.533 140.474 839.945 139.626C840.362 138.779 840.94 138.121 841.678 137.652C842.422 137.183 843.286 136.949 844.271 136.949C845.255 136.949 846.117 137.183 846.856 137.652C847.599 138.121 848.177 138.779 848.589 139.626C849.005 140.474 849.214 141.466 849.214 142.602C849.214 143.729 849.005 144.714 848.589 145.557C848.177 146.4 847.599 147.055 846.856 147.524C846.117 147.993 845.255 148.227 844.271 148.227ZM844.271 146.722C845.019 146.722 845.634 146.53 846.117 146.146C846.6 145.763 846.958 145.259 847.19 144.634C847.422 144.009 847.538 143.331 847.538 142.602C847.538 141.873 847.422 141.194 847.19 140.564C846.958 139.934 846.6 139.425 846.117 139.037C845.634 138.649 845.019 138.455 844.271 138.455C843.522 138.455 842.907 138.649 842.424 139.037C841.941 139.425 841.584 139.934 841.352 140.564C841.12 141.194 841.004 141.873 841.004 142.602C841.004 143.331 841.12 144.009 841.352 144.634C841.584 145.259 841.941 145.763 842.424 146.146C842.907 146.53 843.522 146.722 844.271 146.722ZM851.772 152.091V137.091H853.392V138.824H853.591C853.714 138.634 853.884 138.393 854.102 138.099C854.324 137.801 854.642 137.536 855.054 137.304C855.47 137.067 856.034 136.949 856.744 136.949C857.663 136.949 858.472 137.179 859.173 137.638C859.874 138.097 860.421 138.748 860.814 139.591C861.207 140.434 861.403 141.428 861.403 142.574C861.403 143.729 861.207 144.731 860.814 145.578C860.421 146.421 859.876 147.074 859.18 147.538C858.484 147.998 857.681 148.227 856.772 148.227C856.072 148.227 855.511 148.111 855.089 147.879C854.668 147.643 854.343 147.375 854.116 147.077C853.889 146.774 853.714 146.523 853.591 146.324H853.449V152.091H851.772ZM853.42 142.545C853.42 143.369 853.541 144.096 853.782 144.726C854.024 145.351 854.377 145.841 854.841 146.196C855.305 146.546 855.873 146.722 856.545 146.722C857.246 146.722 857.831 146.537 858.299 146.168C858.773 145.794 859.128 145.292 859.365 144.662C859.606 144.027 859.727 143.322 859.727 142.545C859.727 141.778 859.609 141.087 859.372 140.472C859.14 139.851 858.787 139.361 858.314 139.001C857.845 138.637 857.255 138.455 856.545 138.455C855.863 138.455 855.29 138.627 854.826 138.973C854.362 139.314 854.012 139.792 853.775 140.408C853.538 141.018 853.42 141.731 853.42 142.545ZM868.534 148.227C867.483 148.227 866.576 147.995 865.814 147.531C865.056 147.062 864.471 146.409 864.059 145.571C863.652 144.728 863.449 143.748 863.449 142.631C863.449 141.513 863.652 140.528 864.059 139.676C864.471 138.819 865.044 138.152 865.778 137.673C866.517 137.19 867.378 136.949 868.363 136.949C868.931 136.949 869.493 137.044 870.047 137.233C870.6 137.422 871.105 137.73 871.559 138.156C872.014 138.578 872.376 139.136 872.646 139.832C872.916 140.528 873.051 141.385 873.051 142.403V143.114H864.642V141.665H871.346C871.346 141.049 871.223 140.5 870.977 140.017C870.735 139.534 870.39 139.153 869.94 138.874C869.495 138.594 868.969 138.455 868.363 138.455C867.696 138.455 867.118 138.62 866.63 138.952C866.147 139.278 865.776 139.705 865.515 140.23C865.255 140.756 865.125 141.319 865.125 141.92V142.886C865.125 143.71 865.267 144.409 865.551 144.982C865.84 145.55 866.24 145.983 866.751 146.281C867.262 146.575 867.857 146.722 868.534 146.722C868.974 146.722 869.372 146.66 869.727 146.537C870.087 146.409 870.397 146.22 870.657 145.969C870.918 145.713 871.119 145.396 871.261 145.017L872.88 145.472C872.71 146.021 872.423 146.504 872.021 146.92C871.618 147.332 871.121 147.654 870.529 147.886C869.938 148.114 869.272 148.227 868.534 148.227ZM875.6 148V137.091H877.22V138.739H877.333C877.532 138.199 877.892 137.761 878.413 137.425C878.934 137.089 879.521 136.92 880.174 136.92C880.297 136.92 880.451 136.923 880.636 136.928C880.821 136.932 880.96 136.939 881.055 136.949V138.653C880.998 138.639 880.868 138.618 880.664 138.589C880.466 138.556 880.255 138.54 880.032 138.54C879.502 138.54 879.029 138.651 878.612 138.874C878.2 139.091 877.873 139.394 877.632 139.783C877.395 140.166 877.277 140.604 877.277 141.097V148H875.6Z" fill="white"/>
<path opacity="0.2" d="M843.093 65L840.91 77H828.91L831.093 65H843.093Z" fill="#FFB901"/>
<path d="M854 63.4995H844.887L846.476 54.7677C846.539 54.3794 846.448 53.9817 846.221 53.6601C845.995 53.3385 845.651 53.1189 845.264 53.0486C844.877 52.9782 844.477 53.0628 844.152 53.2841C843.827 53.5053 843.601 53.8455 843.524 54.2314L841.837 63.4995H832.888L834.476 54.7677C834.539 54.3794 834.448 53.9817 834.221 53.6601C833.995 53.3385 833.651 53.1189 833.264 53.0486C832.877 52.9782 832.477 53.0628 832.152 53.2841C831.827 53.5053 831.601 53.8455 831.524 54.2314L829.839 63.4995H821C820.602 63.4995 820.221 63.6576 819.939 63.9389C819.658 64.2202 819.5 64.6017 819.5 64.9995C819.5 65.3974 819.658 65.7789 819.939 66.0602C820.221 66.3415 820.602 66.4995 821 66.4995H829.293L827.656 75.4995H818C817.602 75.4995 817.221 75.6576 816.939 75.9389C816.658 76.2202 816.5 76.6017 816.5 76.9995C816.5 77.3974 816.658 77.7789 816.939 78.0602C817.221 78.3415 817.602 78.4995 818 78.4995H827.112L825.524 87.2314C825.453 87.6228 825.541 88.0263 825.767 88.3533C825.993 88.6803 826.341 88.904 826.732 88.9752C826.82 88.9915 826.91 88.9997 827 88.9995C827.351 88.999 827.691 88.8755 827.96 88.6504C828.229 88.4253 828.411 88.113 828.474 87.7677L830.161 78.4995H839.113L837.524 87.2314C837.453 87.6228 837.541 88.0263 837.767 88.3533C837.993 88.6803 838.341 88.904 838.732 88.9752C838.82 88.9915 838.91 88.9997 839 88.9995C839.351 88.999 839.691 88.8755 839.96 88.6504C840.229 88.4253 840.411 88.113 840.474 87.7677L842.161 78.4995H851C851.398 78.4995 851.779 78.3415 852.061 78.0602C852.342 77.7789 852.5 77.3974 852.5 76.9995C852.5 76.6017 852.342 76.2202 852.061 75.9389C851.779 75.6576 851.398 75.4995 851 75.4995H842.707L844.344 66.4995H854C854.398 66.4995 854.779 66.3415 855.061 66.0602C855.342 65.7789 855.5 65.3974 855.5 64.9995C855.5 64.6017 855.342 64.2202 855.061 63.9389C854.779 63.6576 854.398 63.4995 854 63.4995ZM839.656 75.4995H830.707L832.344 66.4995H841.293L839.656 75.4995Z" fill="#FFD600"/>
</svg>
