<svg width="1000" height="251" viewBox="0 0 1000 252" fill="none" xmlns="http://www.w3.org/2000/svg">
<path d="M935.861 54.1846C948.64 54.1846 959.821 57.2255 969.405 63.3076C979.051 69.3897 986.546 77.929 991.891 88.9258C997.297 99.9227 1000 112.794 1000 127.538C1000 142.16 997.297 154.939 991.891 165.874C986.546 176.809 979.051 185.318 969.405 191.4C959.821 197.483 948.64 200.523 935.861 200.523C935.003 200.523 934.151 200.508 933.307 200.48V180.926C934.145 180.965 934.996 180.987 935.861 180.987C945.568 180.987 953.555 178.499 959.821 173.522C966.088 168.546 970.726 162.003 973.736 153.894C976.747 145.784 978.252 136.999 978.252 127.538C978.252 118.077 976.747 109.261 973.736 101.09C970.726 92.9191 966.088 86.315 959.821 81.2773C953.555 76.2396 945.568 73.7207 935.861 73.7207C926.155 73.7207 918.168 76.2397 911.901 81.2773C905.635 86.315 900.997 92.9191 897.986 101.09C894.976 109.261 893.471 118.077 893.471 127.538C893.471 129.281 893.523 131.002 893.625 132.699H871.838C871.762 131.005 871.723 129.285 871.723 127.538C871.723 112.794 874.395 99.9227 879.74 88.9258C885.147 77.9289 892.642 69.3897 902.226 63.3076C911.871 57.2255 923.083 54.1846 935.861 54.1846Z" fill="white" stroke="black"/>
<g transform="translate(869, 170)"> 
  <path 
    d="M15 0 L30 -18 L0 -18 Z" 
    fill="white" stroke="black">
    <animateTransform 
      attributeName="transform"
      type="translate"
      dur="1.2s"
      values="0 0; 0 8; 0 0"
      repeatCount="indefinite"
    />
  </path>
</g>
<path d="M838.522 132.698H816.774V56.0283H838.522V132.698ZM827.833 2.94824C832.072 2.94824 835.697 4.39189 838.707 7.2793C841.779 10.1667 843.314 13.6377 843.314 17.6924C843.314 21.7471 841.779 25.218 838.707 28.1055C835.697 30.9929 832.072 32.4375 827.833 32.4375C823.594 32.4375 819.939 30.9929 816.867 28.1055C813.857 25.218 812.352 21.7471 812.352 17.6924C812.352 13.6377 813.857 10.1667 816.867 7.2793C819.939 4.39196 823.594 2.94827 827.833 2.94824Z" fill="white" stroke="black"/>
<path d="M776.94 132.7H755.191V8.84668H776.94V132.7Z" fill="white" stroke="black"/>
<path d="M657.857 54.1846C670.636 54.1846 681.817 57.2255 691.401 63.3076C701.047 69.3897 708.542 77.929 713.887 88.9258C719.293 99.9227 721.996 112.794 721.996 127.538C721.996 129.285 721.956 131.005 721.879 132.699H700.094C700.196 131.002 700.248 129.281 700.248 127.538C700.248 118.077 698.743 109.261 695.732 101.09C692.722 92.9191 688.084 86.315 681.817 81.2773C675.551 76.2396 667.564 73.7207 657.857 73.7207C648.151 73.7207 640.164 76.2396 633.897 81.2773C627.631 86.315 622.993 92.9191 619.982 101.09C616.972 109.261 615.467 118.077 615.467 127.538C615.467 129.281 615.519 131.002 615.621 132.699H593.834C593.758 131.005 593.719 129.285 593.719 127.538C593.719 112.794 596.391 99.9227 601.736 88.9258C607.143 77.9289 614.638 69.3897 624.222 63.3076C633.867 57.2255 645.079 54.1846 657.857 54.1846Z" fill="white" stroke="black"/>
<path d="M562.066 0C567.411 0 571.773 0.429937 575.152 1.29004C578.531 2.15013 581.05 2.94832 582.709 3.68555L576.442 22.4854C575.337 22.1167 573.801 21.6554 571.835 21.1025C569.93 20.5496 567.412 20.2734 564.278 20.2734C557.09 20.2734 551.899 22.0853 548.704 25.71C545.571 29.3346 544.005 34.6489 544.005 41.6523V56.0283H575.705V74.459H544.005V132.699H522.257V74.459H499.402V56.0283H522.257V36.4922C522.257 28.3828 524.161 21.625 527.97 16.2188C531.779 10.8125 536.725 6.75785 542.807 4.05469C548.889 1.35156 555.309 2.80425e-05 562.066 0Z" fill="white" stroke="black"/>
<path d="M449.737 56.0283H479.964V74.459H449.737V132.698H427.989V74.459H406.609V56.0283H427.989V22.1162H449.737V56.0283Z" fill="white" stroke="black"/>
<path d="M372.323 53.8174C373.92 53.8174 375.917 53.8478 378.312 53.9092C380.708 53.9706 382.521 54.0636 383.75 54.1865V76.3027C383.013 76.1184 381.323 75.8422 378.682 75.4736C376.101 75.0436 373.367 74.8281 370.479 74.8281C363.599 74.8282 357.455 76.2717 352.049 79.1592C346.704 81.9852 342.465 85.9174 339.332 90.9551C336.26 95.9314 334.725 101.615 334.725 108.004V132.7H312.977V56.0293H333.987V77.4082H335.462C338.042 70.4048 342.711 64.7222 349.469 60.3604C356.227 55.9984 363.845 53.8174 372.323 53.8174Z" fill="white" stroke="black"/>
<path d="M215.643 54.1846C228.421 54.1846 239.603 57.2255 249.187 63.3076C258.832 69.3897 266.327 77.9289 271.672 88.9258C277.078 99.9227 279.781 112.794 279.781 127.538C279.781 129.285 279.741 131.005 279.664 132.699H257.879C257.981 131.002 258.033 129.281 258.033 127.538C258.033 118.077 256.528 109.261 253.518 101.09C250.507 92.9191 245.869 86.315 239.603 81.2773C233.336 76.2396 225.349 73.7207 215.643 73.7207C205.936 73.7207 197.949 76.2397 191.683 81.2773C185.416 86.315 180.778 92.9191 177.768 101.09C174.757 109.261 173.252 118.077 173.252 127.538C173.252 129.281 173.304 131.002 173.406 132.699H151.619C151.543 131.005 151.504 129.285 151.504 127.538C151.504 112.794 154.177 99.9227 159.521 88.9258C164.928 77.9289 172.423 69.3897 182.007 63.3076C191.652 57.2255 202.864 54.1846 215.643 54.1846Z" fill="white" stroke="black"/>
<path d="M64.5068 54.1846C76.4253 54.1846 86.931 57.1639 96.0234 63.123C105.116 69.0822 112.211 77.5295 117.311 88.4648C122.41 99.4004 124.96 112.303 124.96 127.17C124.96 129.044 124.92 130.887 124.84 132.699H103.024C103.148 130.769 103.212 128.803 103.212 126.801C103.212 116.848 101.675 107.879 98.6035 99.8926C95.5932 91.8445 91.0166 85.4855 84.873 80.8164C78.7909 76.0859 71.1421 73.7207 61.9268 73.7207C53.0801 73.7207 45.6466 75.9635 39.626 80.4482C33.6054 84.8715 29.0591 91.0761 25.9873 99.0625C22.9155 106.988 21.3799 116.234 21.3799 126.801C21.3799 137.49 22.9459 146.921 26.0791 155.092C29.2123 163.201 33.7899 169.56 39.8105 174.168C45.4017 178.39 52.1587 180.649 60.0811 180.95V200.372C53.1878 199.923 47.5055 198.469 43.0352 196.008C37.5676 192.936 33.359 189.465 30.4102 185.595C27.4613 181.663 25.1881 178.406 23.5908 175.826H21.748V250.654H0V56.0273H21.0107V78.5127H23.5908C25.1881 76.0553 27.4006 72.9223 30.2266 69.1133C33.114 65.2429 37.2303 61.8023 42.5752 58.792C47.9814 55.7204 55.2918 54.1846 64.5068 54.1846Z" fill="white" stroke="black"/>
<path d="M778.789 155.146H789.759L814.443 215.549H803.57L799.489 205.385H769.68L765.729 215.549H754.824L778.789 155.146ZM795.408 195.299L784.372 167.861L773.63 195.299H795.408Z" fill="white" stroke="black"/>
<path d="M721.136 165.89H702.297V155.146H750.325V165.89H731.486V215.549H721.136V165.89Z" fill="white" stroke="black"/>
<path d="M644.574 155.146H671.478C675.396 155.146 678.791 155.649 681.664 156.654C684.537 157.658 686.921 159.114 688.815 161.021C690.708 162.901 692.112 165.207 693.026 167.938C693.962 170.669 694.43 173.748 694.43 177.174C694.43 180.395 693.973 183.37 693.059 186.101C692.145 188.832 690.741 191.202 688.847 193.212C686.975 195.196 684.603 196.754 681.73 197.888C678.856 198.996 675.461 199.55 671.543 199.55L654.924 199.511V215.549H644.574V155.146ZM671.739 188.922C673.698 188.922 675.406 188.652 676.865 188.111C678.345 187.544 679.575 186.758 680.554 185.753C681.555 184.723 682.295 183.486 682.774 182.044C683.275 180.575 683.525 178.952 683.525 177.174C683.525 173.593 682.535 170.811 680.554 168.827C678.595 166.817 675.657 165.813 671.739 165.813H654.924V188.922H671.739Z" fill="white" stroke="black"/>
<path d="M581.465 155.146H591.815V188.42C591.815 191.151 592.13 193.586 592.762 195.724C593.393 197.837 594.329 199.627 595.57 201.096C596.832 202.564 598.388 203.685 600.238 204.458C602.089 205.205 604.243 205.578 606.703 205.578C609.141 205.578 611.285 205.205 613.135 204.458C615.007 203.685 616.563 202.564 617.804 201.096C619.066 199.627 620.013 197.837 620.644 195.724C621.276 193.586 621.591 191.151 621.591 188.42V155.146H631.941V189.889C631.941 193.856 631.375 197.463 630.243 200.709C629.112 203.955 627.468 206.738 625.313 209.057C623.158 211.375 620.514 213.166 617.379 214.428C614.267 215.691 610.708 216.322 606.703 216.322C602.698 216.322 599.128 215.691 595.994 214.428C592.881 213.166 590.248 211.375 588.093 209.057C585.938 206.738 584.294 203.955 583.163 200.709C582.031 197.463 581.465 193.856 581.465 189.889V155.146Z" fill="white" stroke="black"/>
<path d="M513.027 184.787C513.027 180.536 513.702 176.569 515.052 172.885C516.401 169.175 518.371 165.954 520.961 163.223C523.551 160.492 526.729 158.341 530.495 156.769C534.282 155.198 538.614 154.412 543.489 154.412C545.253 154.412 547.016 154.528 548.779 154.76C550.564 154.966 552.316 155.301 554.035 155.765C555.777 156.228 557.464 156.821 559.096 157.542C560.75 158.238 562.317 159.075 563.798 160.054L559.031 169.329C558.138 168.711 557.126 168.157 555.994 167.667C554.862 167.152 553.644 166.727 552.338 166.392C551.053 166.031 549.715 165.761 548.322 165.581C546.95 165.4 545.568 165.31 544.175 165.31C540.954 165.31 538.081 165.8 535.556 166.779C533.031 167.732 530.898 169.084 529.156 170.836C527.415 172.562 526.087 174.636 525.173 177.058C524.259 179.48 523.802 182.134 523.802 185.019C523.802 188.008 524.281 190.751 525.238 193.251C526.196 195.75 527.556 197.901 529.32 199.704C531.083 201.508 533.216 202.925 535.719 203.955C538.222 204.96 541.019 205.462 544.11 205.462C546.569 205.462 548.822 205.14 550.868 204.496C552.914 203.826 554.699 202.886 556.223 201.675C557.747 200.464 558.987 199.009 559.945 197.308C560.903 195.582 561.534 193.65 561.839 191.511H544.012V181.425H571.144V181.464L571.176 181.425C571.721 184.517 571.884 187.531 571.666 190.468C571.47 193.379 570.904 196.136 569.968 198.738C569.054 201.314 567.792 203.685 566.181 205.849C564.57 208.013 562.644 209.881 560.402 211.452C558.16 212.998 555.613 214.209 552.762 215.085C549.911 215.935 546.787 216.36 543.392 216.36C538.646 216.36 534.391 215.536 530.626 213.887C526.882 212.238 523.704 209.984 521.092 207.124C518.48 204.264 516.477 200.915 515.084 197.076C513.713 193.238 513.027 189.141 513.027 184.787Z" fill="white" stroke="black"/>
<path d="M427.387 155.146H437.737L469.537 174.856V155.146H479.887V215.549H469.537V187.84L437.737 168.247V215.549H427.387V155.146Z" fill="white" stroke="black"/>
<path d="M364.336 155.146H374.686V188.42C374.686 191.151 375.001 193.586 375.633 195.724C376.264 197.837 377.2 199.627 378.441 201.096C379.703 202.564 381.259 203.685 383.11 204.458C384.96 205.205 387.115 205.578 389.574 205.578C392.012 205.578 394.156 205.205 396.006 204.458C397.878 203.685 399.434 202.564 400.675 201.096C401.937 199.627 402.884 197.837 403.516 195.724C404.147 193.586 404.462 191.151 404.462 188.42V155.146H414.812V189.889C414.812 193.856 414.246 197.463 413.115 200.709C411.983 203.955 410.339 206.738 408.184 209.057C406.03 211.375 403.385 213.166 400.251 214.428C397.138 215.691 393.579 216.322 389.574 216.322C385.569 216.322 381.999 215.691 378.865 214.428C375.752 213.166 373.119 211.375 370.964 209.057C368.809 206.738 367.166 203.955 366.034 200.709C364.902 197.463 364.336 193.856 364.336 189.889V155.146Z" fill="white" stroke="black"/>
<path d="M305.078 155.146H331.035C334.953 155.146 338.348 155.636 341.221 156.615C344.094 157.568 346.478 158.959 348.372 160.789C350.265 162.618 351.669 164.846 352.583 167.474C353.519 170.102 353.987 173.078 353.987 176.401C353.987 178.643 353.759 180.781 353.302 182.816C352.845 184.826 352.137 186.681 351.179 188.381C350.244 190.082 349.057 191.602 347.621 192.941C346.184 194.255 344.497 195.35 342.56 196.226L353.661 215.549H340.993L331.394 198.39H331.1L315.428 198.352V215.549H305.078V155.146ZM331.296 187.763C333.255 187.763 334.963 187.493 336.422 186.951C337.902 186.41 339.132 185.65 340.111 184.671C341.112 183.692 341.853 182.507 342.331 181.116C342.832 179.699 343.082 178.127 343.082 176.401C343.082 173.026 342.103 170.424 340.144 168.595C338.185 166.74 335.236 165.813 331.296 165.813H315.428V187.763H331.296Z" fill="white" stroke="black"/>
<path d="M261.496 155.146H272.466L297.15 215.549H286.277L282.196 205.385H252.387L248.436 215.549H237.531L261.496 155.146ZM278.115 195.299L267.079 167.861L256.337 195.299H278.115Z" fill="white" stroke="black"/>
<path d="M203.839 165.89H185V155.146H233.028V165.89H214.189V215.549H203.839V165.89Z" fill="white" stroke="black"/>
</svg>
