<svg width="1000" height="319" viewBox="0 0 1000 319" fill="none" xmlns="http://www.w3.org/2000/svg">
<rect x="80.6602" y="156.872" width="840.91" height="124.098" stroke="white"/>
<path d="M924.53 80.6729C936.85 80.6729 947.63 83.6059 956.87 89.4697C966.17 95.3337 973.397 103.566 978.55 114.169C983.762 124.771 986.368 137.181 986.368 151.396C986.368 165.494 983.762 177.814 978.55 188.357C973.397 198.901 966.17 207.104 956.87 212.968C947.63 218.832 936.85 221.764 924.53 221.764C923.703 221.764 922.881 221.749 922.067 221.723V202.87C922.875 202.908 923.696 202.929 924.53 202.929C933.889 202.929 941.589 200.529 947.631 195.731C953.672 190.934 958.145 184.625 961.047 176.807C963.949 168.988 965.4 160.518 965.4 151.396C965.4 142.275 963.949 133.775 961.047 125.897C958.145 118.02 953.672 111.652 947.631 106.795C941.589 101.938 933.889 99.5089 924.53 99.5088C915.172 99.5088 907.471 101.938 901.43 106.795C895.388 111.652 890.916 118.02 888.014 125.897C885.111 133.775 883.66 142.275 883.66 151.396C883.66 153.077 883.709 154.736 883.808 156.372H862.803C862.729 154.739 862.691 153.08 862.691 151.396C862.691 137.181 865.269 124.771 870.422 114.169C875.634 103.567 882.86 95.3336 892.101 89.4697C901.4 83.6058 912.21 80.6729 924.53 80.6729Z" fill="white"/>
<path d="M830.686 156.372H809.718V82.4512H830.686V156.372ZM820.379 31.2754C824.466 31.2754 827.961 32.6673 830.863 35.4512C833.825 38.235 835.306 41.5812 835.306 45.4902C835.306 49.3995 833.825 52.7464 830.863 55.5303C827.961 58.3142 824.466 59.7061 820.379 59.7061C816.292 59.706 812.768 58.314 809.807 55.5303C806.904 52.7464 805.453 49.3995 805.453 45.4902C805.453 41.5811 806.904 38.235 809.807 35.4512C812.768 32.6674 816.292 31.2755 820.379 31.2754Z" fill="white"/>
<path d="M771.308 156.372H750.34V36.9609H771.308V156.372Z" fill="white"/>
<path d="M656.494 80.6729C668.814 80.6729 679.595 83.6058 688.835 89.4697C698.134 95.3337 705.361 103.567 710.514 114.169C715.726 124.771 718.332 137.181 718.332 151.396C718.332 153.08 718.294 154.739 718.22 156.372H697.216C697.314 154.736 697.364 153.077 697.364 151.396C697.364 142.275 695.913 133.775 693.011 125.897C690.108 118.02 685.636 111.652 679.595 106.795C673.553 101.938 665.853 99.5088 656.494 99.5088C647.135 99.5088 639.435 101.938 633.394 106.795C627.352 111.652 622.88 118.02 619.978 125.897C617.075 133.775 615.624 142.275 615.624 151.396C615.624 153.077 615.674 154.736 615.772 156.372H594.767C594.693 154.739 594.656 153.08 594.656 151.396C594.656 137.181 597.233 124.771 602.386 114.169C607.598 103.567 614.824 95.3337 624.064 89.4697C633.364 83.6058 644.174 80.6729 656.494 80.6729Z" fill="white"/>
<path d="M564.14 28.4316C569.293 28.4316 573.498 28.8466 576.756 29.6758C580.014 30.505 582.443 31.2746 584.042 31.9854L578 50.1104C576.934 49.755 575.453 49.3114 573.558 48.7783C571.721 48.2452 569.292 47.9785 566.271 47.9785C559.342 47.9786 554.337 49.7261 551.257 53.2207C548.236 56.7153 546.726 61.8386 546.726 68.5908V82.4512H577.289V100.221H546.726V156.372H525.757V100.221H503.723V82.4512H525.757V63.6152C525.757 55.7969 527.593 49.2816 531.266 44.0693C534.938 38.8569 539.706 34.947 545.57 32.3408C551.434 29.7346 557.624 28.4316 564.14 28.4316Z" fill="white"/>
<path d="M455.839 82.4512H484.98V100.221H455.839V156.372H434.87V100.221H414.258V82.4512H434.87V49.7559H455.839V82.4512Z" fill="white"/>
<path d="M381.202 80.3184C382.742 80.3184 384.667 80.348 386.978 80.4072C389.288 80.4665 391.035 80.5554 392.22 80.6738V101.997C391.509 101.819 389.88 101.553 387.333 101.197C384.845 100.783 382.21 100.576 379.426 100.576C372.792 100.576 366.869 101.968 361.656 104.752C356.503 107.477 352.415 111.267 349.395 116.124C346.433 120.922 344.952 126.401 344.952 132.561V156.372H323.984V82.4512H344.241V103.063H345.663C348.151 96.3111 352.653 90.8324 359.168 86.627C365.683 82.4215 373.028 80.3184 381.202 80.3184Z" fill="white"/>
<path d="M230.143 80.6729C242.463 80.6729 253.243 83.6058 262.483 89.4697C271.783 95.3337 279.009 103.567 284.162 114.169C289.375 124.771 291.98 137.181 291.98 151.396C291.98 153.08 291.943 154.739 291.868 156.372H270.864C270.963 154.736 271.013 153.077 271.013 151.396C271.013 142.275 269.561 133.775 266.659 125.897C263.757 118.02 259.285 111.652 253.243 106.795C247.202 101.938 239.501 99.5088 230.143 99.5088C220.784 99.5088 213.084 101.938 207.042 106.795C201 111.652 196.528 118.02 193.626 125.897C190.724 133.775 189.272 142.275 189.272 151.396C189.272 153.077 189.322 154.736 189.421 156.372H168.415C168.342 154.739 168.305 153.08 168.305 151.396C168.305 137.181 170.881 124.771 176.034 114.169C181.247 103.567 188.473 95.3337 197.713 89.4697C207.012 83.6058 217.822 80.6729 230.143 80.6729Z" fill="white"/>
<path d="M84.4277 80.6729C95.9187 80.6729 106.047 83.5465 114.813 89.292C123.58 95.0375 130.422 103.181 135.338 113.725C140.254 124.268 142.712 136.707 142.712 151.041C142.712 152.848 142.674 154.625 142.597 156.372H121.564C121.684 154.512 121.744 152.616 121.744 150.686C121.744 141.09 120.263 132.442 117.302 124.742C114.399 116.983 109.987 110.852 104.063 106.351C98.1995 101.79 90.8243 99.5088 81.9395 99.5088C73.4102 99.5089 66.2431 101.671 60.4385 105.995C54.6338 110.26 50.2506 116.242 47.2891 123.942C44.3275 131.583 42.8467 140.498 42.8467 150.686C42.8467 160.992 44.3571 170.084 47.3779 177.962C50.3988 185.781 54.8115 191.911 60.6162 196.354C66.0074 200.424 72.5228 202.603 80.1621 202.893V221.618C73.5152 221.185 68.036 219.783 63.7256 217.41C58.4543 214.449 54.3968 211.103 51.5537 207.371C48.7107 203.58 46.5195 200.441 44.9795 197.953H43.2021V270.098H22.2344V82.4502H42.4912V104.129H44.9795C46.5195 101.76 48.6515 98.7386 51.376 95.0664C54.1599 91.3348 58.1291 88.0186 63.2822 85.1162C68.4946 82.1547 75.543 80.6729 84.4277 80.6729Z" fill="white"/>
<path d="M763.617 196.204H773.879L796.968 243.94H786.798L782.98 235.908H755.096L751.4 243.94H741.199L763.617 196.204ZM779.162 227.937L768.839 206.252L758.791 227.937H779.162Z" fill="white"/>
<path d="M709.685 204.695H692.062V196.204H736.989V204.695H719.367V243.94H709.685V204.695Z" fill="white"/>
<path d="M638.066 196.204H663.233C666.898 196.204 670.074 196.601 672.762 197.395C675.449 198.189 677.679 199.34 679.45 200.846C681.222 202.333 682.535 204.155 683.39 206.313C684.266 208.472 684.703 210.905 684.703 213.613C684.703 216.158 684.276 218.51 683.421 220.668C682.565 222.826 681.252 224.699 679.481 226.287C677.73 227.855 675.51 229.087 672.823 229.983C670.135 230.859 666.959 231.296 663.294 231.296L647.748 231.266V243.94H638.066V196.204ZM663.477 222.897C665.309 222.897 666.908 222.684 668.272 222.256C669.657 221.808 670.807 221.187 671.723 220.393C672.66 219.579 673.352 218.601 673.8 217.461C674.268 216.3 674.502 215.018 674.502 213.613C674.502 210.783 673.576 208.584 671.723 207.016C669.891 205.428 667.142 204.634 663.477 204.634H647.748V222.897H663.477Z" fill="white"/>
<path d="M579.031 196.204H588.713V222.5C588.713 224.659 589.008 226.583 589.599 228.273C590.189 229.942 591.065 231.357 592.225 232.518C593.406 233.679 594.862 234.564 596.593 235.175C598.323 235.766 600.339 236.061 602.64 236.061C604.92 236.061 606.926 235.766 608.657 235.175C610.408 234.564 611.863 233.679 613.024 232.518C614.205 231.357 615.091 229.942 615.681 228.273C616.272 226.583 616.567 224.659 616.567 222.5V196.204H626.248V223.661C626.248 226.797 625.719 229.647 624.66 232.213C623.602 234.778 622.064 236.977 620.049 238.81C618.033 240.642 615.559 242.057 612.627 243.055C609.715 244.052 606.386 244.551 602.64 244.551C598.893 244.551 595.554 244.052 592.622 243.055C589.711 242.057 587.247 240.642 585.231 238.81C583.215 236.977 581.678 234.778 580.619 232.213C579.561 229.647 579.031 226.797 579.031 223.661V196.204Z" fill="white"/>
<path d="M515.012 219.63C515.012 216.27 515.643 213.134 516.905 210.223C518.168 207.291 520.01 204.746 522.433 202.587C524.856 200.429 527.829 198.729 531.351 197.487C534.894 196.245 538.946 195.624 543.507 195.624C545.156 195.624 546.805 195.716 548.455 195.899C550.124 196.062 551.763 196.326 553.372 196.693C555.001 197.059 556.579 197.528 558.106 198.098C559.653 198.648 561.119 199.309 562.504 200.083L558.045 207.413C557.21 206.924 556.263 206.487 555.204 206.1C554.146 205.693 553.005 205.357 551.784 205.092C550.582 204.807 549.33 204.593 548.027 204.451C546.744 204.308 545.451 204.237 544.148 204.237C541.135 204.237 538.447 204.624 536.085 205.397C533.723 206.151 531.728 207.22 530.099 208.604C528.47 209.968 527.228 211.607 526.373 213.521C525.518 215.435 525.09 217.532 525.09 219.813C525.09 222.175 525.538 224.343 526.434 226.318C527.33 228.293 528.603 229.993 530.252 231.419C531.901 232.844 533.897 233.964 536.238 234.778C538.58 235.572 541.196 235.969 544.087 235.969C546.388 235.969 548.495 235.715 550.409 235.206C552.323 234.676 553.993 233.933 555.418 232.976C556.843 232.019 558.004 230.869 558.9 229.525C559.796 228.161 560.386 226.634 560.671 224.944H543.996V216.973H569.376V217.003L569.406 216.973C569.915 219.416 570.068 221.798 569.864 224.119C569.681 226.42 569.152 228.599 568.276 230.655C567.421 232.691 566.24 234.564 564.733 236.275C563.227 237.985 561.425 239.461 559.327 240.703C557.23 241.925 554.848 242.882 552.181 243.574C549.513 244.246 546.592 244.582 543.415 244.582C538.977 244.582 534.996 243.931 531.474 242.627C527.972 241.324 524.999 239.543 522.555 237.283C520.112 235.023 518.239 232.376 516.936 229.342C515.653 226.308 515.012 223.071 515.012 219.63Z" fill="white"/>
<path d="M434.902 196.204H444.584L474.331 211.78V196.204H484.013V243.94H474.331V222.042L444.584 206.558V243.94H434.902V196.204Z" fill="white"/>
<path d="M375.922 196.204H385.604V222.5C385.604 224.659 385.899 226.583 386.489 228.273C387.08 229.942 387.955 231.357 389.116 232.518C390.297 233.679 391.753 234.564 393.483 235.175C395.214 235.766 397.23 236.061 399.53 236.061C401.811 236.061 403.816 235.766 405.547 235.175C407.298 234.564 408.754 233.679 409.915 232.518C411.096 231.357 411.981 229.942 412.572 228.273C413.162 226.583 413.457 224.659 413.457 222.5V196.204H423.139V223.661C423.139 226.797 422.61 229.647 421.551 232.213C420.492 234.778 418.955 236.977 416.939 238.81C414.923 240.642 412.45 242.057 409.518 243.055C406.606 244.052 403.277 244.551 399.53 244.551C395.784 244.551 392.445 244.052 389.513 243.055C386.601 242.057 384.138 240.642 382.122 238.81C380.106 236.977 378.569 234.778 377.51 232.213C376.451 229.647 375.922 226.797 375.922 223.661V196.204Z" fill="white"/>
<path d="M320.492 196.204H344.773C348.438 196.204 351.614 196.591 354.302 197.365C356.989 198.118 359.219 199.218 360.99 200.663C362.762 202.109 364.075 203.87 364.93 205.947C365.806 208.024 366.243 210.375 366.243 213.002C366.243 214.773 366.03 216.463 365.602 218.072C365.174 219.66 364.513 221.126 363.617 222.47C362.741 223.814 361.632 225.015 360.288 226.074C358.944 227.112 357.366 227.977 355.554 228.67L365.938 243.94H354.088L345.109 230.38H344.834L330.174 230.35V243.94H320.492V196.204ZM345.017 221.981C346.85 221.981 348.448 221.767 349.812 221.34C351.197 220.912 352.347 220.312 353.263 219.538C354.2 218.764 354.892 217.827 355.34 216.728C355.808 215.608 356.043 214.366 356.043 213.002C356.043 210.335 355.126 208.278 353.294 206.833C351.461 205.367 348.702 204.634 345.017 204.634H330.174V221.981H345.017Z" fill="white"/>
<path d="M279.718 196.204H289.98L313.07 243.94H302.899L299.082 235.908H271.197L267.502 243.94H257.301L279.718 196.204ZM295.264 227.937L284.941 206.252L274.893 227.937H295.264Z" fill="white"/>
<path d="M225.787 204.695H208.164V196.204H253.091V204.695H235.468V243.94H225.787V204.695Z" fill="white"/>
</svg>
