<svg width="1000" height="263" viewBox="0 0 1000 263" fill="none" xmlns="http://www.w3.org/2000/svg">
<rect x="60.582" y="133.2" width="872.229" height="128.752" stroke="white"/>
<path d="M935.861 54.1846C948.64 54.1846 959.821 57.2255 969.405 63.3076C979.051 69.3897 986.546 77.929 991.891 88.9258C997.297 99.9227 1000 112.794 1000 127.538C1000 142.16 997.297 154.939 991.891 165.874C986.546 176.809 979.051 185.318 969.405 191.4C959.821 197.483 948.64 200.523 935.861 200.523C935.003 200.523 934.151 200.508 933.307 200.48V180.926C934.145 180.965 934.996 180.987 935.861 180.987C945.568 180.987 953.555 178.499 959.821 173.522C966.088 168.546 970.726 162.003 973.736 153.894C976.747 145.784 978.252 136.999 978.252 127.538C978.252 118.077 976.747 109.261 973.736 101.09C970.726 92.9191 966.088 86.315 959.821 81.2773C953.555 76.2396 945.568 73.7207 935.861 73.7207C926.155 73.7207 918.168 76.2397 911.901 81.2773C905.635 86.315 900.997 92.9191 897.986 101.09C894.976 109.261 893.471 118.077 893.471 127.538C893.471 129.281 893.523 131.002 893.625 132.699H871.838C871.762 131.005 871.723 129.285 871.723 127.538C871.723 112.794 874.395 99.9227 879.74 88.9258C885.147 77.9289 892.642 69.3897 902.226 63.3076C911.871 57.2255 923.083 54.1846 935.861 54.1846Z" fill="white"/>
<path d="M838.522 132.698H816.774V56.0283H838.522V132.698ZM827.833 2.94824C832.072 2.94824 835.697 4.39189 838.707 7.2793C841.779 10.1667 843.314 13.6377 843.314 17.6924C843.314 21.7471 841.779 25.218 838.707 28.1055C835.697 30.9929 832.072 32.4375 827.833 32.4375C823.594 32.4375 819.939 30.9929 816.867 28.1055C813.857 25.218 812.352 21.7471 812.352 17.6924C812.352 13.6377 813.857 10.1667 816.867 7.2793C819.939 4.39196 823.594 2.94827 827.833 2.94824Z" fill="white"/>
<path d="M776.94 132.7H755.191V8.84668H776.94V132.7Z" fill="white"/>
<path d="M657.857 54.1846C670.636 54.1846 681.817 57.2255 691.401 63.3076C701.047 69.3897 708.542 77.929 713.887 88.9258C719.293 99.9227 721.996 112.794 721.996 127.538C721.996 129.285 721.956 131.005 721.879 132.699H700.094C700.196 131.002 700.248 129.281 700.248 127.538C700.248 118.077 698.743 109.261 695.732 101.09C692.722 92.9191 688.084 86.315 681.817 81.2773C675.551 76.2396 667.564 73.7207 657.857 73.7207C648.151 73.7207 640.164 76.2396 633.897 81.2773C627.631 86.315 622.993 92.9191 619.982 101.09C616.972 109.261 615.467 118.077 615.467 127.538C615.467 129.281 615.519 131.002 615.621 132.699H593.834C593.758 131.005 593.719 129.285 593.719 127.538C593.719 112.794 596.391 99.9227 601.736 88.9258C607.143 77.9289 614.638 69.3897 624.222 63.3076C633.867 57.2255 645.079 54.1846 657.857 54.1846Z" fill="white"/>
<path d="M562.066 0C567.411 0 571.773 0.429937 575.152 1.29004C578.531 2.15013 581.05 2.94832 582.709 3.68555L576.442 22.4854C575.337 22.1167 573.801 21.6554 571.835 21.1025C569.93 20.5496 567.412 20.2734 564.278 20.2734C557.09 20.2734 551.899 22.0853 548.704 25.71C545.571 29.3346 544.005 34.6489 544.005 41.6523V56.0283H575.705V74.459H544.005V132.699H522.257V74.459H499.402V56.0283H522.257V36.4922C522.257 28.3828 524.161 21.625 527.97 16.2188C531.779 10.8125 536.725 6.75785 542.807 4.05469C548.889 1.35156 555.309 2.80425e-05 562.066 0Z" fill="white"/>
<path d="M449.737 56.0283H479.964V74.459H449.737V132.698H427.989V74.459H406.609V56.0283H427.989V22.1162H449.737V56.0283Z" fill="white"/>
<path d="M372.323 53.8174C373.92 53.8174 375.917 53.8478 378.312 53.9092C380.708 53.9706 382.521 54.0636 383.75 54.1865V76.3027C383.013 76.1184 381.323 75.8422 378.682 75.4736C376.101 75.0436 373.367 74.8281 370.479 74.8281C363.599 74.8282 357.455 76.2717 352.049 79.1592C346.704 81.9852 342.465 85.9174 339.332 90.9551C336.26 95.9314 334.725 101.615 334.725 108.004V132.7H312.977V56.0293H333.987V77.4082H335.462C338.042 70.4048 342.711 64.7222 349.469 60.3604C356.227 55.9984 363.845 53.8174 372.323 53.8174Z" fill="white"/>
<path d="M215.643 54.1846C228.421 54.1846 239.603 57.2255 249.187 63.3076C258.832 69.3897 266.327 77.9289 271.672 88.9258C277.078 99.9227 279.781 112.794 279.781 127.538C279.781 129.285 279.741 131.005 279.664 132.699H257.879C257.981 131.002 258.033 129.281 258.033 127.538C258.033 118.077 256.528 109.261 253.518 101.09C250.507 92.9191 245.869 86.315 239.603 81.2773C233.336 76.2396 225.349 73.7207 215.643 73.7207C205.936 73.7207 197.949 76.2397 191.683 81.2773C185.416 86.315 180.778 92.9191 177.768 101.09C174.757 109.261 173.252 118.077 173.252 127.538C173.252 129.281 173.304 131.002 173.406 132.699H151.619C151.543 131.005 151.504 129.285 151.504 127.538C151.504 112.794 154.177 99.9227 159.521 88.9258C164.928 77.9289 172.423 69.3897 182.007 63.3076C191.652 57.2255 202.864 54.1846 215.643 54.1846Z" fill="white"/>
<path d="M64.5068 54.1846C76.4253 54.1846 86.931 57.1639 96.0234 63.123C105.116 69.0822 112.211 77.5295 117.311 88.4648C122.41 99.4004 124.96 112.303 124.96 127.17C124.96 129.044 124.92 130.887 124.84 132.699H103.024C103.148 130.769 103.212 128.803 103.212 126.801C103.212 116.848 101.675 107.879 98.6035 99.8926C95.5932 91.8445 91.0166 85.4855 84.873 80.8164C78.7909 76.0859 71.1421 73.7207 61.9268 73.7207C53.0801 73.7207 45.6466 75.9635 39.626 80.4482C33.6054 84.8715 29.0591 91.0761 25.9873 99.0625C22.9155 106.988 21.3799 116.234 21.3799 126.801C21.3799 137.49 22.9459 146.921 26.0791 155.092C29.2123 163.201 33.7899 169.56 39.8105 174.168C45.4017 178.39 52.1587 180.649 60.0811 180.95V200.372C53.1878 199.923 47.5055 198.469 43.0352 196.008C37.5676 192.936 33.359 189.465 30.4102 185.595C27.4613 181.663 25.1881 178.406 23.5908 175.826H21.748V250.654H0V56.0273H21.0107V78.5127H23.5908C25.1881 76.0553 27.4006 72.9223 30.2266 69.1133C33.114 65.2429 37.2303 61.8023 42.5752 58.792C47.9814 55.7204 55.2918 54.1846 64.5068 54.1846Z" fill="white"/>
<path d="M768.962 174.014H779.606L803.554 223.526H793.006L789.046 215.195H760.124L756.291 223.526H745.711L768.962 174.014ZM785.086 206.927L774.379 184.436L763.957 206.927H785.086Z" fill="white"/>
<path d="M713.024 182.82H694.746V174.014H741.344V182.82H723.066V223.526H713.024V182.82Z" fill="white"/>
<path d="M638.742 174.014H664.845C668.646 174.014 671.94 174.425 674.728 175.249C677.516 176.073 679.828 177.266 681.665 178.829C683.503 180.37 684.865 182.26 685.752 184.499C686.66 186.738 687.114 189.261 687.114 192.07C687.114 194.71 686.67 197.149 685.783 199.387C684.897 201.626 683.534 203.569 681.697 205.216C679.881 206.842 677.579 208.12 674.791 209.049C672.004 209.957 668.709 210.411 664.908 210.411L648.784 210.38V223.526H638.742V174.014ZM665.098 201.7C666.999 201.7 668.656 201.478 670.071 201.035C671.507 200.57 672.701 199.926 673.651 199.102C674.622 198.258 675.34 197.244 675.805 196.061C676.291 194.858 676.534 193.527 676.534 192.07C676.534 189.134 675.573 186.854 673.651 185.228C671.75 183.58 668.899 182.757 665.098 182.757H648.784V201.7H665.098Z" fill="white"/>
<path d="M577.508 174.014H587.55V201.288C587.55 203.527 587.856 205.522 588.468 207.275C589.081 209.007 589.989 210.475 591.193 211.678C592.417 212.882 593.927 213.801 595.722 214.434C597.518 215.047 599.608 215.353 601.995 215.353C604.36 215.353 606.44 215.047 608.235 214.434C610.051 213.801 611.561 212.882 612.765 211.678C613.99 210.475 614.909 209.007 615.521 207.275C616.133 205.522 616.44 203.527 616.44 201.288V174.014H626.481V202.492C626.481 205.744 625.932 208.701 624.834 211.362C623.736 214.023 622.142 216.303 620.051 218.204C617.96 220.105 615.394 221.572 612.353 222.607C609.333 223.642 605.88 224.159 601.995 224.159C598.109 224.159 594.645 223.642 591.604 222.607C588.584 221.572 586.029 220.105 583.938 218.204C581.848 216.303 580.253 214.023 579.155 211.362C578.057 208.701 577.508 205.744 577.508 202.492V174.014Z" fill="white"/>
<path d="M511.109 198.311C511.109 194.826 511.764 191.574 513.073 188.554C514.383 185.513 516.294 182.873 518.807 180.635C521.32 178.396 524.403 176.633 528.057 175.344C531.732 174.056 535.934 173.412 540.665 173.412C542.375 173.412 544.086 173.507 545.796 173.697C547.528 173.866 549.228 174.141 550.897 174.521C552.586 174.901 554.223 175.387 555.807 175.978C557.412 176.548 558.932 177.235 560.368 178.037L555.743 185.64C554.877 185.133 553.895 184.679 552.797 184.278C551.699 183.855 550.516 183.507 549.249 183.232C548.003 182.937 546.704 182.715 545.353 182.567C544.022 182.419 542.681 182.345 541.33 182.345C538.204 182.345 535.417 182.746 532.967 183.549C530.517 184.33 528.448 185.439 526.758 186.875C525.069 188.29 523.78 189.99 522.893 191.975C522.006 193.96 521.563 196.136 521.563 198.501C521.563 200.951 522.028 203.2 522.957 205.248C523.886 207.297 525.206 209.06 526.917 210.538C528.627 212.017 530.697 213.178 533.125 214.023C535.554 214.846 538.268 215.258 541.266 215.258C543.653 215.258 545.839 214.994 547.824 214.466C549.809 213.917 551.541 213.146 553.019 212.154C554.497 211.161 555.701 209.968 556.63 208.574C557.559 207.159 558.172 205.575 558.467 203.823H541.171V195.555H567.496V195.586L567.527 195.555C568.055 198.089 568.214 200.56 568.002 202.967C567.812 205.354 567.263 207.613 566.355 209.746C565.468 211.858 564.243 213.801 562.681 215.575C561.118 217.349 559.249 218.88 557.074 220.168C554.898 221.435 552.428 222.428 549.661 223.146C546.895 223.843 543.864 224.191 540.57 224.191C535.966 224.191 531.837 223.516 528.184 222.164C524.551 220.812 521.468 218.965 518.934 216.62C516.4 214.276 514.457 211.531 513.105 208.384C511.775 205.238 511.109 201.88 511.109 198.311Z" fill="white"/>
<path d="M428.02 174.014H438.061L468.915 190.169V174.014H478.957V223.526H468.915V200.813L438.061 184.752V223.526H428.02V174.014Z" fill="white"/>
<path d="M366.844 174.014H376.886V201.288C376.886 203.527 377.192 205.522 377.804 207.275C378.417 209.007 379.325 210.475 380.528 211.678C381.753 212.882 383.263 213.801 385.058 214.434C386.853 215.047 388.944 215.353 391.331 215.353C393.696 215.353 395.776 215.047 397.571 214.434C399.387 213.801 400.897 212.882 402.101 211.678C403.326 210.475 404.245 209.007 404.857 207.275C405.469 205.522 405.776 203.527 405.776 201.288V174.014H415.817V202.492C415.817 205.744 415.268 208.701 414.17 211.362C413.072 214.023 411.478 216.303 409.387 218.204C407.296 220.105 404.73 221.572 401.689 222.607C398.669 223.642 395.216 224.159 391.331 224.159C387.445 224.159 383.981 223.642 380.94 222.607C377.92 221.572 375.365 220.105 373.274 218.204C371.184 216.303 369.589 214.023 368.491 211.362C367.393 208.701 366.844 205.744 366.844 202.492V174.014Z" fill="white"/>
<path d="M309.352 174.014H334.535C338.337 174.014 341.631 174.415 344.419 175.217C347.206 175.999 349.519 177.139 351.356 178.639C353.193 180.138 354.556 181.965 355.443 184.119C356.351 186.273 356.805 188.712 356.805 191.436C356.805 193.274 356.583 195.027 356.139 196.695C355.696 198.342 355.01 199.863 354.08 201.256C353.172 202.65 352.021 203.896 350.628 204.994C349.234 206.071 347.597 206.969 345.718 207.687L356.488 223.526H344.197L334.884 209.461H334.599L319.393 209.429V223.526H309.352V174.014ZM334.789 200.75C336.689 200.75 338.347 200.528 339.762 200.084C341.198 199.641 342.391 199.018 343.342 198.215C344.313 197.413 345.031 196.441 345.496 195.301C345.981 194.14 346.224 192.851 346.224 191.436C346.224 188.67 345.274 186.537 343.373 185.037C341.473 183.517 338.611 182.757 334.789 182.757H319.393V200.75H334.789Z" fill="white"/>
<path d="M267.064 174.014H277.708L301.656 223.526H291.107L287.148 215.195H258.226L254.393 223.526H243.812L267.064 174.014ZM283.188 206.927L272.481 184.436L262.059 206.927H283.188Z" fill="white"/>
<path d="M211.126 182.82H192.848V174.014H239.445V182.82H221.167V223.526H211.126V182.82Z" fill="white"/>
</svg>
