<svg width="547" height="200" viewBox="0 0 547 200" fill="none" xmlns="http://www.w3.org/2000/svg">
<rect x="98.1484" width="211.111" height="55.5556" rx="16" fill="white"/>
<path d="M287.785 25.3551H293.607V26.644H287.785V25.3551ZM291.452 36.1106H289.941V21.9551H291.452V36.1106Z" fill="#0D1117"/>
<path d="M278.037 36.1118H276.504V25.3563H277.837L278.059 27.2229C278.415 26.5415 278.919 26.0155 279.571 25.6452C280.237 25.26 280.963 25.0674 281.748 25.0674C283.23 25.0674 284.297 25.4748 284.948 26.2896C285.6 27.1044 285.926 28.1859 285.926 29.5341V36.1118H284.393V29.8674C284.393 28.6081 284.126 27.7266 283.593 27.2229C283.074 26.7192 282.371 26.4674 281.482 26.4674C280.385 26.4674 279.534 26.8378 278.926 27.5785C278.334 28.3044 278.037 29.2748 278.037 30.4896V36.1118Z" fill="#0D1117"/>
<path d="M269.274 36.3785C268.237 36.3785 267.319 36.1415 266.519 35.6674C265.734 35.1933 265.119 34.5341 264.674 33.6896C264.23 32.8452 264.008 31.86 264.008 30.734C264.008 29.6229 264.223 28.6452 264.652 27.8007C265.097 26.9415 265.704 26.2748 266.474 25.8007C267.245 25.3118 268.141 25.0674 269.163 25.0674C270.141 25.0674 270.993 25.2822 271.719 25.7118C272.46 26.1415 273.03 26.7415 273.43 27.5118C273.845 28.2674 274.052 29.1563 274.052 30.1785V30.934H264.852L264.897 29.8229H272.519C272.519 28.7859 272.208 27.9563 271.586 27.334C270.978 26.697 270.171 26.3785 269.163 26.3785C268.423 26.3785 267.771 26.5489 267.208 26.8896C266.66 27.2303 266.237 27.7192 265.941 28.3563C265.645 28.9785 265.497 29.7192 265.497 30.5785C265.497 32.0007 265.823 33.1044 266.474 33.8896C267.141 34.6748 268.082 35.0674 269.297 35.0674C270.171 35.0674 270.889 34.8822 271.452 34.5118C272.015 34.1415 272.393 33.6007 272.586 32.8896H274.052C273.771 34.0155 273.223 34.8822 272.408 35.4896C271.593 36.0822 270.549 36.3785 269.274 36.3785Z" fill="#0D1117"/>
<path d="M247.592 36.1118H246.059V25.3563H247.392L247.614 27.3785L247.392 27.3118C247.614 26.6303 248.029 26.0896 248.636 25.6896C249.259 25.2748 249.985 25.0674 250.814 25.0674C251.777 25.0674 252.577 25.334 253.214 25.8674C253.866 26.3859 254.281 27.097 254.459 28.0007H254.125C254.273 27.097 254.673 26.3859 255.325 25.8674C255.992 25.334 256.822 25.0674 257.814 25.0674C258.97 25.0674 259.903 25.4229 260.614 26.134C261.325 26.8452 261.681 27.8229 261.681 29.0674V36.1118H260.192V29.3785C260.192 28.46 259.955 27.7415 259.481 27.2229C259.007 26.7044 258.355 26.4452 257.525 26.4452C256.933 26.4452 256.422 26.5859 255.992 26.8674C255.562 27.134 255.229 27.497 254.992 27.9563C254.77 28.4155 254.659 28.9192 254.659 29.4674V36.1118H253.147V29.3563C253.147 28.4378 252.903 27.7266 252.414 27.2229C251.94 26.7192 251.296 26.4674 250.481 26.4674C249.888 26.4674 249.37 26.6007 248.925 26.8674C248.496 27.134 248.162 27.497 247.925 27.9563C247.703 28.4007 247.592 28.897 247.592 29.4452V36.1118Z" fill="#0D1117"/>
<path d="M233.082 40.8007V25.3563H234.415L234.571 27.534C234.956 26.7044 235.504 26.0896 236.215 25.6896C236.941 25.2748 237.749 25.0674 238.638 25.0674C239.675 25.0674 240.564 25.3118 241.304 25.8007C242.045 26.2896 242.615 26.9563 243.015 27.8007C243.415 28.6452 243.615 29.6081 243.615 30.6896C243.615 31.7711 243.415 32.7415 243.015 33.6007C242.63 34.46 242.067 35.1415 241.326 35.6452C240.601 36.134 239.704 36.3785 238.638 36.3785C237.719 36.3785 236.912 36.1859 236.215 35.8007C235.519 35.4007 234.986 34.8155 234.615 34.0452V40.8007H233.082ZM234.638 30.734C234.638 31.5489 234.786 32.2822 235.082 32.9341C235.378 33.5711 235.801 34.0748 236.349 34.4452C236.912 34.8155 237.586 35.0007 238.371 35.0007C239.156 35.0007 239.823 34.8155 240.371 34.4452C240.919 34.0748 241.334 33.5711 241.615 32.9341C241.912 32.2822 242.06 31.5489 242.06 30.734C242.06 29.9044 241.912 29.1711 241.615 28.534C241.334 27.8822 240.919 27.3785 240.371 27.0229C239.823 26.6526 239.156 26.4674 238.371 26.4674C237.586 26.4674 236.912 26.6526 236.349 27.0229C235.801 27.3785 235.378 27.8822 235.082 28.534C234.786 29.1711 234.638 29.9044 234.638 30.734Z" fill="#0D1117"/>
<path d="M219.695 30.734C219.695 29.6229 219.932 28.6452 220.406 27.8007C220.88 26.9563 221.532 26.2896 222.362 25.8007C223.192 25.3118 224.125 25.0674 225.162 25.0674C226.214 25.0674 227.147 25.3118 227.962 25.8007C228.792 26.2896 229.443 26.9563 229.918 27.8007C230.392 28.6452 230.629 29.6229 230.629 30.734C230.629 31.8155 230.392 32.7859 229.918 33.6452C229.443 34.4896 228.792 35.1563 227.962 35.6452C227.147 36.134 226.214 36.3785 225.162 36.3785C224.125 36.3785 223.192 36.134 222.362 35.6452C221.532 35.1563 220.88 34.4896 220.406 33.6452C219.932 32.7859 219.695 31.8155 219.695 30.734ZM221.251 30.7118C221.251 31.5563 221.414 32.3044 221.74 32.9563C222.08 33.5933 222.54 34.097 223.118 34.4674C223.71 34.8229 224.392 35.0007 225.162 35.0007C225.932 35.0007 226.606 34.8229 227.184 34.4674C227.777 34.097 228.236 33.5933 228.562 32.9563C228.903 32.3044 229.073 31.5563 229.073 30.7118C229.073 29.8822 228.903 29.1489 228.562 28.5118C228.236 27.8748 227.777 27.3711 227.184 27.0007C226.606 26.6303 225.932 26.4452 225.162 26.4452C224.392 26.4452 223.71 26.6303 223.118 27.0007C222.54 27.3711 222.08 27.8748 221.74 28.5118C221.414 29.1489 221.251 29.8822 221.251 30.7118Z" fill="#0D1117"/>
<path d="M217.19 36.1111H215.656V19.9111H217.19V36.1111Z" fill="#0D1117"/>
<path d="M208.36 36.3785C207.323 36.3785 206.405 36.1415 205.605 35.6674C204.82 35.1933 204.205 34.5341 203.76 33.6896C203.316 32.8452 203.094 31.86 203.094 30.734C203.094 29.6229 203.309 28.6452 203.738 27.8007C204.183 26.9415 204.79 26.2748 205.56 25.8007C206.331 25.3118 207.227 25.0674 208.249 25.0674C209.227 25.0674 210.079 25.2822 210.805 25.7118C211.546 26.1415 212.116 26.7415 212.516 27.5118C212.931 28.2674 213.138 29.1563 213.138 30.1785V30.934H203.938L203.983 29.8229H211.605C211.605 28.7859 211.294 27.9563 210.672 27.334C210.064 26.697 209.257 26.3785 208.249 26.3785C207.509 26.3785 206.857 26.5489 206.294 26.8896C205.746 27.2303 205.323 27.7192 205.027 28.3563C204.731 28.9785 204.583 29.7192 204.583 30.5785C204.583 32.0007 204.909 33.1044 205.56 33.8896C206.227 34.6748 207.168 35.0674 208.383 35.0674C209.257 35.0674 209.975 34.8822 210.538 34.5118C211.101 34.1415 211.479 33.6007 211.672 32.8896H213.138C212.857 34.0155 212.309 34.8822 211.494 35.4896C210.679 36.0822 209.634 36.3785 208.36 36.3785Z" fill="#0D1117"/>
<path d="M196.517 36.111L192.117 25.3555H193.762L196.539 32.2888C196.702 32.6888 196.843 33.074 196.962 33.4444C197.095 33.7999 197.213 34.1555 197.317 34.511C197.421 34.1407 197.539 33.7777 197.673 33.4221C197.806 33.0518 197.954 32.674 198.117 32.2888L200.939 25.3555H202.517L198.051 36.111H196.517Z" fill="#0D1117"/>
<path d="M186.591 36.3785C185.554 36.3785 184.635 36.1415 183.835 35.6674C183.05 35.1933 182.435 34.5341 181.991 33.6896C181.546 32.8452 181.324 31.86 181.324 30.734C181.324 29.6229 181.539 28.6452 181.969 27.8007C182.413 26.9415 183.021 26.2748 183.791 25.8007C184.561 25.3118 185.458 25.0674 186.48 25.0674C187.458 25.0674 188.309 25.2822 189.035 25.7118C189.776 26.1415 190.346 26.7415 190.746 27.5118C191.161 28.2674 191.369 29.1563 191.369 30.1785V30.934H182.169L182.213 29.8229H189.835C189.835 28.7859 189.524 27.9563 188.902 27.334C188.295 26.697 187.487 26.3785 186.48 26.3785C185.739 26.3785 185.087 26.5489 184.524 26.8896C183.976 27.2303 183.554 27.7192 183.258 28.3563C182.961 28.9785 182.813 29.7192 182.813 30.5785C182.813 32.0007 183.139 33.1044 183.791 33.8896C184.458 34.6748 185.398 35.0674 186.613 35.0674C187.487 35.0674 188.206 34.8822 188.769 34.5118C189.332 34.1415 189.709 33.6007 189.902 32.8896H191.369C191.087 34.0155 190.539 34.8822 189.724 35.4896C188.909 36.0822 187.865 36.3785 186.591 36.3785Z" fill="#0D1117"/>
<path d="M171.571 36.1113H166.727V20.2002H171.527C173.127 20.2002 174.527 20.5335 175.727 21.2002C176.927 21.8669 177.86 22.8002 178.527 24.0002C179.193 25.1854 179.527 26.5706 179.527 28.1557C179.527 29.7409 179.193 31.1335 178.527 32.3335C177.875 33.5187 176.949 34.4446 175.749 35.1113C174.564 35.778 173.171 36.1113 171.571 36.1113ZM168.327 20.9558V35.3558L167.593 34.6446H171.504C172.808 34.6446 173.934 34.378 174.882 33.8446C175.83 33.3113 176.564 32.5632 177.082 31.6002C177.615 30.6224 177.882 29.4743 177.882 28.1557C177.882 26.8372 177.615 25.6891 177.082 24.7113C176.564 23.7335 175.823 22.9854 174.86 22.4669C173.912 21.9335 172.778 21.6669 171.46 21.6669H167.593L168.327 20.9558Z" fill="#0D1117"/>
<path d="M148.583 36.1111H147.25V19.9111H148.783V27.4445C149.154 26.6445 149.687 26.0519 150.383 25.6667C151.094 25.2667 151.909 25.0667 152.828 25.0667C153.88 25.0667 154.769 25.3185 155.494 25.8222C156.235 26.3111 156.798 26.9852 157.183 27.8445C157.583 28.7037 157.783 29.6741 157.783 30.7556C157.783 31.8222 157.583 32.7852 157.183 33.6445C156.783 34.4889 156.213 35.1556 155.472 35.6445C154.731 36.1334 153.835 36.3778 152.783 36.3778C151.894 36.3778 151.094 36.1778 150.383 35.7778C149.672 35.363 149.124 34.7408 148.739 33.9111L148.583 36.1111ZM148.806 30.7111C148.806 31.5408 148.954 32.2815 149.25 32.9334C149.546 33.5704 149.969 34.0741 150.517 34.4445C151.08 34.8 151.754 34.9778 152.539 34.9778C153.324 34.9778 153.991 34.8 154.539 34.4445C155.087 34.0741 155.502 33.5704 155.783 32.9334C156.08 32.2815 156.228 31.5408 156.228 30.7111C156.228 29.8815 156.08 29.1482 155.783 28.5111C155.502 27.8741 155.087 27.3704 154.539 27C153.991 26.6297 153.324 26.4445 152.539 26.4445C151.754 26.4445 151.08 26.6297 150.517 27C149.969 27.3704 149.546 27.8741 149.25 28.5111C148.954 29.1482 148.806 29.8815 148.806 30.7111Z" fill="#0D1117"/>
<path d="M140.021 36.3785C138.984 36.3785 138.065 36.1415 137.265 35.6674C136.48 35.1933 135.865 34.5341 135.421 33.6896C134.976 32.8452 134.754 31.86 134.754 30.734C134.754 29.6229 134.969 28.6452 135.398 27.8007C135.843 26.9415 136.45 26.2748 137.221 25.8007C137.991 25.3118 138.887 25.0674 139.909 25.0674C140.887 25.0674 141.739 25.2822 142.465 25.7118C143.206 26.1415 143.776 26.7415 144.176 27.5118C144.591 28.2674 144.798 29.1563 144.798 30.1785V30.934H135.598L135.643 29.8229H143.265C143.265 28.7859 142.954 27.9563 142.332 27.334C141.724 26.697 140.917 26.3785 139.909 26.3785C139.169 26.3785 138.517 26.5489 137.954 26.8896C137.406 27.2303 136.984 27.7192 136.687 28.3563C136.391 28.9785 136.243 29.7192 136.243 30.5785C136.243 32.0007 136.569 33.1044 137.221 33.8896C137.887 34.6748 138.828 35.0674 140.043 35.0674C140.917 35.0674 141.635 34.8822 142.198 34.5118C142.761 34.1415 143.139 33.6007 143.332 32.8896H144.798C144.517 34.0155 143.969 34.8822 143.154 35.4896C142.339 36.0822 141.295 36.3785 140.021 36.3785Z" fill="#0D1117"/>
<path d="M118.472 36.1113L113.738 20.2002H115.405L118.627 31.1335C118.746 31.5187 118.849 31.9187 118.938 32.3335C119.042 32.7483 119.146 33.2224 119.249 33.7558C119.383 33.178 119.509 32.6965 119.627 32.3113C119.746 31.9113 119.864 31.5187 119.983 31.1335L123.449 20.2002H125.116L128.583 31.1335C128.701 31.5335 128.82 31.9483 128.938 32.378C129.057 32.7928 129.175 33.252 129.294 33.7558C129.412 33.1483 129.523 32.6372 129.627 32.2224C129.731 31.8076 129.827 31.452 129.916 31.1558L133.205 20.2002H134.827L130.049 36.1113H128.538L124.272 22.6002L120.005 36.1113H118.472Z" fill="#0D1117"/>
<rect x="324.074" width="205.556" height="55.5556" rx="16" fill="white"/>
<path d="M508.461 25.3551H514.283V26.644H508.461V25.3551ZM512.128 36.1106H510.616V21.9551H512.128V36.1106Z" fill="#0D1117"/>
<path d="M498.713 36.1118H497.18V25.3563H498.513L498.735 27.2229C499.091 26.5415 499.594 26.0155 500.246 25.6452C500.913 25.26 501.639 25.0674 502.424 25.0674C503.906 25.0674 504.972 25.4748 505.624 26.2896C506.276 27.1044 506.602 28.1859 506.602 29.5341V36.1118H505.069V29.8674C505.069 28.6081 504.802 27.7266 504.269 27.2229C503.75 26.7192 503.046 26.4674 502.157 26.4674C501.061 26.4674 500.209 26.8378 499.602 27.5785C499.009 28.3044 498.713 29.2748 498.713 30.4896V36.1118Z" fill="#0D1117"/>
<path d="M489.95 36.3785C488.913 36.3785 487.995 36.1415 487.195 35.6674C486.41 35.1933 485.795 34.5341 485.35 33.6896C484.906 32.8452 484.684 31.86 484.684 30.734C484.684 29.6229 484.898 28.6452 485.328 27.8007C485.772 26.9415 486.38 26.2748 487.15 25.8007C487.921 25.3118 488.817 25.0674 489.839 25.0674C490.817 25.0674 491.669 25.2822 492.395 25.7118C493.135 26.1415 493.706 26.7415 494.106 27.5118C494.521 28.2674 494.728 29.1563 494.728 30.1785V30.934H485.528L485.572 29.8229H493.195C493.195 28.7859 492.884 27.9563 492.261 27.334C491.654 26.697 490.847 26.3785 489.839 26.3785C489.098 26.3785 488.447 26.5489 487.884 26.8896C487.335 27.2303 486.913 27.7192 486.617 28.3563C486.321 28.9785 486.172 29.7192 486.172 30.5785C486.172 32.0007 486.498 33.1044 487.15 33.8896C487.817 34.6748 488.758 35.0674 489.972 35.0674C490.847 35.0674 491.565 34.8822 492.128 34.5118C492.691 34.1415 493.069 33.6007 493.261 32.8896H494.728C494.447 34.0155 493.898 34.8822 493.084 35.4896C492.269 36.0822 491.224 36.3785 489.95 36.3785Z" fill="#0D1117"/>
<path d="M468.264 36.1118H466.73V25.3563H468.064L468.286 27.3785L468.064 27.3118C468.286 26.6303 468.701 26.0896 469.308 25.6896C469.93 25.2748 470.656 25.0674 471.486 25.0674C472.449 25.0674 473.249 25.334 473.886 25.8674C474.538 26.3859 474.953 27.097 475.13 28.0007H474.797C474.945 27.097 475.345 26.3859 475.997 25.8674C476.664 25.334 477.493 25.0674 478.486 25.0674C479.642 25.0674 480.575 25.4229 481.286 26.134C481.997 26.8452 482.353 27.8229 482.353 29.0674V36.1118H480.864V29.3785C480.864 28.46 480.627 27.7415 480.153 27.2229C479.679 26.7044 479.027 26.4452 478.197 26.4452C477.605 26.4452 477.093 26.5859 476.664 26.8674C476.234 27.134 475.901 27.497 475.664 27.9563C475.442 28.4155 475.33 28.9192 475.33 29.4674V36.1118H473.819V29.3563C473.819 28.4378 473.575 27.7266 473.086 27.2229C472.612 26.7192 471.968 26.4674 471.153 26.4674C470.56 26.4674 470.042 26.6007 469.597 26.8674C469.168 27.134 468.834 27.497 468.597 27.9563C468.375 28.4007 468.264 28.897 468.264 29.4452V36.1118Z" fill="#0D1117"/>
<path d="M453.754 40.8007V25.3563H455.087L455.243 27.534C455.628 26.7044 456.176 26.0896 456.887 25.6896C457.613 25.2748 458.421 25.0674 459.309 25.0674C460.346 25.0674 461.235 25.3118 461.976 25.8007C462.717 26.2896 463.287 26.9563 463.687 27.8007C464.087 28.6452 464.287 29.6081 464.287 30.6896C464.287 31.7711 464.087 32.7415 463.687 33.6007C463.302 34.46 462.739 35.1415 461.998 35.6452C461.272 36.134 460.376 36.3785 459.309 36.3785C458.391 36.3785 457.584 36.1859 456.887 35.8007C456.191 35.4007 455.658 34.8155 455.287 34.0452V40.8007H453.754ZM455.309 30.734C455.309 31.5489 455.458 32.2822 455.754 32.9341C456.05 33.5711 456.472 34.0748 457.021 34.4452C457.584 34.8155 458.258 35.0007 459.043 35.0007C459.828 35.0007 460.495 34.8155 461.043 34.4452C461.591 34.0748 462.006 33.5711 462.287 32.9341C462.584 32.2822 462.732 31.5489 462.732 30.734C462.732 29.9044 462.584 29.1711 462.287 28.534C462.006 27.8822 461.591 27.3785 461.043 27.0229C460.495 26.6526 459.828 26.4674 459.043 26.4674C458.258 26.4674 457.584 26.6526 457.021 27.0229C456.472 27.3785 456.05 27.8822 455.754 28.534C455.458 29.1711 455.309 29.9044 455.309 30.734Z" fill="#0D1117"/>
<path d="M440.367 30.734C440.367 29.6229 440.604 28.6452 441.078 27.8007C441.552 26.9563 442.204 26.2896 443.034 25.8007C443.863 25.3118 444.797 25.0674 445.834 25.0674C446.886 25.0674 447.819 25.3118 448.634 25.8007C449.463 26.2896 450.115 26.9563 450.589 27.8007C451.063 28.6452 451.301 29.6229 451.301 30.734C451.301 31.8155 451.063 32.7859 450.589 33.6452C450.115 34.4896 449.463 35.1563 448.634 35.6452C447.819 36.134 446.886 36.3785 445.834 36.3785C444.797 36.3785 443.863 36.134 443.034 35.6452C442.204 35.1563 441.552 34.4896 441.078 33.6452C440.604 32.7859 440.367 31.8155 440.367 30.734ZM441.923 30.7118C441.923 31.5563 442.086 32.3044 442.412 32.9563C442.752 33.5933 443.212 34.097 443.789 34.4674C444.382 34.8229 445.063 35.0007 445.834 35.0007C446.604 35.0007 447.278 34.8229 447.856 34.4674C448.449 34.097 448.908 33.5933 449.234 32.9563C449.575 32.3044 449.745 31.5563 449.745 30.7118C449.745 29.8822 449.575 29.1489 449.234 28.5118C448.908 27.8748 448.449 27.3711 447.856 27.0007C447.278 26.6303 446.604 26.4452 445.834 26.4452C445.063 26.4452 444.382 26.6303 443.789 27.0007C443.212 27.3711 442.752 27.8748 442.412 28.5118C442.086 29.1489 441.923 29.8822 441.923 30.7118Z" fill="#0D1117"/>
<path d="M437.865 36.1111H436.332V19.9111H437.865V36.1111Z" fill="#0D1117"/>
<path d="M429.032 36.3785C427.995 36.3785 427.077 36.1415 426.277 35.6674C425.492 35.1933 424.877 34.5341 424.432 33.6896C423.988 32.8452 423.766 31.86 423.766 30.734C423.766 29.6229 423.98 28.6452 424.41 27.8007C424.855 26.9415 425.462 26.2748 426.232 25.8007C427.003 25.3118 427.899 25.0674 428.921 25.0674C429.899 25.0674 430.751 25.2822 431.477 25.7118C432.217 26.1415 432.788 26.7415 433.188 27.5118C433.603 28.2674 433.81 29.1563 433.81 30.1785V30.934H424.61L424.655 29.8229H432.277C432.277 28.7859 431.966 27.9563 431.343 27.334C430.736 26.697 429.929 26.3785 428.921 26.3785C428.18 26.3785 427.529 26.5489 426.966 26.8896C426.417 27.2303 425.995 27.7192 425.699 28.3563C425.403 28.9785 425.255 29.7192 425.255 30.5785C425.255 32.0007 425.58 33.1044 426.232 33.8896C426.899 34.6748 427.84 35.0674 429.055 35.0674C429.929 35.0674 430.647 34.8822 431.21 34.5118C431.773 34.1415 432.151 33.6007 432.343 32.8896H433.81C433.529 34.0155 432.98 34.8822 432.166 35.4896C431.351 36.0822 430.306 36.3785 429.032 36.3785Z" fill="#0D1117"/>
<path d="M417.193 36.111L412.793 25.3555H414.437L417.215 32.2888C417.378 32.6888 417.519 33.074 417.637 33.4444C417.771 33.7999 417.889 34.1555 417.993 34.511C418.097 34.1407 418.215 33.7777 418.349 33.4221C418.482 33.0518 418.63 32.674 418.793 32.2888L421.615 25.3555H423.193L418.726 36.111H417.193Z" fill="#0D1117"/>
<path d="M407.267 36.3785C406.23 36.3785 405.311 36.1415 404.511 35.6674C403.726 35.1933 403.111 34.5341 402.667 33.6896C402.222 32.8452 402 31.86 402 30.734C402 29.6229 402.215 28.6452 402.644 27.8007C403.089 26.9415 403.696 26.2748 404.467 25.8007C405.237 25.3118 406.133 25.0674 407.156 25.0674C408.133 25.0674 408.985 25.2822 409.711 25.7118C410.452 26.1415 411.022 26.7415 411.422 27.5118C411.837 28.2674 412.044 29.1563 412.044 30.1785V30.934H402.844L402.889 29.8229H410.511C410.511 28.7859 410.2 27.9563 409.578 27.334C408.97 26.697 408.163 26.3785 407.156 26.3785C406.415 26.3785 405.763 26.5489 405.2 26.8896C404.652 27.2303 404.23 27.7192 403.933 28.3563C403.637 28.9785 403.489 29.7192 403.489 30.5785C403.489 32.0007 403.815 33.1044 404.467 33.8896C405.133 34.6748 406.074 35.0674 407.289 35.0674C408.163 35.0674 408.881 34.8822 409.444 34.5118C410.007 34.1415 410.385 33.6007 410.578 32.8896H412.044C411.763 34.0155 411.215 34.8822 410.4 35.4896C409.585 36.0822 408.541 36.3785 407.267 36.3785Z" fill="#0D1117"/>
<path d="M392.247 36.1113H387.402V20.2002H392.202C393.802 20.2002 395.202 20.5335 396.402 21.2002C397.602 21.8669 398.536 22.8002 399.202 24.0002C399.869 25.1854 400.202 26.5706 400.202 28.1557C400.202 29.7409 399.869 31.1335 399.202 32.3335C398.55 33.5187 397.625 34.4446 396.425 35.1113C395.239 35.778 393.847 36.1113 392.247 36.1113ZM389.002 20.9558V35.3558L388.269 34.6446H392.18C393.484 34.6446 394.61 34.378 395.558 33.8446C396.506 33.3113 397.239 32.5632 397.758 31.6002C398.291 30.6224 398.558 29.4743 398.558 28.1557C398.558 26.8372 398.291 25.6891 397.758 24.7113C397.239 23.7335 396.499 22.9854 395.536 22.4669C394.588 21.9335 393.454 21.6669 392.136 21.6669H388.269L389.002 20.9558Z" fill="#0D1117"/>
<path d="M367.926 40.8007V25.3563H369.259L369.415 27.534C369.8 26.7044 370.348 26.0896 371.059 25.6896C371.785 25.2748 372.592 25.0674 373.481 25.0674C374.518 25.0674 375.407 25.3118 376.148 25.8007C376.889 26.2896 377.459 26.9563 377.859 27.8007C378.259 28.6452 378.459 29.6081 378.459 30.6896C378.459 31.7711 378.259 32.7415 377.859 33.6007C377.474 34.46 376.911 35.1415 376.17 35.6452C375.444 36.134 374.548 36.3785 373.481 36.3785C372.563 36.3785 371.755 36.1859 371.059 35.8007C370.363 35.4007 369.829 34.8155 369.459 34.0452V40.8007H367.926ZM369.481 30.734C369.481 31.5489 369.629 32.2822 369.926 32.9341C370.222 33.5711 370.644 34.0748 371.192 34.4452C371.755 34.8155 372.429 35.0007 373.215 35.0007C374 35.0007 374.667 34.8155 375.215 34.4452C375.763 34.0748 376.178 33.5711 376.459 32.9341C376.755 32.2822 376.904 31.5489 376.904 30.734C376.904 29.9044 376.755 29.1711 376.459 28.534C376.178 27.8822 375.763 27.3785 375.215 27.0229C374.667 26.6526 374 26.4674 373.215 26.4674C372.429 26.4674 371.755 26.6526 371.192 27.0229C370.644 27.3785 370.222 27.8822 369.926 28.534C369.629 29.1711 369.481 29.9044 369.481 30.734Z" fill="#0D1117"/>
<path d="M354.949 40.8007V25.3563H356.283L356.438 27.534C356.823 26.7044 357.371 26.0896 358.083 25.6896C358.808 25.2748 359.616 25.0674 360.505 25.0674C361.542 25.0674 362.431 25.3118 363.171 25.8007C363.912 26.2896 364.483 26.9563 364.883 27.8007C365.283 28.6452 365.483 29.6081 365.483 30.6896C365.483 31.7711 365.283 32.7415 364.883 33.6007C364.497 34.46 363.934 35.1415 363.194 35.6452C362.468 36.134 361.571 36.3785 360.505 36.3785C359.586 36.3785 358.779 36.1859 358.083 35.8007C357.386 35.4007 356.853 34.8155 356.483 34.0452V40.8007H354.949ZM356.505 30.734C356.505 31.5489 356.653 32.2822 356.949 32.9341C357.246 33.5711 357.668 34.0748 358.216 34.4452C358.779 34.8155 359.453 35.0007 360.238 35.0007C361.023 35.0007 361.69 34.8155 362.238 34.4452C362.786 34.0748 363.201 33.5711 363.483 32.9341C363.779 32.2822 363.927 31.5489 363.927 30.734C363.927 29.9044 363.779 29.1711 363.483 28.534C363.201 27.8822 362.786 27.3785 362.238 27.0229C361.69 26.6526 361.023 26.4674 360.238 26.4674C359.453 26.4674 358.779 26.6526 358.216 27.0229C357.668 27.3785 357.246 27.8822 356.949 28.534C356.653 29.1711 356.505 29.9044 356.505 30.734Z" fill="#0D1117"/>
<path d="M340.958 36.1113H339.336L345.18 20.2002H347.158L353.069 36.1113H351.403L349.847 31.8891H342.514L340.958 36.1113ZM345.958 22.4446L343.003 30.4891H349.336L346.358 22.4446C346.329 22.3261 346.291 22.2076 346.247 22.0891C346.203 21.9706 346.173 21.8743 346.158 21.8002C346.143 21.8743 346.114 21.978 346.069 22.1113C346.04 22.2298 346.003 22.3409 345.958 22.4446Z" fill="#0D1117"/>
<rect x="361.109" y="72.2227" width="168.519" height="55.5556" rx="16" fill="white"/>
<path d="M505.844 105.311H507.31C507.31 105.934 507.533 106.43 507.977 106.8C508.422 107.156 509.014 107.334 509.755 107.334C510.584 107.334 511.229 107.171 511.688 106.845C512.162 106.504 512.399 106.045 512.399 105.467C512.399 105.022 512.273 104.667 512.022 104.4C511.77 104.134 511.325 103.919 510.688 103.756L508.844 103.289C507.91 103.052 507.214 102.689 506.755 102.2C506.296 101.711 506.066 101.104 506.066 100.378C506.066 99.7557 506.229 99.215 506.555 98.7557C506.881 98.2817 507.333 97.9187 507.91 97.6668C508.503 97.415 509.184 97.2891 509.955 97.2891C510.71 97.2891 511.37 97.4224 511.933 97.6891C512.496 97.9557 512.933 98.3335 513.244 98.8224C513.57 99.2965 513.74 99.8668 513.755 100.534H512.266C512.251 99.8965 512.036 99.4076 511.622 99.0668C511.207 98.7261 510.636 98.5557 509.91 98.5557C509.155 98.5557 508.57 98.7113 508.155 99.0224C507.755 99.3335 507.555 99.778 507.555 100.356C507.555 101.185 508.14 101.748 509.31 102.045L511.155 102.511C512.088 102.748 512.77 103.096 513.199 103.556C513.644 104.015 513.866 104.63 513.866 105.4C513.866 106.037 513.696 106.6 513.355 107.089C513.014 107.578 512.533 107.956 511.91 108.222C511.303 108.474 510.592 108.6 509.777 108.6C508.577 108.6 507.622 108.304 506.91 107.711C506.199 107.104 505.844 106.304 505.844 105.311Z" fill="#0D1117"/>
<path d="M499.528 108.6C498.491 108.6 497.573 108.363 496.773 107.889C495.988 107.415 495.373 106.756 494.928 105.911C494.484 105.067 494.262 104.082 494.262 102.956C494.262 101.845 494.477 100.867 494.906 100.022C495.351 99.1631 495.958 98.4965 496.728 98.0224C497.499 97.5335 498.395 97.2891 499.417 97.2891C500.395 97.2891 501.247 97.5039 501.973 97.9335C502.714 98.3631 503.284 98.9631 503.684 99.7335C504.099 100.489 504.306 101.378 504.306 102.4V103.156H495.106L495.151 102.045H502.773C502.773 101.008 502.462 100.178 501.839 99.5557C501.232 98.9187 500.425 98.6002 499.417 98.6002C498.677 98.6002 498.025 98.7705 497.462 99.1113C496.914 99.452 496.491 99.9409 496.195 100.578C495.899 101.2 495.751 101.941 495.751 102.8C495.751 104.222 496.077 105.326 496.728 106.111C497.395 106.896 498.336 107.289 499.551 107.289C500.425 107.289 501.143 107.104 501.706 106.734C502.269 106.363 502.647 105.822 502.839 105.111H504.306C504.025 106.237 503.477 107.104 502.662 107.711C501.847 108.304 500.802 108.6 499.528 108.6Z" fill="#0D1117"/>
<path d="M493.392 97.4441V98.8219H492.547C491.555 98.8219 490.762 99.1256 490.17 99.733C489.592 100.34 489.303 101.163 489.303 102.2V108.333H487.77V97.5775H489.214L489.347 99.6886H489.192C489.34 98.9923 489.703 98.4293 490.281 97.9997C490.858 97.5552 491.562 97.333 492.392 97.333C492.555 97.333 492.718 97.3404 492.881 97.3552C493.044 97.37 493.214 97.3997 493.392 97.4441Z" fill="#0D1117"/>
<path d="M474.383 102.956C474.383 101.845 474.62 100.867 475.094 100.022C475.568 99.178 476.22 98.5113 477.049 98.0224C477.879 97.5335 478.812 97.2891 479.849 97.2891C480.901 97.2891 481.835 97.5335 482.649 98.0224C483.479 98.5113 484.131 99.178 484.605 100.022C485.079 100.867 485.316 101.845 485.316 102.956C485.316 104.037 485.079 105.008 484.605 105.867C484.131 106.711 483.479 107.378 482.649 107.867C481.835 108.356 480.901 108.6 479.849 108.6C478.812 108.6 477.879 108.356 477.049 107.867C476.22 107.378 475.568 106.711 475.094 105.867C474.62 105.008 474.383 104.037 474.383 102.956ZM475.938 102.934C475.938 103.778 476.101 104.526 476.427 105.178C476.768 105.815 477.227 106.319 477.805 106.689C478.398 107.045 479.079 107.222 479.849 107.222C480.62 107.222 481.294 107.045 481.872 106.689C482.464 106.319 482.924 105.815 483.249 105.178C483.59 104.526 483.761 103.778 483.761 102.934C483.761 102.104 483.59 101.371 483.249 100.734C482.924 100.096 482.464 99.5928 481.872 99.2224C481.294 98.852 480.62 98.6668 479.849 98.6668C479.079 98.6668 478.398 98.852 477.805 99.2224C477.227 99.5928 476.768 100.096 476.427 100.734C476.101 101.371 475.938 102.104 475.938 102.934Z" fill="#0D1117"/>
<path d="M467.43 97.5777H473.252V98.8666H467.43V97.5777ZM471.096 108.333H469.585V94.1777H471.096V108.333Z" fill="#0D1117"/>
<path d="M455.485 96.555C455.485 95.6661 455.707 94.8958 456.152 94.2439C456.596 93.5773 457.218 93.0587 458.018 92.6884C458.818 92.318 459.752 92.1328 460.818 92.1328C461.781 92.1328 462.618 92.3032 463.33 92.6439C464.056 92.9847 464.633 93.4736 465.063 94.1106C465.493 94.7476 465.744 95.5106 465.818 96.3995H464.196C464.107 95.5106 463.767 94.8217 463.174 94.3328C462.581 93.8291 461.789 93.5773 460.796 93.5773C459.685 93.5773 458.789 93.8439 458.107 94.3773C457.426 94.9106 457.085 95.6291 457.085 96.5328C457.085 97.2291 457.293 97.8069 457.707 98.2661C458.122 98.7106 458.744 99.0365 459.574 99.2439L462.307 99.9106C463.552 100.207 464.493 100.711 465.13 101.422C465.767 102.118 466.085 103.007 466.085 104.088C466.085 104.992 465.863 105.785 465.418 106.466C464.974 107.148 464.344 107.674 463.53 108.044C462.715 108.414 461.759 108.599 460.663 108.599C459.641 108.599 458.73 108.429 457.93 108.088C457.144 107.748 456.522 107.259 456.063 106.622C455.618 105.985 455.359 105.237 455.285 104.377H456.93C456.974 105.222 457.337 105.896 458.018 106.399C458.7 106.888 459.581 107.133 460.663 107.133C461.833 107.133 462.759 106.866 463.441 106.333C464.137 105.799 464.485 105.081 464.485 104.177C464.485 103.451 464.278 102.866 463.863 102.422C463.463 101.962 462.833 101.629 461.974 101.422L459.285 100.755C458.041 100.459 457.093 99.9624 456.441 99.2661C455.804 98.555 455.485 97.6513 455.485 96.555Z" fill="#0D1117"/>
<path d="M439.704 97.5771L443.749 108.555L442.615 109.444L438.082 97.5771H439.704ZM438.393 113.022V111.755H439.571C439.882 111.755 440.186 111.725 440.482 111.666C440.793 111.622 441.075 111.496 441.326 111.288C441.593 111.081 441.808 110.733 441.971 110.244L446.571 97.5771H448.149L443.215 110.799C442.904 111.644 442.482 112.251 441.949 112.622C441.43 112.992 440.786 113.177 440.015 113.177C439.704 113.177 439.415 113.162 439.149 113.133C438.882 113.118 438.63 113.081 438.393 113.022Z" fill="#0D1117"/>
<path d="M431.688 97.5773H437.399V98.8661H431.688V97.5773ZM437.487 92.2217V93.5328C437.384 93.5328 437.25 93.5328 437.088 93.5328C436.925 93.5328 436.754 93.5328 436.576 93.5328C435.895 93.5328 435.436 93.7032 435.199 94.0439C434.976 94.3698 434.865 94.8513 434.865 95.4884V108.333H433.332V95.4884C433.332 94.6884 433.465 94.0439 433.732 93.555C433.999 93.0513 434.354 92.6884 434.799 92.4661C435.258 92.2439 435.762 92.1328 436.31 92.1328C436.502 92.1328 436.702 92.1402 436.91 92.155C437.117 92.1698 437.31 92.1921 437.487 92.2217Z" fill="#0D1117"/>
<path d="M428.155 108.333V97.5775H429.688V108.333H428.155ZM428.911 94.6219C428.6 94.6219 428.333 94.5108 428.111 94.2886C427.888 94.0663 427.777 93.7997 427.777 93.4886C427.777 93.1775 427.888 92.9108 428.111 92.6886C428.333 92.4515 428.6 92.333 428.911 92.333C429.222 92.333 429.488 92.4515 429.711 92.6886C429.948 92.9108 430.066 93.1775 430.066 93.4886C430.066 93.7997 429.948 94.0663 429.711 94.2886C429.488 94.5108 429.222 94.6219 428.911 94.6219Z" fill="#0D1117"/>
<path d="M415.176 113.022V97.578H416.509L416.665 99.7557C417.05 98.9261 417.598 98.3113 418.309 97.9113C419.035 97.4965 419.842 97.2891 420.731 97.2891C421.768 97.2891 422.657 97.5335 423.398 98.0224C424.139 98.5113 424.709 99.178 425.109 100.022C425.509 100.867 425.709 101.83 425.709 102.911C425.709 103.993 425.509 104.963 425.109 105.822C424.724 106.682 424.161 107.363 423.42 107.867C422.694 108.356 421.798 108.6 420.731 108.6C419.813 108.6 419.005 108.408 418.309 108.022C417.613 107.622 417.079 107.037 416.709 106.267V113.022H415.176ZM416.731 102.956C416.731 103.771 416.879 104.504 417.176 105.156C417.472 105.793 417.894 106.296 418.442 106.667C419.005 107.037 419.679 107.222 420.465 107.222C421.25 107.222 421.917 107.037 422.465 106.667C423.013 106.296 423.428 105.793 423.709 105.156C424.005 104.504 424.154 103.771 424.154 102.956C424.154 102.126 424.005 101.393 423.709 100.756C423.428 100.104 423.013 99.6002 422.465 99.2446C421.917 98.8742 421.25 98.6891 420.465 98.6891C419.679 98.6891 419.005 98.8742 418.442 99.2446C417.894 99.6002 417.472 100.104 417.176 100.756C416.879 101.393 416.731 102.126 416.731 102.956Z" fill="#0D1117"/>
<path d="M401.789 102.956C401.789 101.845 402.026 100.867 402.5 100.022C402.974 99.178 403.626 98.5113 404.456 98.0224C405.285 97.5335 406.219 97.2891 407.256 97.2891C408.308 97.2891 409.241 97.5335 410.056 98.0224C410.885 98.5113 411.537 99.178 412.011 100.022C412.485 100.867 412.722 101.845 412.722 102.956C412.722 104.037 412.485 105.008 412.011 105.867C411.537 106.711 410.885 107.378 410.056 107.867C409.241 108.356 408.308 108.6 407.256 108.6C406.219 108.6 405.285 108.356 404.456 107.867C403.626 107.378 402.974 106.711 402.5 105.867C402.026 105.008 401.789 104.037 401.789 102.956ZM403.345 102.934C403.345 103.778 403.508 104.526 403.834 105.178C404.174 105.815 404.634 106.319 405.211 106.689C405.804 107.045 406.485 107.222 407.256 107.222C408.026 107.222 408.7 107.045 409.278 106.689C409.871 106.319 410.33 105.815 410.656 105.178C410.996 104.526 411.167 103.778 411.167 102.934C411.167 102.104 410.996 101.371 410.656 100.734C410.33 100.096 409.871 99.5928 409.278 99.2224C408.7 98.852 408.026 98.6668 407.256 98.6668C406.485 98.6668 405.804 98.852 405.211 99.2224C404.634 99.5928 404.174 100.096 403.834 100.734C403.508 101.371 403.345 102.104 403.345 102.934Z" fill="#0D1117"/>
<path d="M391.6 108.311H390.066V92.1328H391.6V99.4439C391.94 98.7921 392.429 98.2736 393.066 97.8884C393.718 97.4884 394.496 97.2884 395.4 97.2884C396.822 97.2884 397.859 97.6958 398.511 98.5106C399.163 99.3254 399.489 100.407 399.489 101.755V108.333H397.955V102.088C397.955 101.244 397.837 100.577 397.6 100.088C397.363 99.5847 397.029 99.2291 396.6 99.0217C396.17 98.7995 395.674 98.6884 395.111 98.6884C394.34 98.6884 393.696 98.8587 393.178 99.1995C392.659 99.5402 392.266 99.9995 392 100.577C391.733 101.14 391.6 101.77 391.6 102.466V108.311Z" fill="#0D1117"/>
<path d="M376.927 96.555C376.927 95.6661 377.149 94.8958 377.593 94.2439C378.038 93.5773 378.66 93.0587 379.46 92.6884C380.26 92.318 381.193 92.1328 382.26 92.1328C383.223 92.1328 384.06 92.3032 384.771 92.6439C385.497 92.9847 386.075 93.4736 386.504 94.1106C386.934 94.7476 387.186 95.5106 387.26 96.3995H385.638C385.549 95.5106 385.208 94.8217 384.615 94.3328C384.023 93.8291 383.23 93.5773 382.238 93.5773C381.127 93.5773 380.23 93.8439 379.549 94.3773C378.867 94.9106 378.527 95.6291 378.527 96.5328C378.527 97.2291 378.734 97.8069 379.149 98.2661C379.564 98.7106 380.186 99.0365 381.015 99.2439L383.749 99.9106C384.993 100.207 385.934 100.711 386.571 101.422C387.208 102.118 387.527 103.007 387.527 104.088C387.527 104.992 387.304 105.785 386.86 106.466C386.415 107.148 385.786 107.674 384.971 108.044C384.156 108.414 383.201 108.599 382.104 108.599C381.082 108.599 380.171 108.429 379.371 108.088C378.586 107.748 377.964 107.259 377.504 106.622C377.06 105.985 376.801 105.237 376.727 104.377H378.371C378.415 105.222 378.778 105.896 379.46 106.399C380.141 106.888 381.023 107.133 382.104 107.133C383.275 107.133 384.201 106.866 384.882 106.333C385.578 105.799 385.927 105.081 385.927 104.177C385.927 103.451 385.719 102.866 385.304 102.422C384.904 101.962 384.275 101.629 383.415 101.422L380.727 100.755C379.482 100.459 378.534 99.9624 377.882 99.2661C377.245 98.555 376.927 97.6513 376.927 96.555Z" fill="#0D1117"/>
<rect x="163.891" y="72.2227" width="182.407" height="55.5556" rx="16" fill="white"/>
<path d="M322.535 105.311H324.002C324.002 105.934 324.224 106.43 324.668 106.8C325.113 107.156 325.706 107.334 326.446 107.334C327.276 107.334 327.92 107.171 328.38 106.845C328.854 106.504 329.091 106.045 329.091 105.467C329.091 105.022 328.965 104.667 328.713 104.4C328.461 104.134 328.017 103.919 327.38 103.756L325.535 103.289C324.602 103.052 323.906 102.689 323.446 102.2C322.987 101.711 322.757 101.104 322.757 100.378C322.757 99.7557 322.92 99.215 323.246 98.7557C323.572 98.2817 324.024 97.9187 324.602 97.6668C325.194 97.415 325.876 97.2891 326.646 97.2891C327.402 97.2891 328.061 97.4224 328.624 97.6891C329.187 97.9557 329.624 98.3335 329.935 98.8224C330.261 99.2965 330.431 99.8668 330.446 100.534H328.957C328.943 99.8965 328.728 99.4076 328.313 99.0668C327.898 98.7261 327.328 98.5557 326.602 98.5557C325.846 98.5557 325.261 98.7113 324.846 99.0224C324.446 99.3335 324.246 99.778 324.246 100.356C324.246 101.185 324.831 101.748 326.002 102.045L327.846 102.511C328.78 102.748 329.461 103.096 329.891 103.556C330.335 104.015 330.557 104.63 330.557 105.4C330.557 106.037 330.387 106.6 330.046 107.089C329.706 107.578 329.224 107.956 328.602 108.222C327.994 108.474 327.283 108.6 326.468 108.6C325.268 108.6 324.313 108.304 323.602 107.711C322.891 107.104 322.535 106.304 322.535 105.311Z" fill="#0D1117"/>
<path d="M312.631 108.334H311.098V97.578H312.431L312.653 99.4446C313.009 98.7631 313.512 98.2372 314.164 97.8668C314.831 97.4817 315.557 97.2891 316.342 97.2891C317.824 97.2891 318.89 97.6965 319.542 98.5113C320.194 99.3261 320.52 100.408 320.52 101.756V108.334H318.987V102.089C318.987 100.83 318.72 99.9483 318.187 99.4446C317.668 98.9409 316.964 98.6891 316.075 98.6891C314.979 98.6891 314.127 99.0594 313.52 99.8002C312.927 100.526 312.631 101.496 312.631 102.711V108.334Z" fill="#0D1117"/>
<path d="M297.711 102.956C297.711 101.845 297.948 100.867 298.422 100.022C298.896 99.178 299.548 98.5113 300.378 98.0224C301.207 97.5335 302.141 97.2891 303.178 97.2891C304.229 97.2891 305.163 97.5335 305.978 98.0224C306.807 98.5113 307.459 99.178 307.933 100.022C308.407 100.867 308.644 101.845 308.644 102.956C308.644 104.037 308.407 105.008 307.933 105.867C307.459 106.711 306.807 107.378 305.978 107.867C305.163 108.356 304.229 108.6 303.178 108.6C302.141 108.6 301.207 108.356 300.378 107.867C299.548 107.378 298.896 106.711 298.422 105.867C297.948 105.008 297.711 104.037 297.711 102.956ZM299.266 102.934C299.266 103.778 299.429 104.526 299.755 105.178C300.096 105.815 300.555 106.319 301.133 106.689C301.726 107.045 302.407 107.222 303.178 107.222C303.948 107.222 304.622 107.045 305.2 106.689C305.792 106.319 306.252 105.815 306.578 105.178C306.918 104.526 307.089 103.778 307.089 102.934C307.089 102.104 306.918 101.371 306.578 100.734C306.252 100.096 305.792 99.5928 305.2 99.2224C304.622 98.852 303.948 98.6668 303.178 98.6668C302.407 98.6668 301.726 98.852 301.133 99.2224C300.555 99.5928 300.096 100.096 299.755 100.734C299.429 101.371 299.266 102.104 299.266 102.934Z" fill="#0D1117"/>
<path d="M293.737 108.333V97.5775H295.27V108.333H293.737ZM294.493 94.6219C294.182 94.6219 293.915 94.5108 293.693 94.2886C293.47 94.0663 293.359 93.7997 293.359 93.4886C293.359 93.1775 293.47 92.9108 293.693 92.6886C293.915 92.4515 294.182 92.333 294.493 92.333C294.804 92.333 295.07 92.4515 295.293 92.6886C295.53 92.9108 295.648 93.1775 295.648 93.4886C295.648 93.7997 295.53 94.0663 295.293 94.2886C295.07 94.5108 294.804 94.6219 294.493 94.6219Z" fill="#0D1117"/>
<path d="M285.918 97.5777H291.74V98.8666H285.918V97.5777ZM289.585 108.333H288.074V94.1777H289.585V108.333Z" fill="#0D1117"/>
<path d="M282.392 97.5779H283.925V108.333H282.592L282.392 106.511C282.096 107.133 281.599 107.637 280.903 108.022C280.222 108.408 279.459 108.6 278.614 108.6C277.355 108.6 276.385 108.2 275.703 107.4C275.036 106.6 274.703 105.548 274.703 104.245V97.5557H276.259V103.756C276.259 105.03 276.518 105.926 277.036 106.445C277.57 106.963 278.259 107.222 279.103 107.222C280.14 107.222 280.948 106.889 281.525 106.222C282.103 105.541 282.392 104.563 282.392 103.289V97.5779Z" fill="#0D1117"/>
<path d="M271.576 108.333H270.043V92.1328H271.576V108.333Z" fill="#0D1117"/>
<path d="M256.586 102.956C256.586 101.845 256.823 100.867 257.297 100.022C257.771 99.178 258.423 98.5113 259.253 98.0224C260.082 97.5335 261.016 97.2891 262.053 97.2891C263.104 97.2891 264.038 97.5335 264.853 98.0224C265.682 98.5113 266.334 99.178 266.808 100.022C267.282 100.867 267.519 101.845 267.519 102.956C267.519 104.037 267.282 105.008 266.808 105.867C266.334 106.711 265.682 107.378 264.853 107.867C264.038 108.356 263.104 108.6 262.053 108.6C261.016 108.6 260.082 108.356 259.253 107.867C258.423 107.378 257.771 106.711 257.297 105.867C256.823 105.008 256.586 104.037 256.586 102.956ZM258.141 102.934C258.141 103.778 258.304 104.526 258.63 105.178C258.971 105.815 259.43 106.319 260.008 106.689C260.601 107.045 261.282 107.222 262.053 107.222C262.823 107.222 263.497 107.045 264.075 106.689C264.667 106.319 265.127 105.815 265.453 105.178C265.793 104.526 265.964 103.778 265.964 102.934C265.964 102.104 265.793 101.371 265.453 100.734C265.127 100.096 264.667 99.5928 264.075 99.2224C263.497 98.852 262.823 98.6668 262.053 98.6668C261.282 98.6668 260.601 98.852 260.008 99.2224C259.43 99.5928 258.971 100.096 258.63 100.734C258.304 101.371 258.141 102.104 258.141 102.934Z" fill="#0D1117"/>
<path d="M244.2 96.555C244.2 95.6661 244.422 94.8958 244.867 94.2439C245.311 93.5773 245.933 93.0587 246.733 92.6884C247.533 92.318 248.467 92.1328 249.533 92.1328C250.496 92.1328 251.333 92.3032 252.044 92.6439C252.77 92.9847 253.348 93.4736 253.778 94.1106C254.207 94.7476 254.459 95.5106 254.533 96.3995H252.911C252.822 95.5106 252.481 94.8217 251.889 94.3328C251.296 93.8291 250.504 93.5773 249.511 93.5773C248.4 93.5773 247.504 93.8439 246.822 94.3773C246.141 94.9106 245.8 95.6291 245.8 96.5328C245.8 97.2291 246.007 97.8069 246.422 98.2661C246.837 98.7106 247.459 99.0365 248.289 99.2439L251.022 99.9106C252.267 100.207 253.207 100.711 253.844 101.422C254.481 102.118 254.8 103.007 254.8 104.088C254.8 104.992 254.578 105.785 254.133 106.466C253.689 107.148 253.059 107.674 252.244 108.044C251.43 108.414 250.474 108.599 249.378 108.599C248.356 108.599 247.444 108.429 246.644 108.088C245.859 107.748 245.237 107.259 244.778 106.622C244.333 105.985 244.074 105.237 244 104.377H245.644C245.689 105.222 246.052 105.896 246.733 106.399C247.415 106.888 248.296 107.133 249.378 107.133C250.548 107.133 251.474 106.866 252.156 106.333C252.852 105.799 253.2 105.081 253.2 104.177C253.2 103.451 252.993 102.866 252.578 102.422C252.178 101.962 251.548 101.629 250.689 101.422L248 100.755C246.756 100.459 245.807 99.9624 245.156 99.2661C244.519 98.555 244.2 97.6513 244.2 96.555Z" fill="#0D1117"/>
<path d="M229.904 108.599C228.867 108.599 227.978 108.355 227.237 107.866C226.496 107.377 225.926 106.711 225.526 105.866C225.126 105.007 224.926 104.044 224.926 102.977C224.926 101.896 225.126 100.925 225.526 100.066C225.926 99.2069 226.496 98.5328 227.237 98.0439C227.992 97.5402 228.904 97.2884 229.97 97.2884C230.859 97.2884 231.644 97.481 232.326 97.8661C233.022 98.2513 233.555 98.8365 233.926 99.6217V92.1328H235.459V108.333H234.126L233.97 106.133C233.585 106.962 233.037 107.585 232.326 107.999C231.615 108.399 230.807 108.599 229.904 108.599ZM230.17 107.199C230.97 107.199 231.644 107.022 232.192 106.666C232.741 106.296 233.163 105.792 233.459 105.155C233.755 104.503 233.904 103.762 233.904 102.933C233.904 102.103 233.755 101.37 233.459 100.733C233.163 100.096 232.741 99.5921 232.192 99.2217C231.644 98.8513 230.97 98.6661 230.17 98.6661C229.4 98.6661 228.733 98.8513 228.17 99.2217C227.622 99.5921 227.2 100.096 226.904 100.733C226.622 101.37 226.481 102.103 226.481 102.933C226.481 103.762 226.622 104.503 226.904 105.155C227.2 105.792 227.622 106.296 228.17 106.666C228.733 107.022 229.4 107.199 230.17 107.199Z" fill="#0D1117"/>
<path d="M221.173 97.5779H222.707V108.333H221.373L221.173 106.511C220.877 107.133 220.381 107.637 219.684 108.022C219.003 108.408 218.24 108.6 217.395 108.6C216.136 108.6 215.166 108.2 214.484 107.4C213.818 106.6 213.484 105.548 213.484 104.245V97.5557H215.04V103.756C215.04 105.03 215.299 105.926 215.818 106.445C216.351 106.963 217.04 107.222 217.884 107.222C218.921 107.222 219.729 106.889 220.307 106.222C220.884 105.541 221.173 104.563 221.173 103.289V97.5779Z" fill="#0D1117"/>
<path d="M200.488 102.956C200.488 101.845 200.725 100.867 201.199 100.022C201.673 99.178 202.325 98.5113 203.155 98.0224C203.985 97.5335 204.918 97.2891 205.955 97.2891C207.007 97.2891 207.94 97.5335 208.755 98.0224C209.585 98.5113 210.236 99.178 210.711 100.022C211.185 100.867 211.422 101.845 211.422 102.956C211.422 104.037 211.185 105.008 210.711 105.867C210.236 106.711 209.585 107.378 208.755 107.867C207.94 108.356 207.007 108.6 205.955 108.6C204.918 108.6 203.985 108.356 203.155 107.867C202.325 107.378 201.673 106.711 201.199 105.867C200.725 105.008 200.488 104.037 200.488 102.956ZM202.044 102.934C202.044 103.778 202.207 104.526 202.533 105.178C202.873 105.815 203.333 106.319 203.911 106.689C204.503 107.045 205.185 107.222 205.955 107.222C206.725 107.222 207.399 107.045 207.977 106.689C208.57 106.319 209.029 105.815 209.355 105.178C209.696 104.526 209.866 103.778 209.866 102.934C209.866 102.104 209.696 101.371 209.355 100.734C209.029 100.096 208.57 99.5928 207.977 99.2224C207.399 98.852 206.725 98.6668 205.955 98.6668C205.185 98.6668 204.503 98.852 203.911 99.2224C203.333 99.5928 202.873 100.096 202.533 100.734C202.207 101.371 202.044 102.104 202.044 102.934Z" fill="#0D1117"/>
<path d="M197.986 108.333H196.453V92.1328H197.986V108.333Z" fill="#0D1117"/>
<path d="M187.127 108.578C185.645 108.578 184.342 108.238 183.216 107.556C182.105 106.86 181.231 105.897 180.593 104.667C179.971 103.438 179.66 102.008 179.66 100.378C179.66 98.7488 179.979 97.3192 180.616 96.0896C181.253 94.8451 182.142 93.8822 183.282 93.2007C184.423 92.5044 185.734 92.1562 187.216 92.1562C188.371 92.1562 189.416 92.3711 190.349 92.8007C191.282 93.2303 192.068 93.8377 192.705 94.6229C193.342 95.3933 193.764 96.3118 193.971 97.3785H192.26C191.919 96.2229 191.297 95.3192 190.393 94.6674C189.49 94.0155 188.408 93.6896 187.149 93.6896C185.993 93.6896 184.971 93.9711 184.082 94.534C183.208 95.0822 182.527 95.86 182.038 96.8674C181.564 97.86 181.327 99.0303 181.327 100.378C181.327 101.697 181.571 102.86 182.06 103.867C182.549 104.875 183.231 105.66 184.105 106.223C184.979 106.771 185.993 107.045 187.149 107.045C188.408 107.045 189.505 106.727 190.438 106.09C191.371 105.453 192.008 104.608 192.349 103.556H194.06C193.823 104.549 193.371 105.423 192.705 106.178C192.053 106.934 191.245 107.527 190.282 107.956C189.319 108.371 188.268 108.578 187.127 108.578Z" fill="#0D1117"/>
<rect x="337.965" y="144.444" width="191.667" height="55.5556" rx="16" fill="white"/>
<path d="M502.309 174.867C502.309 173.889 502.509 173.001 502.909 172.201C503.309 171.386 503.886 170.734 504.642 170.245C505.397 169.756 506.301 169.512 507.353 169.512C508.375 169.512 509.249 169.764 509.975 170.267C510.701 170.771 511.22 171.497 511.531 172.445L511.286 172.756L511.486 169.801H512.82V180.223C512.82 181.289 512.605 182.215 512.175 183.001C511.746 183.801 511.138 184.415 510.353 184.845C509.583 185.289 508.672 185.512 507.62 185.512C506.242 185.512 505.101 185.141 504.197 184.401C503.294 183.66 502.731 182.645 502.509 181.356H504.042C504.205 182.23 504.597 182.904 505.22 183.378C505.857 183.867 506.664 184.112 507.642 184.112C508.753 184.112 509.642 183.771 510.309 183.089C510.975 182.408 511.309 181.504 511.309 180.378V177.001L511.531 177.289C511.22 178.193 510.679 178.912 509.909 179.445C509.153 179.964 508.264 180.223 507.242 180.223C506.22 180.223 505.338 179.978 504.597 179.489C503.857 179.001 503.286 178.356 502.886 177.556C502.501 176.741 502.309 175.845 502.309 174.867ZM503.842 174.845C503.842 175.586 503.983 176.26 504.264 176.867C504.56 177.475 504.975 177.956 505.509 178.312C506.057 178.667 506.709 178.845 507.464 178.845C508.235 178.845 508.894 178.675 509.442 178.334C510.005 177.978 510.435 177.504 510.731 176.912C511.027 176.304 511.175 175.615 511.175 174.845C511.175 174.075 511.027 173.393 510.731 172.801C510.449 172.208 510.035 171.741 509.486 171.401C508.953 171.045 508.286 170.867 507.486 170.867C506.716 170.867 506.057 171.052 505.509 171.423C504.975 171.778 504.56 172.26 504.264 172.867C503.983 173.46 503.842 174.119 503.842 174.845Z" fill="black"/>
<path d="M492.092 180.556H490.559V169.801H491.892L492.114 171.667C492.47 170.986 492.973 170.46 493.625 170.089C494.292 169.704 495.018 169.512 495.803 169.512C497.285 169.512 498.351 169.919 499.003 170.734C499.655 171.549 499.981 172.63 499.981 173.978V180.556H498.447V174.312C498.447 173.052 498.181 172.171 497.647 171.667C497.129 171.164 496.425 170.912 495.536 170.912C494.44 170.912 493.588 171.282 492.981 172.023C492.388 172.749 492.092 173.719 492.092 174.934V180.556Z" fill="black"/>
<path d="M485.831 180.556V169.8H487.364V180.556H485.831ZM486.586 166.845C486.275 166.845 486.009 166.733 485.786 166.511C485.564 166.289 485.453 166.022 485.453 165.711C485.453 165.4 485.564 165.133 485.786 164.911C486.009 164.674 486.275 164.556 486.586 164.556C486.898 164.556 487.164 164.674 487.386 164.911C487.623 165.133 487.742 165.4 487.742 165.711C487.742 166.022 487.623 166.289 487.386 166.511C487.164 166.733 486.898 166.845 486.586 166.845Z" fill="black"/>
<path d="M474.885 180.556H473.352V169.801H474.685L474.907 171.667C475.263 170.986 475.766 170.46 476.418 170.089C477.085 169.704 477.811 169.512 478.596 169.512C480.077 169.512 481.144 169.919 481.796 170.734C482.448 171.549 482.774 172.63 482.774 173.978V180.556H481.24V174.312C481.24 173.052 480.974 172.171 480.44 171.667C479.922 171.164 479.218 170.912 478.329 170.912C477.233 170.912 476.381 171.282 475.774 172.023C475.181 172.749 474.885 173.719 474.885 174.934V180.556Z" fill="black"/>
<path d="M459.645 174.867C459.645 173.889 459.845 173.001 460.245 172.201C460.645 171.386 461.222 170.734 461.978 170.245C462.733 169.756 463.637 169.512 464.689 169.512C465.711 169.512 466.585 169.764 467.311 170.267C468.037 170.771 468.556 171.497 468.867 172.445L468.622 172.756L468.822 169.801H470.156V180.223C470.156 181.289 469.941 182.215 469.511 183.001C469.082 183.801 468.474 184.415 467.689 184.845C466.919 185.289 466.007 185.512 464.956 185.512C463.578 185.512 462.437 185.141 461.533 184.401C460.63 183.66 460.067 182.645 459.845 181.356H461.378C461.541 182.23 461.933 182.904 462.556 183.378C463.193 183.867 464 184.112 464.978 184.112C466.089 184.112 466.978 183.771 467.645 183.089C468.311 182.408 468.645 181.504 468.645 180.378V177.001L468.867 177.289C468.556 178.193 468.015 178.912 467.245 179.445C466.489 179.964 465.6 180.223 464.578 180.223C463.556 180.223 462.674 179.978 461.933 179.489C461.193 179.001 460.622 178.356 460.222 177.556C459.837 176.741 459.645 175.845 459.645 174.867ZM461.178 174.845C461.178 175.586 461.319 176.26 461.6 176.867C461.896 177.475 462.311 177.956 462.845 178.312C463.393 178.667 464.045 178.845 464.8 178.845C465.57 178.845 466.23 178.675 466.778 178.334C467.341 177.978 467.77 177.504 468.067 176.912C468.363 176.304 468.511 175.615 468.511 174.845C468.511 174.075 468.363 173.393 468.067 172.801C467.785 172.208 467.37 171.741 466.822 171.401C466.289 171.045 465.622 170.867 464.822 170.867C464.052 170.867 463.393 171.052 462.845 171.423C462.311 171.778 461.896 172.26 461.6 172.867C461.319 173.46 461.178 174.119 461.178 174.845Z" fill="black"/>
<path d="M455.643 180.556V169.8H457.177V180.556H455.643ZM456.399 166.845C456.088 166.845 455.821 166.733 455.599 166.511C455.377 166.289 455.266 166.022 455.266 165.711C455.266 165.4 455.377 165.133 455.599 164.911C455.821 164.674 456.088 164.556 456.399 164.556C456.71 164.556 456.977 164.674 457.199 164.911C457.436 165.133 457.555 165.4 457.555 165.711C457.555 166.022 457.436 166.289 457.199 166.511C456.977 166.733 456.71 166.845 456.399 166.845Z" fill="black"/>
<path d="M445.094 177.534H446.56C446.56 178.156 446.783 178.652 447.227 179.023C447.672 179.378 448.264 179.556 449.005 179.556C449.834 179.556 450.479 179.393 450.938 179.067C451.412 178.727 451.649 178.267 451.649 177.689C451.649 177.245 451.523 176.889 451.272 176.623C451.02 176.356 450.575 176.141 449.938 175.978L448.094 175.512C447.16 175.275 446.464 174.912 446.005 174.423C445.546 173.934 445.316 173.327 445.316 172.601C445.316 171.978 445.479 171.438 445.805 170.978C446.131 170.504 446.583 170.141 447.16 169.889C447.753 169.638 448.434 169.512 449.205 169.512C449.96 169.512 450.62 169.645 451.183 169.912C451.746 170.178 452.183 170.556 452.494 171.045C452.82 171.519 452.99 172.089 453.005 172.756H451.516C451.501 172.119 451.286 171.63 450.872 171.289C450.457 170.949 449.886 170.778 449.16 170.778C448.405 170.778 447.82 170.934 447.405 171.245C447.005 171.556 446.805 172.001 446.805 172.578C446.805 173.408 447.39 173.971 448.56 174.267L450.405 174.734C451.338 174.971 452.02 175.319 452.449 175.778C452.894 176.238 453.116 176.852 453.116 177.623C453.116 178.26 452.946 178.823 452.605 179.312C452.264 179.801 451.783 180.178 451.16 180.445C450.553 180.697 449.842 180.823 449.027 180.823C447.827 180.823 446.872 180.527 446.16 179.934C445.449 179.327 445.094 178.527 445.094 177.534Z" fill="black"/>
<path d="M438.778 180.823C437.741 180.823 436.823 180.586 436.023 180.112C435.238 179.638 434.623 178.978 434.178 178.134C433.734 177.289 433.512 176.304 433.512 175.178C433.512 174.067 433.727 173.089 434.156 172.245C434.601 171.386 435.208 170.719 435.978 170.245C436.749 169.756 437.645 169.512 438.667 169.512C439.645 169.512 440.497 169.727 441.223 170.156C441.964 170.586 442.534 171.186 442.934 171.956C443.349 172.712 443.556 173.601 443.556 174.623V175.378H434.356L434.401 174.267H442.023C442.023 173.23 441.712 172.401 441.089 171.778C440.482 171.141 439.675 170.823 438.667 170.823C437.927 170.823 437.275 170.993 436.712 171.334C436.164 171.675 435.741 172.164 435.445 172.801C435.149 173.423 435.001 174.164 435.001 175.023C435.001 176.445 435.327 177.549 435.978 178.334C436.645 179.119 437.586 179.512 438.801 179.512C439.675 179.512 440.393 179.327 440.956 178.956C441.519 178.586 441.897 178.045 442.089 177.334H443.556C443.275 178.46 442.727 179.327 441.912 179.934C441.097 180.527 440.052 180.823 438.778 180.823Z" fill="black"/>
<path d="M423.759 180.556H418.914V164.645H423.714C425.314 164.645 426.714 164.978 427.914 165.645C429.114 166.311 430.047 167.245 430.714 168.445C431.381 169.63 431.714 171.015 431.714 172.6C431.714 174.185 431.381 175.578 430.714 176.778C430.062 177.963 429.136 178.889 427.936 179.556C426.751 180.222 425.359 180.556 423.759 180.556ZM420.514 165.4V179.8L419.781 179.089H423.692C424.996 179.089 426.121 178.822 427.07 178.289C428.018 177.756 428.751 177.007 429.27 176.045C429.803 175.067 430.07 173.919 430.07 172.6C430.07 171.282 429.803 170.133 429.27 169.156C428.751 168.178 428.01 167.43 427.047 166.911C426.099 166.378 424.966 166.111 423.647 166.111H419.781L420.514 165.4Z" fill="black"/>
<path d="M403.075 172.622L397.52 164.645H399.408L402.364 168.822C402.749 169.341 403.068 169.822 403.32 170.267C403.586 170.696 403.816 171.089 404.008 171.445L408.631 164.645H410.475L405.008 172.578L410.564 180.556H408.653L405.631 176.289C405.364 175.919 405.082 175.511 404.786 175.067C404.505 174.607 404.26 174.2 404.053 173.845L399.408 180.556H397.542L403.075 172.622Z" fill="black"/>
<path d="M383.621 175.022V164.645H385.221V174.956C385.221 176.348 385.591 177.415 386.332 178.156C387.073 178.896 388.14 179.267 389.532 179.267C390.88 179.267 391.925 178.896 392.666 178.156C393.406 177.4 393.777 176.333 393.777 174.956V164.645H395.377V175.022C395.377 176.222 395.14 177.259 394.666 178.133C394.206 178.993 393.54 179.659 392.666 180.133C391.791 180.593 390.747 180.822 389.532 180.822C388.303 180.822 387.243 180.593 386.354 180.133C385.48 179.674 384.806 179.007 384.332 178.133C383.858 177.259 383.621 176.222 383.621 175.022Z" fill="black"/>
<path d="M375.562 180.556H374.051L380.251 164.645H381.806L375.562 180.556Z" fill="black"/>
<path d="M372.12 164.645V180.556H370.52V164.645H372.12Z" fill="black"/>
<path d="M355 175.022V164.645H356.6V174.956C356.6 176.348 356.97 177.415 357.711 178.156C358.452 178.896 359.519 179.267 360.911 179.267C362.259 179.267 363.304 178.896 364.044 178.156C364.785 177.4 365.156 176.333 365.156 174.956V164.645H366.756V175.022C366.756 176.222 366.519 177.259 366.044 178.133C365.585 178.993 364.919 179.659 364.044 180.133C363.17 180.593 362.126 180.822 360.911 180.822C359.681 180.822 358.622 180.593 357.733 180.133C356.859 179.674 356.185 179.007 355.711 178.133C355.237 177.259 355 176.222 355 175.022Z" fill="black"/>
<rect x="14.8164" y="144.444" width="130.556" height="55.5556" rx="16" fill="white"/>
<path d="M121.523 177.534H122.99C122.99 178.156 123.212 178.652 123.657 179.023C124.101 179.378 124.694 179.556 125.435 179.556C126.264 179.556 126.909 179.393 127.368 179.067C127.842 178.727 128.079 178.267 128.079 177.689C128.079 177.245 127.953 176.889 127.701 176.623C127.449 176.356 127.005 176.141 126.368 175.978L124.523 175.512C123.59 175.275 122.894 174.912 122.435 174.423C121.975 173.934 121.746 173.327 121.746 172.601C121.746 171.978 121.909 171.438 122.235 170.978C122.56 170.504 123.012 170.141 123.59 169.889C124.183 169.638 124.864 169.512 125.635 169.512C126.39 169.512 127.049 169.645 127.612 169.912C128.175 170.178 128.612 170.556 128.923 171.045C129.249 171.519 129.42 172.089 129.435 172.756H127.946C127.931 172.119 127.716 171.63 127.301 171.289C126.886 170.949 126.316 170.778 125.59 170.778C124.835 170.778 124.249 170.934 123.835 171.245C123.435 171.556 123.235 172.001 123.235 172.578C123.235 173.408 123.82 173.971 124.99 174.267L126.835 174.734C127.768 174.971 128.449 175.319 128.879 175.778C129.323 176.238 129.546 176.852 129.546 177.623C129.546 178.26 129.375 178.823 129.035 179.312C128.694 179.801 128.212 180.178 127.59 180.445C126.983 180.697 126.272 180.823 125.457 180.823C124.257 180.823 123.301 180.527 122.59 179.934C121.879 179.327 121.523 178.527 121.523 177.534Z" fill="black"/>
<path d="M115.204 180.823C114.167 180.823 113.249 180.586 112.449 180.112C111.663 179.638 111.049 178.978 110.604 178.134C110.16 177.289 109.938 176.304 109.938 175.178C109.938 174.067 110.152 173.089 110.582 172.245C111.026 171.386 111.634 170.719 112.404 170.245C113.175 169.756 114.071 169.512 115.093 169.512C116.071 169.512 116.923 169.727 117.649 170.156C118.389 170.586 118.96 171.186 119.36 171.956C119.775 172.712 119.982 173.601 119.982 174.623V175.378H110.782L110.826 174.267H118.449C118.449 173.23 118.137 172.401 117.515 171.778C116.908 171.141 116.1 170.823 115.093 170.823C114.352 170.823 113.7 170.993 113.138 171.334C112.589 171.675 112.167 172.164 111.871 172.801C111.575 173.423 111.426 174.164 111.426 175.023C111.426 176.445 111.752 177.549 112.404 178.334C113.071 179.119 114.012 179.512 115.226 179.512C116.1 179.512 116.819 179.327 117.382 178.956C117.945 178.586 118.323 178.045 118.515 177.334H119.982C119.7 178.46 119.152 179.327 118.337 179.934C117.523 180.527 116.478 180.823 115.204 180.823Z" fill="black"/>
<path d="M100.148 177.534H101.615C101.615 178.156 101.837 178.652 102.282 179.023C102.726 179.378 103.319 179.556 104.06 179.556C104.889 179.556 105.534 179.393 105.993 179.067C106.467 178.727 106.704 178.267 106.704 177.689C106.704 177.245 106.578 176.889 106.326 176.623C106.074 176.356 105.63 176.141 104.993 175.978L103.148 175.512C102.215 175.275 101.519 174.912 101.06 174.423C100.6 173.934 100.371 173.327 100.371 172.601C100.371 171.978 100.534 171.438 100.86 170.978C101.185 170.504 101.637 170.141 102.215 169.889C102.808 169.638 103.489 169.512 104.26 169.512C105.015 169.512 105.674 169.645 106.237 169.912C106.8 170.178 107.237 170.556 107.548 171.045C107.874 171.519 108.045 172.089 108.06 172.756H106.571C106.556 172.119 106.341 171.63 105.926 171.289C105.511 170.949 104.941 170.778 104.215 170.778C103.46 170.778 102.874 170.934 102.46 171.245C102.06 171.556 101.86 172.001 101.86 172.578C101.86 173.408 102.445 173.971 103.615 174.267L105.46 174.734C106.393 174.971 107.074 175.319 107.504 175.778C107.948 176.238 108.171 176.852 108.171 177.623C108.171 178.26 108 178.823 107.66 179.312C107.319 179.801 106.837 180.178 106.215 180.445C105.608 180.697 104.897 180.823 104.082 180.823C102.882 180.823 101.926 180.527 101.215 179.934C100.504 179.327 100.148 178.527 100.148 177.534Z" fill="black"/>
<path d="M92.539 180.823C91.3982 180.823 90.5019 180.527 89.8501 179.934C89.2131 179.341 88.8945 178.578 88.8945 177.645C88.8945 176.652 89.2501 175.86 89.9612 175.267C90.6723 174.675 91.6575 174.327 92.9168 174.223L96.4723 173.934V173.578C96.4723 172.867 96.3464 172.312 96.0945 171.912C95.8427 171.497 95.5019 171.208 95.0723 171.045C94.6427 170.882 94.1612 170.801 93.6279 170.801C92.6797 170.801 91.9464 171.001 91.4279 171.401C90.9093 171.801 90.6501 172.364 90.6501 173.089H89.2501C89.2501 172.364 89.4353 171.734 89.8056 171.201C90.176 170.667 90.6945 170.252 91.3612 169.956C92.0279 169.66 92.7982 169.512 93.6723 169.512C94.5168 169.512 95.2575 169.66 95.8945 169.956C96.5316 170.238 97.0353 170.682 97.4056 171.289C97.7908 171.882 97.9834 172.652 97.9834 173.601V180.556H96.6945L96.4945 178.667C96.1686 179.349 95.6501 179.882 94.939 180.267C94.2427 180.638 93.4427 180.823 92.539 180.823ZM92.8945 179.578C94.0353 179.578 94.9168 179.215 95.539 178.489C96.1612 177.764 96.4723 176.823 96.4723 175.667V175.089L93.2945 175.334C92.2871 175.423 91.5612 175.675 91.1168 176.089C90.6723 176.504 90.4501 177.008 90.4501 177.601C90.4501 178.252 90.6723 178.749 91.1168 179.089C91.5612 179.415 92.1538 179.578 92.8945 179.578Z" fill="black"/>
<path d="M77.806 180.555H76.4727V164.355H78.006V171.889C78.3764 171.089 78.9097 170.496 79.606 170.111C80.3171 169.711 81.1319 169.511 82.0504 169.511C83.1023 169.511 83.9912 169.763 84.7171 170.267C85.4578 170.755 86.0208 171.43 86.406 172.289C86.806 173.148 87.006 174.118 87.006 175.2C87.006 176.267 86.806 177.23 86.406 178.089C86.006 178.933 85.4356 179.6 84.6949 180.089C83.9541 180.578 83.0578 180.822 82.006 180.822C81.1171 180.822 80.3171 180.622 79.606 180.222C78.8949 179.807 78.3467 179.185 77.9615 178.355L77.806 180.555ZM78.0282 175.155C78.0282 175.985 78.1764 176.726 78.4727 177.378C78.769 178.015 79.1912 178.518 79.7393 178.889C80.3023 179.244 80.9764 179.422 81.7615 179.422C82.5467 179.422 83.2134 179.244 83.7615 178.889C84.3097 178.518 84.7245 178.015 85.006 177.378C85.3023 176.726 85.4504 175.985 85.4504 175.155C85.4504 174.326 85.3023 173.593 85.006 172.955C84.7245 172.318 84.3097 171.815 83.7615 171.444C83.2134 171.074 82.5467 170.889 81.7615 170.889C80.9764 170.889 80.3023 171.074 79.7393 171.444C79.1912 171.815 78.769 172.318 78.4727 172.955C78.1764 173.593 78.0282 174.326 78.0282 175.155Z" fill="black"/>
<path d="M67.953 180.823C66.8123 180.823 65.916 180.527 65.2642 179.934C64.6271 179.341 64.3086 178.578 64.3086 177.645C64.3086 176.652 64.6641 175.86 65.3753 175.267C66.0864 174.675 67.0716 174.327 68.3308 174.223L71.8864 173.934V173.578C71.8864 172.867 71.7604 172.312 71.5086 171.912C71.2567 171.497 70.916 171.208 70.4864 171.045C70.0567 170.882 69.5753 170.801 69.0419 170.801C68.0938 170.801 67.3604 171.001 66.8419 171.401C66.3234 171.801 66.0641 172.364 66.0641 173.089H64.6642C64.6642 172.364 64.8493 171.734 65.2197 171.201C65.5901 170.667 66.1086 170.252 66.7753 169.956C67.4419 169.66 68.2123 169.512 69.0864 169.512C69.9308 169.512 70.6716 169.66 71.3086 169.956C71.9456 170.238 72.4493 170.682 72.8197 171.289C73.2049 171.882 73.3975 172.652 73.3975 173.601V180.556H72.1086L71.9086 178.667C71.5827 179.349 71.0641 179.882 70.353 180.267C69.6567 180.638 68.8567 180.823 67.953 180.823ZM68.3086 179.578C69.4493 179.578 70.3308 179.215 70.953 178.489C71.5753 177.764 71.8864 176.823 71.8864 175.667V175.089L68.7086 175.334C67.7012 175.423 66.9753 175.675 66.5308 176.089C66.0864 176.504 65.8641 177.008 65.8641 177.601C65.8641 178.252 66.0864 178.749 66.5308 179.089C66.9753 179.415 67.5679 179.578 68.3086 179.578Z" fill="black"/>
<path d="M57.2188 169.8H63.041V171.089H57.2188V169.8ZM60.8854 180.556H59.3743V166.4H60.8854V180.556Z" fill="black"/>
<path d="M50.0937 180.823C48.9529 180.823 48.0566 180.527 47.4048 179.934C46.7677 179.341 46.4492 178.578 46.4492 177.645C46.4492 176.652 46.8048 175.86 47.5159 175.267C48.227 174.675 49.2122 174.327 50.4714 174.223L54.027 173.934V173.578C54.027 172.867 53.9011 172.312 53.6492 171.912C53.3974 171.497 53.0566 171.208 52.627 171.045C52.1974 170.882 51.7159 170.801 51.1826 170.801C50.2344 170.801 49.5011 171.001 48.9826 171.401C48.464 171.801 48.2048 172.364 48.2048 173.089H46.8048C46.8048 172.364 46.99 171.734 47.3603 171.201C47.7307 170.667 48.2492 170.252 48.9159 169.956C49.5826 169.66 50.3529 169.512 51.227 169.512C52.0714 169.512 52.8122 169.66 53.4492 169.956C54.0863 170.238 54.59 170.682 54.9603 171.289C55.3455 171.882 55.5381 172.652 55.5381 173.601V180.556H54.2492L54.0492 178.667C53.7233 179.349 53.2048 179.882 52.4937 180.267C51.7974 180.638 50.9974 180.823 50.0937 180.823ZM50.4492 179.578C51.59 179.578 52.4714 179.215 53.0937 178.489C53.7159 177.764 54.027 176.823 54.027 175.667V175.089L50.8492 175.334C49.8418 175.423 49.1159 175.675 48.6714 176.089C48.227 176.504 48.0048 177.008 48.0048 177.601C48.0048 178.252 48.227 178.749 48.6714 179.089C49.1159 179.415 49.7085 179.578 50.4492 179.578Z" fill="black"/>
<path d="M36.4929 180.556H31.6484V164.645H36.4484C38.0484 164.645 39.4484 164.978 40.6484 165.645C41.8484 166.311 42.7818 167.245 43.4484 168.445C44.1151 169.63 44.4484 171.015 44.4484 172.6C44.4484 174.185 44.1151 175.578 43.4484 176.778C42.7966 177.963 41.8707 178.889 40.6707 179.556C39.4855 180.222 38.0929 180.556 36.4929 180.556ZM33.2484 165.4V179.8L32.5151 179.089H36.4262C37.7299 179.089 38.8558 178.822 39.804 178.289C40.7521 177.756 41.4855 177.007 42.004 176.045C42.5373 175.067 42.804 173.919 42.804 172.6C42.804 171.282 42.5373 170.133 42.004 169.156C41.4855 168.178 40.7447 167.43 39.7818 166.911C38.8336 166.378 37.7003 166.111 36.3818 166.111H32.5151L33.2484 165.4Z" fill="black"/>
<rect x="160.184" y="144.444" width="162.963" height="55.5556" rx="16" fill="white"/>
<path d="M296.027 174.867C296.027 173.889 296.227 173.001 296.627 172.201C297.027 171.386 297.605 170.734 298.361 170.245C299.116 169.756 300.02 169.512 301.072 169.512C302.094 169.512 302.968 169.764 303.694 170.267C304.42 170.771 304.938 171.497 305.25 172.445L305.005 172.756L305.205 169.801H306.538V180.223C306.538 181.289 306.324 182.215 305.894 183.001C305.464 183.801 304.857 184.415 304.072 184.845C303.301 185.289 302.39 185.512 301.338 185.512C299.961 185.512 298.82 185.141 297.916 184.401C297.013 183.66 296.45 182.645 296.227 181.356H297.761C297.924 182.23 298.316 182.904 298.938 183.378C299.575 183.867 300.383 184.112 301.361 184.112C302.472 184.112 303.361 183.771 304.027 183.089C304.694 182.408 305.027 181.504 305.027 180.378V177.001L305.25 177.289C304.938 178.193 304.398 178.912 303.627 179.445C302.872 179.964 301.983 180.223 300.961 180.223C299.938 180.223 299.057 179.978 298.316 179.489C297.575 179.001 297.005 178.356 296.605 177.556C296.22 176.741 296.027 175.845 296.027 174.867ZM297.561 174.845C297.561 175.586 297.701 176.26 297.983 176.867C298.279 177.475 298.694 177.956 299.227 178.312C299.775 178.667 300.427 178.845 301.183 178.845C301.953 178.845 302.613 178.675 303.161 178.334C303.724 177.978 304.153 177.504 304.45 176.912C304.746 176.304 304.894 175.615 304.894 174.845C304.894 174.075 304.746 173.393 304.45 172.801C304.168 172.208 303.753 171.741 303.205 171.401C302.672 171.045 302.005 170.867 301.205 170.867C300.435 170.867 299.775 171.052 299.227 171.423C298.694 171.778 298.279 172.26 297.983 172.867C297.701 173.46 297.561 174.119 297.561 174.845Z" fill="black"/>
<path d="M285.815 180.556H284.281V169.801H285.615L285.837 171.667C286.192 170.986 286.696 170.46 287.348 170.089C288.015 169.704 288.741 169.512 289.526 169.512C291.007 169.512 292.074 169.919 292.726 170.734C293.378 171.549 293.703 172.63 293.703 173.978V180.556H292.17V174.312C292.17 173.052 291.903 172.171 291.37 171.667C290.852 171.164 290.148 170.912 289.259 170.912C288.163 170.912 287.311 171.282 286.703 172.023C286.111 172.749 285.815 173.719 285.815 174.934V180.556Z" fill="black"/>
<path d="M279.554 180.556V169.8H281.087V180.556H279.554ZM280.309 166.845C279.998 166.845 279.731 166.733 279.509 166.511C279.287 166.289 279.176 166.022 279.176 165.711C279.176 165.4 279.287 165.133 279.509 164.911C279.731 164.674 279.998 164.556 280.309 164.556C280.62 164.556 280.887 164.674 281.109 164.911C281.346 165.133 281.465 165.4 281.465 165.711C281.465 166.022 281.346 166.289 281.109 166.511C280.887 166.733 280.62 166.845 280.309 166.845Z" fill="black"/>
<path d="M262.377 180.556H260.844V169.801H262.177L262.399 171.823L262.177 171.756C262.399 171.075 262.814 170.534 263.422 170.134C264.044 169.719 264.77 169.512 265.599 169.512C266.562 169.512 267.362 169.778 267.999 170.312C268.651 170.83 269.066 171.541 269.244 172.445H268.91C269.059 171.541 269.459 170.83 270.11 170.312C270.777 169.778 271.607 169.512 272.599 169.512C273.755 169.512 274.688 169.867 275.399 170.578C276.11 171.289 276.466 172.267 276.466 173.512V180.556H274.977V173.823C274.977 172.904 274.74 172.186 274.266 171.667C273.792 171.149 273.14 170.889 272.31 170.889C271.718 170.889 271.207 171.03 270.777 171.312C270.347 171.578 270.014 171.941 269.777 172.401C269.555 172.86 269.444 173.364 269.444 173.912V180.556H267.933V173.801C267.933 172.882 267.688 172.171 267.199 171.667C266.725 171.164 266.081 170.912 265.266 170.912C264.673 170.912 264.155 171.045 263.71 171.312C263.281 171.578 262.947 171.941 262.71 172.401C262.488 172.845 262.377 173.341 262.377 173.889V180.556Z" fill="black"/>
<path d="M243.67 180.556H242.137V169.801H243.47L243.692 171.823L243.47 171.756C243.692 171.075 244.107 170.534 244.715 170.134C245.337 169.719 246.063 169.512 246.892 169.512C247.855 169.512 248.655 169.778 249.292 170.312C249.944 170.83 250.359 171.541 250.537 172.445H250.203C250.352 171.541 250.752 170.83 251.403 170.312C252.07 169.778 252.9 169.512 253.892 169.512C255.048 169.512 255.981 169.867 256.692 170.578C257.403 171.289 257.759 172.267 257.759 173.512V180.556H256.27V173.823C256.27 172.904 256.033 172.186 255.559 171.667C255.085 171.149 254.433 170.889 253.603 170.889C253.011 170.889 252.5 171.03 252.07 171.312C251.64 171.578 251.307 171.941 251.07 172.401C250.848 172.86 250.737 173.364 250.737 173.912V180.556H249.226V173.801C249.226 172.882 248.981 172.171 248.492 171.667C248.018 171.164 247.374 170.912 246.559 170.912C245.966 170.912 245.448 171.045 245.003 171.312C244.574 171.578 244.24 171.941 244.003 172.401C243.781 172.845 243.67 173.341 243.67 173.889V180.556Z" fill="black"/>
<path d="M233.617 180.823C232.476 180.823 231.58 180.527 230.928 179.934C230.291 179.341 229.973 178.578 229.973 177.645C229.973 176.652 230.328 175.86 231.039 175.267C231.75 174.675 232.736 174.327 233.995 174.223L237.55 173.934V173.578C237.55 172.867 237.425 172.312 237.173 171.912C236.921 171.497 236.58 171.208 236.15 171.045C235.721 170.882 235.239 170.801 234.706 170.801C233.758 170.801 233.025 171.001 232.506 171.401C231.987 171.801 231.728 172.364 231.728 173.089H230.328C230.328 172.364 230.513 171.734 230.884 171.201C231.254 170.667 231.773 170.252 232.439 169.956C233.106 169.66 233.876 169.512 234.75 169.512C235.595 169.512 236.336 169.66 236.973 169.956C237.61 170.238 238.113 170.682 238.484 171.289C238.869 171.882 239.062 172.652 239.062 173.601V180.556H237.773L237.573 178.667C237.247 179.349 236.728 179.882 236.017 180.267C235.321 180.638 234.521 180.823 233.617 180.823ZM233.973 179.578C235.113 179.578 235.995 179.215 236.617 178.489C237.239 177.764 237.55 176.823 237.55 175.667V175.089L234.373 175.334C233.365 175.423 232.639 175.675 232.195 176.089C231.75 176.504 231.528 177.008 231.528 177.601C231.528 178.252 231.75 178.749 232.195 179.089C232.639 179.415 233.232 179.578 233.973 179.578Z" fill="black"/>
<path d="M228.923 169.667V171.045H228.079C227.086 171.045 226.293 171.348 225.701 171.956C225.123 172.563 224.834 173.385 224.834 174.422V180.556H223.301V169.8H224.745L224.879 171.911H224.723C224.871 171.215 225.234 170.652 225.812 170.222C226.39 169.778 227.093 169.556 227.923 169.556C228.086 169.556 228.249 169.563 228.412 169.578C228.575 169.593 228.745 169.622 228.923 169.667Z" fill="black"/>
<path d="M209.594 174.867C209.594 173.889 209.794 173.001 210.194 172.201C210.594 171.386 211.172 170.734 211.927 170.245C212.683 169.756 213.586 169.512 214.638 169.512C215.66 169.512 216.534 169.764 217.26 170.267C217.986 170.771 218.505 171.497 218.816 172.445L218.572 172.756L218.772 169.801H220.105V180.223C220.105 181.289 219.89 182.215 219.46 183.001C219.031 183.801 218.423 184.415 217.638 184.845C216.868 185.289 215.957 185.512 214.905 185.512C213.527 185.512 212.386 185.141 211.483 184.401C210.579 183.66 210.016 182.645 209.794 181.356H211.327C211.49 182.23 211.883 182.904 212.505 183.378C213.142 183.867 213.949 184.112 214.927 184.112C216.038 184.112 216.927 183.771 217.594 183.089C218.26 182.408 218.594 181.504 218.594 180.378V177.001L218.816 177.289C218.505 178.193 217.964 178.912 217.194 179.445C216.438 179.964 215.549 180.223 214.527 180.223C213.505 180.223 212.623 179.978 211.883 179.489C211.142 179.001 210.572 178.356 210.172 177.556C209.786 176.741 209.594 175.845 209.594 174.867ZM211.127 174.845C211.127 175.586 211.268 176.26 211.549 176.867C211.846 177.475 212.26 177.956 212.794 178.312C213.342 178.667 213.994 178.845 214.749 178.845C215.52 178.845 216.179 178.675 216.727 178.334C217.29 177.978 217.72 177.504 218.016 176.912C218.312 176.304 218.46 175.615 218.46 174.845C218.46 174.075 218.312 173.393 218.016 172.801C217.734 172.208 217.32 171.741 216.772 171.401C216.238 171.045 215.572 170.867 214.772 170.867C214.001 170.867 213.342 171.052 212.794 171.423C212.26 171.778 211.846 172.26 211.549 172.867C211.268 173.46 211.127 174.119 211.127 174.845Z" fill="black"/>
<path d="M196.938 175.178C196.938 174.067 197.175 173.089 197.649 172.245C198.123 171.401 198.775 170.734 199.604 170.245C200.434 169.756 201.367 169.512 202.404 169.512C203.456 169.512 204.389 169.756 205.204 170.245C206.034 170.734 206.686 171.401 207.16 172.245C207.634 173.089 207.871 174.067 207.871 175.178C207.871 176.26 207.634 177.23 207.16 178.089C206.686 178.934 206.034 179.601 205.204 180.089C204.389 180.578 203.456 180.823 202.404 180.823C201.367 180.823 200.434 180.578 199.604 180.089C198.775 179.601 198.123 178.934 197.649 178.089C197.175 177.23 196.938 176.26 196.938 175.178ZM198.493 175.156C198.493 176.001 198.656 176.749 198.982 177.401C199.323 178.038 199.782 178.541 200.36 178.912C200.952 179.267 201.634 179.445 202.404 179.445C203.175 179.445 203.849 179.267 204.426 178.912C205.019 178.541 205.478 178.038 205.804 177.401C206.145 176.749 206.315 176.001 206.315 175.156C206.315 174.327 206.145 173.593 205.804 172.956C205.478 172.319 205.019 171.815 204.426 171.445C203.849 171.075 203.175 170.889 202.404 170.889C201.634 170.889 200.952 171.075 200.36 171.445C199.782 171.815 199.323 172.319 198.982 172.956C198.656 173.593 198.493 174.327 198.493 175.156Z" fill="black"/>
<path d="M196.068 169.667V171.045H195.223C194.23 171.045 193.438 171.348 192.845 171.956C192.268 172.563 191.979 173.385 191.979 174.422V180.556H190.445V169.8H191.89L192.023 171.911H191.868C192.016 171.215 192.379 170.652 192.956 170.222C193.534 169.778 194.238 169.556 195.068 169.556C195.23 169.556 195.393 169.563 195.556 169.578C195.719 169.593 195.89 169.622 196.068 169.667Z" fill="black"/>
<path d="M178.729 164.645V180.556H177.129V164.645H178.729ZM183.196 174.711H178.396V173.267H182.884C184.04 173.267 184.936 172.933 185.573 172.267C186.21 171.585 186.529 170.704 186.529 169.622C186.529 168.526 186.21 167.667 185.573 167.045C184.936 166.407 184.07 166.089 182.973 166.089H177.707V164.645H183.196C184.218 164.645 185.099 164.852 185.84 165.267C186.596 165.682 187.173 166.267 187.573 167.022C187.988 167.778 188.196 168.652 188.196 169.645C188.196 170.607 187.988 171.474 187.573 172.245C187.173 173.015 186.596 173.622 185.84 174.067C185.099 174.496 184.218 174.711 183.196 174.711Z" fill="black"/>
</svg>
