<svg width="590" height="216" viewBox="0 0 590 216" fill="none" xmlns="http://www.w3.org/2000/svg">
<rect x="106" width="228" height="60" rx="16" fill="white"/>
<path d="M310.809 27.3839H317.097V28.7759H310.809V27.3839ZM314.769 38.9999H313.137V23.7119H314.769V38.9999Z" fill="#0D1117"/>
<path d="M300.281 39.0003H298.625V27.3843H300.065L300.305 29.4003C300.689 28.6643 301.233 28.0963 301.937 27.6963C302.657 27.2803 303.441 27.0723 304.289 27.0723C305.889 27.0723 307.041 27.5123 307.745 28.3923C308.449 29.2723 308.801 30.4403 308.801 31.8963V39.0003H307.145V32.2563C307.145 30.8963 306.857 29.9443 306.281 29.4003C305.721 28.8563 304.961 28.5843 304.001 28.5843C302.817 28.5843 301.897 28.9843 301.241 29.7843C300.601 30.5683 300.281 31.6163 300.281 32.9283V39.0003Z" fill="#0D1117"/>
<path d="M290.817 39.2883C289.697 39.2883 288.705 39.0323 287.841 38.5203C286.993 38.0083 286.329 37.2963 285.849 36.3843C285.369 35.4723 285.129 34.4083 285.129 33.1923C285.129 31.9923 285.361 30.9363 285.825 30.0243C286.305 29.0963 286.961 28.3763 287.793 27.8643C288.625 27.3363 289.593 27.0723 290.697 27.0723C291.753 27.0723 292.673 27.3043 293.457 27.7683C294.257 28.2323 294.873 28.8803 295.305 29.7123C295.753 30.5283 295.977 31.4883 295.977 32.5923V33.4083H286.041L286.089 32.2083H294.321C294.321 31.0883 293.985 30.1923 293.313 29.5203C292.657 28.8323 291.785 28.4883 290.697 28.4883C289.897 28.4883 289.193 28.6723 288.585 29.0403C287.993 29.4083 287.537 29.9363 287.217 30.6243C286.897 31.2963 286.737 32.0963 286.737 33.0243C286.737 34.5603 287.089 35.7523 287.793 36.6003C288.513 37.4483 289.529 37.8723 290.841 37.8723C291.785 37.8723 292.561 37.6723 293.169 37.2723C293.777 36.8723 294.185 36.2883 294.393 35.5203H295.977C295.673 36.7363 295.081 37.6723 294.201 38.3283C293.321 38.9683 292.193 39.2883 290.817 39.2883Z" fill="#0D1117"/>
<path d="M267.398 39.0003H265.742V27.3843H267.182L267.422 29.5683L267.182 29.4963C267.422 28.7603 267.87 28.1763 268.526 27.7443C269.198 27.2963 269.982 27.0723 270.878 27.0723C271.918 27.0723 272.782 27.3603 273.47 27.9363C274.174 28.4963 274.622 29.2643 274.814 30.2403H274.454C274.614 29.2643 275.046 28.4963 275.75 27.9363C276.47 27.3603 277.366 27.0723 278.438 27.0723C279.686 27.0723 280.694 27.4563 281.462 28.2243C282.23 28.9923 282.614 30.0483 282.614 31.3923V39.0003H281.006V31.7283C281.006 30.7363 280.75 29.9603 280.238 29.4003C279.726 28.8403 279.022 28.5603 278.126 28.5603C277.486 28.5603 276.934 28.7123 276.47 29.0163C276.006 29.3043 275.646 29.6963 275.39 30.1923C275.15 30.6883 275.03 31.2323 275.03 31.8243V39.0003H273.398V31.7043C273.398 30.7123 273.134 29.9443 272.606 29.4003C272.094 28.8563 271.398 28.5843 270.518 28.5843C269.878 28.5843 269.318 28.7283 268.838 29.0163C268.374 29.3043 268.014 29.6963 267.758 30.1923C267.518 30.6723 267.398 31.2083 267.398 31.8003V39.0003Z" fill="#0D1117"/>
<path d="M251.727 44.0643V27.3843H253.167L253.335 29.7363C253.751 28.8403 254.343 28.1763 255.111 27.7443C255.895 27.2963 256.767 27.0723 257.727 27.0723C258.847 27.0723 259.807 27.3363 260.607 27.8643C261.407 28.3923 262.023 29.1123 262.455 30.0243C262.887 30.9363 263.103 31.9763 263.103 33.1443C263.103 34.3123 262.887 35.3603 262.455 36.2883C262.039 37.2163 261.431 37.9523 260.631 38.4963C259.847 39.0243 258.879 39.2883 257.727 39.2883C256.735 39.2883 255.863 39.0803 255.111 38.6643C254.359 38.2323 253.783 37.6003 253.383 36.7683V44.0643H251.727ZM253.407 33.1923C253.407 34.0723 253.567 34.8643 253.887 35.5683C254.207 36.2563 254.663 36.8003 255.255 37.2003C255.863 37.6003 256.591 37.8003 257.439 37.8003C258.287 37.8003 259.007 37.6003 259.599 37.2003C260.191 36.8003 260.639 36.2563 260.943 35.5683C261.263 34.8643 261.423 34.0723 261.423 33.1923C261.423 32.2963 261.263 31.5043 260.943 30.8163C260.639 30.1123 260.191 29.5683 259.599 29.1843C259.007 28.7843 258.287 28.5843 257.439 28.5843C256.591 28.5843 255.863 28.7843 255.255 29.1843C254.663 29.5683 254.207 30.1123 253.887 30.8163C253.567 31.5043 253.407 32.2963 253.407 33.1923Z" fill="#0D1117"/>
<path d="M237.27 33.1923C237.27 31.9923 237.526 30.9363 238.038 30.0243C238.55 29.1123 239.254 28.3923 240.15 27.8643C241.046 27.3363 242.054 27.0723 243.174 27.0723C244.31 27.0723 245.318 27.3363 246.198 27.8643C247.094 28.3923 247.798 29.1123 248.31 30.0243C248.822 30.9363 249.078 31.9923 249.078 33.1923C249.078 34.3603 248.822 35.4083 248.31 36.3363C247.798 37.2483 247.094 37.9683 246.198 38.4963C245.318 39.0243 244.31 39.2883 243.174 39.2883C242.054 39.2883 241.046 39.0243 240.15 38.4963C239.254 37.9683 238.55 37.2483 238.038 36.3363C237.526 35.4083 237.27 34.3603 237.27 33.1923ZM238.95 33.1683C238.95 34.0803 239.126 34.8883 239.478 35.5923C239.846 36.2803 240.342 36.8243 240.966 37.2243C241.606 37.6083 242.342 37.8003 243.174 37.8003C244.006 37.8003 244.734 37.6083 245.358 37.2243C245.998 36.8243 246.494 36.2803 246.846 35.5923C247.214 34.8883 247.398 34.0803 247.398 33.1683C247.398 32.2723 247.214 31.4803 246.846 30.7923C246.494 30.1043 245.998 29.5603 245.358 29.1603C244.734 28.7603 244.006 28.5603 243.174 28.5603C242.342 28.5603 241.606 28.7603 240.966 29.1603C240.342 29.5603 239.846 30.1043 239.478 30.7923C239.126 31.4803 238.95 32.2723 238.95 33.1683Z" fill="#0D1117"/>
<path d="M234.566 38.9999H232.91V21.5039H234.566V38.9999Z" fill="#0D1117"/>
<path d="M225.028 39.2883C223.908 39.2883 222.916 39.0323 222.052 38.5203C221.204 38.0083 220.54 37.2963 220.06 36.3843C219.58 35.4723 219.34 34.4083 219.34 33.1923C219.34 31.9923 219.572 30.9363 220.036 30.0243C220.516 29.0963 221.172 28.3763 222.004 27.8643C222.836 27.3363 223.804 27.0723 224.908 27.0723C225.964 27.0723 226.884 27.3043 227.668 27.7683C228.468 28.2323 229.084 28.8803 229.516 29.7123C229.964 30.5283 230.188 31.4883 230.188 32.5923V33.4083H220.252L220.3 32.2083H228.532C228.532 31.0883 228.196 30.1923 227.524 29.5203C226.868 28.8323 225.996 28.4883 224.908 28.4883C224.108 28.4883 223.404 28.6723 222.796 29.0403C222.204 29.4083 221.748 29.9363 221.428 30.6243C221.108 31.2963 220.948 32.0963 220.948 33.0243C220.948 34.5603 221.3 35.7523 222.004 36.6003C222.724 37.4483 223.74 37.8723 225.052 37.8723C225.996 37.8723 226.772 37.6723 227.38 37.2723C227.988 36.8723 228.396 36.2883 228.604 35.5203H230.188C229.884 36.7363 229.292 37.6723 228.412 38.3283C227.532 38.9683 226.404 39.2883 225.028 39.2883Z" fill="#0D1117"/>
<path d="M212.24 38.9998L207.488 27.3838H209.264L212.264 34.8718C212.44 35.3038 212.592 35.7198 212.72 36.1198C212.864 36.5038 212.992 36.8878 213.104 37.2718C213.216 36.8718 213.344 36.4798 213.488 36.0958C213.632 35.6958 213.792 35.2878 213.968 34.8718L217.016 27.3838H218.72L213.896 38.9998H212.24Z" fill="#0D1117"/>
<path d="M201.52 39.2883C200.4 39.2883 199.408 39.0323 198.544 38.5203C197.696 38.0083 197.032 37.2963 196.552 36.3843C196.072 35.4723 195.832 34.4083 195.832 33.1923C195.832 31.9923 196.064 30.9363 196.528 30.0243C197.008 29.0963 197.664 28.3763 198.496 27.8643C199.328 27.3363 200.296 27.0723 201.4 27.0723C202.456 27.0723 203.376 27.3043 204.16 27.7683C204.96 28.2323 205.576 28.8803 206.008 29.7123C206.456 30.5283 206.68 31.4883 206.68 32.5923V33.4083H196.744L196.792 32.2083H205.024C205.024 31.0883 204.688 30.1923 204.016 29.5203C203.36 28.8323 202.488 28.4883 201.4 28.4883C200.6 28.4883 199.896 28.6723 199.288 29.0403C198.696 29.4083 198.24 29.9363 197.92 30.6243C197.6 31.2963 197.44 32.0963 197.44 33.0243C197.44 34.5603 197.792 35.7523 198.496 36.6003C199.216 37.4483 200.232 37.8723 201.544 37.8723C202.488 37.8723 203.264 37.6723 203.872 37.2723C204.48 36.8723 204.888 36.2883 205.096 35.5203H206.68C206.376 36.7363 205.784 37.6723 204.904 38.3283C204.024 38.9683 202.896 39.2883 201.52 39.2883Z" fill="#0D1117"/>
<path d="M185.298 39.0004H180.066V21.8164H185.25C186.978 21.8164 188.49 22.1764 189.786 22.8964C191.082 23.6164 192.09 24.6244 192.81 25.9204C193.53 27.2004 193.89 28.6964 193.89 30.4084C193.89 32.1204 193.53 33.6244 192.81 34.9204C192.106 36.2004 191.106 37.2004 189.81 37.9204C188.53 38.6404 187.026 39.0004 185.298 39.0004ZM181.794 22.6324V38.1844L181.002 37.4164H185.226C186.634 37.4164 187.85 37.1284 188.874 36.5524C189.898 35.9764 190.69 35.1684 191.25 34.1284C191.826 33.0724 192.114 31.8324 192.114 30.4084C192.114 28.9844 191.826 27.7444 191.25 26.6884C190.69 25.6324 189.89 24.8244 188.85 24.2644C187.826 23.6884 186.602 23.4004 185.178 23.4004H181.002L181.794 22.6324Z" fill="#0D1117"/>
<path d="M160.471 38.9999H159.031V21.5039H160.687V29.6399C161.087 28.7759 161.663 28.1359 162.415 27.7199C163.183 27.2879 164.063 27.0719 165.055 27.0719C166.191 27.0719 167.151 27.3439 167.935 27.8879C168.735 28.4159 169.343 29.1439 169.759 30.0719C170.191 30.9999 170.407 32.0479 170.407 33.2159C170.407 34.3679 170.191 35.4079 169.759 36.3359C169.327 37.2479 168.711 37.9679 167.911 38.4959C167.111 39.0239 166.143 39.2879 165.007 39.2879C164.047 39.2879 163.183 39.0719 162.415 38.6399C161.647 38.1919 161.055 37.5199 160.639 36.6239L160.471 38.9999ZM160.711 33.1679C160.711 34.0639 160.871 34.8639 161.191 35.5679C161.511 36.2559 161.967 36.7999 162.559 37.1999C163.167 37.5839 163.895 37.7759 164.743 37.7759C165.591 37.7759 166.311 37.5839 166.903 37.1999C167.495 36.7999 167.943 36.2559 168.247 35.5679C168.567 34.8639 168.727 34.0639 168.727 33.1679C168.727 32.2719 168.567 31.4799 168.247 30.7919C167.943 30.1039 167.495 29.5599 166.903 29.1599C166.311 28.7599 165.591 28.5599 164.743 28.5599C163.895 28.5599 163.167 28.7599 162.559 29.1599C161.967 29.5599 161.511 30.1039 161.191 30.7919C160.871 31.4799 160.711 32.2719 160.711 33.1679Z" fill="#0D1117"/>
<path d="M151.223 39.2883C150.103 39.2883 149.111 39.0323 148.247 38.5203C147.399 38.0083 146.735 37.2963 146.255 36.3843C145.775 35.4723 145.535 34.4083 145.535 33.1923C145.535 31.9923 145.767 30.9363 146.231 30.0243C146.711 29.0963 147.367 28.3763 148.199 27.8643C149.031 27.3363 149.999 27.0723 151.103 27.0723C152.159 27.0723 153.079 27.3043 153.863 27.7683C154.663 28.2323 155.279 28.8803 155.711 29.7123C156.159 30.5283 156.383 31.4883 156.383 32.5923V33.4083H146.447L146.495 32.2083H154.727C154.727 31.0883 154.391 30.1923 153.719 29.5203C153.063 28.8323 152.191 28.4883 151.103 28.4883C150.303 28.4883 149.599 28.6723 148.991 29.0403C148.399 29.4083 147.943 29.9363 147.623 30.6243C147.303 31.2963 147.143 32.0963 147.143 33.0243C147.143 34.5603 147.495 35.7523 148.199 36.6003C148.919 37.4483 149.935 37.8723 151.247 37.8723C152.191 37.8723 152.967 37.6723 153.575 37.2723C154.183 36.8723 154.591 36.2883 154.799 35.5203H156.383C156.079 36.7363 155.487 37.6723 154.607 38.3283C153.727 38.9683 152.599 39.2883 151.223 39.2883Z" fill="#0D1117"/>
<path d="M127.948 39.0004L122.836 21.8164H124.636L128.116 33.6244C128.244 34.0404 128.356 34.4724 128.452 34.9204C128.564 35.3684 128.676 35.8804 128.788 36.4564C128.932 35.8324 129.068 35.3124 129.196 34.8964C129.324 34.4644 129.452 34.0404 129.58 33.6244L133.324 21.8164H135.124L138.868 33.6244C138.996 34.0564 139.124 34.5044 139.252 34.9684C139.38 35.4164 139.508 35.9124 139.636 36.4564C139.764 35.8004 139.884 35.2484 139.996 34.8004C140.108 34.3524 140.212 33.9684 140.308 33.6484L143.86 21.8164H145.612L140.452 39.0004H138.82L134.212 24.4084L129.604 39.0004H127.948Z" fill="#0D1117"/>
<rect x="350" width="222" height="60" rx="16" fill="white"/>
<path d="M549.137 27.3839H555.425V28.7759H549.137V27.3839ZM553.097 38.9999H551.465V23.7119H553.097V38.9999Z" fill="#0D1117"/>
<path d="M538.609 39.0003H536.953V27.3843H538.393L538.633 29.4003C539.017 28.6643 539.561 28.0963 540.265 27.6963C540.985 27.2803 541.769 27.0723 542.617 27.0723C544.217 27.0723 545.369 27.5123 546.073 28.3923C546.777 29.2723 547.129 30.4403 547.129 31.8963V39.0003H545.473V32.2563C545.473 30.8963 545.185 29.9443 544.609 29.4003C544.049 28.8563 543.289 28.5843 542.329 28.5843C541.145 28.5843 540.225 28.9843 539.569 29.7843C538.929 30.5683 538.609 31.6163 538.609 32.9283V39.0003Z" fill="#0D1117"/>
<path d="M529.145 39.2883C528.025 39.2883 527.033 39.0323 526.169 38.5203C525.321 38.0083 524.657 37.2963 524.177 36.3843C523.697 35.4723 523.457 34.4083 523.457 33.1923C523.457 31.9923 523.689 30.9363 524.153 30.0243C524.633 29.0963 525.289 28.3763 526.121 27.8643C526.953 27.3363 527.921 27.0723 529.025 27.0723C530.081 27.0723 531.001 27.3043 531.785 27.7683C532.585 28.2323 533.201 28.8803 533.633 29.7123C534.081 30.5283 534.305 31.4883 534.305 32.5923V33.4083H524.369L524.417 32.2083H532.649C532.649 31.0883 532.313 30.1923 531.641 29.5203C530.985 28.8323 530.113 28.4883 529.025 28.4883C528.225 28.4883 527.521 28.6723 526.913 29.0403C526.321 29.4083 525.865 29.9363 525.545 30.6243C525.225 31.2963 525.065 32.0963 525.065 33.0243C525.065 34.5603 525.417 35.7523 526.121 36.6003C526.841 37.4483 527.857 37.8723 529.169 37.8723C530.113 37.8723 530.889 37.6723 531.497 37.2723C532.105 36.8723 532.513 36.2883 532.721 35.5203H534.305C534.001 36.7363 533.409 37.6723 532.529 38.3283C531.649 38.9683 530.521 39.2883 529.145 39.2883Z" fill="#0D1117"/>
<path d="M505.726 39.0003H504.07V27.3843H505.51L505.75 29.5683L505.51 29.4963C505.75 28.7603 506.198 28.1763 506.854 27.7443C507.526 27.2963 508.31 27.0723 509.206 27.0723C510.246 27.0723 511.11 27.3603 511.798 27.9363C512.502 28.4963 512.95 29.2643 513.142 30.2403H512.782C512.942 29.2643 513.374 28.4963 514.078 27.9363C514.798 27.3603 515.694 27.0723 516.766 27.0723C518.014 27.0723 519.022 27.4563 519.79 28.2243C520.558 28.9923 520.942 30.0483 520.942 31.3923V39.0003H519.334V31.7283C519.334 30.7363 519.078 29.9603 518.566 29.4003C518.054 28.8403 517.35 28.5603 516.454 28.5603C515.814 28.5603 515.262 28.7123 514.798 29.0163C514.334 29.3043 513.974 29.6963 513.718 30.1923C513.478 30.6883 513.358 31.2323 513.358 31.8243V39.0003H511.726V31.7043C511.726 30.7123 511.462 29.9443 510.934 29.4003C510.422 28.8563 509.726 28.5843 508.846 28.5843C508.206 28.5843 507.646 28.7283 507.166 29.0163C506.702 29.3043 506.342 29.6963 506.086 30.1923C505.846 30.6723 505.726 31.2083 505.726 31.8003V39.0003Z" fill="#0D1117"/>
<path d="M490.055 44.0643V27.3843H491.495L491.663 29.7363C492.079 28.8403 492.671 28.1763 493.439 27.7443C494.223 27.2963 495.095 27.0723 496.055 27.0723C497.175 27.0723 498.135 27.3363 498.935 27.8643C499.735 28.3923 500.351 29.1123 500.783 30.0243C501.215 30.9363 501.431 31.9763 501.431 33.1443C501.431 34.3123 501.215 35.3603 500.783 36.2883C500.367 37.2163 499.759 37.9523 498.959 38.4963C498.175 39.0243 497.207 39.2883 496.055 39.2883C495.063 39.2883 494.191 39.0803 493.439 38.6643C492.687 38.2323 492.111 37.6003 491.711 36.7683V44.0643H490.055ZM491.735 33.1923C491.735 34.0723 491.895 34.8643 492.215 35.5683C492.535 36.2563 492.991 36.8003 493.583 37.2003C494.191 37.6003 494.919 37.8003 495.767 37.8003C496.615 37.8003 497.335 37.6003 497.927 37.2003C498.519 36.8003 498.967 36.2563 499.271 35.5683C499.591 34.8643 499.751 34.0723 499.751 33.1923C499.751 32.2963 499.591 31.5043 499.271 30.8163C498.967 30.1123 498.519 29.5683 497.927 29.1843C497.335 28.7843 496.615 28.5843 495.767 28.5843C494.919 28.5843 494.191 28.7843 493.583 29.1843C492.991 29.5683 492.535 30.1123 492.215 30.8163C491.895 31.5043 491.735 32.2963 491.735 33.1923Z" fill="#0D1117"/>
<path d="M475.598 33.1923C475.598 31.9923 475.854 30.9363 476.366 30.0243C476.878 29.1123 477.582 28.3923 478.478 27.8643C479.374 27.3363 480.382 27.0723 481.502 27.0723C482.638 27.0723 483.646 27.3363 484.526 27.8643C485.422 28.3923 486.126 29.1123 486.638 30.0243C487.15 30.9363 487.406 31.9923 487.406 33.1923C487.406 34.3603 487.15 35.4083 486.638 36.3363C486.126 37.2483 485.422 37.9683 484.526 38.4963C483.646 39.0243 482.638 39.2883 481.502 39.2883C480.382 39.2883 479.374 39.0243 478.478 38.4963C477.582 37.9683 476.878 37.2483 476.366 36.3363C475.854 35.4083 475.598 34.3603 475.598 33.1923ZM477.278 33.1683C477.278 34.0803 477.454 34.8883 477.806 35.5923C478.174 36.2803 478.67 36.8243 479.294 37.2243C479.934 37.6083 480.67 37.8003 481.502 37.8003C482.334 37.8003 483.062 37.6083 483.686 37.2243C484.326 36.8243 484.822 36.2803 485.174 35.5923C485.542 34.8883 485.726 34.0803 485.726 33.1683C485.726 32.2723 485.542 31.4803 485.174 30.7923C484.822 30.1043 484.326 29.5603 483.686 29.1603C483.062 28.7603 482.334 28.5603 481.502 28.5603C480.67 28.5603 479.934 28.7603 479.294 29.1603C478.67 29.5603 478.174 30.1043 477.806 30.7923C477.454 31.4803 477.278 32.2723 477.278 33.1683Z" fill="#0D1117"/>
<path d="M472.894 38.9999H471.238V21.5039H472.894V38.9999Z" fill="#0D1117"/>
<path d="M463.356 39.2883C462.236 39.2883 461.244 39.0323 460.38 38.5203C459.532 38.0083 458.868 37.2963 458.388 36.3843C457.908 35.4723 457.668 34.4083 457.668 33.1923C457.668 31.9923 457.9 30.9363 458.364 30.0243C458.844 29.0963 459.5 28.3763 460.332 27.8643C461.164 27.3363 462.132 27.0723 463.236 27.0723C464.292 27.0723 465.212 27.3043 465.996 27.7683C466.796 28.2323 467.412 28.8803 467.844 29.7123C468.292 30.5283 468.516 31.4883 468.516 32.5923V33.4083H458.58L458.628 32.2083H466.86C466.86 31.0883 466.524 30.1923 465.852 29.5203C465.196 28.8323 464.324 28.4883 463.236 28.4883C462.436 28.4883 461.732 28.6723 461.124 29.0403C460.532 29.4083 460.076 29.9363 459.756 30.6243C459.436 31.2963 459.276 32.0963 459.276 33.0243C459.276 34.5603 459.628 35.7523 460.332 36.6003C461.052 37.4483 462.068 37.8723 463.38 37.8723C464.324 37.8723 465.1 37.6723 465.708 37.2723C466.316 36.8723 466.724 36.2883 466.932 35.5203H468.516C468.212 36.7363 467.62 37.6723 466.74 38.3283C465.86 38.9683 464.732 39.2883 463.356 39.2883Z" fill="#0D1117"/>
<path d="M450.568 38.9998L445.816 27.3838H447.592L450.592 34.8718C450.768 35.3038 450.92 35.7198 451.048 36.1198C451.192 36.5038 451.32 36.8878 451.432 37.2718C451.544 36.8718 451.672 36.4798 451.816 36.0958C451.96 35.6958 452.12 35.2878 452.296 34.8718L455.344 27.3838H457.048L452.224 38.9998H450.568Z" fill="#0D1117"/>
<path d="M439.848 39.2883C438.728 39.2883 437.736 39.0323 436.872 38.5203C436.024 38.0083 435.36 37.2963 434.88 36.3843C434.4 35.4723 434.16 34.4083 434.16 33.1923C434.16 31.9923 434.392 30.9363 434.856 30.0243C435.336 29.0963 435.992 28.3763 436.824 27.8643C437.656 27.3363 438.624 27.0723 439.728 27.0723C440.784 27.0723 441.704 27.3043 442.488 27.7683C443.288 28.2323 443.904 28.8803 444.336 29.7123C444.784 30.5283 445.008 31.4883 445.008 32.5923V33.4083H435.072L435.12 32.2083H443.352C443.352 31.0883 443.016 30.1923 442.344 29.5203C441.688 28.8323 440.816 28.4883 439.728 28.4883C438.928 28.4883 438.224 28.6723 437.616 29.0403C437.024 29.4083 436.568 29.9363 436.248 30.6243C435.928 31.2963 435.768 32.0963 435.768 33.0243C435.768 34.5603 436.12 35.7523 436.824 36.6003C437.544 37.4483 438.56 37.8723 439.872 37.8723C440.816 37.8723 441.592 37.6723 442.2 37.2723C442.808 36.8723 443.216 36.2883 443.424 35.5203H445.008C444.704 36.7363 444.112 37.6723 443.232 38.3283C442.352 38.9683 441.224 39.2883 439.848 39.2883Z" fill="#0D1117"/>
<path d="M423.627 39.0004H418.395V21.8164H423.579C425.307 21.8164 426.819 22.1764 428.115 22.8964C429.411 23.6164 430.419 24.6244 431.139 25.9204C431.859 27.2004 432.219 28.6964 432.219 30.4084C432.219 32.1204 431.859 33.6244 431.139 34.9204C430.435 36.2004 429.435 37.2004 428.139 37.9204C426.859 38.6404 425.355 39.0004 423.627 39.0004ZM420.123 22.6324V38.1844L419.331 37.4164H423.555C424.963 37.4164 426.179 37.1284 427.203 36.5524C428.227 35.9764 429.019 35.1684 429.579 34.1284C430.155 33.0724 430.443 31.8324 430.443 30.4084C430.443 28.9844 430.155 27.7444 429.579 26.6884C429.019 25.6324 428.219 24.8244 427.179 24.2644C426.155 23.6884 424.931 23.4004 423.507 23.4004H419.331L420.123 22.6324Z" fill="#0D1117"/>
<path d="M397.359 44.0643V27.3843H398.799L398.967 29.7363C399.383 28.8403 399.975 28.1763 400.743 27.7443C401.527 27.2963 402.399 27.0723 403.359 27.0723C404.479 27.0723 405.439 27.3363 406.239 27.8643C407.039 28.3923 407.655 29.1123 408.087 30.0243C408.519 30.9363 408.735 31.9763 408.735 33.1443C408.735 34.3123 408.519 35.3603 408.087 36.2883C407.671 37.2163 407.063 37.9523 406.263 38.4963C405.479 39.0243 404.511 39.2883 403.359 39.2883C402.367 39.2883 401.495 39.0803 400.743 38.6643C399.991 38.2323 399.415 37.6003 399.015 36.7683V44.0643H397.359ZM399.039 33.1923C399.039 34.0723 399.199 34.8643 399.519 35.5683C399.839 36.2563 400.295 36.8003 400.887 37.2003C401.495 37.6003 402.223 37.8003 403.071 37.8003C403.919 37.8003 404.639 37.6003 405.231 37.2003C405.823 36.8003 406.271 36.2563 406.575 35.5683C406.895 34.8643 407.055 34.0723 407.055 33.1923C407.055 32.2963 406.895 31.5043 406.575 30.8163C406.271 30.1123 405.823 29.5683 405.231 29.1843C404.639 28.7843 403.919 28.5843 403.071 28.5843C402.223 28.5843 401.495 28.7843 400.887 29.1843C400.295 29.5683 399.839 30.1123 399.519 30.8163C399.199 31.5043 399.039 32.2963 399.039 33.1923Z" fill="#0D1117"/>
<path d="M383.344 44.0643V27.3843H384.784L384.952 29.7363C385.368 28.8403 385.96 28.1763 386.728 27.7443C387.512 27.2963 388.384 27.0723 389.344 27.0723C390.464 27.0723 391.424 27.3363 392.224 27.8643C393.024 28.3923 393.64 29.1123 394.072 30.0243C394.504 30.9363 394.72 31.9763 394.72 33.1443C394.72 34.3123 394.504 35.3603 394.072 36.2883C393.656 37.2163 393.048 37.9523 392.248 38.4963C391.464 39.0243 390.496 39.2883 389.344 39.2883C388.352 39.2883 387.48 39.0803 386.728 38.6643C385.976 38.2323 385.4 37.6003 385 36.7683V44.0643H383.344ZM385.024 33.1923C385.024 34.0723 385.184 34.8643 385.504 35.5683C385.824 36.2563 386.28 36.8003 386.872 37.2003C387.48 37.6003 388.208 37.8003 389.056 37.8003C389.904 37.8003 390.624 37.6003 391.216 37.2003C391.808 36.8003 392.256 36.2563 392.56 35.5683C392.88 34.8643 393.04 34.0723 393.04 33.1923C393.04 32.2963 392.88 31.5043 392.56 30.8163C392.256 30.1123 391.808 29.5683 391.216 29.1843C390.624 28.7843 389.904 28.5843 389.056 28.5843C388.208 28.5843 387.48 28.7843 386.872 29.1843C386.28 29.5683 385.824 30.1123 385.504 30.8163C385.184 31.5043 385.024 32.2963 385.024 33.1923Z" fill="#0D1117"/>
<path d="M368.236 39.0004H366.484L372.796 21.8164H374.932L381.316 39.0004H379.516L377.836 34.4404H369.916L368.236 39.0004ZM373.636 24.2404L370.444 32.9284H377.284L374.068 24.2404C374.036 24.1124 373.996 23.9844 373.948 23.8564C373.9 23.7284 373.868 23.6244 373.852 23.5444C373.836 23.6244 373.804 23.7364 373.756 23.8804C373.724 24.0084 373.684 24.1284 373.636 24.2404Z" fill="#0D1117"/>
<rect x="390" y="78" width="182" height="60" rx="16" fill="white"/>
<path d="M546.312 113.736H547.896C547.896 114.408 548.137 114.944 548.617 115.344C549.097 115.728 549.736 115.92 550.536 115.92C551.432 115.92 552.128 115.744 552.624 115.392C553.136 115.024 553.393 114.528 553.393 113.904C553.393 113.424 553.256 113.04 552.984 112.752C552.712 112.464 552.232 112.232 551.544 112.056L549.552 111.552C548.544 111.296 547.792 110.904 547.296 110.376C546.8 109.848 546.552 109.192 546.552 108.408C546.552 107.736 546.728 107.152 547.08 106.656C547.432 106.144 547.92 105.752 548.544 105.48C549.184 105.208 549.921 105.072 550.753 105.072C551.569 105.072 552.281 105.216 552.889 105.504C553.497 105.792 553.969 106.2 554.305 106.728C554.657 107.24 554.84 107.856 554.856 108.576H553.249C553.233 107.888 553 107.36 552.552 106.992C552.104 106.624 551.488 106.44 550.704 106.44C549.888 106.44 549.257 106.608 548.809 106.944C548.377 107.28 548.16 107.76 548.16 108.384C548.16 109.28 548.793 109.888 550.057 110.208L552.048 110.712C553.056 110.968 553.793 111.344 554.257 111.84C554.737 112.336 554.977 113 554.977 113.832C554.977 114.52 554.792 115.128 554.424 115.656C554.056 116.184 553.537 116.592 552.865 116.88C552.209 117.152 551.441 117.288 550.561 117.288C549.265 117.288 548.232 116.968 547.464 116.328C546.696 115.672 546.312 114.808 546.312 113.736Z" fill="#0D1117"/>
<path d="M539.489 117.288C538.369 117.288 537.377 117.032 536.513 116.52C535.665 116.008 535.001 115.296 534.521 114.384C534.041 113.472 533.801 112.408 533.801 111.192C533.801 109.992 534.033 108.936 534.497 108.024C534.977 107.096 535.633 106.376 536.465 105.864C537.297 105.336 538.265 105.072 539.369 105.072C540.425 105.072 541.345 105.304 542.129 105.768C542.929 106.232 543.545 106.88 543.977 107.712C544.425 108.528 544.649 109.488 544.649 110.592V111.408H534.713L534.761 110.208H542.993C542.993 109.088 542.657 108.192 541.985 107.52C541.329 106.832 540.457 106.488 539.369 106.488C538.569 106.488 537.865 106.672 537.257 107.04C536.665 107.408 536.209 107.936 535.889 108.624C535.569 109.296 535.409 110.096 535.409 111.024C535.409 112.56 535.761 113.752 536.465 114.6C537.185 115.448 538.201 115.872 539.513 115.872C540.457 115.872 541.233 115.672 541.841 115.272C542.449 114.872 542.857 114.288 543.065 113.52H544.649C544.345 114.736 543.753 115.672 542.873 116.328C541.993 116.968 540.865 117.288 539.489 117.288Z" fill="#0D1117"/>
<path d="M532.861 105.24V106.728H531.949C530.877 106.728 530.021 107.056 529.381 107.712C528.757 108.368 528.445 109.256 528.445 110.376V117H526.789V105.384H528.349L528.493 107.664H528.325C528.485 106.912 528.877 106.304 529.501 105.84C530.125 105.36 530.885 105.12 531.781 105.12C531.957 105.12 532.133 105.128 532.309 105.144C532.485 105.16 532.669 105.192 532.861 105.24Z" fill="#0D1117"/>
<path d="M512.332 111.192C512.332 109.992 512.588 108.936 513.1 108.024C513.612 107.112 514.316 106.392 515.212 105.864C516.108 105.336 517.116 105.072 518.236 105.072C519.372 105.072 520.38 105.336 521.26 105.864C522.156 106.392 522.86 107.112 523.372 108.024C523.884 108.936 524.14 109.992 524.14 111.192C524.14 112.36 523.884 113.408 523.372 114.336C522.86 115.248 522.156 115.968 521.26 116.496C520.38 117.024 519.372 117.288 518.236 117.288C517.116 117.288 516.108 117.024 515.212 116.496C514.316 115.968 513.612 115.248 513.1 114.336C512.588 113.408 512.332 112.36 512.332 111.192ZM514.012 111.168C514.012 112.08 514.188 112.888 514.54 113.592C514.908 114.28 515.404 114.824 516.028 115.224C516.668 115.608 517.404 115.8 518.236 115.8C519.068 115.8 519.796 115.608 520.42 115.224C521.06 114.824 521.556 114.28 521.908 113.592C522.276 112.888 522.46 112.08 522.46 111.168C522.46 110.272 522.276 109.48 521.908 108.792C521.556 108.104 521.06 107.56 520.42 107.16C519.796 106.76 519.068 106.56 518.236 106.56C517.404 106.56 516.668 106.76 516.028 107.16C515.404 107.56 514.908 108.104 514.54 108.792C514.188 109.48 514.012 110.272 514.012 111.168Z" fill="#0D1117"/>
<path d="M504.824 105.384H511.112V106.776H504.824V105.384ZM508.784 117H507.152V101.712H508.784V117Z" fill="#0D1117"/>
<path d="M491.923 104.28C491.923 103.32 492.163 102.488 492.643 101.784C493.123 101.064 493.795 100.504 494.659 100.104C495.523 99.7039 496.531 99.5039 497.683 99.5039C498.723 99.5039 499.627 99.6879 500.395 100.056C501.179 100.424 501.803 100.952 502.267 101.64C502.731 102.328 503.003 103.152 503.083 104.112H501.331C501.235 103.152 500.867 102.408 500.227 101.88C499.587 101.336 498.731 101.064 497.659 101.064C496.459 101.064 495.491 101.352 494.755 101.928C494.019 102.504 493.651 103.28 493.651 104.256C493.651 105.008 493.875 105.632 494.323 106.128C494.771 106.608 495.443 106.96 496.339 107.184L499.291 107.904C500.635 108.224 501.651 108.768 502.339 109.536C503.027 110.288 503.371 111.248 503.371 112.416C503.371 113.392 503.131 114.248 502.651 114.984C502.171 115.72 501.491 116.288 500.611 116.688C499.731 117.088 498.699 117.288 497.515 117.288C496.411 117.288 495.427 117.104 494.563 116.736C493.715 116.368 493.043 115.84 492.547 115.152C492.067 114.464 491.787 113.656 491.707 112.728H493.483C493.531 113.64 493.923 114.368 494.659 114.912C495.395 115.44 496.347 115.704 497.515 115.704C498.779 115.704 499.779 115.416 500.515 114.84C501.267 114.264 501.643 113.488 501.643 112.512C501.643 111.728 501.419 111.096 500.971 110.616C500.539 110.12 499.859 109.76 498.931 109.536L496.027 108.816C494.683 108.496 493.659 107.96 492.955 107.208C492.267 106.44 491.923 105.464 491.923 104.28Z" fill="#0D1117"/>
<path d="M474.881 105.384L479.249 117.24L478.025 118.2L473.129 105.384H474.881ZM473.465 122.064V120.696H474.737C475.073 120.696 475.401 120.664 475.721 120.6C476.057 120.552 476.361 120.416 476.633 120.192C476.921 119.968 477.153 119.592 477.329 119.064L482.297 105.384H484.001L478.673 119.664C478.337 120.576 477.881 121.232 477.305 121.632C476.745 122.032 476.049 122.232 475.217 122.232C474.881 122.232 474.569 122.216 474.281 122.184C473.993 122.168 473.721 122.128 473.465 122.064Z" fill="#0D1117"/>
<path d="M466.223 105.384H472.391V106.776H466.223V105.384ZM472.487 99.5999V101.016C472.375 101.016 472.231 101.016 472.055 101.016C471.879 101.016 471.695 101.016 471.503 101.016C470.767 101.016 470.271 101.2 470.015 101.568C469.775 101.92 469.655 102.44 469.655 103.128V117H467.999V103.128C467.999 102.264 468.143 101.568 468.431 101.04C468.719 100.496 469.103 100.104 469.583 99.8639C470.079 99.6239 470.623 99.5039 471.215 99.5039C471.423 99.5039 471.639 99.5119 471.863 99.5279C472.087 99.5439 472.295 99.5679 472.487 99.5999Z" fill="#0D1117"/>
<path d="M462.408 117V105.384H464.064V117H462.408ZM463.224 102.192C462.888 102.192 462.6 102.072 462.36 101.832C462.12 101.592 462 101.304 462 100.968C462 100.632 462.12 100.344 462.36 100.104C462.6 99.8477 462.888 99.7197 463.224 99.7197C463.56 99.7197 463.848 99.8477 464.088 100.104C464.344 100.344 464.472 100.632 464.472 100.968C464.472 101.304 464.344 101.592 464.088 101.832C463.848 102.072 463.56 102.192 463.224 102.192Z" fill="#0D1117"/>
<path d="M448.391 122.064V105.384H449.831L449.999 107.736C450.415 106.84 451.007 106.176 451.775 105.744C452.559 105.296 453.431 105.072 454.391 105.072C455.511 105.072 456.471 105.336 457.271 105.864C458.071 106.392 458.687 107.112 459.119 108.024C459.551 108.936 459.767 109.976 459.767 111.144C459.767 112.312 459.551 113.36 459.119 114.288C458.703 115.216 458.095 115.952 457.295 116.496C456.511 117.024 455.543 117.288 454.391 117.288C453.399 117.288 452.527 117.08 451.775 116.664C451.023 116.232 450.447 115.6 450.047 114.768V122.064H448.391ZM450.071 111.192C450.071 112.072 450.231 112.864 450.551 113.568C450.871 114.256 451.327 114.8 451.919 115.2C452.527 115.6 453.255 115.8 454.103 115.8C454.951 115.8 455.671 115.6 456.263 115.2C456.855 114.8 457.303 114.256 457.607 113.568C457.927 112.864 458.087 112.072 458.087 111.192C458.087 110.296 457.927 109.504 457.607 108.816C457.303 108.112 456.855 107.568 456.263 107.184C455.671 106.784 454.951 106.584 454.103 106.584C453.255 106.584 452.527 106.784 451.919 107.184C451.327 107.568 450.871 108.112 450.551 108.816C450.231 109.504 450.071 110.296 450.071 111.192Z" fill="#0D1117"/>
<path d="M433.934 111.192C433.934 109.992 434.19 108.936 434.702 108.024C435.214 107.112 435.918 106.392 436.814 105.864C437.71 105.336 438.718 105.072 439.838 105.072C440.974 105.072 441.982 105.336 442.862 105.864C443.758 106.392 444.462 107.112 444.974 108.024C445.486 108.936 445.742 109.992 445.742 111.192C445.742 112.36 445.486 113.408 444.974 114.336C444.462 115.248 443.758 115.968 442.862 116.496C441.982 117.024 440.974 117.288 439.838 117.288C438.718 117.288 437.71 117.024 436.814 116.496C435.918 115.968 435.214 115.248 434.702 114.336C434.19 113.408 433.934 112.36 433.934 111.192ZM435.614 111.168C435.614 112.08 435.79 112.888 436.142 113.592C436.51 114.28 437.006 114.824 437.63 115.224C438.27 115.608 439.006 115.8 439.838 115.8C440.67 115.8 441.398 115.608 442.022 115.224C442.662 114.824 443.158 114.28 443.51 113.592C443.878 112.888 444.062 112.08 444.062 111.168C444.062 110.272 443.878 109.48 443.51 108.792C443.158 108.104 442.662 107.56 442.022 107.16C441.398 106.76 440.67 106.56 439.838 106.56C439.006 106.56 438.27 106.76 437.63 107.16C437.006 107.56 436.51 108.104 436.142 108.792C435.79 109.48 435.614 110.272 435.614 111.168Z" fill="#0D1117"/>
<path d="M422.929 116.976H421.273V99.5039H422.929V107.4C423.297 106.696 423.825 106.136 424.513 105.72C425.217 105.288 426.057 105.072 427.033 105.072C428.569 105.072 429.689 105.512 430.393 106.392C431.097 107.272 431.449 108.44 431.449 109.896V117H429.793V110.256C429.793 109.344 429.665 108.624 429.409 108.096C429.153 107.552 428.793 107.168 428.329 106.944C427.865 106.704 427.329 106.584 426.721 106.584C425.889 106.584 425.193 106.768 424.633 107.136C424.073 107.504 423.649 108 423.361 108.624C423.073 109.232 422.929 109.912 422.929 110.664V116.976Z" fill="#0D1117"/>
<path d="M407.079 104.28C407.079 103.32 407.319 102.488 407.799 101.784C408.279 101.064 408.951 100.504 409.815 100.104C410.679 99.7039 411.687 99.5039 412.839 99.5039C413.879 99.5039 414.783 99.6879 415.551 100.056C416.335 100.424 416.959 100.952 417.423 101.64C417.887 102.328 418.159 103.152 418.239 104.112H416.487C416.391 103.152 416.023 102.408 415.383 101.88C414.743 101.336 413.887 101.064 412.815 101.064C411.615 101.064 410.647 101.352 409.911 101.928C409.175 102.504 408.807 103.28 408.807 104.256C408.807 105.008 409.031 105.632 409.479 106.128C409.927 106.608 410.599 106.96 411.495 107.184L414.447 107.904C415.791 108.224 416.807 108.768 417.495 109.536C418.183 110.288 418.527 111.248 418.527 112.416C418.527 113.392 418.287 114.248 417.807 114.984C417.327 115.72 416.647 116.288 415.767 116.688C414.887 117.088 413.855 117.288 412.671 117.288C411.567 117.288 410.583 117.104 409.719 116.736C408.871 116.368 408.199 115.84 407.703 115.152C407.223 114.464 406.943 113.656 406.863 112.728H408.639C408.687 113.64 409.079 114.368 409.815 114.912C410.551 115.44 411.503 115.704 412.671 115.704C413.935 115.704 414.935 115.416 415.671 114.84C416.423 114.264 416.799 113.488 416.799 112.512C416.799 111.728 416.575 111.096 416.127 110.616C415.695 110.12 415.015 109.76 414.087 109.536L411.183 108.816C409.839 108.496 408.815 107.96 408.111 107.208C407.423 106.44 407.079 105.464 407.079 104.28Z" fill="#0D1117"/>
<rect x="177" y="78" width="197" height="60" rx="16" fill="white"/>
<path d="M348.336 113.736H349.92C349.92 114.408 350.16 114.944 350.64 115.344C351.12 115.728 351.76 115.92 352.56 115.92C353.456 115.92 354.152 115.744 354.648 115.392C355.16 115.024 355.416 114.528 355.416 113.904C355.416 113.424 355.28 113.04 355.008 112.752C354.736 112.464 354.256 112.232 353.568 112.056L351.576 111.552C350.568 111.296 349.816 110.904 349.32 110.376C348.824 109.848 348.576 109.192 348.576 108.408C348.576 107.736 348.752 107.152 349.104 106.656C349.456 106.144 349.944 105.752 350.568 105.48C351.208 105.208 351.944 105.072 352.776 105.072C353.592 105.072 354.304 105.216 354.912 105.504C355.52 105.792 355.992 106.2 356.328 106.728C356.68 107.24 356.864 107.856 356.88 108.576H355.272C355.256 107.888 355.024 107.36 354.576 106.992C354.128 106.624 353.512 106.44 352.728 106.44C351.912 106.44 351.28 106.608 350.832 106.944C350.4 107.28 350.184 107.76 350.184 108.384C350.184 109.28 350.816 109.888 352.08 110.208L354.072 110.712C355.08 110.968 355.816 111.344 356.28 111.84C356.76 112.336 357 113 357 113.832C357 114.52 356.816 115.128 356.448 115.656C356.08 116.184 355.56 116.592 354.888 116.88C354.232 117.152 353.464 117.288 352.584 117.288C351.288 117.288 350.256 116.968 349.488 116.328C348.72 115.672 348.336 114.808 348.336 113.736Z" fill="#0D1117"/>
<path d="M337.64 117H335.984V105.384H337.424L337.664 107.4C338.048 106.664 338.592 106.096 339.296 105.696C340.016 105.28 340.8 105.072 341.648 105.072C343.248 105.072 344.4 105.512 345.104 106.392C345.808 107.272 346.16 108.44 346.16 109.896V117H344.504V110.256C344.504 108.896 344.216 107.944 343.64 107.4C343.08 106.856 342.32 106.584 341.36 106.584C340.176 106.584 339.256 106.984 338.6 107.784C337.96 108.568 337.64 109.616 337.64 110.928V117Z" fill="#0D1117"/>
<path d="M321.527 111.192C321.527 109.992 321.783 108.936 322.295 108.024C322.807 107.112 323.511 106.392 324.407 105.864C325.303 105.336 326.311 105.072 327.431 105.072C328.567 105.072 329.575 105.336 330.455 105.864C331.351 106.392 332.055 107.112 332.567 108.024C333.079 108.936 333.335 109.992 333.335 111.192C333.335 112.36 333.079 113.408 332.567 114.336C332.055 115.248 331.351 115.968 330.455 116.496C329.575 117.024 328.567 117.288 327.431 117.288C326.311 117.288 325.303 117.024 324.407 116.496C323.511 115.968 322.807 115.248 322.295 114.336C321.783 113.408 321.527 112.36 321.527 111.192ZM323.207 111.168C323.207 112.08 323.383 112.888 323.735 113.592C324.103 114.28 324.599 114.824 325.223 115.224C325.863 115.608 326.599 115.8 327.431 115.8C328.263 115.8 328.991 115.608 329.615 115.224C330.255 114.824 330.751 114.28 331.103 113.592C331.471 112.888 331.655 112.08 331.655 111.168C331.655 110.272 331.471 109.48 331.103 108.792C330.751 108.104 330.255 107.56 329.615 107.16C328.991 106.76 328.263 106.56 327.431 106.56C326.599 106.56 325.863 106.76 325.223 107.16C324.599 107.56 324.103 108.104 323.735 108.792C323.383 109.48 323.207 110.272 323.207 111.168Z" fill="#0D1117"/>
<path d="M317.236 117V105.384H318.892V117H317.236ZM318.052 102.192C317.716 102.192 317.428 102.072 317.188 101.832C316.948 101.592 316.828 101.304 316.828 100.968C316.828 100.632 316.948 100.344 317.188 100.104C317.428 99.8477 317.716 99.7197 318.052 99.7197C318.388 99.7197 318.676 99.8477 318.916 100.104C319.172 100.344 319.3 100.632 319.3 100.968C319.3 101.304 319.172 101.592 318.916 101.832C318.676 102.072 318.388 102.192 318.052 102.192Z" fill="#0D1117"/>
<path d="M308.793 105.384H315.081V106.776H308.793V105.384ZM312.753 117H311.121V101.712H312.753V117Z" fill="#0D1117"/>
<path d="M304.984 105.384H306.64V117H305.2L304.984 115.032C304.664 115.704 304.128 116.248 303.376 116.664C302.64 117.08 301.816 117.288 300.904 117.288C299.544 117.288 298.496 116.856 297.76 115.992C297.04 115.128 296.68 113.992 296.68 112.584V105.36H298.36V112.056C298.36 113.432 298.64 114.4 299.2 114.96C299.776 115.52 300.52 115.8 301.432 115.8C302.552 115.8 303.424 115.44 304.048 114.72C304.672 113.984 304.984 112.928 304.984 111.552V105.384Z" fill="#0D1117"/>
<path d="M293.301 117H291.645V99.5039H293.301V117Z" fill="#0D1117"/>
<path d="M277.113 111.192C277.113 109.992 277.369 108.936 277.881 108.024C278.393 107.112 279.097 106.392 279.993 105.864C280.889 105.336 281.897 105.072 283.017 105.072C284.153 105.072 285.161 105.336 286.041 105.864C286.937 106.392 287.641 107.112 288.153 108.024C288.665 108.936 288.921 109.992 288.921 111.192C288.921 112.36 288.665 113.408 288.153 114.336C287.641 115.248 286.937 115.968 286.041 116.496C285.161 117.024 284.153 117.288 283.017 117.288C281.897 117.288 280.889 117.024 279.993 116.496C279.097 115.968 278.393 115.248 277.881 114.336C277.369 113.408 277.113 112.36 277.113 111.192ZM278.793 111.168C278.793 112.08 278.969 112.888 279.321 113.592C279.689 114.28 280.185 114.824 280.809 115.224C281.449 115.608 282.185 115.8 283.017 115.8C283.849 115.8 284.577 115.608 285.201 115.224C285.841 114.824 286.337 114.28 286.689 113.592C287.057 112.888 287.241 112.08 287.241 111.168C287.241 110.272 287.057 109.48 286.689 108.792C286.337 108.104 285.841 107.56 285.201 107.16C284.577 106.76 283.849 106.56 283.017 106.56C282.185 106.56 281.449 106.76 280.809 107.16C280.185 107.56 279.689 108.104 279.321 108.792C278.969 109.48 278.793 110.272 278.793 111.168Z" fill="#0D1117"/>
<path d="M263.736 104.28C263.736 103.32 263.976 102.488 264.456 101.784C264.936 101.064 265.608 100.504 266.472 100.104C267.336 99.7039 268.344 99.5039 269.496 99.5039C270.536 99.5039 271.44 99.6879 272.208 100.056C272.992 100.424 273.616 100.952 274.08 101.64C274.544 102.328 274.816 103.152 274.896 104.112H273.144C273.048 103.152 272.68 102.408 272.04 101.88C271.4 101.336 270.544 101.064 269.472 101.064C268.272 101.064 267.304 101.352 266.568 101.928C265.832 102.504 265.464 103.28 265.464 104.256C265.464 105.008 265.688 105.632 266.136 106.128C266.584 106.608 267.256 106.96 268.152 107.184L271.104 107.904C272.448 108.224 273.464 108.768 274.152 109.536C274.84 110.288 275.184 111.248 275.184 112.416C275.184 113.392 274.944 114.248 274.464 114.984C273.984 115.72 273.304 116.288 272.424 116.688C271.544 117.088 270.512 117.288 269.328 117.288C268.224 117.288 267.24 117.104 266.376 116.736C265.528 116.368 264.856 115.84 264.36 115.152C263.88 114.464 263.6 113.656 263.52 112.728H265.296C265.344 113.64 265.736 114.368 266.472 114.912C267.208 115.44 268.16 115.704 269.328 115.704C270.592 115.704 271.592 115.416 272.328 114.84C273.08 114.264 273.456 113.488 273.456 112.512C273.456 111.728 273.232 111.096 272.784 110.616C272.352 110.12 271.672 109.76 270.744 109.536L267.84 108.816C266.496 108.496 265.472 107.96 264.768 107.208C264.08 106.44 263.736 105.464 263.736 104.28Z" fill="#0D1117"/>
<path d="M248.294 117.288C247.174 117.288 246.214 117.024 245.414 116.496C244.614 115.968 243.998 115.248 243.566 114.336C243.134 113.408 242.918 112.368 242.918 111.216C242.918 110.048 243.134 109 243.566 108.072C243.998 107.144 244.614 106.416 245.414 105.888C246.23 105.344 247.214 105.072 248.366 105.072C249.326 105.072 250.174 105.28 250.91 105.696C251.662 106.112 252.238 106.744 252.638 107.592V99.5039H254.294V117H252.854L252.686 114.624C252.27 115.52 251.678 116.192 250.91 116.64C250.142 117.072 249.27 117.288 248.294 117.288ZM248.582 115.776C249.446 115.776 250.174 115.584 250.766 115.2C251.358 114.8 251.814 114.256 252.134 113.568C252.454 112.864 252.614 112.064 252.614 111.168C252.614 110.272 252.454 109.48 252.134 108.792C251.814 108.104 251.358 107.56 250.766 107.16C250.174 106.76 249.446 106.56 248.582 106.56C247.75 106.56 247.03 106.76 246.422 107.16C245.83 107.56 245.374 108.104 245.054 108.792C244.75 109.48 244.598 110.272 244.598 111.168C244.598 112.064 244.75 112.864 245.054 113.568C245.374 114.256 245.83 114.8 246.422 115.2C247.03 115.584 247.75 115.776 248.582 115.776Z" fill="#0D1117"/>
<path d="M238.867 105.384H240.523V117H239.083L238.867 115.032C238.547 115.704 238.01 116.248 237.258 116.664C236.522 117.08 235.698 117.288 234.786 117.288C233.426 117.288 232.379 116.856 231.643 115.992C230.923 115.128 230.562 113.992 230.562 112.584V105.36H232.243V112.056C232.243 113.432 232.523 114.4 233.083 114.96C233.659 115.52 234.402 115.8 235.314 115.8C236.434 115.8 237.306 115.44 237.931 114.72C238.555 113.984 238.867 112.928 238.867 111.552V105.384Z" fill="#0D1117"/>
<path d="M216.527 111.192C216.527 109.992 216.783 108.936 217.295 108.024C217.807 107.112 218.511 106.392 219.407 105.864C220.303 105.336 221.311 105.072 222.431 105.072C223.567 105.072 224.575 105.336 225.455 105.864C226.351 106.392 227.055 107.112 227.567 108.024C228.079 108.936 228.335 109.992 228.335 111.192C228.335 112.36 228.079 113.408 227.567 114.336C227.055 115.248 226.351 115.968 225.455 116.496C224.575 117.024 223.567 117.288 222.431 117.288C221.311 117.288 220.303 117.024 219.407 116.496C218.511 115.968 217.807 115.248 217.295 114.336C216.783 113.408 216.527 112.36 216.527 111.192ZM218.207 111.168C218.207 112.08 218.383 112.888 218.735 113.592C219.103 114.28 219.599 114.824 220.223 115.224C220.863 115.608 221.599 115.8 222.431 115.8C223.263 115.8 223.991 115.608 224.615 115.224C225.255 114.824 225.751 114.28 226.103 113.592C226.471 112.888 226.655 112.08 226.655 111.168C226.655 110.272 226.471 109.48 226.103 108.792C225.751 108.104 225.255 107.56 224.615 107.16C223.991 106.76 223.263 106.56 222.431 106.56C221.599 106.56 220.863 106.76 220.223 107.16C219.599 107.56 219.103 108.104 218.735 108.792C218.383 109.48 218.207 110.272 218.207 111.168Z" fill="#0D1117"/>
<path d="M213.824 117H212.168V99.5039H213.824V117Z" fill="#0D1117"/>
<path d="M202.095 117.264C200.495 117.264 199.087 116.896 197.871 116.16C196.671 115.408 195.727 114.368 195.039 113.04C194.367 111.712 194.031 110.168 194.031 108.408C194.031 106.648 194.375 105.104 195.063 103.776C195.751 102.432 196.711 101.392 197.943 100.656C199.175 99.9043 200.591 99.5283 202.191 99.5283C203.439 99.5283 204.567 99.7603 205.575 100.224C206.583 100.688 207.431 101.344 208.119 102.192C208.807 103.024 209.263 104.016 209.487 105.168H207.639C207.271 103.92 206.599 102.944 205.623 102.24C204.647 101.536 203.479 101.184 202.119 101.184C200.871 101.184 199.767 101.488 198.807 102.096C197.863 102.688 197.127 103.528 196.599 104.616C196.087 105.688 195.831 106.952 195.831 108.408C195.831 109.832 196.095 111.088 196.623 112.176C197.151 113.264 197.887 114.112 198.831 114.72C199.775 115.312 200.871 115.608 202.119 115.608C203.479 115.608 204.663 115.264 205.671 114.576C206.679 113.888 207.367 112.976 207.735 111.84H209.583C209.327 112.912 208.839 113.856 208.119 114.672C207.415 115.488 206.543 116.128 205.503 116.592C204.463 117.04 203.327 117.264 202.095 117.264Z" fill="#0D1117"/>
<rect x="365" y="156" width="207" height="60" rx="16" fill="white"/>
<path d="M542.492 188.856C542.492 187.8 542.708 186.84 543.14 185.976C543.572 185.096 544.196 184.392 545.012 183.864C545.828 183.336 546.804 183.072 547.94 183.072C549.044 183.072 549.988 183.344 550.772 183.888C551.556 184.432 552.116 185.216 552.452 186.24L552.188 186.576L552.404 183.384H553.844V194.64C553.844 195.792 553.612 196.792 553.148 197.64C552.684 198.504 552.028 199.168 551.18 199.632C550.348 200.112 549.364 200.352 548.228 200.352C546.74 200.352 545.508 199.952 544.532 199.152C543.556 198.352 542.948 197.256 542.708 195.864H544.364C544.54 196.808 544.964 197.536 545.636 198.048C546.324 198.576 547.196 198.84 548.252 198.84C549.452 198.84 550.412 198.472 551.132 197.736C551.852 197 552.212 196.024 552.212 194.808V191.16L552.452 191.472C552.116 192.448 551.532 193.224 550.7 193.8C549.884 194.36 548.924 194.64 547.82 194.64C546.716 194.64 545.764 194.376 544.964 193.848C544.164 193.32 543.548 192.624 543.116 191.76C542.7 190.88 542.492 189.912 542.492 188.856ZM544.148 188.832C544.148 189.632 544.3 190.36 544.604 191.016C544.924 191.672 545.372 192.192 545.948 192.576C546.54 192.96 547.244 193.152 548.06 193.152C548.892 193.152 549.604 192.968 550.196 192.6C550.804 192.216 551.268 191.704 551.588 191.064C551.908 190.408 552.068 189.664 552.068 188.832C552.068 188 551.908 187.264 551.588 186.624C551.284 185.984 550.836 185.48 550.244 185.112C549.668 184.728 548.948 184.536 548.084 184.536C547.252 184.536 546.54 184.736 545.948 185.136C545.372 185.52 544.924 186.04 544.604 186.696C544.3 187.336 544.148 188.048 544.148 188.832Z" fill="black"/>
<path d="M531.461 195H529.805V183.384H531.245L531.485 185.4C531.869 184.664 532.413 184.096 533.117 183.696C533.837 183.28 534.621 183.072 535.469 183.072C537.069 183.072 538.221 183.512 538.925 184.392C539.629 185.272 539.981 186.44 539.981 187.896V195H538.325V188.256C538.325 186.896 538.037 185.944 537.461 185.4C536.901 184.856 536.141 184.584 535.181 184.584C533.997 184.584 533.077 184.984 532.421 185.784C531.781 186.568 531.461 187.616 531.461 188.928V195Z" fill="black"/>
<path d="M524.697 195V183.384H526.353V195H524.697ZM525.513 180.192C525.177 180.192 524.889 180.072 524.649 179.832C524.409 179.592 524.289 179.304 524.289 178.968C524.289 178.632 524.409 178.344 524.649 178.104C524.889 177.848 525.177 177.72 525.513 177.72C525.849 177.72 526.137 177.848 526.377 178.104C526.633 178.344 526.761 178.632 526.761 178.968C526.761 179.304 526.633 179.592 526.377 179.832C526.137 180.072 525.849 180.192 525.513 180.192Z" fill="black"/>
<path d="M512.875 195H511.219V183.384H512.659L512.899 185.4C513.283 184.664 513.827 184.096 514.531 183.696C515.251 183.28 516.035 183.072 516.883 183.072C518.483 183.072 519.635 183.512 520.339 184.392C521.043 185.272 521.395 186.44 521.395 187.896V195H519.739V188.256C519.739 186.896 519.451 185.944 518.875 185.4C518.315 184.856 517.555 184.584 516.595 184.584C515.411 184.584 514.491 184.984 513.835 185.784C513.195 186.568 512.875 187.616 512.875 188.928V195Z" fill="black"/>
<path d="M496.414 188.856C496.414 187.8 496.63 186.84 497.062 185.976C497.494 185.096 498.118 184.392 498.934 183.864C499.75 183.336 500.726 183.072 501.862 183.072C502.966 183.072 503.91 183.344 504.694 183.888C505.478 184.432 506.038 185.216 506.374 186.24L506.11 186.576L506.326 183.384H507.766V194.64C507.766 195.792 507.534 196.792 507.07 197.64C506.606 198.504 505.95 199.168 505.102 199.632C504.27 200.112 503.286 200.352 502.15 200.352C500.662 200.352 499.43 199.952 498.454 199.152C497.478 198.352 496.87 197.256 496.63 195.864H498.286C498.462 196.808 498.886 197.536 499.558 198.048C500.246 198.576 501.118 198.84 502.174 198.84C503.374 198.84 504.334 198.472 505.054 197.736C505.774 197 506.134 196.024 506.134 194.808V191.16L506.374 191.472C506.038 192.448 505.454 193.224 504.622 193.8C503.806 194.36 502.846 194.64 501.742 194.64C500.638 194.64 499.686 194.376 498.886 193.848C498.086 193.32 497.47 192.624 497.038 191.76C496.622 190.88 496.414 189.912 496.414 188.856ZM498.07 188.832C498.07 189.632 498.222 190.36 498.526 191.016C498.846 191.672 499.294 192.192 499.87 192.576C500.462 192.96 501.166 193.152 501.982 193.152C502.814 193.152 503.526 192.968 504.118 192.6C504.726 192.216 505.19 191.704 505.51 191.064C505.83 190.408 505.99 189.664 505.99 188.832C505.99 188 505.83 187.264 505.51 186.624C505.206 185.984 504.758 185.48 504.166 185.112C503.59 184.728 502.87 184.536 502.006 184.536C501.174 184.536 500.462 184.736 499.87 185.136C499.294 185.52 498.846 186.04 498.526 186.696C498.222 187.336 498.07 188.048 498.07 188.832Z" fill="black"/>
<path d="M492.095 195V183.384H493.752V195H492.095ZM492.911 180.192C492.575 180.192 492.288 180.072 492.048 179.832C491.808 179.592 491.688 179.304 491.688 178.968C491.688 178.632 491.808 178.344 492.048 178.104C492.288 177.848 492.575 177.72 492.911 177.72C493.247 177.72 493.535 177.848 493.775 178.104C494.031 178.344 494.16 178.632 494.16 178.968C494.16 179.304 494.031 179.592 493.775 179.832C493.535 180.072 493.247 180.192 492.911 180.192Z" fill="black"/>
<path d="M480.703 191.736H482.287C482.287 192.408 482.527 192.944 483.007 193.344C483.487 193.728 484.127 193.92 484.927 193.92C485.823 193.92 486.519 193.744 487.015 193.392C487.527 193.024 487.783 192.528 487.783 191.904C487.783 191.424 487.647 191.04 487.375 190.752C487.103 190.464 486.623 190.232 485.935 190.056L483.943 189.552C482.935 189.296 482.183 188.904 481.687 188.376C481.191 187.848 480.943 187.192 480.943 186.408C480.943 185.736 481.119 185.152 481.471 184.656C481.823 184.144 482.311 183.752 482.935 183.48C483.575 183.208 484.311 183.072 485.143 183.072C485.959 183.072 486.671 183.216 487.279 183.504C487.887 183.792 488.359 184.2 488.695 184.728C489.047 185.24 489.231 185.856 489.247 186.576H487.639C487.623 185.888 487.391 185.36 486.943 184.992C486.495 184.624 485.879 184.44 485.095 184.44C484.279 184.44 483.647 184.608 483.199 184.944C482.767 185.28 482.551 185.76 482.551 186.384C482.551 187.28 483.183 187.888 484.447 188.208L486.439 188.712C487.447 188.968 488.183 189.344 488.647 189.84C489.127 190.336 489.367 191 489.367 191.832C489.367 192.52 489.183 193.128 488.815 193.656C488.447 194.184 487.927 194.592 487.255 194.88C486.599 195.152 485.831 195.288 484.951 195.288C483.655 195.288 482.623 194.968 481.855 194.328C481.087 193.672 480.703 192.808 480.703 191.736Z" fill="black"/>
<path d="M473.879 195.288C472.759 195.288 471.767 195.032 470.903 194.52C470.055 194.008 469.391 193.296 468.911 192.384C468.431 191.472 468.191 190.408 468.191 189.192C468.191 187.992 468.423 186.936 468.887 186.024C469.367 185.096 470.023 184.376 470.855 183.864C471.687 183.336 472.655 183.072 473.759 183.072C474.815 183.072 475.735 183.304 476.519 183.768C477.319 184.232 477.935 184.88 478.367 185.712C478.815 186.528 479.039 187.488 479.039 188.592V189.408H469.103L469.151 188.208H477.383C477.383 187.088 477.047 186.192 476.375 185.52C475.719 184.832 474.847 184.488 473.759 184.488C472.959 184.488 472.255 184.672 471.647 185.04C471.055 185.408 470.599 185.936 470.279 186.624C469.959 187.296 469.799 188.096 469.799 189.024C469.799 190.56 470.151 191.752 470.855 192.6C471.575 193.448 472.591 193.872 473.903 193.872C474.847 193.872 475.623 193.672 476.231 193.272C476.839 192.872 477.247 192.288 477.455 191.52H479.039C478.735 192.736 478.143 193.672 477.263 194.328C476.383 194.968 475.255 195.288 473.879 195.288Z" fill="black"/>
<path d="M457.658 195H452.426V177.816H457.61C459.338 177.816 460.85 178.176 462.146 178.896C463.442 179.616 464.45 180.624 465.17 181.92C465.89 183.2 466.25 184.696 466.25 186.408C466.25 188.12 465.89 189.624 465.17 190.92C464.466 192.2 463.466 193.2 462.17 193.92C460.89 194.64 459.386 195 457.658 195ZM454.154 178.632V194.184L453.362 193.416H457.586C458.994 193.416 460.21 193.128 461.234 192.552C462.258 191.976 463.05 191.168 463.61 190.128C464.186 189.072 464.474 187.832 464.474 186.408C464.474 184.984 464.186 183.744 463.61 182.688C463.05 181.632 462.25 180.824 461.21 180.264C460.186 179.688 458.962 179.4 457.538 179.4H453.362L454.154 178.632Z" fill="black"/>
<path d="M435.32 186.432L429.32 177.816H431.36L434.552 182.328C434.968 182.888 435.312 183.408 435.584 183.888C435.872 184.352 436.12 184.776 436.328 185.16L441.32 177.816H443.312L437.408 186.384L443.408 195H441.344L438.08 190.392C437.792 189.992 437.488 189.552 437.168 189.072C436.864 188.576 436.6 188.136 436.376 187.752L431.36 195H429.344L435.32 186.432Z" fill="black"/>
<path d="M414.312 189.024V177.816H416.041V188.952C416.041 190.456 416.441 191.608 417.241 192.408C418.041 193.208 419.193 193.608 420.697 193.608C422.153 193.608 423.281 193.208 424.081 192.408C424.881 191.592 425.281 190.44 425.281 188.952V177.816H427.009V189.024C427.009 190.32 426.753 191.44 426.241 192.384C425.745 193.312 425.025 194.032 424.081 194.544C423.137 195.04 422.009 195.288 420.697 195.288C419.369 195.288 418.225 195.04 417.265 194.544C416.321 194.048 415.593 193.328 415.081 192.384C414.569 191.44 414.312 190.32 414.312 189.024Z" fill="black"/>
<path d="M405.609 195H403.977L410.673 177.816H412.353L405.609 195Z" fill="black"/>
<path d="M401.888 177.816V195H400.16V177.816H401.888Z" fill="black"/>
<path d="M383.398 189.024V177.816H385.126V188.952C385.126 190.456 385.526 191.608 386.326 192.408C387.126 193.208 388.278 193.608 389.782 193.608C391.238 193.608 392.366 193.208 393.166 192.408C393.966 191.592 394.366 190.44 394.366 188.952V177.816H396.094V189.024C396.094 190.32 395.838 191.44 395.326 192.384C394.83 193.312 394.11 194.032 393.166 194.544C392.222 195.04 391.094 195.288 389.782 195.288C388.454 195.288 387.31 195.04 386.35 194.544C385.406 194.048 384.678 193.328 384.166 192.384C383.654 191.44 383.398 190.32 383.398 189.024Z" fill="black"/>
<rect x="16" y="156" width="141" height="60" rx="16" fill="white"/>
<path d="M131.246 191.736H132.83C132.83 192.408 133.07 192.944 133.55 193.344C134.03 193.728 134.67 193.92 135.47 193.92C136.366 193.92 137.062 193.744 137.558 193.392C138.07 193.024 138.326 192.528 138.326 191.904C138.326 191.424 138.19 191.04 137.918 190.752C137.646 190.464 137.166 190.232 136.478 190.056L134.486 189.552C133.478 189.296 132.726 188.904 132.23 188.376C131.734 187.848 131.486 187.192 131.486 186.408C131.486 185.736 131.662 185.152 132.014 184.656C132.366 184.144 132.854 183.752 133.478 183.48C134.118 183.208 134.854 183.072 135.686 183.072C136.502 183.072 137.214 183.216 137.822 183.504C138.43 183.792 138.902 184.2 139.238 184.728C139.59 185.24 139.774 185.856 139.79 186.576H138.182C138.166 185.888 137.934 185.36 137.486 184.992C137.038 184.624 136.422 184.44 135.638 184.44C134.822 184.44 134.19 184.608 133.742 184.944C133.31 185.28 133.094 185.76 133.094 186.384C133.094 187.28 133.726 187.888 134.99 188.208L136.982 188.712C137.99 188.968 138.726 189.344 139.19 189.84C139.67 190.336 139.91 191 139.91 191.832C139.91 192.52 139.726 193.128 139.358 193.656C138.99 194.184 138.47 194.592 137.798 194.88C137.142 195.152 136.374 195.288 135.494 195.288C134.198 195.288 133.166 194.968 132.398 194.328C131.63 193.672 131.246 192.808 131.246 191.736Z" fill="black"/>
<path d="M124.422 195.288C123.302 195.288 122.31 195.032 121.446 194.52C120.598 194.008 119.934 193.296 119.454 192.384C118.974 191.472 118.734 190.408 118.734 189.192C118.734 187.992 118.966 186.936 119.43 186.024C119.91 185.096 120.566 184.376 121.398 183.864C122.23 183.336 123.198 183.072 124.302 183.072C125.358 183.072 126.278 183.304 127.062 183.768C127.862 184.232 128.478 184.88 128.91 185.712C129.358 186.528 129.582 187.488 129.582 188.592V189.408H119.646L119.694 188.208H127.926C127.926 187.088 127.59 186.192 126.918 185.52C126.262 184.832 125.39 184.488 124.302 184.488C123.502 184.488 122.798 184.672 122.19 185.04C121.598 185.408 121.142 185.936 120.822 186.624C120.502 187.296 120.342 188.096 120.342 189.024C120.342 190.56 120.694 191.752 121.398 192.6C122.118 193.448 123.134 193.872 124.446 193.872C125.39 193.872 126.166 193.672 126.774 193.272C127.382 192.872 127.79 192.288 127.998 191.52H129.582C129.278 192.736 128.686 193.672 127.806 194.328C126.926 194.968 125.798 195.288 124.422 195.288Z" fill="black"/>
<path d="M108.16 191.736H109.744C109.744 192.408 109.984 192.944 110.464 193.344C110.944 193.728 111.584 193.92 112.384 193.92C113.28 193.92 113.976 193.744 114.472 193.392C114.984 193.024 115.24 192.528 115.24 191.904C115.24 191.424 115.104 191.04 114.832 190.752C114.56 190.464 114.08 190.232 113.392 190.056L111.4 189.552C110.392 189.296 109.64 188.904 109.144 188.376C108.648 187.848 108.4 187.192 108.4 186.408C108.4 185.736 108.576 185.152 108.928 184.656C109.28 184.144 109.768 183.752 110.392 183.48C111.032 183.208 111.768 183.072 112.6 183.072C113.416 183.072 114.128 183.216 114.736 183.504C115.344 183.792 115.816 184.2 116.152 184.728C116.504 185.24 116.688 185.856 116.704 186.576H115.096C115.08 185.888 114.848 185.36 114.4 184.992C113.952 184.624 113.336 184.44 112.552 184.44C111.736 184.44 111.104 184.608 110.656 184.944C110.224 185.28 110.008 185.76 110.008 186.384C110.008 187.28 110.64 187.888 111.904 188.208L113.896 188.712C114.904 188.968 115.64 189.344 116.104 189.84C116.584 190.336 116.824 191 116.824 191.832C116.824 192.52 116.64 193.128 116.272 193.656C115.904 194.184 115.384 194.592 114.712 194.88C114.056 195.152 113.288 195.288 112.408 195.288C111.112 195.288 110.08 194.968 109.312 194.328C108.544 193.672 108.16 192.808 108.16 191.736Z" fill="black"/>
<path d="M99.9438 195.288C98.7118 195.288 97.7438 194.968 97.0398 194.328C96.3518 193.688 96.0078 192.864 96.0078 191.856C96.0078 190.784 96.3918 189.928 97.1598 189.288C97.9278 188.648 98.9918 188.272 100.352 188.16L104.192 187.848V187.464C104.192 186.696 104.056 186.096 103.784 185.664C103.512 185.216 103.144 184.904 102.68 184.728C102.216 184.552 101.696 184.464 101.12 184.464C100.096 184.464 99.3038 184.68 98.7438 185.112C98.1838 185.544 97.9038 186.152 97.9038 186.936H96.3918C96.3918 186.152 96.5918 185.472 96.9918 184.896C97.3918 184.32 97.9518 183.872 98.6718 183.552C99.3918 183.232 100.224 183.072 101.168 183.072C102.08 183.072 102.88 183.232 103.568 183.552C104.256 183.856 104.8 184.336 105.2 184.992C105.616 185.632 105.824 186.464 105.824 187.488V195H104.432L104.216 192.96C103.864 193.696 103.304 194.272 102.536 194.688C101.784 195.088 100.92 195.288 99.9438 195.288ZM100.328 193.944C101.56 193.944 102.512 193.552 103.184 192.768C103.856 191.984 104.192 190.968 104.192 189.72V189.096L100.76 189.36C99.6718 189.456 98.8878 189.728 98.4078 190.176C97.9278 190.624 97.6878 191.168 97.6878 191.808C97.6878 192.512 97.9278 193.048 98.4078 193.416C98.8878 193.768 99.5278 193.944 100.328 193.944Z" fill="black"/>
<path d="M84.0298 195H82.5898V177.504H84.2458V185.64C84.6458 184.776 85.2218 184.136 85.9738 183.72C86.7418 183.288 87.6218 183.072 88.6138 183.072C89.7498 183.072 90.7098 183.344 91.4938 183.888C92.2938 184.416 92.9018 185.144 93.3178 186.072C93.7498 187 93.9658 188.048 93.9658 189.216C93.9658 190.368 93.7498 191.408 93.3178 192.336C92.8858 193.248 92.2698 193.968 91.4698 194.496C90.6698 195.024 89.7018 195.288 88.5658 195.288C87.6058 195.288 86.7418 195.072 85.9738 194.64C85.2058 194.192 84.6138 193.52 84.1978 192.624L84.0298 195ZM84.2698 189.168C84.2698 190.064 84.4298 190.864 84.7498 191.568C85.0698 192.256 85.5258 192.8 86.1178 193.2C86.7258 193.584 87.4538 193.776 88.3018 193.776C89.1498 193.776 89.8698 193.584 90.4618 193.2C91.0538 192.8 91.5018 192.256 91.8058 191.568C92.1258 190.864 92.2858 190.064 92.2858 189.168C92.2858 188.272 92.1258 187.48 91.8058 186.792C91.5018 186.104 91.0538 185.56 90.4618 185.16C89.8698 184.76 89.1498 184.56 88.3018 184.56C87.4538 184.56 86.7258 184.76 86.1178 185.16C85.5258 185.56 85.0698 186.104 84.7498 186.792C84.4298 187.48 84.2698 188.272 84.2698 189.168Z" fill="black"/>
<path d="M73.3891 195.288C72.1571 195.288 71.1891 194.968 70.4851 194.328C69.7971 193.688 69.4531 192.864 69.4531 191.856C69.4531 190.784 69.8371 189.928 70.6051 189.288C71.3731 188.648 72.4371 188.272 73.7971 188.16L77.6371 187.848V187.464C77.6371 186.696 77.5011 186.096 77.2291 185.664C76.9571 185.216 76.5891 184.904 76.1251 184.728C75.6611 184.552 75.1411 184.464 74.5651 184.464C73.5411 184.464 72.7491 184.68 72.1891 185.112C71.6291 185.544 71.3491 186.152 71.3491 186.936H69.8371C69.8371 186.152 70.0371 185.472 70.4371 184.896C70.8371 184.32 71.3971 183.872 72.1171 183.552C72.8371 183.232 73.6691 183.072 74.6131 183.072C75.5251 183.072 76.3251 183.232 77.0131 183.552C77.7011 183.856 78.2451 184.336 78.6451 184.992C79.0611 185.632 79.2691 186.464 79.2691 187.488V195H77.8771L77.6611 192.96C77.3091 193.696 76.7491 194.272 75.9811 194.688C75.2291 195.088 74.3651 195.288 73.3891 195.288ZM73.7731 193.944C75.0051 193.944 75.9571 193.552 76.6291 192.768C77.3011 191.984 77.6371 190.968 77.6371 189.72V189.096L74.2051 189.36C73.1171 189.456 72.3331 189.728 71.8531 190.176C71.3731 190.624 71.1331 191.168 71.1331 191.808C71.1331 192.512 71.3731 193.048 71.8531 193.416C72.3331 193.768 72.9731 193.944 73.7731 193.944Z" fill="black"/>
<path d="M61.7969 183.384H68.0849V184.776H61.7969V183.384ZM65.7569 195H64.1249V179.712H65.7569V195Z" fill="black"/>
<path d="M54.1001 195.288C52.8681 195.288 51.9001 194.968 51.1961 194.328C50.5081 193.688 50.1641 192.864 50.1641 191.856C50.1641 190.784 50.5481 189.928 51.3161 189.288C52.0841 188.648 53.1481 188.272 54.5081 188.16L58.3481 187.848V187.464C58.3481 186.696 58.2121 186.096 57.9401 185.664C57.6681 185.216 57.3001 184.904 56.8361 184.728C56.3721 184.552 55.8521 184.464 55.2761 184.464C54.2521 184.464 53.4601 184.68 52.9001 185.112C52.3401 185.544 52.0601 186.152 52.0601 186.936H50.5481C50.5481 186.152 50.7481 185.472 51.1481 184.896C51.5481 184.32 52.1081 183.872 52.8281 183.552C53.5481 183.232 54.3801 183.072 55.3241 183.072C56.2361 183.072 57.0361 183.232 57.7241 183.552C58.4121 183.856 58.9561 184.336 59.3561 184.992C59.7721 185.632 59.9801 186.464 59.9801 187.488V195H58.5881L58.3721 192.96C58.0201 193.696 57.4601 194.272 56.6921 194.688C55.9401 195.088 55.0761 195.288 54.1001 195.288ZM54.4841 193.944C55.7161 193.944 56.6681 193.552 57.3401 192.768C58.0121 191.984 58.3481 190.968 58.3481 189.72V189.096L54.9161 189.36C53.8281 189.456 53.0441 189.728 52.5641 190.176C52.0841 190.624 51.8441 191.168 51.8441 191.808C51.8441 192.512 52.0841 193.048 52.5641 193.416C53.0441 193.768 53.6841 193.944 54.4841 193.944Z" fill="black"/>
<path d="M39.4117 195H34.1797V177.816H39.3637C41.0917 177.816 42.6037 178.176 43.8997 178.896C45.1957 179.616 46.2037 180.624 46.9237 181.92C47.6437 183.2 48.0037 184.696 48.0037 186.408C48.0037 188.12 47.6437 189.624 46.9237 190.92C46.2197 192.2 45.2197 193.2 43.9237 193.92C42.6437 194.64 41.1397 195 39.4117 195ZM35.9077 178.632V194.184L35.1157 193.416H39.3397C40.7477 193.416 41.9637 193.128 42.9877 192.552C44.0117 191.976 44.8037 191.168 45.3637 190.128C45.9397 189.072 46.2277 187.832 46.2277 186.408C46.2277 184.984 45.9397 183.744 45.3637 182.688C44.8037 181.632 44.0037 180.824 42.9637 180.264C41.9397 179.688 40.7157 179.4 39.2917 179.4H35.1157L35.9077 178.632Z" fill="black"/>
<rect x="173" y="156" width="176" height="60" rx="16" fill="white"/>
<path d="M319.711 188.856C319.711 187.8 319.927 186.84 320.359 185.976C320.791 185.096 321.415 184.392 322.231 183.864C323.047 183.336 324.023 183.072 325.159 183.072C326.263 183.072 327.207 183.344 327.991 183.888C328.775 184.432 329.335 185.216 329.671 186.24L329.407 186.576L329.623 183.384H331.063V194.64C331.063 195.792 330.831 196.792 330.367 197.64C329.903 198.504 329.247 199.168 328.399 199.632C327.567 200.112 326.583 200.352 325.447 200.352C323.959 200.352 322.727 199.952 321.751 199.152C320.775 198.352 320.167 197.256 319.927 195.864H321.583C321.759 196.808 322.183 197.536 322.855 198.048C323.543 198.576 324.415 198.84 325.471 198.84C326.671 198.84 327.631 198.472 328.351 197.736C329.071 197 329.431 196.024 329.431 194.808V191.16L329.671 191.472C329.335 192.448 328.751 193.224 327.919 193.8C327.103 194.36 326.143 194.64 325.039 194.64C323.935 194.64 322.983 194.376 322.183 193.848C321.383 193.32 320.767 192.624 320.335 191.76C319.919 190.88 319.711 189.912 319.711 188.856ZM321.367 188.832C321.367 189.632 321.519 190.36 321.823 191.016C322.143 191.672 322.591 192.192 323.167 192.576C323.759 192.96 324.463 193.152 325.279 193.152C326.111 193.152 326.823 192.968 327.415 192.6C328.023 192.216 328.487 191.704 328.807 191.064C329.127 190.408 329.287 189.664 329.287 188.832C329.287 188 329.127 187.264 328.807 186.624C328.503 185.984 328.055 185.48 327.463 185.112C326.887 184.728 326.167 184.536 325.303 184.536C324.471 184.536 323.759 184.736 323.167 185.136C322.591 185.52 322.143 186.04 321.823 186.696C321.519 187.336 321.367 188.048 321.367 188.832Z" fill="black"/>
<path d="M308.679 195H307.023V183.384H308.463L308.703 185.4C309.087 184.664 309.631 184.096 310.335 183.696C311.055 183.28 311.839 183.072 312.687 183.072C314.287 183.072 315.439 183.512 316.143 184.392C316.847 185.272 317.199 186.44 317.199 187.896V195H315.543V188.256C315.543 186.896 315.255 185.944 314.679 185.4C314.119 184.856 313.359 184.584 312.399 184.584C311.215 184.584 310.295 184.984 309.639 185.784C308.999 186.568 308.679 187.616 308.679 188.928V195Z" fill="black"/>
<path d="M301.916 195V183.384H303.572V195H301.916ZM302.732 180.192C302.396 180.192 302.108 180.072 301.868 179.832C301.628 179.592 301.508 179.304 301.508 178.968C301.508 178.632 301.628 178.344 301.868 178.104C302.108 177.848 302.396 177.72 302.732 177.72C303.068 177.72 303.356 177.848 303.596 178.104C303.852 178.344 303.98 178.632 303.98 178.968C303.98 179.304 303.852 179.592 303.596 179.832C303.356 180.072 303.068 180.192 302.732 180.192Z" fill="black"/>
<path d="M283.367 195H281.711V183.384H283.151L283.391 185.568L283.151 185.496C283.391 184.76 283.839 184.176 284.495 183.744C285.167 183.296 285.951 183.072 286.847 183.072C287.887 183.072 288.751 183.36 289.439 183.936C290.143 184.496 290.591 185.264 290.783 186.24H290.423C290.583 185.264 291.015 184.496 291.719 183.936C292.439 183.36 293.335 183.072 294.407 183.072C295.655 183.072 296.663 183.456 297.431 184.224C298.199 184.992 298.583 186.048 298.583 187.392V195H296.975V187.728C296.975 186.736 296.719 185.96 296.207 185.4C295.695 184.84 294.991 184.56 294.095 184.56C293.455 184.56 292.903 184.712 292.439 185.016C291.975 185.304 291.615 185.696 291.359 186.192C291.119 186.688 290.999 187.232 290.999 187.824V195H289.367V187.704C289.367 186.712 289.103 185.944 288.575 185.4C288.063 184.856 287.367 184.584 286.487 184.584C285.847 184.584 285.287 184.728 284.807 185.016C284.343 185.304 283.983 185.696 283.727 186.192C283.487 186.672 283.367 187.208 283.367 187.8V195Z" fill="black"/>
<path d="M263.164 195H261.508V183.384H262.948L263.188 185.568L262.948 185.496C263.188 184.76 263.636 184.176 264.292 183.744C264.964 183.296 265.748 183.072 266.644 183.072C267.684 183.072 268.548 183.36 269.236 183.936C269.94 184.496 270.388 185.264 270.58 186.24H270.22C270.38 185.264 270.812 184.496 271.516 183.936C272.236 183.36 273.132 183.072 274.204 183.072C275.452 183.072 276.46 183.456 277.228 184.224C277.996 184.992 278.38 186.048 278.38 187.392V195H276.772V187.728C276.772 186.736 276.516 185.96 276.004 185.4C275.492 184.84 274.788 184.56 273.892 184.56C273.252 184.56 272.7 184.712 272.236 185.016C271.772 185.304 271.412 185.696 271.156 186.192C270.916 186.688 270.796 187.232 270.796 187.824V195H269.164V187.704C269.164 186.712 268.9 185.944 268.372 185.4C267.86 184.856 267.164 184.584 266.284 184.584C265.644 184.584 265.084 184.728 264.604 185.016C264.14 185.304 263.78 185.696 263.524 186.192C263.284 186.672 263.164 187.208 263.164 187.8V195Z" fill="black"/>
<path d="M252.307 195.288C251.075 195.288 250.107 194.968 249.403 194.328C248.715 193.688 248.371 192.864 248.371 191.856C248.371 190.784 248.755 189.928 249.523 189.288C250.291 188.648 251.355 188.272 252.715 188.16L256.555 187.848V187.464C256.555 186.696 256.419 186.096 256.147 185.664C255.875 185.216 255.507 184.904 255.043 184.728C254.579 184.552 254.059 184.464 253.483 184.464C252.459 184.464 251.667 184.68 251.107 185.112C250.547 185.544 250.267 186.152 250.267 186.936H248.755C248.755 186.152 248.955 185.472 249.355 184.896C249.755 184.32 250.315 183.872 251.035 183.552C251.755 183.232 252.587 183.072 253.531 183.072C254.443 183.072 255.243 183.232 255.931 183.552C256.619 183.856 257.163 184.336 257.563 184.992C257.979 185.632 258.187 186.464 258.187 187.488V195H256.795L256.579 192.96C256.227 193.696 255.667 194.272 254.899 194.688C254.147 195.088 253.283 195.288 252.307 195.288ZM252.691 193.944C253.923 193.944 254.875 193.552 255.547 192.768C256.219 191.984 256.555 190.968 256.555 189.72V189.096L253.123 189.36C252.035 189.456 251.251 189.728 250.771 190.176C250.291 190.624 250.051 191.168 250.051 191.808C250.051 192.512 250.291 193.048 250.771 193.416C251.251 193.768 251.891 193.944 252.691 193.944Z" fill="black"/>
<path d="M247.236 183.24V184.728H246.324C245.252 184.728 244.396 185.056 243.756 185.712C243.132 186.368 242.82 187.256 242.82 188.376V195H241.164V183.384H242.724L242.868 185.664H242.7C242.86 184.912 243.252 184.304 243.876 183.84C244.5 183.36 245.26 183.12 246.156 183.12C246.332 183.12 246.508 183.128 246.684 183.144C246.86 183.16 247.044 183.192 247.236 183.24Z" fill="black"/>
<path d="M226.359 188.856C226.359 187.8 226.575 186.84 227.007 185.976C227.439 185.096 228.063 184.392 228.879 183.864C229.695 183.336 230.671 183.072 231.807 183.072C232.911 183.072 233.855 183.344 234.639 183.888C235.423 184.432 235.983 185.216 236.319 186.24L236.055 186.576L236.271 183.384H237.711V194.64C237.711 195.792 237.479 196.792 237.015 197.64C236.551 198.504 235.895 199.168 235.047 199.632C234.215 200.112 233.231 200.352 232.095 200.352C230.607 200.352 229.375 199.952 228.399 199.152C227.423 198.352 226.815 197.256 226.575 195.864H228.231C228.407 196.808 228.831 197.536 229.503 198.048C230.191 198.576 231.063 198.84 232.119 198.84C233.319 198.84 234.279 198.472 234.999 197.736C235.719 197 236.079 196.024 236.079 194.808V191.16L236.319 191.472C235.983 192.448 235.399 193.224 234.567 193.8C233.751 194.36 232.791 194.64 231.687 194.64C230.583 194.64 229.631 194.376 228.831 193.848C228.031 193.32 227.415 192.624 226.983 191.76C226.567 190.88 226.359 189.912 226.359 188.856ZM228.015 188.832C228.015 189.632 228.167 190.36 228.471 191.016C228.791 191.672 229.239 192.192 229.815 192.576C230.407 192.96 231.111 193.152 231.927 193.152C232.759 193.152 233.471 192.968 234.063 192.6C234.671 192.216 235.135 191.704 235.455 191.064C235.775 190.408 235.935 189.664 235.935 188.832C235.935 188 235.775 187.264 235.455 186.624C235.151 185.984 234.703 185.48 234.111 185.112C233.535 184.728 232.815 184.536 231.951 184.536C231.119 184.536 230.407 184.736 229.815 185.136C229.239 185.52 228.791 186.04 228.471 186.696C228.167 187.336 228.015 188.048 228.015 188.832Z" fill="black"/>
<path d="M212.691 189.192C212.691 187.992 212.947 186.936 213.459 186.024C213.971 185.112 214.675 184.392 215.571 183.864C216.467 183.336 217.475 183.072 218.595 183.072C219.731 183.072 220.739 183.336 221.619 183.864C222.515 184.392 223.219 185.112 223.731 186.024C224.243 186.936 224.499 187.992 224.499 189.192C224.499 190.36 224.243 191.408 223.731 192.336C223.219 193.248 222.515 193.968 221.619 194.496C220.739 195.024 219.731 195.288 218.595 195.288C217.475 195.288 216.467 195.024 215.571 194.496C214.675 193.968 213.971 193.248 213.459 192.336C212.947 191.408 212.691 190.36 212.691 189.192ZM214.371 189.168C214.371 190.08 214.547 190.888 214.899 191.592C215.267 192.28 215.763 192.824 216.387 193.224C217.027 193.608 217.763 193.8 218.595 193.8C219.427 193.8 220.155 193.608 220.779 193.224C221.419 192.824 221.915 192.28 222.267 191.592C222.635 190.888 222.819 190.08 222.819 189.168C222.819 188.272 222.635 187.48 222.267 186.792C221.915 186.104 221.419 185.56 220.779 185.16C220.155 184.76 219.427 184.56 218.595 184.56C217.763 184.56 217.027 184.76 216.387 185.16C215.763 185.56 215.267 186.104 214.899 186.792C214.547 187.48 214.371 188.272 214.371 189.168Z" fill="black"/>
<path d="M211.752 183.24V184.728H210.84C209.768 184.728 208.912 185.056 208.272 185.712C207.648 186.368 207.336 187.256 207.336 188.376V195H205.68V183.384H207.24L207.384 185.664H207.216C207.376 184.912 207.768 184.304 208.392 183.84C209.016 183.36 209.776 183.12 210.672 183.12C210.848 183.12 211.024 183.128 211.2 183.144C211.376 183.16 211.56 183.192 211.752 183.24Z" fill="black"/>
<path d="M193.029 177.816V195H191.301V177.816H193.029ZM197.853 188.688H192.669V187.128H197.517C198.765 187.128 199.733 186.768 200.421 186.048C201.109 185.312 201.453 184.36 201.453 183.192C201.453 182.008 201.109 181.08 200.421 180.408C199.733 179.72 198.797 179.376 197.613 179.376H191.925V177.816H197.853C198.957 177.816 199.909 178.04 200.709 178.488C201.525 178.936 202.149 179.568 202.581 180.384C203.029 181.2 203.253 182.144 203.253 183.216C203.253 184.256 203.029 185.192 202.581 186.024C202.149 186.856 201.525 187.512 200.709 187.992C199.909 188.456 198.957 188.688 197.853 188.688Z" fill="black"/>
</svg>
