<svg width="517" height="189" viewBox="0 0 517 189" fill="none" xmlns="http://www.w3.org/2000/svg">
<rect x="92.75" width="199.5" height="52.5" rx="16" fill="white"/>
<path d="M271.957 23.9601H277.459V25.1781H271.957V23.9601ZM275.422 34.1241H273.994V20.7471H275.422V34.1241Z" fill="#0D1117"/>
<path d="M262.746 34.1255H261.297V23.9615H262.557L262.767 25.7255C263.103 25.0815 263.579 24.5845 264.195 24.2345C264.825 23.8705 265.511 23.6885 266.253 23.6885C267.653 23.6885 268.661 24.0735 269.277 24.8435C269.893 25.6135 270.201 26.6355 270.201 27.9095V34.1255H268.752V28.2245C268.752 27.0345 268.5 26.2015 267.996 25.7255C267.506 25.2495 266.841 25.0115 266.001 25.0115C264.965 25.0115 264.16 25.3615 263.586 26.0615C263.026 26.7475 262.746 27.6645 262.746 28.8125V34.1255Z" fill="#0D1117"/>
<path d="M254.465 34.3775C253.485 34.3775 252.617 34.1535 251.861 33.7055C251.119 33.2575 250.538 32.6345 250.118 31.8365C249.698 31.0385 249.488 30.1075 249.488 29.0435C249.488 27.9935 249.691 27.0695 250.097 26.2715C250.517 25.4595 251.091 24.8295 251.819 24.3815C252.547 23.9195 253.394 23.6885 254.36 23.6885C255.284 23.6885 256.089 23.8915 256.775 24.2975C257.475 24.7035 258.014 25.2705 258.392 25.9985C258.784 26.7125 258.98 27.5525 258.98 28.5185V29.2325H250.286L250.328 28.1825H257.531C257.531 27.2025 257.237 26.4185 256.649 25.8305C256.075 25.2285 255.312 24.9275 254.36 24.9275C253.66 24.9275 253.044 25.0885 252.512 25.4105C251.994 25.7325 251.595 26.1945 251.315 26.7965C251.035 27.3845 250.895 28.0845 250.895 28.8965C250.895 30.2405 251.203 31.2835 251.819 32.0255C252.449 32.7675 253.338 33.1385 254.486 33.1385C255.312 33.1385 255.991 32.9635 256.523 32.6135C257.055 32.2635 257.412 31.7525 257.594 31.0805H258.98C258.714 32.1445 258.196 32.9635 257.426 33.5375C256.656 34.0975 255.669 34.3775 254.465 34.3775Z" fill="#0D1117"/>
<path d="M233.972 34.1255H232.523V23.9615H233.783L233.993 25.8725L233.783 25.8095C233.993 25.1655 234.385 24.6545 234.959 24.2765C235.547 23.8845 236.233 23.6885 237.017 23.6885C237.927 23.6885 238.683 23.9405 239.285 24.4445C239.901 24.9345 240.293 25.6065 240.461 26.4605H240.146C240.286 25.6065 240.664 24.9345 241.28 24.4445C241.91 23.9405 242.694 23.6885 243.632 23.6885C244.724 23.6885 245.606 24.0245 246.278 24.6965C246.95 25.3685 247.286 26.2925 247.286 27.4685V34.1255H245.879V27.7625C245.879 26.8945 245.655 26.2155 245.207 25.7255C244.759 25.2355 244.143 24.9905 243.359 24.9905C242.799 24.9905 242.316 25.1235 241.91 25.3895C241.504 25.6415 241.189 25.9845 240.965 26.4185C240.755 26.8525 240.65 27.3285 240.65 27.8465V34.1255H239.222V27.7415C239.222 26.8735 238.991 26.2015 238.529 25.7255C238.081 25.2495 237.472 25.0115 236.702 25.0115C236.142 25.0115 235.652 25.1375 235.232 25.3895C234.826 25.6415 234.511 25.9845 234.287 26.4185C234.077 26.8385 233.972 27.3075 233.972 27.8255V34.1255Z" fill="#0D1117"/>
<path d="M220.262 38.5565V23.9615H221.522L221.669 26.0195C222.033 25.2355 222.551 24.6545 223.223 24.2765C223.909 23.8845 224.672 23.6885 225.512 23.6885C226.492 23.6885 227.332 23.9195 228.032 24.3815C228.732 24.8435 229.271 25.4735 229.649 26.2715C230.027 27.0695 230.216 27.9795 230.216 29.0015C230.216 30.0235 230.027 30.9405 229.649 31.7525C229.285 32.5645 228.753 33.2085 228.053 33.6845C227.367 34.1465 226.52 34.3775 225.512 34.3775C224.644 34.3775 223.881 34.1955 223.223 33.8315C222.565 33.4535 222.061 32.9005 221.711 32.1725V38.5565H220.262ZM221.732 29.0435C221.732 29.8135 221.872 30.5065 222.152 31.1225C222.432 31.7245 222.831 32.2005 223.349 32.5505C223.881 32.9005 224.518 33.0755 225.26 33.0755C226.002 33.0755 226.632 32.9005 227.15 32.5505C227.668 32.2005 228.06 31.7245 228.326 31.1225C228.606 30.5065 228.746 29.8135 228.746 29.0435C228.746 28.2595 228.606 27.5665 228.326 26.9645C228.06 26.3485 227.668 25.8725 227.15 25.5365C226.632 25.1865 226.002 25.0115 225.26 25.0115C224.518 25.0115 223.881 25.1865 223.349 25.5365C222.831 25.8725 222.432 26.3485 222.152 26.9645C221.872 27.5665 221.732 28.2595 221.732 29.0435Z" fill="#0D1117"/>
<path d="M207.613 29.0435C207.613 27.9935 207.837 27.0695 208.285 26.2715C208.733 25.4735 209.349 24.8435 210.133 24.3815C210.917 23.9195 211.799 23.6885 212.779 23.6885C213.773 23.6885 214.655 23.9195 215.425 24.3815C216.209 24.8435 216.825 25.4735 217.273 26.2715C217.721 27.0695 217.945 27.9935 217.945 29.0435C217.945 30.0655 217.721 30.9825 217.273 31.7945C216.825 32.5925 216.209 33.2225 215.425 33.6845C214.655 34.1465 213.773 34.3775 212.779 34.3775C211.799 34.3775 210.917 34.1465 210.133 33.6845C209.349 33.2225 208.733 32.5925 208.285 31.7945C207.837 30.9825 207.613 30.0655 207.613 29.0435ZM209.083 29.0225C209.083 29.8205 209.237 30.5275 209.545 31.1435C209.867 31.7455 210.301 32.2215 210.847 32.5715C211.407 32.9075 212.051 33.0755 212.779 33.0755C213.507 33.0755 214.144 32.9075 214.69 32.5715C215.25 32.2215 215.684 31.7455 215.992 31.1435C216.314 30.5275 216.475 29.8205 216.475 29.0225C216.475 28.2385 216.314 27.5455 215.992 26.9435C215.684 26.3415 215.25 25.8655 214.69 25.5155C214.144 25.1655 213.507 24.9905 212.779 24.9905C212.051 24.9905 211.407 25.1655 210.847 25.5155C210.301 25.8655 209.867 26.3415 209.545 26.9435C209.237 27.5455 209.083 28.2385 209.083 29.0225Z" fill="#0D1117"/>
<path d="M205.246 34.1254H203.797V18.8164H205.246V34.1254Z" fill="#0D1117"/>
<path d="M196.899 34.3775C195.919 34.3775 195.051 34.1535 194.295 33.7055C193.553 33.2575 192.972 32.6345 192.552 31.8365C192.132 31.0385 191.922 30.1075 191.922 29.0435C191.922 27.9935 192.125 27.0695 192.531 26.2715C192.951 25.4595 193.525 24.8295 194.253 24.3815C194.981 23.9195 195.828 23.6885 196.794 23.6885C197.718 23.6885 198.523 23.8915 199.209 24.2975C199.909 24.7035 200.448 25.2705 200.826 25.9985C201.218 26.7125 201.414 27.5525 201.414 28.5185V29.2325H192.72L192.762 28.1825H199.965C199.965 27.2025 199.671 26.4185 199.083 25.8305C198.509 25.2285 197.746 24.9275 196.794 24.9275C196.094 24.9275 195.478 25.0885 194.946 25.4105C194.428 25.7325 194.029 26.1945 193.749 26.7965C193.469 27.3845 193.329 28.0845 193.329 28.8965C193.329 30.2405 193.637 31.2835 194.253 32.0255C194.883 32.7675 195.772 33.1385 196.92 33.1385C197.746 33.1385 198.425 32.9635 198.957 32.6135C199.489 32.2635 199.846 31.7525 200.028 31.0805H201.414C201.148 32.1445 200.63 32.9635 199.86 33.5375C199.09 34.0975 198.103 34.3775 196.899 34.3775Z" fill="#0D1117"/>
<path d="M185.709 34.1249L181.551 23.9609H183.105L185.73 30.5129C185.884 30.8909 186.017 31.2549 186.129 31.6049C186.255 31.9409 186.367 32.2769 186.465 32.6129C186.563 32.2629 186.675 31.9199 186.801 31.5839C186.927 31.2339 187.067 30.8769 187.221 30.5129L189.888 23.9609H191.379L187.158 34.1249H185.709Z" fill="#0D1117"/>
<path d="M176.329 34.3775C175.349 34.3775 174.481 34.1535 173.725 33.7055C172.983 33.2575 172.402 32.6345 171.982 31.8365C171.562 31.0385 171.352 30.1075 171.352 29.0435C171.352 27.9935 171.555 27.0695 171.961 26.2715C172.381 25.4595 172.955 24.8295 173.683 24.3815C174.411 23.9195 175.258 23.6885 176.224 23.6885C177.148 23.6885 177.953 23.8915 178.639 24.2975C179.339 24.7035 179.878 25.2705 180.256 25.9985C180.648 26.7125 180.844 27.5525 180.844 28.5185V29.2325H172.15L172.192 28.1825H179.395C179.395 27.2025 179.101 26.4185 178.513 25.8305C177.939 25.2285 177.176 24.9275 176.224 24.9275C175.524 24.9275 174.908 25.0885 174.376 25.4105C173.858 25.7325 173.459 26.1945 173.179 26.7965C172.899 27.3845 172.759 28.0845 172.759 28.8965C172.759 30.2405 173.067 31.2835 173.683 32.0255C174.313 32.7675 175.202 33.1385 176.35 33.1385C177.176 33.1385 177.855 32.9635 178.387 32.6135C178.919 32.2635 179.276 31.7525 179.458 31.0805H180.844C180.578 32.1445 180.06 32.9635 179.29 33.5375C178.52 34.0975 177.533 34.3775 176.329 34.3775Z" fill="#0D1117"/>
<path d="M162.133 34.1249H157.555V19.0889H162.091C163.603 19.0889 164.926 19.4039 166.06 20.0339C167.194 20.6639 168.076 21.5459 168.706 22.6799C169.336 23.7999 169.651 25.1089 169.651 26.6069C169.651 28.1049 169.336 29.4209 168.706 30.5549C168.09 31.6749 167.215 32.5499 166.081 33.1799C164.961 33.8099 163.645 34.1249 162.133 34.1249ZM159.067 19.8029V33.4109L158.374 32.7389H162.07C163.302 32.7389 164.366 32.4869 165.262 31.9829C166.158 31.4789 166.851 30.7719 167.341 29.8619C167.845 28.9379 168.097 27.8529 168.097 26.6069C168.097 25.3609 167.845 24.2759 167.341 23.3519C166.851 22.4279 166.151 21.7209 165.241 21.2309C164.345 20.7269 163.274 20.4749 162.028 20.4749H158.374L159.067 19.8029Z" fill="#0D1117"/>
<path d="M140.412 34.1254H139.152V18.8164H140.601V25.9354C140.951 25.1794 141.455 24.6194 142.113 24.2554C142.785 23.8774 143.555 23.6884 144.423 23.6884C145.417 23.6884 146.257 23.9264 146.943 24.4024C147.643 24.8644 148.175 25.5014 148.539 26.3134C148.917 27.1254 149.106 28.0424 149.106 29.0644C149.106 30.0724 148.917 30.9824 148.539 31.7944C148.161 32.5924 147.622 33.2224 146.922 33.6844C146.222 34.1464 145.375 34.3774 144.381 34.3774C143.541 34.3774 142.785 34.1884 142.113 33.8104C141.441 33.4184 140.923 32.8304 140.559 32.0464L140.412 34.1254ZM140.622 29.0224C140.622 29.8064 140.762 30.5064 141.042 31.1224C141.322 31.7244 141.721 32.2004 142.239 32.5504C142.771 32.8864 143.408 33.0544 144.15 33.0544C144.892 33.0544 145.522 32.8864 146.04 32.5504C146.558 32.2004 146.95 31.7244 147.216 31.1224C147.496 30.5064 147.636 29.8064 147.636 29.0224C147.636 28.2384 147.496 27.5454 147.216 26.9434C146.95 26.3414 146.558 25.8654 146.04 25.5154C145.522 25.1654 144.892 24.9904 144.15 24.9904C143.408 24.9904 142.771 25.1654 142.239 25.5154C141.721 25.8654 141.322 26.3414 141.042 26.9434C140.762 27.5454 140.622 28.2384 140.622 29.0224Z" fill="#0D1117"/>
<path d="M132.321 34.3775C131.341 34.3775 130.473 34.1535 129.717 33.7055C128.975 33.2575 128.394 32.6345 127.974 31.8365C127.554 31.0385 127.344 30.1075 127.344 29.0435C127.344 27.9935 127.547 27.0695 127.953 26.2715C128.373 25.4595 128.947 24.8295 129.675 24.3815C130.403 23.9195 131.25 23.6885 132.216 23.6885C133.14 23.6885 133.945 23.8915 134.631 24.2975C135.331 24.7035 135.87 25.2705 136.248 25.9985C136.64 26.7125 136.836 27.5525 136.836 28.5185V29.2325H128.142L128.184 28.1825H135.387C135.387 27.2025 135.093 26.4185 134.505 25.8305C133.931 25.2285 133.168 24.9275 132.216 24.9275C131.516 24.9275 130.9 25.0885 130.368 25.4105C129.85 25.7325 129.451 26.1945 129.171 26.7965C128.891 27.3845 128.751 28.0845 128.751 28.8965C128.751 30.2405 129.059 31.2835 129.675 32.0255C130.305 32.7675 131.194 33.1385 132.342 33.1385C133.168 33.1385 133.847 32.9635 134.379 32.6135C134.911 32.2635 135.268 31.7525 135.45 31.0805H136.836C136.57 32.1445 136.052 32.9635 135.282 33.5375C134.512 34.0975 133.525 34.3775 132.321 34.3775Z" fill="#0D1117"/>
<path d="M111.957 34.1249L107.484 19.0889H109.059L112.104 29.4209C112.216 29.7849 112.314 30.1629 112.398 30.5549C112.496 30.9469 112.594 31.3949 112.692 31.8989C112.818 31.3529 112.937 30.8979 113.049 30.5339C113.161 30.1559 113.273 29.7849 113.385 29.4209L116.661 19.0889H118.236L121.512 29.4209C121.624 29.7989 121.736 30.1909 121.848 30.5969C121.96 30.9889 122.072 31.4229 122.184 31.8989C122.296 31.3249 122.401 30.8419 122.499 30.4499C122.597 30.0579 122.688 29.7219 122.772 29.4419L125.88 19.0889H127.413L122.898 34.1249H121.47L117.438 21.3569L113.406 34.1249H111.957Z" fill="#0D1117"/>
<rect x="306.25" width="194.25" height="52.5" rx="16" fill="white"/>
<path d="M480.496 23.9601H485.998V25.1781H480.496V23.9601ZM483.961 34.1241H482.533V20.7471H483.961V34.1241Z" fill="#0D1117"/>
<path d="M471.285 34.1255H469.836V23.9615H471.096L471.306 25.7255C471.642 25.0815 472.118 24.5845 472.734 24.2345C473.364 23.8705 474.05 23.6885 474.792 23.6885C476.192 23.6885 477.2 24.0735 477.816 24.8435C478.432 25.6135 478.74 26.6355 478.74 27.9095V34.1255H477.291V28.2245C477.291 27.0345 477.039 26.2015 476.535 25.7255C476.045 25.2495 475.38 25.0115 474.54 25.0115C473.504 25.0115 472.699 25.3615 472.125 26.0615C471.565 26.7475 471.285 27.6645 471.285 28.8125V34.1255Z" fill="#0D1117"/>
<path d="M463.004 34.3775C462.024 34.3775 461.156 34.1535 460.4 33.7055C459.658 33.2575 459.077 32.6345 458.657 31.8365C458.237 31.0385 458.027 30.1075 458.027 29.0435C458.027 27.9935 458.23 27.0695 458.636 26.2715C459.056 25.4595 459.63 24.8295 460.358 24.3815C461.086 23.9195 461.933 23.6885 462.899 23.6885C463.823 23.6885 464.628 23.8915 465.314 24.2975C466.014 24.7035 466.553 25.2705 466.931 25.9985C467.323 26.7125 467.519 27.5525 467.519 28.5185V29.2325H458.825L458.867 28.1825H466.07C466.07 27.2025 465.776 26.4185 465.188 25.8305C464.614 25.2285 463.851 24.9275 462.899 24.9275C462.199 24.9275 461.583 25.0885 461.051 25.4105C460.533 25.7325 460.134 26.1945 459.854 26.7965C459.574 27.3845 459.434 28.0845 459.434 28.8965C459.434 30.2405 459.742 31.2835 460.358 32.0255C460.988 32.7675 461.877 33.1385 463.025 33.1385C463.851 33.1385 464.53 32.9635 465.062 32.6135C465.594 32.2635 465.951 31.7525 466.133 31.0805H467.519C467.253 32.1445 466.735 32.9635 465.965 33.5375C465.195 34.0975 464.208 34.3775 463.004 34.3775Z" fill="#0D1117"/>
<path d="M442.508 34.1255H441.059V23.9615H442.319L442.529 25.8725L442.319 25.8095C442.529 25.1655 442.921 24.6545 443.495 24.2765C444.083 23.8845 444.769 23.6885 445.553 23.6885C446.463 23.6885 447.219 23.9405 447.821 24.4445C448.437 24.9345 448.829 25.6065 448.997 26.4605H448.682C448.822 25.6065 449.2 24.9345 449.816 24.4445C450.446 23.9405 451.23 23.6885 452.168 23.6885C453.26 23.6885 454.142 24.0245 454.814 24.6965C455.486 25.3685 455.822 26.2925 455.822 27.4685V34.1255H454.415V27.7625C454.415 26.8945 454.191 26.2155 453.743 25.7255C453.295 25.2355 452.679 24.9905 451.895 24.9905C451.335 24.9905 450.852 25.1235 450.446 25.3895C450.04 25.6415 449.725 25.9845 449.501 26.4185C449.291 26.8525 449.186 27.3285 449.186 27.8465V34.1255H447.758V27.7415C447.758 26.8735 447.527 26.2015 447.065 25.7255C446.617 25.2495 446.008 25.0115 445.238 25.0115C444.678 25.0115 444.188 25.1375 443.768 25.3895C443.362 25.6415 443.047 25.9845 442.823 26.4185C442.613 26.8385 442.508 27.3075 442.508 27.8255V34.1255Z" fill="#0D1117"/>
<path d="M428.797 38.5565V23.9615H430.057L430.204 26.0195C430.568 25.2355 431.086 24.6545 431.758 24.2765C432.444 23.8845 433.207 23.6885 434.047 23.6885C435.027 23.6885 435.867 23.9195 436.567 24.3815C437.267 24.8435 437.806 25.4735 438.184 26.2715C438.562 27.0695 438.751 27.9795 438.751 29.0015C438.751 30.0235 438.562 30.9405 438.184 31.7525C437.82 32.5645 437.288 33.2085 436.588 33.6845C435.902 34.1465 435.055 34.3775 434.047 34.3775C433.179 34.3775 432.416 34.1955 431.758 33.8315C431.1 33.4535 430.596 32.9005 430.246 32.1725V38.5565H428.797ZM430.267 29.0435C430.267 29.8135 430.407 30.5065 430.687 31.1225C430.967 31.7245 431.366 32.2005 431.884 32.5505C432.416 32.9005 433.053 33.0755 433.795 33.0755C434.537 33.0755 435.167 32.9005 435.685 32.5505C436.203 32.2005 436.595 31.7245 436.861 31.1225C437.141 30.5065 437.281 29.8135 437.281 29.0435C437.281 28.2595 437.141 27.5665 436.861 26.9645C436.595 26.3485 436.203 25.8725 435.685 25.5365C435.167 25.1865 434.537 25.0115 433.795 25.0115C433.053 25.0115 432.416 25.1865 431.884 25.5365C431.366 25.8725 430.967 26.3485 430.687 26.9645C430.407 27.5665 430.267 28.2595 430.267 29.0435Z" fill="#0D1117"/>
<path d="M416.148 29.0435C416.148 27.9935 416.372 27.0695 416.82 26.2715C417.268 25.4735 417.884 24.8435 418.668 24.3815C419.452 23.9195 420.334 23.6885 421.314 23.6885C422.308 23.6885 423.19 23.9195 423.96 24.3815C424.744 24.8435 425.36 25.4735 425.808 26.2715C426.256 27.0695 426.48 27.9935 426.48 29.0435C426.48 30.0655 426.256 30.9825 425.808 31.7945C425.36 32.5925 424.744 33.2225 423.96 33.6845C423.19 34.1465 422.308 34.3775 421.314 34.3775C420.334 34.3775 419.452 34.1465 418.668 33.6845C417.884 33.2225 417.268 32.5925 416.82 31.7945C416.372 30.9825 416.148 30.0655 416.148 29.0435ZM417.618 29.0225C417.618 29.8205 417.772 30.5275 418.08 31.1435C418.402 31.7455 418.836 32.2215 419.382 32.5715C419.942 32.9075 420.586 33.0755 421.314 33.0755C422.042 33.0755 422.679 32.9075 423.225 32.5715C423.785 32.2215 424.219 31.7455 424.527 31.1435C424.849 30.5275 425.01 29.8205 425.01 29.0225C425.01 28.2385 424.849 27.5455 424.527 26.9435C424.219 26.3415 423.785 25.8655 423.225 25.5155C422.679 25.1655 422.042 24.9905 421.314 24.9905C420.586 24.9905 419.942 25.1655 419.382 25.5155C418.836 25.8655 418.402 26.3415 418.08 26.9435C417.772 27.5455 417.618 28.2385 417.618 29.0225Z" fill="#0D1117"/>
<path d="M413.781 34.1254H412.332V18.8164H413.781V34.1254Z" fill="#0D1117"/>
<path d="M405.434 34.3775C404.454 34.3775 403.586 34.1535 402.83 33.7055C402.088 33.2575 401.507 32.6345 401.087 31.8365C400.667 31.0385 400.457 30.1075 400.457 29.0435C400.457 27.9935 400.66 27.0695 401.066 26.2715C401.486 25.4595 402.06 24.8295 402.788 24.3815C403.516 23.9195 404.363 23.6885 405.329 23.6885C406.253 23.6885 407.058 23.8915 407.744 24.2975C408.444 24.7035 408.983 25.2705 409.361 25.9985C409.753 26.7125 409.949 27.5525 409.949 28.5185V29.2325H401.255L401.297 28.1825H408.5C408.5 27.2025 408.206 26.4185 407.618 25.8305C407.044 25.2285 406.281 24.9275 405.329 24.9275C404.629 24.9275 404.013 25.0885 403.481 25.4105C402.963 25.7325 402.564 26.1945 402.284 26.7965C402.004 27.3845 401.864 28.0845 401.864 28.8965C401.864 30.2405 402.172 31.2835 402.788 32.0255C403.418 32.7675 404.307 33.1385 405.455 33.1385C406.281 33.1385 406.96 32.9635 407.492 32.6135C408.024 32.2635 408.381 31.7525 408.563 31.0805H409.949C409.683 32.1445 409.165 32.9635 408.395 33.5375C407.625 34.0975 406.638 34.3775 405.434 34.3775Z" fill="#0D1117"/>
<path d="M394.248 34.1249L390.09 23.9609H391.644L394.269 30.5129C394.423 30.8909 394.556 31.2549 394.668 31.6049C394.794 31.9409 394.906 32.2769 395.004 32.6129C395.102 32.2629 395.214 31.9199 395.34 31.5839C395.466 31.2339 395.606 30.8769 395.76 30.5129L398.427 23.9609H399.918L395.697 34.1249H394.248Z" fill="#0D1117"/>
<path d="M384.868 34.3775C383.888 34.3775 383.02 34.1535 382.264 33.7055C381.522 33.2575 380.941 32.6345 380.521 31.8365C380.101 31.0385 379.891 30.1075 379.891 29.0435C379.891 27.9935 380.094 27.0695 380.5 26.2715C380.92 25.4595 381.494 24.8295 382.222 24.3815C382.95 23.9195 383.797 23.6885 384.763 23.6885C385.687 23.6885 386.492 23.8915 387.178 24.2975C387.878 24.7035 388.417 25.2705 388.795 25.9985C389.187 26.7125 389.383 27.5525 389.383 28.5185V29.2325H380.689L380.731 28.1825H387.934C387.934 27.2025 387.64 26.4185 387.052 25.8305C386.478 25.2285 385.715 24.9275 384.763 24.9275C384.063 24.9275 383.447 25.0885 382.915 25.4105C382.397 25.7325 381.998 26.1945 381.718 26.7965C381.438 27.3845 381.298 28.0845 381.298 28.8965C381.298 30.2405 381.606 31.2835 382.222 32.0255C382.852 32.7675 383.741 33.1385 384.889 33.1385C385.715 33.1385 386.394 32.9635 386.926 32.6135C387.458 32.2635 387.815 31.7525 387.997 31.0805H389.383C389.117 32.1445 388.599 32.9635 387.829 33.5375C387.059 34.0975 386.072 34.3775 384.868 34.3775Z" fill="#0D1117"/>
<path d="M370.672 34.1249H366.094V19.0889H370.63C372.142 19.0889 373.465 19.4039 374.599 20.0339C375.733 20.6639 376.615 21.5459 377.245 22.6799C377.875 23.7999 378.19 25.1089 378.19 26.6069C378.19 28.1049 377.875 29.4209 377.245 30.5549C376.629 31.6749 375.754 32.5499 374.62 33.1799C373.5 33.8099 372.184 34.1249 370.672 34.1249ZM367.606 19.8029V33.4109L366.913 32.7389H370.609C371.841 32.7389 372.905 32.4869 373.801 31.9829C374.697 31.4789 375.39 30.7719 375.88 29.8619C376.384 28.9379 376.636 27.8529 376.636 26.6069C376.636 25.3609 376.384 24.2759 375.88 23.3519C375.39 22.4279 374.69 21.7209 373.78 21.2309C372.884 20.7269 371.813 20.4749 370.567 20.4749H366.913L367.606 19.8029Z" fill="#0D1117"/>
<path d="M347.691 38.5565V23.9615H348.951L349.098 26.0195C349.462 25.2355 349.98 24.6545 350.652 24.2765C351.338 23.8845 352.101 23.6885 352.941 23.6885C353.921 23.6885 354.761 23.9195 355.461 24.3815C356.161 24.8435 356.7 25.4735 357.078 26.2715C357.456 27.0695 357.645 27.9795 357.645 29.0015C357.645 30.0235 357.456 30.9405 357.078 31.7525C356.714 32.5645 356.182 33.2085 355.482 33.6845C354.796 34.1465 353.949 34.3775 352.941 34.3775C352.073 34.3775 351.31 34.1955 350.652 33.8315C349.994 33.4535 349.49 32.9005 349.14 32.1725V38.5565H347.691ZM349.161 29.0435C349.161 29.8135 349.301 30.5065 349.581 31.1225C349.861 31.7245 350.26 32.2005 350.778 32.5505C351.31 32.9005 351.947 33.0755 352.689 33.0755C353.431 33.0755 354.061 32.9005 354.579 32.5505C355.097 32.2005 355.489 31.7245 355.755 31.1225C356.035 30.5065 356.175 29.8135 356.175 29.0435C356.175 28.2595 356.035 27.5665 355.755 26.9645C355.489 26.3485 355.097 25.8725 354.579 25.5365C354.061 25.1865 353.431 25.0115 352.689 25.0115C351.947 25.0115 351.31 25.1865 350.778 25.5365C350.26 25.8725 349.861 26.3485 349.581 26.9645C349.301 27.5665 349.161 28.2595 349.161 29.0435Z" fill="#0D1117"/>
<path d="M335.426 38.5565V23.9615H336.686L336.833 26.0195C337.197 25.2355 337.715 24.6545 338.387 24.2765C339.073 23.8845 339.836 23.6885 340.676 23.6885C341.656 23.6885 342.496 23.9195 343.196 24.3815C343.896 24.8435 344.435 25.4735 344.813 26.2715C345.191 27.0695 345.38 27.9795 345.38 29.0015C345.38 30.0235 345.191 30.9405 344.813 31.7525C344.449 32.5645 343.917 33.2085 343.217 33.6845C342.531 34.1465 341.684 34.3775 340.676 34.3775C339.808 34.3775 339.045 34.1955 338.387 33.8315C337.729 33.4535 337.225 32.9005 336.875 32.1725V38.5565H335.426ZM336.896 29.0435C336.896 29.8135 337.036 30.5065 337.316 31.1225C337.596 31.7245 337.995 32.2005 338.513 32.5505C339.045 32.9005 339.682 33.0755 340.424 33.0755C341.166 33.0755 341.796 32.9005 342.314 32.5505C342.832 32.2005 343.224 31.7245 343.49 31.1225C343.77 30.5065 343.91 29.8135 343.91 29.0435C343.91 28.2595 343.77 27.5665 343.49 26.9645C343.224 26.3485 342.832 25.8725 342.314 25.5365C341.796 25.1865 341.166 25.0115 340.424 25.0115C339.682 25.0115 339.045 25.1865 338.513 25.5365C337.995 25.8725 337.596 26.3485 337.316 26.9645C337.036 27.5665 336.896 28.2595 336.896 29.0435Z" fill="#0D1117"/>
<path d="M322.205 34.1249H320.672L326.195 19.0889H328.064L333.65 34.1249H332.075L330.605 30.1349H323.675L322.205 34.1249ZM326.93 21.2099L324.137 28.8119H330.122L327.308 21.2099C327.28 21.0979 327.245 20.9859 327.203 20.8739C327.161 20.7619 327.133 20.6709 327.119 20.6009C327.105 20.6709 327.077 20.7689 327.035 20.8949C327.007 21.0069 326.972 21.1119 326.93 21.2099Z" fill="#0D1117"/>
<rect x="341.25" y="68.25" width="159.25" height="52.5" rx="16" fill="white"/>
<path d="M478.023 99.5195H479.409C479.409 100.107 479.619 100.576 480.039 100.926C480.459 101.262 481.019 101.43 481.719 101.43C482.503 101.43 483.112 101.276 483.546 100.968C483.994 100.646 484.218 100.212 484.218 99.6665C484.218 99.2465 484.099 98.9105 483.861 98.6585C483.623 98.4065 483.203 98.2035 482.601 98.0495L480.858 97.6085C479.976 97.3845 479.318 97.0415 478.884 96.5795C478.45 96.1175 478.233 95.5435 478.233 94.8575C478.233 94.2695 478.387 93.7585 478.695 93.3245C479.003 92.8765 479.43 92.5335 479.976 92.2955C480.536 92.0575 481.18 91.9385 481.908 91.9385C482.622 91.9385 483.245 92.0645 483.777 92.3165C484.309 92.5685 484.722 92.9255 485.016 93.3875C485.324 93.8355 485.485 94.3745 485.499 95.0045H484.092C484.078 94.4025 483.875 93.9405 483.483 93.6185C483.091 93.2965 482.552 93.1355 481.866 93.1355C481.152 93.1355 480.599 93.2825 480.207 93.5765C479.829 93.8705 479.64 94.2905 479.64 94.8365C479.64 95.6205 480.193 96.1525 481.299 96.4325L483.042 96.8735C483.924 97.0975 484.568 97.4265 484.974 97.8605C485.394 98.2945 485.604 98.8755 485.604 99.6035C485.604 100.205 485.443 100.737 485.121 101.199C484.799 101.661 484.344 102.018 483.756 102.27C483.182 102.508 482.51 102.627 481.74 102.627C480.606 102.627 479.703 102.347 479.031 101.787C478.359 101.213 478.023 100.457 478.023 99.5195Z" fill="#0D1117"/>
<path d="M472.055 102.627C471.075 102.627 470.207 102.403 469.451 101.955C468.709 101.507 468.128 100.884 467.708 100.086C467.288 99.2885 467.078 98.3575 467.078 97.2935C467.078 96.2435 467.281 95.3195 467.687 94.5215C468.107 93.7095 468.681 93.0795 469.409 92.6315C470.137 92.1695 470.984 91.9385 471.95 91.9385C472.874 91.9385 473.679 92.1415 474.365 92.5475C475.065 92.9535 475.604 93.5205 475.982 94.2485C476.374 94.9625 476.57 95.8025 476.57 96.7685V97.4825H467.876L467.918 96.4325H475.121C475.121 95.4525 474.827 94.6685 474.239 94.0805C473.665 93.4785 472.902 93.1775 471.95 93.1775C471.25 93.1775 470.634 93.3385 470.102 93.6605C469.584 93.9825 469.185 94.4445 468.905 95.0465C468.625 95.6345 468.485 96.3345 468.485 97.1465C468.485 98.4905 468.793 99.5335 469.409 100.275C470.039 101.017 470.928 101.388 472.076 101.388C472.902 101.388 473.581 101.213 474.113 100.863C474.645 100.513 475.002 100.002 475.184 99.3305H476.57C476.304 100.394 475.786 101.213 475.016 101.787C474.246 102.347 473.259 102.627 472.055 102.627Z" fill="#0D1117"/>
<path d="M466.254 92.0845V93.3865H465.456C464.518 93.3865 463.769 93.6735 463.209 94.2475C462.663 94.8215 462.39 95.5985 462.39 96.5785V102.374H460.941V92.2105H462.306L462.432 94.2055H462.285C462.425 93.5475 462.768 93.0155 463.314 92.6095C463.86 92.1895 464.525 91.9795 465.309 91.9795C465.463 91.9795 465.617 91.9865 465.771 92.0005C465.925 92.0145 466.086 92.0425 466.254 92.0845Z" fill="#0D1117"/>
<path d="M448.293 97.2935C448.293 96.2435 448.517 95.3195 448.965 94.5215C449.413 93.7235 450.029 93.0935 450.813 92.6315C451.597 92.1695 452.479 91.9385 453.459 91.9385C454.453 91.9385 455.335 92.1695 456.105 92.6315C456.889 93.0935 457.505 93.7235 457.953 94.5215C458.401 95.3195 458.625 96.2435 458.625 97.2935C458.625 98.3155 458.401 99.2325 457.953 100.044C457.505 100.842 456.889 101.472 456.105 101.934C455.335 102.396 454.453 102.627 453.459 102.627C452.479 102.627 451.597 102.396 450.813 101.934C450.029 101.472 449.413 100.842 448.965 100.044C448.517 99.2325 448.293 98.3155 448.293 97.2935ZM449.763 97.2725C449.763 98.0705 449.917 98.7775 450.225 99.3935C450.547 99.9955 450.981 100.471 451.527 100.821C452.087 101.157 452.731 101.325 453.459 101.325C454.187 101.325 454.824 101.157 455.37 100.821C455.93 100.471 456.364 99.9955 456.672 99.3935C456.994 98.7775 457.155 98.0705 457.155 97.2725C457.155 96.4885 456.994 95.7955 456.672 95.1935C456.364 94.5915 455.93 94.1155 455.37 93.7655C454.824 93.4155 454.187 93.2405 453.459 93.2405C452.731 93.2405 452.087 93.4155 451.527 93.7655C450.981 94.1155 450.547 94.5915 450.225 95.1935C449.917 95.7955 449.763 96.4885 449.763 97.2725Z" fill="#0D1117"/>
<path d="M441.723 92.211H447.225V93.429H441.723V92.211ZM445.188 102.375H443.76V88.998H445.188V102.375Z" fill="#0D1117"/>
<path d="M430.435 91.2444C430.435 90.4044 430.645 89.6764 431.065 89.0604C431.485 88.4304 432.073 87.9404 432.829 87.5904C433.585 87.2404 434.467 87.0654 435.475 87.0654C436.385 87.0654 437.176 87.2264 437.848 87.5484C438.534 87.8704 439.08 88.3324 439.486 88.9344C439.892 89.5364 440.13 90.2574 440.2 91.0974H438.667C438.583 90.2574 438.261 89.6064 437.701 89.1444C437.141 88.6684 436.392 88.4304 435.454 88.4304C434.404 88.4304 433.557 88.6824 432.913 89.1864C432.269 89.6904 431.947 90.3694 431.947 91.2234C431.947 91.8814 432.143 92.4274 432.535 92.8614C432.927 93.2814 433.515 93.5894 434.299 93.7854L436.882 94.4154C438.058 94.6954 438.947 95.1714 439.549 95.8434C440.151 96.5014 440.452 97.3414 440.452 98.3634C440.452 99.2174 440.242 99.9664 439.822 100.61C439.402 101.254 438.807 101.751 438.037 102.101C437.267 102.451 436.364 102.626 435.328 102.626C434.362 102.626 433.501 102.465 432.745 102.143C432.003 101.821 431.415 101.359 430.981 100.757C430.561 100.155 430.316 99.4484 430.246 98.6364H431.8C431.842 99.4344 432.185 100.071 432.829 100.547C433.473 101.009 434.306 101.24 435.328 101.24C436.434 101.24 437.309 100.988 437.953 100.484C438.611 99.9804 438.94 99.3014 438.94 98.4474C438.94 97.7614 438.744 97.2084 438.352 96.7884C437.974 96.3544 437.379 96.0394 436.567 95.8434L434.026 95.2134C432.85 94.9334 431.954 94.4644 431.338 93.8064C430.736 93.1344 430.435 92.2804 430.435 91.2444Z" fill="#0D1117"/>
<path d="M415.521 92.21L419.343 102.584L418.272 103.424L413.988 92.21H415.521ZM414.282 106.805V105.608H415.395C415.689 105.608 415.976 105.58 416.256 105.524C416.55 105.482 416.816 105.363 417.054 105.167C417.306 104.971 417.509 104.642 417.663 104.18L422.01 92.21H423.501L418.839 104.705C418.545 105.503 418.146 106.077 417.642 106.427C417.152 106.777 416.543 106.952 415.815 106.952C415.521 106.952 415.248 106.938 414.996 106.91C414.744 106.896 414.506 106.861 414.282 106.805Z" fill="#0D1117"/>
<path d="M407.945 92.2104H413.342V93.4284H407.945V92.2104ZM413.426 87.1494V88.3884C413.328 88.3884 413.202 88.3884 413.048 88.3884C412.894 88.3884 412.733 88.3884 412.565 88.3884C411.921 88.3884 411.487 88.5494 411.263 88.8714C411.053 89.1794 410.948 89.6344 410.948 90.2364V102.374H409.499V90.2364C409.499 89.4804 409.625 88.8714 409.877 88.4094C410.129 87.9334 410.465 87.5904 410.885 87.3804C411.319 87.1704 411.795 87.0654 412.313 87.0654C412.495 87.0654 412.684 87.0724 412.88 87.0864C413.076 87.1004 413.258 87.1214 413.426 87.1494Z" fill="#0D1117"/>
<path d="M404.607 102.375V92.2109H406.056V102.375H404.607ZM405.321 89.4179C405.027 89.4179 404.775 89.3129 404.565 89.1029C404.355 88.8929 404.25 88.6409 404.25 88.3469C404.25 88.0529 404.355 87.8009 404.565 87.5909C404.775 87.3669 405.027 87.2549 405.321 87.2549C405.615 87.2549 405.867 87.3669 406.077 87.5909C406.301 87.8009 406.413 88.0529 406.413 88.3469C406.413 88.6409 406.301 88.8929 406.077 89.1029C405.867 89.3129 405.615 89.4179 405.321 89.4179Z" fill="#0D1117"/>
<path d="M392.34 106.806V92.2115H393.6L393.747 94.2695C394.111 93.4855 394.629 92.9045 395.301 92.5265C395.987 92.1345 396.75 91.9385 397.59 91.9385C398.57 91.9385 399.41 92.1695 400.11 92.6315C400.81 93.0935 401.349 93.7235 401.727 94.5215C402.105 95.3195 402.294 96.2295 402.294 97.2515C402.294 98.2735 402.105 99.1905 401.727 100.002C401.363 100.814 400.831 101.458 400.131 101.934C399.445 102.396 398.598 102.627 397.59 102.627C396.722 102.627 395.959 102.445 395.301 102.081C394.643 101.703 394.139 101.15 393.789 100.422V106.806H392.34ZM393.81 97.2935C393.81 98.0635 393.95 98.7565 394.23 99.3725C394.51 99.9745 394.909 100.45 395.427 100.8C395.959 101.15 396.596 101.325 397.338 101.325C398.08 101.325 398.71 101.15 399.228 100.8C399.746 100.45 400.138 99.9745 400.404 99.3725C400.684 98.7565 400.824 98.0635 400.824 97.2935C400.824 96.5095 400.684 95.8165 400.404 95.2145C400.138 94.5985 399.746 94.1225 399.228 93.7865C398.71 93.4365 398.08 93.2615 397.338 93.2615C396.596 93.2615 395.959 93.4365 395.427 93.7865C394.909 94.1225 394.51 94.5985 394.23 95.2145C393.95 95.8165 393.81 96.5095 393.81 97.2935Z" fill="#0D1117"/>
<path d="M379.691 97.2935C379.691 96.2435 379.915 95.3195 380.363 94.5215C380.811 93.7235 381.427 93.0935 382.211 92.6315C382.995 92.1695 383.877 91.9385 384.857 91.9385C385.851 91.9385 386.733 92.1695 387.503 92.6315C388.287 93.0935 388.903 93.7235 389.351 94.5215C389.799 95.3195 390.023 96.2435 390.023 97.2935C390.023 98.3155 389.799 99.2325 389.351 100.044C388.903 100.842 388.287 101.472 387.503 101.934C386.733 102.396 385.851 102.627 384.857 102.627C383.877 102.627 382.995 102.396 382.211 101.934C381.427 101.472 380.811 100.842 380.363 100.044C379.915 99.2325 379.691 98.3155 379.691 97.2935ZM381.161 97.2725C381.161 98.0705 381.315 98.7775 381.623 99.3935C381.945 99.9955 382.379 100.471 382.925 100.821C383.485 101.157 384.129 101.325 384.857 101.325C385.585 101.325 386.222 101.157 386.768 100.821C387.328 100.471 387.762 99.9955 388.07 99.3935C388.392 98.7775 388.553 98.0705 388.553 97.2725C388.553 96.4885 388.392 95.7955 388.07 95.1935C387.762 94.5915 387.328 94.1155 386.768 93.7655C386.222 93.4155 385.585 93.2405 384.857 93.2405C384.129 93.2405 383.485 93.4155 382.925 93.7655C382.379 94.1155 381.945 94.5915 381.623 95.1935C381.315 95.7955 381.161 96.4885 381.161 97.2725Z" fill="#0D1117"/>
<path d="M370.062 102.353H368.613V87.0654H370.062V93.9744C370.384 93.3584 370.846 92.8684 371.448 92.5044C372.064 92.1264 372.799 91.9374 373.653 91.9374C374.997 91.9374 375.977 92.3224 376.593 93.0924C377.209 93.8624 377.517 94.8844 377.517 96.1584V102.374H376.068V96.4734C376.068 95.6754 375.956 95.0454 375.732 94.5834C375.508 94.1074 375.193 93.7714 374.787 93.5754C374.381 93.3654 373.912 93.2604 373.38 93.2604C372.652 93.2604 372.043 93.4214 371.553 93.7434C371.063 94.0654 370.692 94.4994 370.44 95.0454C370.188 95.5774 370.062 96.1724 370.062 96.8304V102.353Z" fill="#0D1117"/>
<path d="M356.197 91.2444C356.197 90.4044 356.407 89.6764 356.827 89.0604C357.247 88.4304 357.835 87.9404 358.591 87.5904C359.347 87.2404 360.229 87.0654 361.237 87.0654C362.147 87.0654 362.938 87.2264 363.61 87.5484C364.296 87.8704 364.842 88.3324 365.248 88.9344C365.654 89.5364 365.892 90.2574 365.962 91.0974H364.429C364.345 90.2574 364.023 89.6064 363.463 89.1444C362.903 88.6684 362.154 88.4304 361.216 88.4304C360.166 88.4304 359.319 88.6824 358.675 89.1864C358.031 89.6904 357.709 90.3694 357.709 91.2234C357.709 91.8814 357.905 92.4274 358.297 92.8614C358.689 93.2814 359.277 93.5894 360.061 93.7854L362.644 94.4154C363.82 94.6954 364.709 95.1714 365.311 95.8434C365.913 96.5014 366.214 97.3414 366.214 98.3634C366.214 99.2174 366.004 99.9664 365.584 100.61C365.164 101.254 364.569 101.751 363.799 102.101C363.029 102.451 362.126 102.626 361.09 102.626C360.124 102.626 359.263 102.465 358.507 102.143C357.765 101.821 357.177 101.359 356.743 100.757C356.323 100.155 356.078 99.4484 356.008 98.6364H357.562C357.604 99.4344 357.947 100.071 358.591 100.547C359.235 101.009 360.068 101.24 361.09 101.24C362.196 101.24 363.071 100.988 363.715 100.484C364.373 99.9804 364.702 99.3014 364.702 98.4474C364.702 97.7614 364.506 97.2084 364.114 96.7884C363.736 96.3544 363.141 96.0394 362.329 95.8434L359.788 95.2134C358.612 94.9334 357.716 94.4644 357.1 93.8064C356.498 93.1344 356.197 92.2804 356.197 91.2444Z" fill="#0D1117"/>
<rect x="154.875" y="68.25" width="172.375" height="52.5" rx="16" fill="white"/>
<path d="M304.797 99.5195H306.183C306.183 100.107 306.393 100.576 306.813 100.926C307.233 101.262 307.793 101.43 308.493 101.43C309.277 101.43 309.886 101.276 310.32 100.968C310.768 100.646 310.992 100.212 310.992 99.6665C310.992 99.2465 310.873 98.9105 310.635 98.6585C310.397 98.4065 309.977 98.2035 309.375 98.0495L307.632 97.6085C306.75 97.3845 306.092 97.0415 305.658 96.5795C305.224 96.1175 305.007 95.5435 305.007 94.8575C305.007 94.2695 305.161 93.7585 305.469 93.3245C305.777 92.8765 306.204 92.5335 306.75 92.2955C307.31 92.0575 307.954 91.9385 308.682 91.9385C309.396 91.9385 310.019 92.0645 310.551 92.3165C311.083 92.5685 311.496 92.9255 311.79 93.3875C312.098 93.8355 312.259 94.3745 312.273 95.0045H310.866C310.852 94.4025 310.649 93.9405 310.257 93.6185C309.865 93.2965 309.326 93.1355 308.64 93.1355C307.926 93.1355 307.373 93.2825 306.981 93.5765C306.603 93.8705 306.414 94.2905 306.414 94.8365C306.414 95.6205 306.967 96.1525 308.073 96.4325L309.816 96.8735C310.698 97.0975 311.342 97.4265 311.748 97.8605C312.168 98.2945 312.378 98.8755 312.378 99.6035C312.378 100.205 312.217 100.737 311.895 101.199C311.573 101.661 311.118 102.018 310.53 102.27C309.956 102.508 309.284 102.627 308.514 102.627C307.38 102.627 306.477 102.347 305.805 101.787C305.133 101.213 304.797 100.457 304.797 99.5195Z" fill="#0D1117"/>
<path d="M295.437 102.375H293.988V92.2115H295.248L295.458 93.9755C295.794 93.3315 296.27 92.8345 296.886 92.4845C297.516 92.1205 298.202 91.9385 298.944 91.9385C300.344 91.9385 301.352 92.3235 301.968 93.0935C302.584 93.8635 302.892 94.8855 302.892 96.1595V102.375H301.443V96.4745C301.443 95.2845 301.191 94.4515 300.687 93.9755C300.197 93.4995 299.532 93.2615 298.692 93.2615C297.656 93.2615 296.851 93.6115 296.277 94.3115C295.717 94.9975 295.437 95.9145 295.437 97.0625V102.375Z" fill="#0D1117"/>
<path d="M281.336 97.2935C281.336 96.2435 281.56 95.3195 282.008 94.5215C282.456 93.7235 283.072 93.0935 283.856 92.6315C284.64 92.1695 285.522 91.9385 286.502 91.9385C287.496 91.9385 288.378 92.1695 289.148 92.6315C289.932 93.0935 290.548 93.7235 290.996 94.5215C291.444 95.3195 291.668 96.2435 291.668 97.2935C291.668 98.3155 291.444 99.2325 290.996 100.044C290.548 100.842 289.932 101.472 289.148 101.934C288.378 102.396 287.496 102.627 286.502 102.627C285.522 102.627 284.64 102.396 283.856 101.934C283.072 101.472 282.456 100.842 282.008 100.044C281.56 99.2325 281.336 98.3155 281.336 97.2935ZM282.806 97.2725C282.806 98.0705 282.96 98.7775 283.268 99.3935C283.59 99.9955 284.024 100.471 284.57 100.821C285.13 101.157 285.774 101.325 286.502 101.325C287.23 101.325 287.867 101.157 288.413 100.821C288.973 100.471 289.407 99.9955 289.715 99.3935C290.037 98.7775 290.198 98.0705 290.198 97.2725C290.198 96.4885 290.037 95.7955 289.715 95.1935C289.407 94.5915 288.973 94.1155 288.413 93.7655C287.867 93.4155 287.23 93.2405 286.502 93.2405C285.774 93.2405 285.13 93.4155 284.57 93.7655C284.024 94.1155 283.59 94.5915 283.268 95.1935C282.96 95.7955 282.806 96.4885 282.806 97.2725Z" fill="#0D1117"/>
<path d="M277.58 102.375V92.2109H279.029V102.375H277.58ZM278.294 89.4179C278 89.4179 277.748 89.3129 277.538 89.1029C277.328 88.8929 277.223 88.6409 277.223 88.3469C277.223 88.0529 277.328 87.8009 277.538 87.5909C277.748 87.3669 278 87.2549 278.294 87.2549C278.588 87.2549 278.84 87.3669 279.05 87.5909C279.274 87.8009 279.386 88.0529 279.386 88.3469C279.386 88.6409 279.274 88.8929 279.05 89.1029C278.84 89.3129 278.588 89.4179 278.294 89.4179Z" fill="#0D1117"/>
<path d="M270.191 92.211H275.693V93.429H270.191V92.211ZM273.656 102.375H272.228V88.998H273.656V102.375Z" fill="#0D1117"/>
<path d="M266.86 92.2114H268.309V102.375H267.049L266.86 100.653C266.58 101.241 266.111 101.717 265.453 102.081C264.809 102.445 264.088 102.627 263.29 102.627C262.1 102.627 261.183 102.249 260.539 101.493C259.909 100.737 259.594 99.7434 259.594 98.5114V92.1904H261.064V98.0494C261.064 99.2534 261.309 100.1 261.799 100.59C262.303 101.08 262.954 101.325 263.752 101.325C264.732 101.325 265.495 101.01 266.041 100.38C266.587 99.7364 266.86 98.8124 266.86 97.6084V92.2114Z" fill="#0D1117"/>
<path d="M256.64 102.374H255.191V87.0654H256.64V102.374Z" fill="#0D1117"/>
<path d="M242.473 97.2935C242.473 96.2435 242.697 95.3195 243.145 94.5215C243.593 93.7235 244.209 93.0935 244.993 92.6315C245.777 92.1695 246.659 91.9385 247.639 91.9385C248.633 91.9385 249.515 92.1695 250.285 92.6315C251.069 93.0935 251.685 93.7235 252.133 94.5215C252.581 95.3195 252.805 96.2435 252.805 97.2935C252.805 98.3155 252.581 99.2325 252.133 100.044C251.685 100.842 251.069 101.472 250.285 101.934C249.515 102.396 248.633 102.627 247.639 102.627C246.659 102.627 245.777 102.396 244.993 101.934C244.209 101.472 243.593 100.842 243.145 100.044C242.697 99.2325 242.473 98.3155 242.473 97.2935ZM243.943 97.2725C243.943 98.0705 244.097 98.7775 244.405 99.3935C244.727 99.9955 245.161 100.471 245.707 100.821C246.267 101.157 246.911 101.325 247.639 101.325C248.367 101.325 249.004 101.157 249.55 100.821C250.11 100.471 250.544 99.9955 250.852 99.3935C251.174 98.7775 251.335 98.0705 251.335 97.2725C251.335 96.4885 251.174 95.7955 250.852 95.1935C250.544 94.5915 250.11 94.1155 249.55 93.7655C249.004 93.4155 248.367 93.2405 247.639 93.2405C246.911 93.2405 246.267 93.4155 245.707 93.7655C245.161 94.1155 244.727 94.5915 244.405 95.1935C244.097 95.7955 243.943 96.4885 243.943 97.2725Z" fill="#0D1117"/>
<path d="M230.767 91.2444C230.767 90.4044 230.977 89.6764 231.397 89.0604C231.817 88.4304 232.405 87.9404 233.161 87.5904C233.917 87.2404 234.799 87.0654 235.807 87.0654C236.717 87.0654 237.508 87.2264 238.18 87.5484C238.866 87.8704 239.412 88.3324 239.818 88.9344C240.224 89.5364 240.462 90.2574 240.532 91.0974H238.999C238.915 90.2574 238.593 89.6064 238.033 89.1444C237.473 88.6684 236.724 88.4304 235.786 88.4304C234.736 88.4304 233.889 88.6824 233.245 89.1864C232.601 89.6904 232.279 90.3694 232.279 91.2234C232.279 91.8814 232.475 92.4274 232.867 92.8614C233.259 93.2814 233.847 93.5894 234.631 93.7854L237.214 94.4154C238.39 94.6954 239.279 95.1714 239.881 95.8434C240.483 96.5014 240.784 97.3414 240.784 98.3634C240.784 99.2174 240.574 99.9664 240.154 100.61C239.734 101.254 239.139 101.751 238.369 102.101C237.599 102.451 236.696 102.626 235.66 102.626C234.694 102.626 233.833 102.465 233.077 102.143C232.335 101.821 231.747 101.359 231.313 100.757C230.893 100.155 230.648 99.4484 230.578 98.6364H232.132C232.174 99.4344 232.517 100.071 233.161 100.547C233.805 101.009 234.638 101.24 235.66 101.24C236.766 101.24 237.641 100.988 238.285 100.484C238.943 99.9804 239.272 99.3014 239.272 98.4474C239.272 97.7614 239.076 97.2084 238.684 96.7884C238.306 96.3544 237.711 96.0394 236.899 95.8434L234.358 95.2134C233.182 94.9334 232.286 94.4644 231.67 93.8064C231.068 93.1344 230.767 92.2804 230.767 91.2444Z" fill="#0D1117"/>
<path d="M217.259 102.626C216.279 102.626 215.439 102.395 214.739 101.933C214.039 101.471 213.5 100.841 213.122 100.043C212.744 99.2314 212.555 98.3214 212.555 97.3134C212.555 96.2914 212.744 95.3744 213.122 94.5624C213.5 93.7504 214.039 93.1134 214.739 92.6514C215.453 92.1754 216.314 91.9374 217.322 91.9374C218.162 91.9374 218.904 92.1194 219.548 92.4834C220.206 92.8474 220.71 93.4004 221.06 94.1424V87.0654H222.509V102.374H221.249L221.102 100.295C220.738 101.079 220.22 101.667 219.548 102.059C218.876 102.437 218.113 102.626 217.259 102.626ZM217.511 101.303C218.267 101.303 218.904 101.135 219.422 100.799C219.94 100.449 220.339 99.9734 220.619 99.3714C220.899 98.7554 221.039 98.0554 221.039 97.2714C221.039 96.4874 220.899 95.7944 220.619 95.1924C220.339 94.5904 219.94 94.1144 219.422 93.7644C218.904 93.4144 218.267 93.2394 217.511 93.2394C216.783 93.2394 216.153 93.4144 215.621 93.7644C215.103 94.1144 214.704 94.5904 214.424 95.1924C214.158 95.7944 214.025 96.4874 214.025 97.2714C214.025 98.0554 214.158 98.7554 214.424 99.3714C214.704 99.9734 215.103 100.449 215.621 100.799C216.153 101.135 216.783 101.303 217.511 101.303Z" fill="#0D1117"/>
<path d="M209.008 92.2114H210.457V102.375H209.197L209.008 100.653C208.728 101.241 208.259 101.717 207.601 102.081C206.957 102.445 206.236 102.627 205.438 102.627C204.248 102.627 203.331 102.249 202.687 101.493C202.057 100.737 201.742 99.7434 201.742 98.5114V92.1904H203.212V98.0494C203.212 99.2534 203.457 100.1 203.947 100.59C204.451 101.08 205.102 101.325 205.9 101.325C206.88 101.325 207.643 101.01 208.189 100.38C208.735 99.7364 209.008 98.8124 209.008 97.6084V92.2114Z" fill="#0D1117"/>
<path d="M189.461 97.2935C189.461 96.2435 189.685 95.3195 190.133 94.5215C190.581 93.7235 191.197 93.0935 191.981 92.6315C192.765 92.1695 193.647 91.9385 194.627 91.9385C195.621 91.9385 196.503 92.1695 197.273 92.6315C198.057 93.0935 198.673 93.7235 199.121 94.5215C199.569 95.3195 199.793 96.2435 199.793 97.2935C199.793 98.3155 199.569 99.2325 199.121 100.044C198.673 100.842 198.057 101.472 197.273 101.934C196.503 102.396 195.621 102.627 194.627 102.627C193.647 102.627 192.765 102.396 191.981 101.934C191.197 101.472 190.581 100.842 190.133 100.044C189.685 99.2325 189.461 98.3155 189.461 97.2935ZM190.931 97.2725C190.931 98.0705 191.085 98.7775 191.393 99.3935C191.715 99.9955 192.149 100.471 192.695 100.821C193.255 101.157 193.899 101.325 194.627 101.325C195.355 101.325 195.992 101.157 196.538 100.821C197.098 100.471 197.532 99.9955 197.84 99.3935C198.162 98.7775 198.323 98.0705 198.323 97.2725C198.323 96.4885 198.162 95.7955 197.84 95.1935C197.532 94.5915 197.098 94.1155 196.538 93.7655C195.992 93.4155 195.355 93.2405 194.627 93.2405C193.899 93.2405 193.255 93.4155 192.695 93.7655C192.149 94.1155 191.715 94.5915 191.393 95.1935C191.085 95.7955 190.931 96.4885 190.931 97.2725Z" fill="#0D1117"/>
<path d="M187.097 102.374H185.648V87.0654H187.097V102.374Z" fill="#0D1117"/>
<path d="M176.833 102.607C175.433 102.607 174.201 102.285 173.137 101.641C172.087 100.983 171.261 100.073 170.659 98.9109C170.071 97.7489 169.777 96.3979 169.777 94.8579C169.777 93.3179 170.078 91.9669 170.68 90.8049C171.282 89.6289 172.122 88.7189 173.2 88.0749C174.278 87.4169 175.517 87.0879 176.917 87.0879C178.009 87.0879 178.996 87.2909 179.878 87.6969C180.76 88.1029 181.502 88.6769 182.104 89.4189C182.706 90.1469 183.105 91.0149 183.301 92.0229H181.684C181.362 90.9309 180.774 90.0769 179.92 89.4609C179.066 88.8449 178.044 88.5369 176.854 88.5369C175.762 88.5369 174.796 88.8029 173.956 89.3349C173.13 89.8529 172.486 90.5879 172.024 91.5399C171.576 92.4779 171.352 93.5839 171.352 94.8579C171.352 96.1039 171.583 97.2029 172.045 98.1549C172.507 99.1069 173.151 99.8489 173.977 100.381C174.803 100.899 175.762 101.158 176.854 101.158C178.044 101.158 179.08 100.857 179.962 100.255C180.844 99.6529 181.446 98.8549 181.768 97.8609H183.385C183.161 98.7989 182.734 99.6249 182.104 100.339C181.488 101.053 180.725 101.613 179.815 102.019C178.905 102.411 177.911 102.607 176.833 102.607Z" fill="#0D1117"/>
<rect x="319.375" y="136.5" width="181.125" height="52.5" rx="16" fill="white"/>
<path d="M474.68 165.249C474.68 164.325 474.869 163.485 475.247 162.729C475.625 161.959 476.171 161.343 476.885 160.881C477.599 160.419 478.453 160.188 479.447 160.188C480.413 160.188 481.239 160.426 481.925 160.902C482.611 161.378 483.101 162.064 483.395 162.96L483.164 163.254L483.353 160.461H484.613V170.31C484.613 171.318 484.41 172.193 484.004 172.935C483.598 173.691 483.024 174.272 482.282 174.678C481.554 175.098 480.693 175.308 479.699 175.308C478.397 175.308 477.319 174.958 476.465 174.258C475.611 173.558 475.079 172.599 474.869 171.381H476.318C476.472 172.207 476.843 172.844 477.431 173.292C478.033 173.754 478.796 173.985 479.72 173.985C480.77 173.985 481.61 173.663 482.24 173.019C482.87 172.375 483.185 171.521 483.185 170.457V167.265L483.395 167.538C483.101 168.392 482.59 169.071 481.862 169.575C481.148 170.065 480.308 170.31 479.342 170.31C478.376 170.31 477.543 170.079 476.843 169.617C476.143 169.155 475.604 168.546 475.226 167.79C474.862 167.02 474.68 166.173 474.68 165.249ZM476.129 165.228C476.129 165.928 476.262 166.565 476.528 167.139C476.808 167.713 477.2 168.168 477.704 168.504C478.222 168.84 478.838 169.008 479.552 169.008C480.28 169.008 480.903 168.847 481.421 168.525C481.953 168.189 482.359 167.741 482.639 167.181C482.919 166.607 483.059 165.956 483.059 165.228C483.059 164.5 482.919 163.856 482.639 163.296C482.373 162.736 481.981 162.295 481.463 161.973C480.959 161.637 480.329 161.469 479.573 161.469C478.845 161.469 478.222 161.644 477.704 161.994C477.2 162.33 476.808 162.785 476.528 163.359C476.262 163.919 476.129 164.542 476.129 165.228Z" fill="black"/>
<path d="M465.027 170.625H463.578V160.461H464.838L465.048 162.225C465.384 161.581 465.86 161.084 466.476 160.734C467.106 160.37 467.792 160.188 468.534 160.188C469.934 160.188 470.942 160.573 471.558 161.343C472.174 162.113 472.482 163.135 472.482 164.409V170.625H471.033V164.724C471.033 163.534 470.781 162.701 470.277 162.225C469.787 161.749 469.122 161.511 468.282 161.511C467.246 161.511 466.441 161.861 465.867 162.561C465.307 163.247 465.027 164.164 465.027 165.312V170.625Z" fill="black"/>
<path d="M459.111 170.625V160.461H460.56V170.625H459.111ZM459.825 157.668C459.531 157.668 459.279 157.563 459.069 157.353C458.859 157.143 458.754 156.891 458.754 156.597C458.754 156.303 458.859 156.051 459.069 155.841C459.279 155.617 459.531 155.505 459.825 155.505C460.119 155.505 460.371 155.617 460.581 155.841C460.805 156.051 460.917 156.303 460.917 156.597C460.917 156.891 460.805 157.143 460.581 157.353C460.371 157.563 460.119 157.668 459.825 157.668Z" fill="black"/>
<path d="M448.765 170.625H447.316V160.461H448.576L448.786 162.225C449.122 161.581 449.598 161.084 450.214 160.734C450.844 160.37 451.53 160.188 452.272 160.188C453.672 160.188 454.68 160.573 455.296 161.343C455.912 162.113 456.22 163.135 456.22 164.409V170.625H454.771V164.724C454.771 163.534 454.519 162.701 454.015 162.225C453.525 161.749 452.86 161.511 452.02 161.511C450.984 161.511 450.179 161.861 449.605 162.561C449.045 163.247 448.765 164.164 448.765 165.312V170.625Z" fill="black"/>
<path d="M434.363 165.249C434.363 164.325 434.552 163.485 434.93 162.729C435.308 161.959 435.854 161.343 436.568 160.881C437.282 160.419 438.136 160.188 439.13 160.188C440.096 160.188 440.922 160.426 441.608 160.902C442.294 161.378 442.784 162.064 443.078 162.96L442.847 163.254L443.036 160.461H444.296V170.31C444.296 171.318 444.093 172.193 443.687 172.935C443.281 173.691 442.707 174.272 441.965 174.678C441.237 175.098 440.376 175.308 439.382 175.308C438.08 175.308 437.002 174.958 436.148 174.258C435.294 173.558 434.762 172.599 434.552 171.381H436.001C436.155 172.207 436.526 172.844 437.114 173.292C437.716 173.754 438.479 173.985 439.403 173.985C440.453 173.985 441.293 173.663 441.923 173.019C442.553 172.375 442.868 171.521 442.868 170.457V167.265L443.078 167.538C442.784 168.392 442.273 169.071 441.545 169.575C440.831 170.065 439.991 170.31 439.025 170.31C438.059 170.31 437.226 170.079 436.526 169.617C435.826 169.155 435.287 168.546 434.909 167.79C434.545 167.02 434.363 166.173 434.363 165.249ZM435.812 165.228C435.812 165.928 435.945 166.565 436.211 167.139C436.491 167.713 436.883 168.168 437.387 168.504C437.905 168.84 438.521 169.008 439.235 169.008C439.963 169.008 440.586 168.847 441.104 168.525C441.636 168.189 442.042 167.741 442.322 167.181C442.602 166.607 442.742 165.956 442.742 165.228C442.742 164.5 442.602 163.856 442.322 163.296C442.056 162.736 441.664 162.295 441.146 161.973C440.642 161.637 440.012 161.469 439.256 161.469C438.528 161.469 437.905 161.644 437.387 161.994C436.883 162.33 436.491 162.785 436.211 163.359C435.945 163.919 435.812 164.542 435.812 165.228Z" fill="black"/>
<path d="M430.584 170.625V160.461H432.033V170.625H430.584ZM431.298 157.668C431.004 157.668 430.752 157.563 430.542 157.353C430.332 157.143 430.227 156.891 430.227 156.597C430.227 156.303 430.332 156.051 430.542 155.841C430.752 155.617 431.004 155.505 431.298 155.505C431.592 155.505 431.844 155.617 432.054 155.841C432.278 156.051 432.39 156.303 432.39 156.597C432.39 156.891 432.278 157.143 432.054 157.353C431.844 157.563 431.592 157.668 431.298 157.668Z" fill="black"/>
<path d="M420.613 167.769H421.999C421.999 168.357 422.209 168.826 422.629 169.176C423.049 169.512 423.609 169.68 424.309 169.68C425.093 169.68 425.702 169.526 426.136 169.218C426.584 168.896 426.808 168.462 426.808 167.916C426.808 167.496 426.689 167.16 426.451 166.908C426.213 166.656 425.793 166.453 425.191 166.299L423.448 165.858C422.566 165.634 421.908 165.291 421.474 164.829C421.04 164.367 420.823 163.793 420.823 163.107C420.823 162.519 420.977 162.008 421.285 161.574C421.593 161.126 422.02 160.783 422.566 160.545C423.126 160.307 423.77 160.188 424.498 160.188C425.212 160.188 425.835 160.314 426.367 160.566C426.899 160.818 427.312 161.175 427.606 161.637C427.914 162.085 428.075 162.624 428.089 163.254H426.682C426.668 162.652 426.465 162.19 426.073 161.868C425.681 161.546 425.142 161.385 424.456 161.385C423.742 161.385 423.189 161.532 422.797 161.826C422.419 162.12 422.23 162.54 422.23 163.086C422.23 163.87 422.783 164.402 423.889 164.682L425.632 165.123C426.514 165.347 427.158 165.676 427.564 166.11C427.984 166.544 428.194 167.125 428.194 167.853C428.194 168.455 428.033 168.987 427.711 169.449C427.389 169.911 426.934 170.268 426.346 170.52C425.772 170.758 425.1 170.877 424.33 170.877C423.196 170.877 422.293 170.597 421.621 170.037C420.949 169.463 420.613 168.707 420.613 167.769Z" fill="black"/>
<path d="M414.645 170.877C413.665 170.877 412.797 170.653 412.041 170.205C411.299 169.757 410.718 169.134 410.298 168.336C409.878 167.538 409.668 166.607 409.668 165.543C409.668 164.493 409.871 163.569 410.277 162.771C410.697 161.959 411.271 161.329 411.999 160.881C412.727 160.419 413.574 160.188 414.54 160.188C415.464 160.188 416.269 160.391 416.955 160.797C417.655 161.203 418.194 161.77 418.572 162.498C418.964 163.212 419.16 164.052 419.16 165.018V165.732H410.466L410.508 164.682H417.711C417.711 163.702 417.417 162.918 416.829 162.33C416.255 161.728 415.492 161.427 414.54 161.427C413.84 161.427 413.224 161.588 412.692 161.91C412.174 162.232 411.775 162.694 411.495 163.296C411.215 163.884 411.075 164.584 411.075 165.396C411.075 166.74 411.383 167.783 411.999 168.525C412.629 169.267 413.518 169.638 414.666 169.638C415.492 169.638 416.171 169.463 416.703 169.113C417.235 168.763 417.592 168.252 417.774 167.58H419.16C418.894 168.644 418.376 169.463 417.606 170.037C416.836 170.597 415.849 170.877 414.645 170.877Z" fill="black"/>
<path d="M400.453 170.625H395.875V155.589H400.411C401.923 155.589 403.246 155.904 404.38 156.534C405.514 157.164 406.396 158.046 407.026 159.18C407.656 160.3 407.971 161.609 407.971 163.107C407.971 164.605 407.656 165.921 407.026 167.055C406.41 168.175 405.535 169.05 404.401 169.68C403.281 170.31 401.965 170.625 400.453 170.625ZM397.387 156.303V169.911L396.694 169.239H400.39C401.622 169.239 402.686 168.987 403.582 168.483C404.478 167.979 405.171 167.272 405.661 166.362C406.165 165.438 406.417 164.353 406.417 163.107C406.417 161.861 406.165 160.776 405.661 159.852C405.171 158.928 404.471 158.221 403.561 157.731C402.665 157.227 401.594 156.975 400.348 156.975H396.694L397.387 156.303Z" fill="black"/>
<path d="M380.906 163.128L375.656 155.589H377.441L380.234 159.537C380.598 160.027 380.899 160.482 381.137 160.902C381.389 161.308 381.606 161.679 381.788 162.015L386.156 155.589H387.899L382.733 163.086L387.983 170.625H386.177L383.321 166.593C383.069 166.243 382.803 165.858 382.523 165.438C382.257 165.004 382.026 164.619 381.83 164.283L377.441 170.625H375.677L380.906 163.128Z" fill="black"/>
<path d="M362.523 165.396V155.589H364.035V165.333C364.035 166.649 364.385 167.657 365.085 168.357C365.785 169.057 366.793 169.407 368.109 169.407C369.383 169.407 370.37 169.057 371.07 168.357C371.77 167.643 372.12 166.635 372.12 165.333V155.589H373.632V165.396C373.632 166.53 373.408 167.51 372.96 168.336C372.526 169.148 371.896 169.778 371.07 170.226C370.244 170.66 369.257 170.877 368.109 170.877C366.947 170.877 365.946 170.66 365.106 170.226C364.28 169.792 363.643 169.162 363.195 168.336C362.747 167.51 362.523 166.53 362.523 165.396Z" fill="black"/>
<path d="M354.905 170.625H353.477L359.336 155.589H360.806L354.905 170.625Z" fill="black"/>
<path d="M351.653 155.589V170.625H350.141V155.589H351.653Z" fill="black"/>
<path d="M335.477 165.396V155.589H336.989V165.333C336.989 166.649 337.339 167.657 338.039 168.357C338.739 169.057 339.747 169.407 341.063 169.407C342.337 169.407 343.324 169.057 344.024 168.357C344.724 167.643 345.074 166.635 345.074 165.333V155.589H346.586V165.396C346.586 166.53 346.362 167.51 345.914 168.336C345.48 169.148 344.85 169.778 344.024 170.226C343.198 170.66 342.211 170.877 341.063 170.877C339.901 170.877 338.9 170.66 338.06 170.226C337.234 169.792 336.597 169.162 336.149 168.336C335.701 167.51 335.477 166.53 335.477 165.396Z" fill="black"/>
<rect x="14" y="136.5" width="123.375" height="52.5" rx="16" fill="white"/>
<path d="M114.84 167.769H116.226C116.226 168.357 116.436 168.826 116.856 169.176C117.276 169.512 117.836 169.68 118.536 169.68C119.32 169.68 119.929 169.526 120.363 169.218C120.811 168.896 121.035 168.462 121.035 167.916C121.035 167.496 120.916 167.16 120.678 166.908C120.44 166.656 120.02 166.453 119.418 166.299L117.675 165.858C116.793 165.634 116.135 165.291 115.701 164.829C115.267 164.367 115.05 163.793 115.05 163.107C115.05 162.519 115.204 162.008 115.512 161.574C115.82 161.126 116.247 160.783 116.793 160.545C117.353 160.307 117.997 160.188 118.725 160.188C119.439 160.188 120.062 160.314 120.594 160.566C121.126 160.818 121.539 161.175 121.833 161.637C122.141 162.085 122.302 162.624 122.316 163.254H120.909C120.895 162.652 120.692 162.19 120.3 161.868C119.908 161.546 119.369 161.385 118.683 161.385C117.969 161.385 117.416 161.532 117.024 161.826C116.646 162.12 116.457 162.54 116.457 163.086C116.457 163.87 117.01 164.402 118.116 164.682L119.859 165.123C120.741 165.347 121.385 165.676 121.791 166.11C122.211 166.544 122.421 167.125 122.421 167.853C122.421 168.455 122.26 168.987 121.938 169.449C121.616 169.911 121.161 170.268 120.573 170.52C119.999 170.758 119.327 170.877 118.557 170.877C117.423 170.877 116.52 170.597 115.848 170.037C115.176 169.463 114.84 168.707 114.84 167.769Z" fill="black"/>
<path d="M108.868 170.877C107.888 170.877 107.02 170.653 106.264 170.205C105.522 169.757 104.941 169.134 104.521 168.336C104.101 167.538 103.891 166.607 103.891 165.543C103.891 164.493 104.094 163.569 104.5 162.771C104.92 161.959 105.494 161.329 106.222 160.881C106.95 160.419 107.797 160.188 108.763 160.188C109.687 160.188 110.492 160.391 111.178 160.797C111.878 161.203 112.417 161.77 112.795 162.498C113.187 163.212 113.383 164.052 113.383 165.018V165.732H104.689L104.731 164.682H111.934C111.934 163.702 111.64 162.918 111.052 162.33C110.478 161.728 109.715 161.427 108.763 161.427C108.063 161.427 107.447 161.588 106.915 161.91C106.397 162.232 105.998 162.694 105.718 163.296C105.438 163.884 105.298 164.584 105.298 165.396C105.298 166.74 105.606 167.783 106.222 168.525C106.852 169.267 107.741 169.638 108.889 169.638C109.715 169.638 110.394 169.463 110.926 169.113C111.458 168.763 111.815 168.252 111.997 167.58H113.383C113.117 168.644 112.599 169.463 111.829 170.037C111.059 170.597 110.072 170.877 108.868 170.877Z" fill="black"/>
<path d="M94.6406 167.769H96.0266C96.0266 168.357 96.2366 168.826 96.6566 169.176C97.0766 169.512 97.6366 169.68 98.3366 169.68C99.1206 169.68 99.7296 169.526 100.164 169.218C100.612 168.896 100.836 168.462 100.836 167.916C100.836 167.496 100.717 167.16 100.479 166.908C100.241 166.656 99.8206 166.453 99.2186 166.299L97.4756 165.858C96.5936 165.634 95.9356 165.291 95.5016 164.829C95.0676 164.367 94.8506 163.793 94.8506 163.107C94.8506 162.519 95.0046 162.008 95.3126 161.574C95.6206 161.126 96.0476 160.783 96.5936 160.545C97.1536 160.307 97.7976 160.188 98.5256 160.188C99.2396 160.188 99.8626 160.314 100.395 160.566C100.927 160.818 101.34 161.175 101.634 161.637C101.942 162.085 102.103 162.624 102.117 163.254H100.71C100.696 162.652 100.493 162.19 100.101 161.868C99.7086 161.546 99.1696 161.385 98.4836 161.385C97.7696 161.385 97.2166 161.532 96.8246 161.826C96.4466 162.12 96.2576 162.54 96.2576 163.086C96.2576 163.87 96.8106 164.402 97.9166 164.682L99.6596 165.123C100.542 165.347 101.186 165.676 101.592 166.11C102.012 166.544 102.222 167.125 102.222 167.853C102.222 168.455 102.061 168.987 101.739 169.449C101.417 169.911 100.962 170.268 100.374 170.52C99.7996 170.758 99.1276 170.877 98.3576 170.877C97.2236 170.877 96.3206 170.597 95.6486 170.037C94.9766 169.463 94.6406 168.707 94.6406 167.769Z" fill="black"/>
<path d="M87.4479 170.877C86.3699 170.877 85.5229 170.597 84.9069 170.037C84.3049 169.477 84.0039 168.756 84.0039 167.874C84.0039 166.936 84.3399 166.187 85.0119 165.627C85.6839 165.067 86.6149 164.738 87.8049 164.64L91.1649 164.367V164.031C91.1649 163.359 91.0459 162.834 90.8079 162.456C90.5699 162.064 90.2479 161.791 89.8419 161.637C89.4359 161.483 88.9809 161.406 88.4769 161.406C87.5809 161.406 86.8879 161.595 86.3979 161.973C85.9079 162.351 85.6629 162.883 85.6629 163.569H84.3399C84.3399 162.883 84.5149 162.288 84.8649 161.784C85.2149 161.28 85.7049 160.888 86.3349 160.608C86.9649 160.328 87.6929 160.188 88.5189 160.188C89.3169 160.188 90.0169 160.328 90.6189 160.608C91.2209 160.874 91.6969 161.294 92.0469 161.868C92.4109 162.428 92.5929 163.156 92.5929 164.052V170.625H91.3749L91.1859 168.84C90.8779 169.484 90.3879 169.988 89.7159 170.352C89.0579 170.702 88.3019 170.877 87.4479 170.877ZM87.7839 169.701C88.8619 169.701 89.6949 169.358 90.2829 168.672C90.8709 167.986 91.1649 167.097 91.1649 166.005V165.459L88.1619 165.69C87.2099 165.774 86.5239 166.012 86.1039 166.404C85.6839 166.796 85.4739 167.272 85.4739 167.832C85.4739 168.448 85.6839 168.917 86.1039 169.239C86.5239 169.547 87.0839 169.701 87.7839 169.701Z" fill="black"/>
<path d="M73.5256 170.625H72.2656V155.316H73.7146V162.435C74.0646 161.679 74.5686 161.119 75.2266 160.755C75.8986 160.377 76.6686 160.188 77.5366 160.188C78.5306 160.188 79.3706 160.426 80.0566 160.902C80.7566 161.364 81.2886 162.001 81.6526 162.813C82.0306 163.625 82.2196 164.542 82.2196 165.564C82.2196 166.572 82.0306 167.482 81.6526 168.294C81.2746 169.092 80.7356 169.722 80.0356 170.184C79.3356 170.646 78.4886 170.877 77.4946 170.877C76.6546 170.877 75.8986 170.688 75.2266 170.31C74.5546 169.918 74.0366 169.33 73.6726 168.546L73.5256 170.625ZM73.7356 165.522C73.7356 166.306 73.8756 167.006 74.1556 167.622C74.4356 168.224 74.8346 168.7 75.3526 169.05C75.8846 169.386 76.5216 169.554 77.2636 169.554C78.0056 169.554 78.6356 169.386 79.1536 169.05C79.6716 168.7 80.0636 168.224 80.3296 167.622C80.6096 167.006 80.7496 166.306 80.7496 165.522C80.7496 164.738 80.6096 164.045 80.3296 163.443C80.0636 162.841 79.6716 162.365 79.1536 162.015C78.6356 161.665 78.0056 161.49 77.2636 161.49C76.5216 161.49 75.8846 161.665 75.3526 162.015C74.8346 162.365 74.4356 162.841 74.1556 163.443C73.8756 164.045 73.7356 164.738 73.7356 165.522Z" fill="black"/>
<path d="M64.2174 170.877C63.1394 170.877 62.2924 170.597 61.6764 170.037C61.0744 169.477 60.7734 168.756 60.7734 167.874C60.7734 166.936 61.1094 166.187 61.7814 165.627C62.4534 165.067 63.3844 164.738 64.5744 164.64L67.9344 164.367V164.031C67.9344 163.359 67.8154 162.834 67.5774 162.456C67.3394 162.064 67.0174 161.791 66.6114 161.637C66.2054 161.483 65.7504 161.406 65.2464 161.406C64.3504 161.406 63.6574 161.595 63.1674 161.973C62.6774 162.351 62.4324 162.883 62.4324 163.569H61.1094C61.1094 162.883 61.2844 162.288 61.6344 161.784C61.9844 161.28 62.4744 160.888 63.1044 160.608C63.7344 160.328 64.4624 160.188 65.2884 160.188C66.0864 160.188 66.7864 160.328 67.3884 160.608C67.9904 160.874 68.4664 161.294 68.8164 161.868C69.1804 162.428 69.3624 163.156 69.3624 164.052V170.625H68.1444L67.9554 168.84C67.6474 169.484 67.1574 169.988 66.4854 170.352C65.8274 170.702 65.0714 170.877 64.2174 170.877ZM64.5534 169.701C65.6314 169.701 66.4644 169.358 67.0524 168.672C67.6404 167.986 67.9344 167.097 67.9344 166.005V165.459L64.9314 165.69C63.9794 165.774 63.2934 166.012 62.8734 166.404C62.4534 166.796 62.2434 167.272 62.2434 167.832C62.2434 168.448 62.4534 168.917 62.8734 169.239C63.2934 169.547 63.8534 169.701 64.5534 169.701Z" fill="black"/>
<path d="M54.0703 160.461H59.5723V161.679H54.0703V160.461ZM57.5353 170.625H56.1073V157.248H57.5353V170.625Z" fill="black"/>
<path d="M47.3385 170.877C46.2605 170.877 45.4135 170.597 44.7975 170.037C44.1955 169.477 43.8945 168.756 43.8945 167.874C43.8945 166.936 44.2305 166.187 44.9025 165.627C45.5745 165.067 46.5055 164.738 47.6955 164.64L51.0555 164.367V164.031C51.0555 163.359 50.9365 162.834 50.6985 162.456C50.4605 162.064 50.1385 161.791 49.7325 161.637C49.3265 161.483 48.8715 161.406 48.3675 161.406C47.4715 161.406 46.7785 161.595 46.2885 161.973C45.7985 162.351 45.5535 162.883 45.5535 163.569H44.2305C44.2305 162.883 44.4055 162.288 44.7555 161.784C45.1055 161.28 45.5955 160.888 46.2255 160.608C46.8555 160.328 47.5835 160.188 48.4095 160.188C49.2075 160.188 49.9075 160.328 50.5095 160.608C51.1115 160.874 51.5875 161.294 51.9375 161.868C52.3015 162.428 52.4835 163.156 52.4835 164.052V170.625H51.2655L51.0765 168.84C50.7685 169.484 50.2785 169.988 49.6065 170.352C48.9485 170.702 48.1925 170.877 47.3385 170.877ZM47.6745 169.701C48.7525 169.701 49.5855 169.358 50.1735 168.672C50.7615 167.986 51.0555 167.097 51.0555 166.005V165.459L48.0525 165.69C47.1005 165.774 46.4145 166.012 45.9945 166.404C45.5745 166.796 45.3645 167.272 45.3645 167.832C45.3645 168.448 45.5745 168.917 45.9945 169.239C46.4145 169.547 46.9745 169.701 47.6745 169.701Z" fill="black"/>
<path d="M34.4842 170.625H29.9062V155.589H34.4422C35.9542 155.589 37.2772 155.904 38.4112 156.534C39.5452 157.164 40.4272 158.046 41.0572 159.18C41.6872 160.3 42.0022 161.609 42.0022 163.107C42.0022 164.605 41.6872 165.921 41.0572 167.055C40.4412 168.175 39.5662 169.05 38.4322 169.68C37.3122 170.31 35.9962 170.625 34.4842 170.625ZM31.4182 156.303V169.911L30.7252 169.239H34.4212C35.6532 169.239 36.7172 168.987 37.6132 168.483C38.5092 167.979 39.2022 167.272 39.6922 166.362C40.1962 165.438 40.4482 164.353 40.4482 163.107C40.4482 161.861 40.1962 160.776 39.6922 159.852C39.2022 158.928 38.5022 158.221 37.5922 157.731C36.6962 157.227 35.6252 156.975 34.3792 156.975H30.7252L31.4182 156.303Z" fill="black"/>
<rect x="151.375" y="136.5" width="154" height="52.5" rx="16" fill="white"/>
<path d="M279.746 165.249C279.746 164.325 279.935 163.485 280.313 162.729C280.691 161.959 281.237 161.343 281.951 160.881C282.665 160.419 283.519 160.188 284.513 160.188C285.479 160.188 286.305 160.426 286.991 160.902C287.677 161.378 288.167 162.064 288.461 162.96L288.23 163.254L288.419 160.461H289.679V170.31C289.679 171.318 289.476 172.193 289.07 172.935C288.664 173.691 288.09 174.272 287.348 174.678C286.62 175.098 285.759 175.308 284.765 175.308C283.463 175.308 282.385 174.958 281.531 174.258C280.677 173.558 280.145 172.599 279.935 171.381H281.384C281.538 172.207 281.909 172.844 282.497 173.292C283.099 173.754 283.862 173.985 284.786 173.985C285.836 173.985 286.676 173.663 287.306 173.019C287.936 172.375 288.251 171.521 288.251 170.457V167.265L288.461 167.538C288.167 168.392 287.656 169.071 286.928 169.575C286.214 170.065 285.374 170.31 284.408 170.31C283.442 170.31 282.609 170.079 281.909 169.617C281.209 169.155 280.67 168.546 280.292 167.79C279.928 167.02 279.746 166.173 279.746 165.249ZM281.195 165.228C281.195 165.928 281.328 166.565 281.594 167.139C281.874 167.713 282.266 168.168 282.77 168.504C283.288 168.84 283.904 169.008 284.618 169.008C285.346 169.008 285.969 168.847 286.487 168.525C287.019 168.189 287.425 167.741 287.705 167.181C287.985 166.607 288.125 165.956 288.125 165.228C288.125 164.5 287.985 163.856 287.705 163.296C287.439 162.736 287.047 162.295 286.529 161.973C286.025 161.637 285.395 161.469 284.639 161.469C283.911 161.469 283.288 161.644 282.77 161.994C282.266 162.33 281.874 162.785 281.594 163.359C281.328 163.919 281.195 164.542 281.195 165.228Z" fill="black"/>
<path d="M270.094 170.625H268.645V160.461H269.905L270.115 162.225C270.451 161.581 270.927 161.084 271.543 160.734C272.173 160.37 272.859 160.188 273.601 160.188C275.001 160.188 276.009 160.573 276.625 161.343C277.241 162.113 277.549 163.135 277.549 164.409V170.625H276.1V164.724C276.1 163.534 275.848 162.701 275.344 162.225C274.854 161.749 274.189 161.511 273.349 161.511C272.313 161.511 271.508 161.861 270.934 162.561C270.374 163.247 270.094 164.164 270.094 165.312V170.625Z" fill="black"/>
<path d="M264.177 170.625V160.461H265.626V170.625H264.177ZM264.891 157.668C264.597 157.668 264.345 157.563 264.135 157.353C263.925 157.143 263.82 156.891 263.82 156.597C263.82 156.303 263.925 156.051 264.135 155.841C264.345 155.617 264.597 155.505 264.891 155.505C265.185 155.505 265.437 155.617 265.647 155.841C265.871 156.051 265.983 156.303 265.983 156.597C265.983 156.891 265.871 157.143 265.647 157.353C265.437 157.563 265.185 157.668 264.891 157.668Z" fill="black"/>
<path d="M247.945 170.625H246.496V160.461H247.756L247.966 162.372L247.756 162.309C247.966 161.665 248.358 161.154 248.932 160.776C249.52 160.384 250.206 160.188 250.99 160.188C251.9 160.188 252.656 160.44 253.258 160.944C253.874 161.434 254.266 162.106 254.434 162.96H254.119C254.259 162.106 254.637 161.434 255.253 160.944C255.883 160.44 256.667 160.188 257.605 160.188C258.697 160.188 259.579 160.524 260.251 161.196C260.923 161.868 261.259 162.792 261.259 163.968V170.625H259.852V164.262C259.852 163.394 259.628 162.715 259.18 162.225C258.732 161.735 258.116 161.49 257.332 161.49C256.772 161.49 256.289 161.623 255.883 161.889C255.477 162.141 255.162 162.484 254.938 162.918C254.728 163.352 254.623 163.828 254.623 164.346V170.625H253.195V164.241C253.195 163.373 252.964 162.701 252.502 162.225C252.054 161.749 251.445 161.511 250.675 161.511C250.115 161.511 249.625 161.637 249.205 161.889C248.799 162.141 248.484 162.484 248.26 162.918C248.05 163.338 247.945 163.807 247.945 164.325V170.625Z" fill="black"/>
<path d="M230.269 170.625H228.82V160.461H230.08L230.29 162.372L230.08 162.309C230.29 161.665 230.682 161.154 231.256 160.776C231.844 160.384 232.53 160.188 233.314 160.188C234.224 160.188 234.98 160.44 235.582 160.944C236.198 161.434 236.59 162.106 236.758 162.96H236.443C236.583 162.106 236.961 161.434 237.577 160.944C238.207 160.44 238.991 160.188 239.929 160.188C241.021 160.188 241.903 160.524 242.575 161.196C243.247 161.868 243.583 162.792 243.583 163.968V170.625H242.176V164.262C242.176 163.394 241.952 162.715 241.504 162.225C241.056 161.735 240.44 161.49 239.656 161.49C239.096 161.49 238.613 161.623 238.207 161.889C237.801 162.141 237.486 162.484 237.262 162.918C237.052 163.352 236.947 163.828 236.947 164.346V170.625H235.519V164.241C235.519 163.373 235.288 162.701 234.826 162.225C234.378 161.749 233.769 161.511 232.999 161.511C232.439 161.511 231.949 161.637 231.529 161.889C231.123 162.141 230.808 162.484 230.584 162.918C230.374 163.338 230.269 163.807 230.269 164.325V170.625Z" fill="black"/>
<path d="M220.768 170.877C219.69 170.877 218.843 170.597 218.227 170.037C217.625 169.477 217.324 168.756 217.324 167.874C217.324 166.936 217.66 166.187 218.332 165.627C219.004 165.067 219.935 164.738 221.125 164.64L224.485 164.367V164.031C224.485 163.359 224.366 162.834 224.128 162.456C223.89 162.064 223.568 161.791 223.162 161.637C222.756 161.483 222.301 161.406 221.797 161.406C220.901 161.406 220.208 161.595 219.718 161.973C219.228 162.351 218.983 162.883 218.983 163.569H217.66C217.66 162.883 217.835 162.288 218.185 161.784C218.535 161.28 219.025 160.888 219.655 160.608C220.285 160.328 221.013 160.188 221.839 160.188C222.637 160.188 223.337 160.328 223.939 160.608C224.541 160.874 225.017 161.294 225.367 161.868C225.731 162.428 225.913 163.156 225.913 164.052V170.625H224.695L224.506 168.84C224.198 169.484 223.708 169.988 223.036 170.352C222.378 170.702 221.622 170.877 220.768 170.877ZM221.104 169.701C222.182 169.701 223.015 169.358 223.603 168.672C224.191 167.986 224.485 167.097 224.485 166.005V165.459L221.482 165.69C220.53 165.774 219.844 166.012 219.424 166.404C219.004 166.796 218.794 167.272 218.794 167.832C218.794 168.448 219.004 168.917 219.424 169.239C219.844 169.547 220.404 169.701 221.104 169.701Z" fill="black"/>
<path d="M216.333 160.335V161.637H215.535C214.597 161.637 213.848 161.924 213.288 162.498C212.742 163.072 212.469 163.849 212.469 164.829V170.625H211.02V160.461H212.385L212.511 162.456H212.364C212.504 161.798 212.847 161.266 213.393 160.86C213.939 160.44 214.604 160.23 215.388 160.23C215.542 160.23 215.696 160.237 215.85 160.251C216.004 160.265 216.165 160.293 216.333 160.335Z" fill="black"/>
<path d="M198.066 165.249C198.066 164.325 198.255 163.485 198.633 162.729C199.011 161.959 199.557 161.343 200.271 160.881C200.985 160.419 201.839 160.188 202.833 160.188C203.799 160.188 204.625 160.426 205.311 160.902C205.997 161.378 206.487 162.064 206.781 162.96L206.55 163.254L206.739 160.461H207.999V170.31C207.999 171.318 207.796 172.193 207.39 172.935C206.984 173.691 206.41 174.272 205.668 174.678C204.94 175.098 204.079 175.308 203.085 175.308C201.783 175.308 200.705 174.958 199.851 174.258C198.997 173.558 198.465 172.599 198.255 171.381H199.704C199.858 172.207 200.229 172.844 200.817 173.292C201.419 173.754 202.182 173.985 203.106 173.985C204.156 173.985 204.996 173.663 205.626 173.019C206.256 172.375 206.571 171.521 206.571 170.457V167.265L206.781 167.538C206.487 168.392 205.976 169.071 205.248 169.575C204.534 170.065 203.694 170.31 202.728 170.31C201.762 170.31 200.929 170.079 200.229 169.617C199.529 169.155 198.99 168.546 198.612 167.79C198.248 167.02 198.066 166.173 198.066 165.249ZM199.515 165.228C199.515 165.928 199.648 166.565 199.914 167.139C200.194 167.713 200.586 168.168 201.09 168.504C201.608 168.84 202.224 169.008 202.938 169.008C203.666 169.008 204.289 168.847 204.807 168.525C205.339 168.189 205.745 167.741 206.025 167.181C206.305 166.607 206.445 165.956 206.445 165.228C206.445 164.5 206.305 163.856 206.025 163.296C205.759 162.736 205.367 162.295 204.849 161.973C204.345 161.637 203.715 161.469 202.959 161.469C202.231 161.469 201.608 161.644 201.09 161.994C200.586 162.33 200.194 162.785 199.914 163.359C199.648 163.919 199.515 164.542 199.515 165.228Z" fill="black"/>
<path d="M186.105 165.543C186.105 164.493 186.329 163.569 186.777 162.771C187.225 161.973 187.841 161.343 188.625 160.881C189.409 160.419 190.291 160.188 191.271 160.188C192.265 160.188 193.147 160.419 193.917 160.881C194.701 161.343 195.317 161.973 195.765 162.771C196.213 163.569 196.437 164.493 196.437 165.543C196.437 166.565 196.213 167.482 195.765 168.294C195.317 169.092 194.701 169.722 193.917 170.184C193.147 170.646 192.265 170.877 191.271 170.877C190.291 170.877 189.409 170.646 188.625 170.184C187.841 169.722 187.225 169.092 186.777 168.294C186.329 167.482 186.105 166.565 186.105 165.543ZM187.575 165.522C187.575 166.32 187.729 167.027 188.037 167.643C188.359 168.245 188.793 168.721 189.339 169.071C189.899 169.407 190.543 169.575 191.271 169.575C191.999 169.575 192.636 169.407 193.182 169.071C193.742 168.721 194.176 168.245 194.484 167.643C194.806 167.027 194.967 166.32 194.967 165.522C194.967 164.738 194.806 164.045 194.484 163.443C194.176 162.841 193.742 162.365 193.182 162.015C192.636 161.665 191.999 161.49 191.271 161.49C190.543 161.49 189.899 161.665 189.339 162.015C188.793 162.365 188.359 162.841 188.037 163.443C187.729 164.045 187.575 164.738 187.575 165.522Z" fill="black"/>
<path d="M185.286 160.335V161.637H184.488C183.55 161.637 182.801 161.924 182.241 162.498C181.695 163.072 181.422 163.849 181.422 164.829V170.625H179.973V160.461H181.338L181.464 162.456H181.317C181.457 161.798 181.8 161.266 182.346 160.86C182.892 160.44 183.557 160.23 184.341 160.23C184.495 160.23 184.649 160.237 184.803 160.251C184.957 160.265 185.118 160.293 185.286 160.335Z" fill="black"/>
<path d="M168.899 155.589V170.625H167.387V155.589H168.899ZM173.12 165.102H168.584V163.737H172.826C173.918 163.737 174.765 163.422 175.367 162.792C175.969 162.148 176.27 161.315 176.27 160.293C176.27 159.257 175.969 158.445 175.367 157.857C174.765 157.255 173.946 156.954 172.91 156.954H167.933V155.589H173.12C174.086 155.589 174.919 155.785 175.619 156.177C176.333 156.569 176.879 157.122 177.257 157.836C177.649 158.55 177.845 159.376 177.845 160.314C177.845 161.224 177.649 162.043 177.257 162.771C176.879 163.499 176.333 164.073 175.619 164.493C174.919 164.899 174.086 165.102 173.12 165.102Z" fill="black"/>
</svg>
