<svg width="556" height="216" viewBox="0 0 556 216" fill="none" xmlns="http://www.w3.org/2000/svg">
<rect x="90" width="228" height="60" rx="16" fill="white"/>
<path d="M294.809 27.3839H301.097V28.7759H294.809V27.3839ZM298.769 38.9999H297.137V23.7119H298.769V38.9999Z" fill="#0D1117"/>
<path d="M284.281 39.0003H282.625V27.3843H284.065L284.305 29.4003C284.689 28.6643 285.233 28.0963 285.937 27.6963C286.657 27.2803 287.441 27.0723 288.289 27.0723C289.889 27.0723 291.041 27.5123 291.745 28.3923C292.449 29.2723 292.801 30.4403 292.801 31.8963V39.0003H291.145V32.2563C291.145 30.8963 290.857 29.9443 290.281 29.4003C289.721 28.8563 288.961 28.5843 288.001 28.5843C286.817 28.5843 285.897 28.9843 285.241 29.7843C284.601 30.5683 284.281 31.6163 284.281 32.9283V39.0003Z" fill="#0D1117"/>
<path d="M274.817 39.2883C273.697 39.2883 272.705 39.0323 271.841 38.5203C270.993 38.0083 270.329 37.2963 269.849 36.3843C269.369 35.4723 269.129 34.4083 269.129 33.1923C269.129 31.9923 269.361 30.9363 269.825 30.0243C270.305 29.0963 270.961 28.3763 271.793 27.8643C272.625 27.3363 273.593 27.0723 274.697 27.0723C275.753 27.0723 276.673 27.3043 277.457 27.7683C278.257 28.2323 278.873 28.8803 279.305 29.7123C279.753 30.5283 279.977 31.4883 279.977 32.5923V33.4083H270.041L270.089 32.2083H278.321C278.321 31.0883 277.985 30.1923 277.313 29.5203C276.657 28.8323 275.785 28.4883 274.697 28.4883C273.897 28.4883 273.193 28.6723 272.585 29.0403C271.993 29.4083 271.537 29.9363 271.217 30.6243C270.897 31.2963 270.737 32.0963 270.737 33.0243C270.737 34.5603 271.089 35.7523 271.793 36.6003C272.513 37.4483 273.529 37.8723 274.841 37.8723C275.785 37.8723 276.561 37.6723 277.169 37.2723C277.777 36.8723 278.185 36.2883 278.393 35.5203H279.977C279.673 36.7363 279.081 37.6723 278.201 38.3283C277.321 38.9683 276.193 39.2883 274.817 39.2883Z" fill="#0D1117"/>
<path d="M251.398 39.0003H249.742V27.3843H251.182L251.422 29.5683L251.182 29.4963C251.422 28.7603 251.87 28.1763 252.526 27.7443C253.198 27.2963 253.982 27.0723 254.878 27.0723C255.918 27.0723 256.782 27.3603 257.47 27.9363C258.174 28.4963 258.622 29.2643 258.814 30.2403H258.454C258.614 29.2643 259.046 28.4963 259.75 27.9363C260.47 27.3603 261.366 27.0723 262.438 27.0723C263.686 27.0723 264.694 27.4563 265.462 28.2243C266.23 28.9923 266.614 30.0483 266.614 31.3923V39.0003H265.006V31.7283C265.006 30.7363 264.75 29.9603 264.238 29.4003C263.726 28.8403 263.022 28.5603 262.126 28.5603C261.486 28.5603 260.934 28.7123 260.47 29.0163C260.006 29.3043 259.646 29.6963 259.39 30.1923C259.15 30.6883 259.03 31.2323 259.03 31.8243V39.0003H257.398V31.7043C257.398 30.7123 257.134 29.9443 256.606 29.4003C256.094 28.8563 255.398 28.5843 254.518 28.5843C253.878 28.5843 253.318 28.7283 252.838 29.0163C252.374 29.3043 252.014 29.6963 251.758 30.1923C251.518 30.6723 251.398 31.2083 251.398 31.8003V39.0003Z" fill="#0D1117"/>
<path d="M235.727 44.0643V27.3843H237.167L237.335 29.7363C237.751 28.8403 238.343 28.1763 239.111 27.7443C239.895 27.2963 240.767 27.0723 241.727 27.0723C242.847 27.0723 243.807 27.3363 244.607 27.8643C245.407 28.3923 246.023 29.1123 246.455 30.0243C246.887 30.9363 247.103 31.9763 247.103 33.1443C247.103 34.3123 246.887 35.3603 246.455 36.2883C246.039 37.2163 245.431 37.9523 244.631 38.4963C243.847 39.0243 242.879 39.2883 241.727 39.2883C240.735 39.2883 239.863 39.0803 239.111 38.6643C238.359 38.2323 237.783 37.6003 237.383 36.7683V44.0643H235.727ZM237.407 33.1923C237.407 34.0723 237.567 34.8643 237.887 35.5683C238.207 36.2563 238.663 36.8003 239.255 37.2003C239.863 37.6003 240.591 37.8003 241.439 37.8003C242.287 37.8003 243.007 37.6003 243.599 37.2003C244.191 36.8003 244.639 36.2563 244.943 35.5683C245.263 34.8643 245.423 34.0723 245.423 33.1923C245.423 32.2963 245.263 31.5043 244.943 30.8163C244.639 30.1123 244.191 29.5683 243.599 29.1843C243.007 28.7843 242.287 28.5843 241.439 28.5843C240.591 28.5843 239.863 28.7843 239.255 29.1843C238.663 29.5683 238.207 30.1123 237.887 30.8163C237.567 31.5043 237.407 32.2963 237.407 33.1923Z" fill="#0D1117"/>
<path d="M221.27 33.1923C221.27 31.9923 221.526 30.9363 222.038 30.0243C222.55 29.1123 223.254 28.3923 224.15 27.8643C225.046 27.3363 226.054 27.0723 227.174 27.0723C228.31 27.0723 229.318 27.3363 230.198 27.8643C231.094 28.3923 231.798 29.1123 232.31 30.0243C232.822 30.9363 233.078 31.9923 233.078 33.1923C233.078 34.3603 232.822 35.4083 232.31 36.3363C231.798 37.2483 231.094 37.9683 230.198 38.4963C229.318 39.0243 228.31 39.2883 227.174 39.2883C226.054 39.2883 225.046 39.0243 224.15 38.4963C223.254 37.9683 222.55 37.2483 222.038 36.3363C221.526 35.4083 221.27 34.3603 221.27 33.1923ZM222.95 33.1683C222.95 34.0803 223.126 34.8883 223.478 35.5923C223.846 36.2803 224.342 36.8243 224.966 37.2243C225.606 37.6083 226.342 37.8003 227.174 37.8003C228.006 37.8003 228.734 37.6083 229.358 37.2243C229.998 36.8243 230.494 36.2803 230.846 35.5923C231.214 34.8883 231.398 34.0803 231.398 33.1683C231.398 32.2723 231.214 31.4803 230.846 30.7923C230.494 30.1043 229.998 29.5603 229.358 29.1603C228.734 28.7603 228.006 28.5603 227.174 28.5603C226.342 28.5603 225.606 28.7603 224.966 29.1603C224.342 29.5603 223.846 30.1043 223.478 30.7923C223.126 31.4803 222.95 32.2723 222.95 33.1683Z" fill="#0D1117"/>
<path d="M218.566 38.9999H216.91V21.5039H218.566V38.9999Z" fill="#0D1117"/>
<path d="M209.028 39.2883C207.908 39.2883 206.916 39.0323 206.052 38.5203C205.204 38.0083 204.54 37.2963 204.06 36.3843C203.58 35.4723 203.34 34.4083 203.34 33.1923C203.34 31.9923 203.572 30.9363 204.036 30.0243C204.516 29.0963 205.172 28.3763 206.004 27.8643C206.836 27.3363 207.804 27.0723 208.908 27.0723C209.964 27.0723 210.884 27.3043 211.668 27.7683C212.468 28.2323 213.084 28.8803 213.516 29.7123C213.964 30.5283 214.188 31.4883 214.188 32.5923V33.4083H204.252L204.3 32.2083H212.532C212.532 31.0883 212.196 30.1923 211.524 29.5203C210.868 28.8323 209.996 28.4883 208.908 28.4883C208.108 28.4883 207.404 28.6723 206.796 29.0403C206.204 29.4083 205.748 29.9363 205.428 30.6243C205.108 31.2963 204.948 32.0963 204.948 33.0243C204.948 34.5603 205.3 35.7523 206.004 36.6003C206.724 37.4483 207.74 37.8723 209.052 37.8723C209.996 37.8723 210.772 37.6723 211.38 37.2723C211.988 36.8723 212.396 36.2883 212.604 35.5203H214.188C213.884 36.7363 213.292 37.6723 212.412 38.3283C211.532 38.9683 210.404 39.2883 209.028 39.2883Z" fill="#0D1117"/>
<path d="M196.24 38.9998L191.488 27.3838H193.264L196.264 34.8718C196.44 35.3038 196.592 35.7198 196.72 36.1198C196.864 36.5038 196.992 36.8878 197.104 37.2718C197.216 36.8718 197.344 36.4798 197.488 36.0958C197.632 35.6958 197.792 35.2878 197.968 34.8718L201.016 27.3838H202.72L197.896 38.9998H196.24Z" fill="#0D1117"/>
<path d="M185.52 39.2883C184.4 39.2883 183.408 39.0323 182.544 38.5203C181.696 38.0083 181.032 37.2963 180.552 36.3843C180.072 35.4723 179.832 34.4083 179.832 33.1923C179.832 31.9923 180.064 30.9363 180.528 30.0243C181.008 29.0963 181.664 28.3763 182.496 27.8643C183.328 27.3363 184.296 27.0723 185.4 27.0723C186.456 27.0723 187.376 27.3043 188.16 27.7683C188.96 28.2323 189.576 28.8803 190.008 29.7123C190.456 30.5283 190.68 31.4883 190.68 32.5923V33.4083H180.744L180.792 32.2083H189.024C189.024 31.0883 188.688 30.1923 188.016 29.5203C187.36 28.8323 186.488 28.4883 185.4 28.4883C184.6 28.4883 183.896 28.6723 183.288 29.0403C182.696 29.4083 182.24 29.9363 181.92 30.6243C181.6 31.2963 181.44 32.0963 181.44 33.0243C181.44 34.5603 181.792 35.7523 182.496 36.6003C183.216 37.4483 184.232 37.8723 185.544 37.8723C186.488 37.8723 187.264 37.6723 187.872 37.2723C188.48 36.8723 188.888 36.2883 189.096 35.5203H190.68C190.376 36.7363 189.784 37.6723 188.904 38.3283C188.024 38.9683 186.896 39.2883 185.52 39.2883Z" fill="#0D1117"/>
<path d="M169.298 39.0004H164.066V21.8164H169.25C170.978 21.8164 172.49 22.1764 173.786 22.8964C175.082 23.6164 176.09 24.6244 176.81 25.9204C177.53 27.2004 177.89 28.6964 177.89 30.4084C177.89 32.1204 177.53 33.6244 176.81 34.9204C176.106 36.2004 175.106 37.2004 173.81 37.9204C172.53 38.6404 171.026 39.0004 169.298 39.0004ZM165.794 22.6324V38.1844L165.002 37.4164H169.226C170.634 37.4164 171.85 37.1284 172.874 36.5524C173.898 35.9764 174.69 35.1684 175.25 34.1284C175.826 33.0724 176.114 31.8324 176.114 30.4084C176.114 28.9844 175.826 27.7444 175.25 26.6884C174.69 25.6324 173.89 24.8244 172.85 24.2644C171.826 23.6884 170.602 23.4004 169.178 23.4004H165.002L165.794 22.6324Z" fill="#0D1117"/>
<path d="M144.471 38.9999H143.031V21.5039H144.687V29.6399C145.087 28.7759 145.663 28.1359 146.415 27.7199C147.183 27.2879 148.063 27.0719 149.055 27.0719C150.191 27.0719 151.151 27.3439 151.935 27.8879C152.735 28.4159 153.343 29.1439 153.759 30.0719C154.191 30.9999 154.407 32.0479 154.407 33.2159C154.407 34.3679 154.191 35.4079 153.759 36.3359C153.327 37.2479 152.711 37.9679 151.911 38.4959C151.111 39.0239 150.143 39.2879 149.007 39.2879C148.047 39.2879 147.183 39.0719 146.415 38.6399C145.647 38.1919 145.055 37.5199 144.639 36.6239L144.471 38.9999ZM144.711 33.1679C144.711 34.0639 144.871 34.8639 145.191 35.5679C145.511 36.2559 145.967 36.7999 146.559 37.1999C147.167 37.5839 147.895 37.7759 148.743 37.7759C149.591 37.7759 150.311 37.5839 150.903 37.1999C151.495 36.7999 151.943 36.2559 152.247 35.5679C152.567 34.8639 152.727 34.0639 152.727 33.1679C152.727 32.2719 152.567 31.4799 152.247 30.7919C151.943 30.1039 151.495 29.5599 150.903 29.1599C150.311 28.7599 149.591 28.5599 148.743 28.5599C147.895 28.5599 147.167 28.7599 146.559 29.1599C145.967 29.5599 145.511 30.1039 145.191 30.7919C144.871 31.4799 144.711 32.2719 144.711 33.1679Z" fill="#0D1117"/>
<path d="M135.223 39.2883C134.103 39.2883 133.111 39.0323 132.247 38.5203C131.399 38.0083 130.735 37.2963 130.255 36.3843C129.775 35.4723 129.535 34.4083 129.535 33.1923C129.535 31.9923 129.767 30.9363 130.231 30.0243C130.711 29.0963 131.367 28.3763 132.199 27.8643C133.031 27.3363 133.999 27.0723 135.103 27.0723C136.159 27.0723 137.079 27.3043 137.863 27.7683C138.663 28.2323 139.279 28.8803 139.711 29.7123C140.159 30.5283 140.383 31.4883 140.383 32.5923V33.4083H130.447L130.495 32.2083H138.727C138.727 31.0883 138.391 30.1923 137.719 29.5203C137.063 28.8323 136.191 28.4883 135.103 28.4883C134.303 28.4883 133.599 28.6723 132.991 29.0403C132.399 29.4083 131.943 29.9363 131.623 30.6243C131.303 31.2963 131.143 32.0963 131.143 33.0243C131.143 34.5603 131.495 35.7523 132.199 36.6003C132.919 37.4483 133.935 37.8723 135.247 37.8723C136.191 37.8723 136.967 37.6723 137.575 37.2723C138.183 36.8723 138.591 36.2883 138.799 35.5203H140.383C140.079 36.7363 139.487 37.6723 138.607 38.3283C137.727 38.9683 136.599 39.2883 135.223 39.2883Z" fill="#0D1117"/>
<path d="M111.948 39.0004L106.836 21.8164H108.636L112.116 33.6244C112.244 34.0404 112.356 34.4724 112.452 34.9204C112.564 35.3684 112.676 35.8804 112.788 36.4564C112.932 35.8324 113.068 35.3124 113.196 34.8964C113.324 34.4644 113.452 34.0404 113.58 33.6244L117.324 21.8164H119.124L122.868 33.6244C122.996 34.0564 123.124 34.5044 123.252 34.9684C123.38 35.4164 123.508 35.9124 123.636 36.4564C123.764 35.8004 123.884 35.2484 123.996 34.8004C124.108 34.3524 124.212 33.9684 124.308 33.6484L127.86 21.8164H129.612L124.452 39.0004H122.82L118.212 24.4084L113.604 39.0004H111.948Z" fill="#0D1117"/>
<rect x="334" width="222" height="60" rx="16" fill="white"/>
<path d="M533.137 27.3839H539.425V28.7759H533.137V27.3839ZM537.097 38.9999H535.465V23.7119H537.097V38.9999Z" fill="#0D1117"/>
<path d="M522.609 39.0003H520.953V27.3843H522.393L522.633 29.4003C523.017 28.6643 523.561 28.0963 524.265 27.6963C524.985 27.2803 525.769 27.0723 526.617 27.0723C528.217 27.0723 529.369 27.5123 530.073 28.3923C530.777 29.2723 531.129 30.4403 531.129 31.8963V39.0003H529.473V32.2563C529.473 30.8963 529.185 29.9443 528.609 29.4003C528.049 28.8563 527.289 28.5843 526.329 28.5843C525.145 28.5843 524.225 28.9843 523.569 29.7843C522.929 30.5683 522.609 31.6163 522.609 32.9283V39.0003Z" fill="#0D1117"/>
<path d="M513.145 39.2883C512.025 39.2883 511.033 39.0323 510.169 38.5203C509.321 38.0083 508.657 37.2963 508.177 36.3843C507.697 35.4723 507.457 34.4083 507.457 33.1923C507.457 31.9923 507.689 30.9363 508.153 30.0243C508.633 29.0963 509.289 28.3763 510.121 27.8643C510.953 27.3363 511.921 27.0723 513.025 27.0723C514.081 27.0723 515.001 27.3043 515.785 27.7683C516.585 28.2323 517.201 28.8803 517.633 29.7123C518.081 30.5283 518.305 31.4883 518.305 32.5923V33.4083H508.369L508.417 32.2083H516.649C516.649 31.0883 516.313 30.1923 515.641 29.5203C514.985 28.8323 514.113 28.4883 513.025 28.4883C512.225 28.4883 511.521 28.6723 510.913 29.0403C510.321 29.4083 509.865 29.9363 509.545 30.6243C509.225 31.2963 509.065 32.0963 509.065 33.0243C509.065 34.5603 509.417 35.7523 510.121 36.6003C510.841 37.4483 511.857 37.8723 513.169 37.8723C514.113 37.8723 514.889 37.6723 515.497 37.2723C516.105 36.8723 516.513 36.2883 516.721 35.5203H518.305C518.001 36.7363 517.409 37.6723 516.529 38.3283C515.649 38.9683 514.521 39.2883 513.145 39.2883Z" fill="#0D1117"/>
<path d="M489.726 39.0003H488.07V27.3843H489.51L489.75 29.5683L489.51 29.4963C489.75 28.7603 490.198 28.1763 490.854 27.7443C491.526 27.2963 492.31 27.0723 493.206 27.0723C494.246 27.0723 495.11 27.3603 495.798 27.9363C496.502 28.4963 496.95 29.2643 497.142 30.2403H496.782C496.942 29.2643 497.374 28.4963 498.078 27.9363C498.798 27.3603 499.694 27.0723 500.766 27.0723C502.014 27.0723 503.022 27.4563 503.79 28.2243C504.558 28.9923 504.942 30.0483 504.942 31.3923V39.0003H503.334V31.7283C503.334 30.7363 503.078 29.9603 502.566 29.4003C502.054 28.8403 501.35 28.5603 500.454 28.5603C499.814 28.5603 499.262 28.7123 498.798 29.0163C498.334 29.3043 497.974 29.6963 497.718 30.1923C497.478 30.6883 497.358 31.2323 497.358 31.8243V39.0003H495.726V31.7043C495.726 30.7123 495.462 29.9443 494.934 29.4003C494.422 28.8563 493.726 28.5843 492.846 28.5843C492.206 28.5843 491.646 28.7283 491.166 29.0163C490.702 29.3043 490.342 29.6963 490.086 30.1923C489.846 30.6723 489.726 31.2083 489.726 31.8003V39.0003Z" fill="#0D1117"/>
<path d="M474.055 44.0643V27.3843H475.495L475.663 29.7363C476.079 28.8403 476.671 28.1763 477.439 27.7443C478.223 27.2963 479.095 27.0723 480.055 27.0723C481.175 27.0723 482.135 27.3363 482.935 27.8643C483.735 28.3923 484.351 29.1123 484.783 30.0243C485.215 30.9363 485.431 31.9763 485.431 33.1443C485.431 34.3123 485.215 35.3603 484.783 36.2883C484.367 37.2163 483.759 37.9523 482.959 38.4963C482.175 39.0243 481.207 39.2883 480.055 39.2883C479.063 39.2883 478.191 39.0803 477.439 38.6643C476.687 38.2323 476.111 37.6003 475.711 36.7683V44.0643H474.055ZM475.735 33.1923C475.735 34.0723 475.895 34.8643 476.215 35.5683C476.535 36.2563 476.991 36.8003 477.583 37.2003C478.191 37.6003 478.919 37.8003 479.767 37.8003C480.615 37.8003 481.335 37.6003 481.927 37.2003C482.519 36.8003 482.967 36.2563 483.271 35.5683C483.591 34.8643 483.751 34.0723 483.751 33.1923C483.751 32.2963 483.591 31.5043 483.271 30.8163C482.967 30.1123 482.519 29.5683 481.927 29.1843C481.335 28.7843 480.615 28.5843 479.767 28.5843C478.919 28.5843 478.191 28.7843 477.583 29.1843C476.991 29.5683 476.535 30.1123 476.215 30.8163C475.895 31.5043 475.735 32.2963 475.735 33.1923Z" fill="#0D1117"/>
<path d="M459.598 33.1923C459.598 31.9923 459.854 30.9363 460.366 30.0243C460.878 29.1123 461.582 28.3923 462.478 27.8643C463.374 27.3363 464.382 27.0723 465.502 27.0723C466.638 27.0723 467.646 27.3363 468.526 27.8643C469.422 28.3923 470.126 29.1123 470.638 30.0243C471.15 30.9363 471.406 31.9923 471.406 33.1923C471.406 34.3603 471.15 35.4083 470.638 36.3363C470.126 37.2483 469.422 37.9683 468.526 38.4963C467.646 39.0243 466.638 39.2883 465.502 39.2883C464.382 39.2883 463.374 39.0243 462.478 38.4963C461.582 37.9683 460.878 37.2483 460.366 36.3363C459.854 35.4083 459.598 34.3603 459.598 33.1923ZM461.278 33.1683C461.278 34.0803 461.454 34.8883 461.806 35.5923C462.174 36.2803 462.67 36.8243 463.294 37.2243C463.934 37.6083 464.67 37.8003 465.502 37.8003C466.334 37.8003 467.062 37.6083 467.686 37.2243C468.326 36.8243 468.822 36.2803 469.174 35.5923C469.542 34.8883 469.726 34.0803 469.726 33.1683C469.726 32.2723 469.542 31.4803 469.174 30.7923C468.822 30.1043 468.326 29.5603 467.686 29.1603C467.062 28.7603 466.334 28.5603 465.502 28.5603C464.67 28.5603 463.934 28.7603 463.294 29.1603C462.67 29.5603 462.174 30.1043 461.806 30.7923C461.454 31.4803 461.278 32.2723 461.278 33.1683Z" fill="#0D1117"/>
<path d="M456.894 38.9999H455.238V21.5039H456.894V38.9999Z" fill="#0D1117"/>
<path d="M447.356 39.2883C446.236 39.2883 445.244 39.0323 444.38 38.5203C443.532 38.0083 442.868 37.2963 442.388 36.3843C441.908 35.4723 441.668 34.4083 441.668 33.1923C441.668 31.9923 441.9 30.9363 442.364 30.0243C442.844 29.0963 443.5 28.3763 444.332 27.8643C445.164 27.3363 446.132 27.0723 447.236 27.0723C448.292 27.0723 449.212 27.3043 449.996 27.7683C450.796 28.2323 451.412 28.8803 451.844 29.7123C452.292 30.5283 452.516 31.4883 452.516 32.5923V33.4083H442.58L442.628 32.2083H450.86C450.86 31.0883 450.524 30.1923 449.852 29.5203C449.196 28.8323 448.324 28.4883 447.236 28.4883C446.436 28.4883 445.732 28.6723 445.124 29.0403C444.532 29.4083 444.076 29.9363 443.756 30.6243C443.436 31.2963 443.276 32.0963 443.276 33.0243C443.276 34.5603 443.628 35.7523 444.332 36.6003C445.052 37.4483 446.068 37.8723 447.38 37.8723C448.324 37.8723 449.1 37.6723 449.708 37.2723C450.316 36.8723 450.724 36.2883 450.932 35.5203H452.516C452.212 36.7363 451.62 37.6723 450.74 38.3283C449.86 38.9683 448.732 39.2883 447.356 39.2883Z" fill="#0D1117"/>
<path d="M434.568 38.9998L429.816 27.3838H431.592L434.592 34.8718C434.768 35.3038 434.92 35.7198 435.048 36.1198C435.192 36.5038 435.32 36.8878 435.432 37.2718C435.544 36.8718 435.672 36.4798 435.816 36.0958C435.96 35.6958 436.12 35.2878 436.296 34.8718L439.344 27.3838H441.048L436.224 38.9998H434.568Z" fill="#0D1117"/>
<path d="M423.848 39.2883C422.728 39.2883 421.736 39.0323 420.872 38.5203C420.024 38.0083 419.36 37.2963 418.88 36.3843C418.4 35.4723 418.16 34.4083 418.16 33.1923C418.16 31.9923 418.392 30.9363 418.856 30.0243C419.336 29.0963 419.992 28.3763 420.824 27.8643C421.656 27.3363 422.624 27.0723 423.728 27.0723C424.784 27.0723 425.704 27.3043 426.488 27.7683C427.288 28.2323 427.904 28.8803 428.336 29.7123C428.784 30.5283 429.008 31.4883 429.008 32.5923V33.4083H419.072L419.12 32.2083H427.352C427.352 31.0883 427.016 30.1923 426.344 29.5203C425.688 28.8323 424.816 28.4883 423.728 28.4883C422.928 28.4883 422.224 28.6723 421.616 29.0403C421.024 29.4083 420.568 29.9363 420.248 30.6243C419.928 31.2963 419.768 32.0963 419.768 33.0243C419.768 34.5603 420.12 35.7523 420.824 36.6003C421.544 37.4483 422.56 37.8723 423.872 37.8723C424.816 37.8723 425.592 37.6723 426.2 37.2723C426.808 36.8723 427.216 36.2883 427.424 35.5203H429.008C428.704 36.7363 428.112 37.6723 427.232 38.3283C426.352 38.9683 425.224 39.2883 423.848 39.2883Z" fill="#0D1117"/>
<path d="M407.627 39.0004H402.395V21.8164H407.579C409.307 21.8164 410.819 22.1764 412.115 22.8964C413.411 23.6164 414.419 24.6244 415.139 25.9204C415.859 27.2004 416.219 28.6964 416.219 30.4084C416.219 32.1204 415.859 33.6244 415.139 34.9204C414.435 36.2004 413.435 37.2004 412.139 37.9204C410.859 38.6404 409.355 39.0004 407.627 39.0004ZM404.123 22.6324V38.1844L403.331 37.4164H407.555C408.963 37.4164 410.179 37.1284 411.203 36.5524C412.227 35.9764 413.019 35.1684 413.579 34.1284C414.155 33.0724 414.443 31.8324 414.443 30.4084C414.443 28.9844 414.155 27.7444 413.579 26.6884C413.019 25.6324 412.219 24.8244 411.179 24.2644C410.155 23.6884 408.931 23.4004 407.507 23.4004H403.331L404.123 22.6324Z" fill="#0D1117"/>
<path d="M381.359 44.0643V27.3843H382.799L382.967 29.7363C383.383 28.8403 383.975 28.1763 384.743 27.7443C385.527 27.2963 386.399 27.0723 387.359 27.0723C388.479 27.0723 389.439 27.3363 390.239 27.8643C391.039 28.3923 391.655 29.1123 392.087 30.0243C392.519 30.9363 392.735 31.9763 392.735 33.1443C392.735 34.3123 392.519 35.3603 392.087 36.2883C391.671 37.2163 391.063 37.9523 390.263 38.4963C389.479 39.0243 388.511 39.2883 387.359 39.2883C386.367 39.2883 385.495 39.0803 384.743 38.6643C383.991 38.2323 383.415 37.6003 383.015 36.7683V44.0643H381.359ZM383.039 33.1923C383.039 34.0723 383.199 34.8643 383.519 35.5683C383.839 36.2563 384.295 36.8003 384.887 37.2003C385.495 37.6003 386.223 37.8003 387.071 37.8003C387.919 37.8003 388.639 37.6003 389.231 37.2003C389.823 36.8003 390.271 36.2563 390.575 35.5683C390.895 34.8643 391.055 34.0723 391.055 33.1923C391.055 32.2963 390.895 31.5043 390.575 30.8163C390.271 30.1123 389.823 29.5683 389.231 29.1843C388.639 28.7843 387.919 28.5843 387.071 28.5843C386.223 28.5843 385.495 28.7843 384.887 29.1843C384.295 29.5683 383.839 30.1123 383.519 30.8163C383.199 31.5043 383.039 32.2963 383.039 33.1923Z" fill="#0D1117"/>
<path d="M367.344 44.0643V27.3843H368.784L368.952 29.7363C369.368 28.8403 369.96 28.1763 370.728 27.7443C371.512 27.2963 372.384 27.0723 373.344 27.0723C374.464 27.0723 375.424 27.3363 376.224 27.8643C377.024 28.3923 377.64 29.1123 378.072 30.0243C378.504 30.9363 378.72 31.9763 378.72 33.1443C378.72 34.3123 378.504 35.3603 378.072 36.2883C377.656 37.2163 377.048 37.9523 376.248 38.4963C375.464 39.0243 374.496 39.2883 373.344 39.2883C372.352 39.2883 371.48 39.0803 370.728 38.6643C369.976 38.2323 369.4 37.6003 369 36.7683V44.0643H367.344ZM369.024 33.1923C369.024 34.0723 369.184 34.8643 369.504 35.5683C369.824 36.2563 370.28 36.8003 370.872 37.2003C371.48 37.6003 372.208 37.8003 373.056 37.8003C373.904 37.8003 374.624 37.6003 375.216 37.2003C375.808 36.8003 376.256 36.2563 376.56 35.5683C376.88 34.8643 377.04 34.0723 377.04 33.1923C377.04 32.2963 376.88 31.5043 376.56 30.8163C376.256 30.1123 375.808 29.5683 375.216 29.1843C374.624 28.7843 373.904 28.5843 373.056 28.5843C372.208 28.5843 371.48 28.7843 370.872 29.1843C370.28 29.5683 369.824 30.1123 369.504 30.8163C369.184 31.5043 369.024 32.2963 369.024 33.1923Z" fill="#0D1117"/>
<path d="M352.236 39.0004H350.484L356.796 21.8164H358.932L365.316 39.0004H363.516L361.836 34.4404H353.916L352.236 39.0004ZM357.636 24.2404L354.444 32.9284H361.284L358.068 24.2404C358.036 24.1124 357.996 23.9844 357.948 23.8564C357.9 23.7284 357.868 23.6244 357.852 23.5444C357.836 23.6244 357.804 23.7364 357.756 23.8804C357.724 24.0084 357.684 24.1284 357.636 24.2404Z" fill="#0D1117"/>
<rect x="374" y="78" width="182" height="60" rx="16" fill="white"/>
<path d="M530.312 113.736H531.896C531.896 114.408 532.137 114.944 532.617 115.344C533.097 115.728 533.736 115.92 534.536 115.92C535.432 115.92 536.128 115.744 536.624 115.392C537.136 115.024 537.393 114.528 537.393 113.904C537.393 113.424 537.256 113.04 536.984 112.752C536.712 112.464 536.232 112.232 535.544 112.056L533.552 111.552C532.544 111.296 531.792 110.904 531.296 110.376C530.8 109.848 530.552 109.192 530.552 108.408C530.552 107.736 530.728 107.152 531.08 106.656C531.432 106.144 531.92 105.752 532.544 105.48C533.184 105.208 533.921 105.072 534.753 105.072C535.569 105.072 536.281 105.216 536.889 105.504C537.497 105.792 537.969 106.2 538.305 106.728C538.657 107.24 538.84 107.856 538.856 108.576H537.249C537.233 107.888 537 107.36 536.552 106.992C536.104 106.624 535.488 106.44 534.704 106.44C533.888 106.44 533.257 106.608 532.809 106.944C532.377 107.28 532.16 107.76 532.16 108.384C532.16 109.28 532.793 109.888 534.057 110.208L536.048 110.712C537.056 110.968 537.793 111.344 538.257 111.84C538.736 112.336 538.977 113 538.977 113.832C538.977 114.52 538.792 115.128 538.424 115.656C538.056 116.184 537.537 116.592 536.865 116.88C536.209 117.152 535.441 117.288 534.561 117.288C533.265 117.288 532.232 116.968 531.464 116.328C530.696 115.672 530.312 114.808 530.312 113.736Z" fill="#0D1117"/>
<path d="M523.489 117.288C522.369 117.288 521.377 117.032 520.513 116.52C519.665 116.008 519.001 115.296 518.521 114.384C518.041 113.472 517.801 112.408 517.801 111.192C517.801 109.992 518.033 108.936 518.497 108.024C518.977 107.096 519.633 106.376 520.465 105.864C521.297 105.336 522.265 105.072 523.369 105.072C524.425 105.072 525.345 105.304 526.129 105.768C526.929 106.232 527.545 106.88 527.977 107.712C528.425 108.528 528.649 109.488 528.649 110.592V111.408H518.713L518.761 110.208H526.993C526.993 109.088 526.657 108.192 525.985 107.52C525.329 106.832 524.457 106.488 523.369 106.488C522.569 106.488 521.865 106.672 521.257 107.04C520.665 107.408 520.209 107.936 519.889 108.624C519.569 109.296 519.409 110.096 519.409 111.024C519.409 112.56 519.761 113.752 520.465 114.6C521.185 115.448 522.201 115.872 523.513 115.872C524.457 115.872 525.233 115.672 525.841 115.272C526.449 114.872 526.857 114.288 527.065 113.52H528.649C528.345 114.736 527.753 115.672 526.873 116.328C525.993 116.968 524.865 117.288 523.489 117.288Z" fill="#0D1117"/>
<path d="M516.861 105.24V106.728H515.949C514.877 106.728 514.021 107.056 513.381 107.712C512.757 108.368 512.445 109.256 512.445 110.376V117H510.789V105.384H512.349L512.493 107.664H512.325C512.485 106.912 512.877 106.304 513.501 105.84C514.125 105.36 514.885 105.12 515.781 105.12C515.957 105.12 516.133 105.128 516.309 105.144C516.485 105.16 516.669 105.192 516.861 105.24Z" fill="#0D1117"/>
<path d="M496.332 111.192C496.332 109.992 496.588 108.936 497.1 108.024C497.612 107.112 498.316 106.392 499.212 105.864C500.108 105.336 501.116 105.072 502.236 105.072C503.372 105.072 504.38 105.336 505.26 105.864C506.156 106.392 506.86 107.112 507.372 108.024C507.884 108.936 508.14 109.992 508.14 111.192C508.14 112.36 507.884 113.408 507.372 114.336C506.86 115.248 506.156 115.968 505.26 116.496C504.38 117.024 503.372 117.288 502.236 117.288C501.116 117.288 500.108 117.024 499.212 116.496C498.316 115.968 497.612 115.248 497.1 114.336C496.588 113.408 496.332 112.36 496.332 111.192ZM498.012 111.168C498.012 112.08 498.188 112.888 498.54 113.592C498.908 114.28 499.404 114.824 500.028 115.224C500.668 115.608 501.404 115.8 502.236 115.8C503.068 115.8 503.796 115.608 504.42 115.224C505.06 114.824 505.556 114.28 505.908 113.592C506.276 112.888 506.46 112.08 506.46 111.168C506.46 110.272 506.276 109.48 505.908 108.792C505.556 108.104 505.06 107.56 504.42 107.16C503.796 106.76 503.068 106.56 502.236 106.56C501.404 106.56 500.668 106.76 500.028 107.16C499.404 107.56 498.908 108.104 498.54 108.792C498.188 109.48 498.012 110.272 498.012 111.168Z" fill="#0D1117"/>
<path d="M488.824 105.384H495.112V106.776H488.824V105.384ZM492.784 117H491.152V101.712H492.784V117Z" fill="#0D1117"/>
<path d="M475.923 104.28C475.923 103.32 476.163 102.488 476.643 101.784C477.123 101.064 477.795 100.504 478.659 100.104C479.523 99.7039 480.531 99.5039 481.683 99.5039C482.723 99.5039 483.627 99.6879 484.395 100.056C485.179 100.424 485.803 100.952 486.267 101.64C486.731 102.328 487.003 103.152 487.083 104.112H485.331C485.235 103.152 484.867 102.408 484.227 101.88C483.587 101.336 482.731 101.064 481.659 101.064C480.459 101.064 479.491 101.352 478.755 101.928C478.019 102.504 477.651 103.28 477.651 104.256C477.651 105.008 477.875 105.632 478.323 106.128C478.771 106.608 479.443 106.96 480.339 107.184L483.291 107.904C484.635 108.224 485.651 108.768 486.339 109.536C487.027 110.288 487.371 111.248 487.371 112.416C487.371 113.392 487.131 114.248 486.651 114.984C486.171 115.72 485.491 116.288 484.611 116.688C483.731 117.088 482.699 117.288 481.515 117.288C480.411 117.288 479.427 117.104 478.563 116.736C477.715 116.368 477.043 115.84 476.547 115.152C476.067 114.464 475.787 113.656 475.707 112.728H477.483C477.531 113.64 477.923 114.368 478.659 114.912C479.395 115.44 480.347 115.704 481.515 115.704C482.779 115.704 483.779 115.416 484.515 114.84C485.267 114.264 485.643 113.488 485.643 112.512C485.643 111.728 485.419 111.096 484.971 110.616C484.539 110.12 483.859 109.76 482.931 109.536L480.027 108.816C478.683 108.496 477.659 107.96 476.955 107.208C476.267 106.44 475.923 105.464 475.923 104.28Z" fill="#0D1117"/>
<path d="M458.881 105.384L463.249 117.24L462.025 118.2L457.129 105.384H458.881ZM457.465 122.064V120.696H458.737C459.073 120.696 459.401 120.664 459.721 120.6C460.057 120.552 460.361 120.416 460.633 120.192C460.921 119.968 461.153 119.592 461.329 119.064L466.297 105.384H468.001L462.673 119.664C462.337 120.576 461.881 121.232 461.305 121.632C460.745 122.032 460.049 122.232 459.217 122.232C458.881 122.232 458.569 122.216 458.281 122.184C457.993 122.168 457.721 122.128 457.465 122.064Z" fill="#0D1117"/>
<path d="M450.223 105.384H456.391V106.776H450.223V105.384ZM456.487 99.5999V101.016C456.375 101.016 456.231 101.016 456.055 101.016C455.879 101.016 455.695 101.016 455.503 101.016C454.767 101.016 454.271 101.2 454.015 101.568C453.775 101.92 453.655 102.44 453.655 103.128V117H451.999V103.128C451.999 102.264 452.143 101.568 452.431 101.04C452.719 100.496 453.103 100.104 453.583 99.8639C454.079 99.6239 454.623 99.5039 455.215 99.5039C455.423 99.5039 455.639 99.5119 455.863 99.5279C456.087 99.5439 456.295 99.5679 456.487 99.5999Z" fill="#0D1117"/>
<path d="M446.408 117V105.384H448.064V117H446.408ZM447.224 102.192C446.888 102.192 446.6 102.072 446.36 101.832C446.12 101.592 446 101.304 446 100.968C446 100.632 446.12 100.344 446.36 100.104C446.6 99.8477 446.888 99.7197 447.224 99.7197C447.56 99.7197 447.848 99.8477 448.088 100.104C448.344 100.344 448.472 100.632 448.472 100.968C448.472 101.304 448.344 101.592 448.088 101.832C447.848 102.072 447.56 102.192 447.224 102.192Z" fill="#0D1117"/>
<path d="M432.391 122.064V105.384H433.831L433.999 107.736C434.415 106.84 435.007 106.176 435.775 105.744C436.559 105.296 437.431 105.072 438.391 105.072C439.511 105.072 440.471 105.336 441.271 105.864C442.071 106.392 442.687 107.112 443.119 108.024C443.551 108.936 443.767 109.976 443.767 111.144C443.767 112.312 443.551 113.36 443.119 114.288C442.703 115.216 442.095 115.952 441.295 116.496C440.511 117.024 439.543 117.288 438.391 117.288C437.399 117.288 436.527 117.08 435.775 116.664C435.023 116.232 434.447 115.6 434.047 114.768V122.064H432.391ZM434.071 111.192C434.071 112.072 434.231 112.864 434.551 113.568C434.871 114.256 435.327 114.8 435.919 115.2C436.527 115.6 437.255 115.8 438.103 115.8C438.951 115.8 439.671 115.6 440.263 115.2C440.855 114.8 441.303 114.256 441.607 113.568C441.927 112.864 442.087 112.072 442.087 111.192C442.087 110.296 441.927 109.504 441.607 108.816C441.303 108.112 440.855 107.568 440.263 107.184C439.671 106.784 438.951 106.584 438.103 106.584C437.255 106.584 436.527 106.784 435.919 107.184C435.327 107.568 434.871 108.112 434.551 108.816C434.231 109.504 434.071 110.296 434.071 111.192Z" fill="#0D1117"/>
<path d="M417.934 111.192C417.934 109.992 418.19 108.936 418.702 108.024C419.214 107.112 419.918 106.392 420.814 105.864C421.71 105.336 422.718 105.072 423.838 105.072C424.974 105.072 425.982 105.336 426.862 105.864C427.758 106.392 428.462 107.112 428.974 108.024C429.486 108.936 429.742 109.992 429.742 111.192C429.742 112.36 429.486 113.408 428.974 114.336C428.462 115.248 427.758 115.968 426.862 116.496C425.982 117.024 424.974 117.288 423.838 117.288C422.718 117.288 421.71 117.024 420.814 116.496C419.918 115.968 419.214 115.248 418.702 114.336C418.19 113.408 417.934 112.36 417.934 111.192ZM419.614 111.168C419.614 112.08 419.79 112.888 420.142 113.592C420.51 114.28 421.006 114.824 421.63 115.224C422.27 115.608 423.006 115.8 423.838 115.8C424.67 115.8 425.398 115.608 426.022 115.224C426.662 114.824 427.158 114.28 427.51 113.592C427.878 112.888 428.062 112.08 428.062 111.168C428.062 110.272 427.878 109.48 427.51 108.792C427.158 108.104 426.662 107.56 426.022 107.16C425.398 106.76 424.67 106.56 423.838 106.56C423.006 106.56 422.27 106.76 421.63 107.16C421.006 107.56 420.51 108.104 420.142 108.792C419.79 109.48 419.614 110.272 419.614 111.168Z" fill="#0D1117"/>
<path d="M406.929 116.976H405.273V99.5039H406.929V107.4C407.297 106.696 407.825 106.136 408.513 105.72C409.217 105.288 410.057 105.072 411.033 105.072C412.569 105.072 413.689 105.512 414.393 106.392C415.097 107.272 415.449 108.44 415.449 109.896V117H413.793V110.256C413.793 109.344 413.665 108.624 413.409 108.096C413.153 107.552 412.793 107.168 412.329 106.944C411.865 106.704 411.329 106.584 410.721 106.584C409.889 106.584 409.193 106.768 408.633 107.136C408.073 107.504 407.649 108 407.361 108.624C407.073 109.232 406.929 109.912 406.929 110.664V116.976Z" fill="#0D1117"/>
<path d="M391.079 104.28C391.079 103.32 391.319 102.488 391.799 101.784C392.279 101.064 392.951 100.504 393.815 100.104C394.679 99.7039 395.687 99.5039 396.839 99.5039C397.879 99.5039 398.783 99.6879 399.551 100.056C400.335 100.424 400.959 100.952 401.423 101.64C401.887 102.328 402.159 103.152 402.239 104.112H400.487C400.391 103.152 400.023 102.408 399.383 101.88C398.743 101.336 397.887 101.064 396.815 101.064C395.615 101.064 394.647 101.352 393.911 101.928C393.175 102.504 392.807 103.28 392.807 104.256C392.807 105.008 393.031 105.632 393.479 106.128C393.927 106.608 394.599 106.96 395.495 107.184L398.447 107.904C399.791 108.224 400.807 108.768 401.495 109.536C402.183 110.288 402.527 111.248 402.527 112.416C402.527 113.392 402.287 114.248 401.807 114.984C401.327 115.72 400.647 116.288 399.767 116.688C398.887 117.088 397.855 117.288 396.671 117.288C395.567 117.288 394.583 117.104 393.719 116.736C392.871 116.368 392.199 115.84 391.703 115.152C391.223 114.464 390.943 113.656 390.863 112.728H392.639C392.687 113.64 393.079 114.368 393.815 114.912C394.551 115.44 395.503 115.704 396.671 115.704C397.935 115.704 398.935 115.416 399.671 114.84C400.423 114.264 400.799 113.488 400.799 112.512C400.799 111.728 400.575 111.096 400.127 110.616C399.695 110.12 399.015 109.76 398.087 109.536L395.183 108.816C393.839 108.496 392.815 107.96 392.111 107.208C391.423 106.44 391.079 105.464 391.079 104.28Z" fill="#0D1117"/>
<rect x="161" y="78" width="197" height="60" rx="16" fill="white"/>
<path d="M332.336 113.736H333.92C333.92 114.408 334.16 114.944 334.64 115.344C335.12 115.728 335.76 115.92 336.56 115.92C337.456 115.92 338.152 115.744 338.648 115.392C339.16 115.024 339.416 114.528 339.416 113.904C339.416 113.424 339.28 113.04 339.008 112.752C338.736 112.464 338.256 112.232 337.568 112.056L335.576 111.552C334.568 111.296 333.816 110.904 333.32 110.376C332.824 109.848 332.576 109.192 332.576 108.408C332.576 107.736 332.752 107.152 333.104 106.656C333.456 106.144 333.944 105.752 334.568 105.48C335.208 105.208 335.944 105.072 336.776 105.072C337.592 105.072 338.304 105.216 338.912 105.504C339.52 105.792 339.992 106.2 340.328 106.728C340.68 107.24 340.864 107.856 340.88 108.576H339.272C339.256 107.888 339.024 107.36 338.576 106.992C338.128 106.624 337.512 106.44 336.728 106.44C335.912 106.44 335.28 106.608 334.832 106.944C334.4 107.28 334.184 107.76 334.184 108.384C334.184 109.28 334.816 109.888 336.08 110.208L338.072 110.712C339.08 110.968 339.816 111.344 340.28 111.84C340.76 112.336 341 113 341 113.832C341 114.52 340.816 115.128 340.448 115.656C340.08 116.184 339.56 116.592 338.888 116.88C338.232 117.152 337.464 117.288 336.584 117.288C335.288 117.288 334.256 116.968 333.488 116.328C332.72 115.672 332.336 114.808 332.336 113.736Z" fill="#0D1117"/>
<path d="M321.64 117H319.984V105.384H321.424L321.664 107.4C322.048 106.664 322.592 106.096 323.296 105.696C324.016 105.28 324.8 105.072 325.648 105.072C327.248 105.072 328.4 105.512 329.104 106.392C329.808 107.272 330.16 108.44 330.16 109.896V117H328.504V110.256C328.504 108.896 328.216 107.944 327.64 107.4C327.08 106.856 326.32 106.584 325.36 106.584C324.176 106.584 323.256 106.984 322.6 107.784C321.96 108.568 321.64 109.616 321.64 110.928V117Z" fill="#0D1117"/>
<path d="M305.527 111.192C305.527 109.992 305.783 108.936 306.295 108.024C306.807 107.112 307.511 106.392 308.407 105.864C309.303 105.336 310.311 105.072 311.431 105.072C312.567 105.072 313.575 105.336 314.455 105.864C315.351 106.392 316.055 107.112 316.567 108.024C317.079 108.936 317.335 109.992 317.335 111.192C317.335 112.36 317.079 113.408 316.567 114.336C316.055 115.248 315.351 115.968 314.455 116.496C313.575 117.024 312.567 117.288 311.431 117.288C310.311 117.288 309.303 117.024 308.407 116.496C307.511 115.968 306.807 115.248 306.295 114.336C305.783 113.408 305.527 112.36 305.527 111.192ZM307.207 111.168C307.207 112.08 307.383 112.888 307.735 113.592C308.103 114.28 308.599 114.824 309.223 115.224C309.863 115.608 310.599 115.8 311.431 115.8C312.263 115.8 312.991 115.608 313.615 115.224C314.255 114.824 314.751 114.28 315.103 113.592C315.471 112.888 315.655 112.08 315.655 111.168C315.655 110.272 315.471 109.48 315.103 108.792C314.751 108.104 314.255 107.56 313.615 107.16C312.991 106.76 312.263 106.56 311.431 106.56C310.599 106.56 309.863 106.76 309.223 107.16C308.599 107.56 308.103 108.104 307.735 108.792C307.383 109.48 307.207 110.272 307.207 111.168Z" fill="#0D1117"/>
<path d="M301.236 117V105.384H302.892V117H301.236ZM302.052 102.192C301.716 102.192 301.428 102.072 301.188 101.832C300.948 101.592 300.828 101.304 300.828 100.968C300.828 100.632 300.948 100.344 301.188 100.104C301.428 99.8477 301.716 99.7197 302.052 99.7197C302.388 99.7197 302.676 99.8477 302.916 100.104C303.172 100.344 303.3 100.632 303.3 100.968C303.3 101.304 303.172 101.592 302.916 101.832C302.676 102.072 302.388 102.192 302.052 102.192Z" fill="#0D1117"/>
<path d="M292.793 105.384H299.081V106.776H292.793V105.384ZM296.753 117H295.121V101.712H296.753V117Z" fill="#0D1117"/>
<path d="M288.984 105.384H290.64V117H289.2L288.984 115.032C288.664 115.704 288.128 116.248 287.376 116.664C286.64 117.08 285.816 117.288 284.904 117.288C283.544 117.288 282.496 116.856 281.76 115.992C281.04 115.128 280.68 113.992 280.68 112.584V105.36H282.36V112.056C282.36 113.432 282.64 114.4 283.2 114.96C283.776 115.52 284.52 115.8 285.432 115.8C286.552 115.8 287.424 115.44 288.048 114.72C288.672 113.984 288.984 112.928 288.984 111.552V105.384Z" fill="#0D1117"/>
<path d="M277.301 117H275.645V99.5039H277.301V117Z" fill="#0D1117"/>
<path d="M261.113 111.192C261.113 109.992 261.369 108.936 261.881 108.024C262.393 107.112 263.097 106.392 263.993 105.864C264.889 105.336 265.897 105.072 267.017 105.072C268.153 105.072 269.161 105.336 270.041 105.864C270.937 106.392 271.641 107.112 272.153 108.024C272.665 108.936 272.921 109.992 272.921 111.192C272.921 112.36 272.665 113.408 272.153 114.336C271.641 115.248 270.937 115.968 270.041 116.496C269.161 117.024 268.153 117.288 267.017 117.288C265.897 117.288 264.889 117.024 263.993 116.496C263.097 115.968 262.393 115.248 261.881 114.336C261.369 113.408 261.113 112.36 261.113 111.192ZM262.793 111.168C262.793 112.08 262.969 112.888 263.321 113.592C263.689 114.28 264.185 114.824 264.809 115.224C265.449 115.608 266.185 115.8 267.017 115.8C267.849 115.8 268.577 115.608 269.201 115.224C269.841 114.824 270.337 114.28 270.689 113.592C271.057 112.888 271.241 112.08 271.241 111.168C271.241 110.272 271.057 109.48 270.689 108.792C270.337 108.104 269.841 107.56 269.201 107.16C268.577 106.76 267.849 106.56 267.017 106.56C266.185 106.56 265.449 106.76 264.809 107.16C264.185 107.56 263.689 108.104 263.321 108.792C262.969 109.48 262.793 110.272 262.793 111.168Z" fill="#0D1117"/>
<path d="M247.736 104.28C247.736 103.32 247.976 102.488 248.456 101.784C248.936 101.064 249.608 100.504 250.472 100.104C251.336 99.7039 252.344 99.5039 253.496 99.5039C254.536 99.5039 255.44 99.6879 256.208 100.056C256.992 100.424 257.616 100.952 258.08 101.64C258.544 102.328 258.816 103.152 258.896 104.112H257.144C257.048 103.152 256.68 102.408 256.04 101.88C255.4 101.336 254.544 101.064 253.472 101.064C252.272 101.064 251.304 101.352 250.568 101.928C249.832 102.504 249.464 103.28 249.464 104.256C249.464 105.008 249.688 105.632 250.136 106.128C250.584 106.608 251.256 106.96 252.152 107.184L255.104 107.904C256.448 108.224 257.464 108.768 258.152 109.536C258.84 110.288 259.184 111.248 259.184 112.416C259.184 113.392 258.944 114.248 258.464 114.984C257.984 115.72 257.304 116.288 256.424 116.688C255.544 117.088 254.512 117.288 253.328 117.288C252.224 117.288 251.24 117.104 250.376 116.736C249.528 116.368 248.856 115.84 248.36 115.152C247.88 114.464 247.6 113.656 247.52 112.728H249.296C249.344 113.64 249.736 114.368 250.472 114.912C251.208 115.44 252.16 115.704 253.328 115.704C254.592 115.704 255.592 115.416 256.328 114.84C257.08 114.264 257.456 113.488 257.456 112.512C257.456 111.728 257.232 111.096 256.784 110.616C256.352 110.12 255.672 109.76 254.744 109.536L251.84 108.816C250.496 108.496 249.472 107.96 248.768 107.208C248.08 106.44 247.736 105.464 247.736 104.28Z" fill="#0D1117"/>
<path d="M232.294 117.288C231.174 117.288 230.214 117.024 229.414 116.496C228.614 115.968 227.998 115.248 227.566 114.336C227.134 113.408 226.918 112.368 226.918 111.216C226.918 110.048 227.134 109 227.566 108.072C227.998 107.144 228.614 106.416 229.414 105.888C230.23 105.344 231.214 105.072 232.366 105.072C233.326 105.072 234.174 105.28 234.91 105.696C235.662 106.112 236.238 106.744 236.638 107.592V99.5039H238.294V117H236.854L236.686 114.624C236.27 115.52 235.678 116.192 234.91 116.64C234.142 117.072 233.27 117.288 232.294 117.288ZM232.582 115.776C233.446 115.776 234.174 115.584 234.766 115.2C235.358 114.8 235.814 114.256 236.134 113.568C236.454 112.864 236.614 112.064 236.614 111.168C236.614 110.272 236.454 109.48 236.134 108.792C235.814 108.104 235.358 107.56 234.766 107.16C234.174 106.76 233.446 106.56 232.582 106.56C231.75 106.56 231.03 106.76 230.422 107.16C229.83 107.56 229.374 108.104 229.054 108.792C228.75 109.48 228.598 110.272 228.598 111.168C228.598 112.064 228.75 112.864 229.054 113.568C229.374 114.256 229.83 114.8 230.422 115.2C231.03 115.584 231.75 115.776 232.582 115.776Z" fill="#0D1117"/>
<path d="M222.867 105.384H224.523V117H223.083L222.867 115.032C222.547 115.704 222.01 116.248 221.258 116.664C220.522 117.08 219.698 117.288 218.786 117.288C217.426 117.288 216.379 116.856 215.643 115.992C214.923 115.128 214.562 113.992 214.562 112.584V105.36H216.243V112.056C216.243 113.432 216.523 114.4 217.083 114.96C217.659 115.52 218.402 115.8 219.314 115.8C220.434 115.8 221.306 115.44 221.931 114.72C222.555 113.984 222.867 112.928 222.867 111.552V105.384Z" fill="#0D1117"/>
<path d="M200.527 111.192C200.527 109.992 200.783 108.936 201.295 108.024C201.807 107.112 202.511 106.392 203.407 105.864C204.303 105.336 205.311 105.072 206.431 105.072C207.567 105.072 208.575 105.336 209.455 105.864C210.351 106.392 211.055 107.112 211.567 108.024C212.079 108.936 212.335 109.992 212.335 111.192C212.335 112.36 212.079 113.408 211.567 114.336C211.055 115.248 210.351 115.968 209.455 116.496C208.575 117.024 207.567 117.288 206.431 117.288C205.311 117.288 204.303 117.024 203.407 116.496C202.511 115.968 201.807 115.248 201.295 114.336C200.783 113.408 200.527 112.36 200.527 111.192ZM202.207 111.168C202.207 112.08 202.383 112.888 202.735 113.592C203.103 114.28 203.599 114.824 204.223 115.224C204.863 115.608 205.599 115.8 206.431 115.8C207.263 115.8 207.991 115.608 208.615 115.224C209.255 114.824 209.751 114.28 210.103 113.592C210.471 112.888 210.655 112.08 210.655 111.168C210.655 110.272 210.471 109.48 210.103 108.792C209.751 108.104 209.255 107.56 208.615 107.16C207.991 106.76 207.263 106.56 206.431 106.56C205.599 106.56 204.863 106.76 204.223 107.16C203.599 107.56 203.103 108.104 202.735 108.792C202.383 109.48 202.207 110.272 202.207 111.168Z" fill="#0D1117"/>
<path d="M197.824 117H196.168V99.5039H197.824V117Z" fill="#0D1117"/>
<path d="M186.095 117.264C184.495 117.264 183.087 116.896 181.871 116.16C180.671 115.408 179.727 114.368 179.039 113.04C178.367 111.712 178.031 110.168 178.031 108.408C178.031 106.648 178.375 105.104 179.063 103.776C179.751 102.432 180.711 101.392 181.943 100.656C183.175 99.9043 184.591 99.5283 186.191 99.5283C187.439 99.5283 188.567 99.7603 189.575 100.224C190.583 100.688 191.431 101.344 192.119 102.192C192.807 103.024 193.263 104.016 193.487 105.168H191.639C191.271 103.92 190.599 102.944 189.623 102.24C188.647 101.536 187.479 101.184 186.119 101.184C184.871 101.184 183.767 101.488 182.807 102.096C181.863 102.688 181.127 103.528 180.599 104.616C180.087 105.688 179.831 106.952 179.831 108.408C179.831 109.832 180.095 111.088 180.623 112.176C181.151 113.264 181.887 114.112 182.831 114.72C183.775 115.312 184.871 115.608 186.119 115.608C187.479 115.608 188.663 115.264 189.671 114.576C190.679 113.888 191.367 112.976 191.735 111.84H193.583C193.327 112.912 192.839 113.856 192.119 114.672C191.415 115.488 190.543 116.128 189.503 116.592C188.463 117.04 187.327 117.264 186.095 117.264Z" fill="#0D1117"/>
<rect x="349" y="156" width="207" height="60" rx="16" fill="white"/>
<path d="M526.492 188.856C526.492 187.8 526.708 186.84 527.14 185.976C527.572 185.096 528.196 184.392 529.012 183.864C529.828 183.336 530.804 183.072 531.94 183.072C533.044 183.072 533.988 183.344 534.772 183.888C535.556 184.432 536.116 185.216 536.452 186.24L536.188 186.576L536.404 183.384H537.844V194.64C537.844 195.792 537.612 196.792 537.148 197.64C536.684 198.504 536.028 199.168 535.18 199.632C534.348 200.112 533.364 200.352 532.228 200.352C530.74 200.352 529.508 199.952 528.532 199.152C527.556 198.352 526.948 197.256 526.708 195.864H528.364C528.54 196.808 528.964 197.536 529.636 198.048C530.324 198.576 531.196 198.84 532.252 198.84C533.452 198.84 534.412 198.472 535.132 197.736C535.852 197 536.212 196.024 536.212 194.808V191.16L536.452 191.472C536.116 192.448 535.532 193.224 534.7 193.8C533.884 194.36 532.924 194.64 531.82 194.64C530.716 194.64 529.764 194.376 528.964 193.848C528.164 193.32 527.548 192.624 527.116 191.76C526.7 190.88 526.492 189.912 526.492 188.856ZM528.148 188.832C528.148 189.632 528.3 190.36 528.604 191.016C528.924 191.672 529.372 192.192 529.948 192.576C530.54 192.96 531.244 193.152 532.06 193.152C532.892 193.152 533.604 192.968 534.196 192.6C534.804 192.216 535.268 191.704 535.588 191.064C535.908 190.408 536.068 189.664 536.068 188.832C536.068 188 535.908 187.264 535.588 186.624C535.284 185.984 534.836 185.48 534.244 185.112C533.668 184.728 532.948 184.536 532.084 184.536C531.252 184.536 530.54 184.736 529.948 185.136C529.372 185.52 528.924 186.04 528.604 186.696C528.3 187.336 528.148 188.048 528.148 188.832Z" fill="black"/>
<path d="M515.461 195H513.805V183.384H515.245L515.485 185.4C515.869 184.664 516.413 184.096 517.117 183.696C517.837 183.28 518.621 183.072 519.469 183.072C521.069 183.072 522.221 183.512 522.925 184.392C523.629 185.272 523.981 186.44 523.981 187.896V195H522.325V188.256C522.325 186.896 522.037 185.944 521.461 185.4C520.901 184.856 520.141 184.584 519.181 184.584C517.997 184.584 517.077 184.984 516.421 185.784C515.781 186.568 515.461 187.616 515.461 188.928V195Z" fill="black"/>
<path d="M508.697 195V183.384H510.353V195H508.697ZM509.513 180.192C509.177 180.192 508.889 180.072 508.649 179.832C508.409 179.592 508.289 179.304 508.289 178.968C508.289 178.632 508.409 178.344 508.649 178.104C508.889 177.848 509.177 177.72 509.513 177.72C509.849 177.72 510.137 177.848 510.377 178.104C510.633 178.344 510.761 178.632 510.761 178.968C510.761 179.304 510.633 179.592 510.377 179.832C510.137 180.072 509.849 180.192 509.513 180.192Z" fill="black"/>
<path d="M496.875 195H495.219V183.384H496.659L496.899 185.4C497.283 184.664 497.827 184.096 498.531 183.696C499.251 183.28 500.035 183.072 500.883 183.072C502.483 183.072 503.635 183.512 504.339 184.392C505.043 185.272 505.395 186.44 505.395 187.896V195H503.739V188.256C503.739 186.896 503.451 185.944 502.875 185.4C502.315 184.856 501.555 184.584 500.595 184.584C499.411 184.584 498.491 184.984 497.835 185.784C497.195 186.568 496.875 187.616 496.875 188.928V195Z" fill="black"/>
<path d="M480.414 188.856C480.414 187.8 480.63 186.84 481.062 185.976C481.494 185.096 482.118 184.392 482.934 183.864C483.75 183.336 484.726 183.072 485.862 183.072C486.966 183.072 487.91 183.344 488.694 183.888C489.478 184.432 490.038 185.216 490.374 186.24L490.11 186.576L490.326 183.384H491.766V194.64C491.766 195.792 491.534 196.792 491.07 197.64C490.606 198.504 489.95 199.168 489.102 199.632C488.27 200.112 487.286 200.352 486.15 200.352C484.662 200.352 483.43 199.952 482.454 199.152C481.478 198.352 480.87 197.256 480.63 195.864H482.286C482.462 196.808 482.886 197.536 483.558 198.048C484.246 198.576 485.118 198.84 486.174 198.84C487.374 198.84 488.334 198.472 489.054 197.736C489.774 197 490.134 196.024 490.134 194.808V191.16L490.374 191.472C490.038 192.448 489.454 193.224 488.622 193.8C487.806 194.36 486.846 194.64 485.742 194.64C484.638 194.64 483.686 194.376 482.886 193.848C482.086 193.32 481.47 192.624 481.038 191.76C480.622 190.88 480.414 189.912 480.414 188.856ZM482.07 188.832C482.07 189.632 482.222 190.36 482.526 191.016C482.846 191.672 483.294 192.192 483.87 192.576C484.462 192.96 485.166 193.152 485.982 193.152C486.814 193.152 487.526 192.968 488.118 192.6C488.726 192.216 489.19 191.704 489.51 191.064C489.83 190.408 489.99 189.664 489.99 188.832C489.99 188 489.83 187.264 489.51 186.624C489.206 185.984 488.758 185.48 488.166 185.112C487.59 184.728 486.87 184.536 486.006 184.536C485.174 184.536 484.462 184.736 483.87 185.136C483.294 185.52 482.846 186.04 482.526 186.696C482.222 187.336 482.07 188.048 482.07 188.832Z" fill="black"/>
<path d="M476.095 195V183.384H477.752V195H476.095ZM476.911 180.192C476.575 180.192 476.288 180.072 476.048 179.832C475.808 179.592 475.688 179.304 475.688 178.968C475.688 178.632 475.808 178.344 476.048 178.104C476.288 177.848 476.575 177.72 476.911 177.72C477.247 177.72 477.535 177.848 477.775 178.104C478.031 178.344 478.16 178.632 478.16 178.968C478.16 179.304 478.031 179.592 477.775 179.832C477.535 180.072 477.247 180.192 476.911 180.192Z" fill="black"/>
<path d="M464.703 191.736H466.287C466.287 192.408 466.527 192.944 467.007 193.344C467.487 193.728 468.127 193.92 468.927 193.92C469.823 193.92 470.519 193.744 471.015 193.392C471.527 193.024 471.783 192.528 471.783 191.904C471.783 191.424 471.647 191.04 471.375 190.752C471.103 190.464 470.623 190.232 469.935 190.056L467.943 189.552C466.935 189.296 466.183 188.904 465.687 188.376C465.191 187.848 464.943 187.192 464.943 186.408C464.943 185.736 465.119 185.152 465.471 184.656C465.823 184.144 466.311 183.752 466.935 183.48C467.575 183.208 468.311 183.072 469.143 183.072C469.959 183.072 470.671 183.216 471.279 183.504C471.887 183.792 472.359 184.2 472.695 184.728C473.047 185.24 473.231 185.856 473.247 186.576H471.639C471.623 185.888 471.391 185.36 470.943 184.992C470.495 184.624 469.879 184.44 469.095 184.44C468.279 184.44 467.647 184.608 467.199 184.944C466.767 185.28 466.551 185.76 466.551 186.384C466.551 187.28 467.183 187.888 468.447 188.208L470.439 188.712C471.447 188.968 472.183 189.344 472.647 189.84C473.127 190.336 473.367 191 473.367 191.832C473.367 192.52 473.183 193.128 472.815 193.656C472.447 194.184 471.927 194.592 471.255 194.88C470.599 195.152 469.831 195.288 468.951 195.288C467.655 195.288 466.623 194.968 465.855 194.328C465.087 193.672 464.703 192.808 464.703 191.736Z" fill="black"/>
<path d="M457.879 195.288C456.759 195.288 455.767 195.032 454.903 194.52C454.055 194.008 453.391 193.296 452.911 192.384C452.431 191.472 452.191 190.408 452.191 189.192C452.191 187.992 452.423 186.936 452.887 186.024C453.367 185.096 454.023 184.376 454.855 183.864C455.687 183.336 456.655 183.072 457.759 183.072C458.815 183.072 459.735 183.304 460.519 183.768C461.319 184.232 461.935 184.88 462.367 185.712C462.815 186.528 463.039 187.488 463.039 188.592V189.408H453.103L453.151 188.208H461.383C461.383 187.088 461.047 186.192 460.375 185.52C459.719 184.832 458.847 184.488 457.759 184.488C456.959 184.488 456.255 184.672 455.647 185.04C455.055 185.408 454.599 185.936 454.279 186.624C453.959 187.296 453.799 188.096 453.799 189.024C453.799 190.56 454.151 191.752 454.855 192.6C455.575 193.448 456.591 193.872 457.903 193.872C458.847 193.872 459.623 193.672 460.231 193.272C460.839 192.872 461.247 192.288 461.455 191.52H463.039C462.735 192.736 462.143 193.672 461.263 194.328C460.383 194.968 459.255 195.288 457.879 195.288Z" fill="black"/>
<path d="M441.658 195H436.426V177.816H441.61C443.338 177.816 444.85 178.176 446.146 178.896C447.442 179.616 448.45 180.624 449.17 181.92C449.89 183.2 450.25 184.696 450.25 186.408C450.25 188.12 449.89 189.624 449.17 190.92C448.466 192.2 447.466 193.2 446.17 193.92C444.89 194.64 443.386 195 441.658 195ZM438.154 178.632V194.184L437.362 193.416H441.586C442.994 193.416 444.21 193.128 445.234 192.552C446.258 191.976 447.05 191.168 447.61 190.128C448.186 189.072 448.474 187.832 448.474 186.408C448.474 184.984 448.186 183.744 447.61 182.688C447.05 181.632 446.25 180.824 445.21 180.264C444.186 179.688 442.962 179.4 441.538 179.4H437.362L438.154 178.632Z" fill="black"/>
<path d="M419.32 186.432L413.32 177.816H415.36L418.552 182.328C418.968 182.888 419.312 183.408 419.584 183.888C419.872 184.352 420.12 184.776 420.328 185.16L425.32 177.816H427.312L421.408 186.384L427.408 195H425.344L422.08 190.392C421.792 189.992 421.488 189.552 421.168 189.072C420.864 188.576 420.6 188.136 420.376 187.752L415.36 195H413.344L419.32 186.432Z" fill="black"/>
<path d="M398.312 189.024V177.816H400.041V188.952C400.041 190.456 400.441 191.608 401.241 192.408C402.041 193.208 403.193 193.608 404.697 193.608C406.153 193.608 407.281 193.208 408.081 192.408C408.881 191.592 409.281 190.44 409.281 188.952V177.816H411.009V189.024C411.009 190.32 410.753 191.44 410.241 192.384C409.745 193.312 409.025 194.032 408.081 194.544C407.137 195.04 406.009 195.288 404.697 195.288C403.369 195.288 402.225 195.04 401.265 194.544C400.321 194.048 399.593 193.328 399.081 192.384C398.569 191.44 398.312 190.32 398.312 189.024Z" fill="black"/>
<path d="M389.609 195H387.977L394.673 177.816H396.353L389.609 195Z" fill="black"/>
<path d="M385.888 177.816V195H384.16V177.816H385.888Z" fill="black"/>
<path d="M367.398 189.024V177.816H369.126V188.952C369.126 190.456 369.526 191.608 370.326 192.408C371.126 193.208 372.278 193.608 373.782 193.608C375.238 193.608 376.366 193.208 377.166 192.408C377.966 191.592 378.366 190.44 378.366 188.952V177.816H380.094V189.024C380.094 190.32 379.838 191.44 379.326 192.384C378.83 193.312 378.11 194.032 377.166 194.544C376.222 195.04 375.094 195.288 373.782 195.288C372.454 195.288 371.31 195.04 370.35 194.544C369.406 194.048 368.678 193.328 368.166 192.384C367.654 191.44 367.398 190.32 367.398 189.024Z" fill="black"/>
<rect y="156" width="141" height="60" rx="16" fill="white"/>
<path d="M115.246 191.736H116.83C116.83 192.408 117.07 192.944 117.55 193.344C118.03 193.728 118.67 193.92 119.47 193.92C120.366 193.92 121.062 193.744 121.558 193.392C122.07 193.024 122.326 192.528 122.326 191.904C122.326 191.424 122.19 191.04 121.918 190.752C121.646 190.464 121.166 190.232 120.478 190.056L118.486 189.552C117.478 189.296 116.726 188.904 116.23 188.376C115.734 187.848 115.486 187.192 115.486 186.408C115.486 185.736 115.662 185.152 116.014 184.656C116.366 184.144 116.854 183.752 117.478 183.48C118.118 183.208 118.854 183.072 119.686 183.072C120.502 183.072 121.214 183.216 121.822 183.504C122.43 183.792 122.902 184.2 123.238 184.728C123.59 185.24 123.774 185.856 123.79 186.576H122.182C122.166 185.888 121.934 185.36 121.486 184.992C121.038 184.624 120.422 184.44 119.638 184.44C118.822 184.44 118.19 184.608 117.742 184.944C117.31 185.28 117.094 185.76 117.094 186.384C117.094 187.28 117.726 187.888 118.99 188.208L120.982 188.712C121.99 188.968 122.726 189.344 123.19 189.84C123.67 190.336 123.91 191 123.91 191.832C123.91 192.52 123.726 193.128 123.358 193.656C122.99 194.184 122.47 194.592 121.798 194.88C121.142 195.152 120.374 195.288 119.494 195.288C118.198 195.288 117.166 194.968 116.398 194.328C115.63 193.672 115.246 192.808 115.246 191.736Z" fill="black"/>
<path d="M108.422 195.288C107.302 195.288 106.31 195.032 105.446 194.52C104.598 194.008 103.934 193.296 103.454 192.384C102.974 191.472 102.734 190.408 102.734 189.192C102.734 187.992 102.966 186.936 103.43 186.024C103.91 185.096 104.566 184.376 105.398 183.864C106.23 183.336 107.198 183.072 108.302 183.072C109.358 183.072 110.278 183.304 111.062 183.768C111.862 184.232 112.478 184.88 112.91 185.712C113.358 186.528 113.582 187.488 113.582 188.592V189.408H103.646L103.694 188.208H111.926C111.926 187.088 111.59 186.192 110.918 185.52C110.262 184.832 109.39 184.488 108.302 184.488C107.502 184.488 106.798 184.672 106.19 185.04C105.598 185.408 105.142 185.936 104.822 186.624C104.502 187.296 104.342 188.096 104.342 189.024C104.342 190.56 104.694 191.752 105.398 192.6C106.118 193.448 107.134 193.872 108.446 193.872C109.39 193.872 110.166 193.672 110.774 193.272C111.382 192.872 111.79 192.288 111.998 191.52H113.582C113.278 192.736 112.686 193.672 111.806 194.328C110.926 194.968 109.798 195.288 108.422 195.288Z" fill="black"/>
<path d="M92.1602 191.736H93.7442C93.7442 192.408 93.9841 192.944 94.4641 193.344C94.9441 193.728 95.5842 193.92 96.3842 193.92C97.2802 193.92 97.9762 193.744 98.4722 193.392C98.9842 193.024 99.2402 192.528 99.2402 191.904C99.2402 191.424 99.1042 191.04 98.8322 190.752C98.5602 190.464 98.0802 190.232 97.3922 190.056L95.4002 189.552C94.3922 189.296 93.6401 188.904 93.1441 188.376C92.6481 187.848 92.4002 187.192 92.4002 186.408C92.4002 185.736 92.5762 185.152 92.9282 184.656C93.2802 184.144 93.7682 183.752 94.3922 183.48C95.0322 183.208 95.7682 183.072 96.6002 183.072C97.4162 183.072 98.1282 183.216 98.7362 183.504C99.3442 183.792 99.8162 184.2 100.152 184.728C100.504 185.24 100.688 185.856 100.704 186.576H99.0962C99.0802 185.888 98.8482 185.36 98.4002 184.992C97.9522 184.624 97.3362 184.44 96.5522 184.44C95.7362 184.44 95.1042 184.608 94.6562 184.944C94.2242 185.28 94.0082 185.76 94.0082 186.384C94.0082 187.28 94.6402 187.888 95.9042 188.208L97.8962 188.712C98.9042 188.968 99.6402 189.344 100.104 189.84C100.584 190.336 100.824 191 100.824 191.832C100.824 192.52 100.64 193.128 100.272 193.656C99.9042 194.184 99.3842 194.592 98.7122 194.88C98.0562 195.152 97.2881 195.288 96.4081 195.288C95.1121 195.288 94.0802 194.968 93.3122 194.328C92.5442 193.672 92.1602 192.808 92.1602 191.736Z" fill="black"/>
<path d="M83.9438 195.288C82.7118 195.288 81.7438 194.968 81.0398 194.328C80.3518 193.688 80.0078 192.864 80.0078 191.856C80.0078 190.784 80.3918 189.928 81.1598 189.288C81.9278 188.648 82.9918 188.272 84.3518 188.16L88.1918 187.848V187.464C88.1918 186.696 88.0558 186.096 87.7838 185.664C87.5118 185.216 87.1438 184.904 86.6798 184.728C86.2158 184.552 85.6958 184.464 85.1198 184.464C84.0958 184.464 83.3038 184.68 82.7438 185.112C82.1838 185.544 81.9038 186.152 81.9038 186.936H80.3918C80.3918 186.152 80.5918 185.472 80.9918 184.896C81.3918 184.32 81.9518 183.872 82.6718 183.552C83.3918 183.232 84.2238 183.072 85.1678 183.072C86.0798 183.072 86.8798 183.232 87.5678 183.552C88.2558 183.856 88.7998 184.336 89.1998 184.992C89.6158 185.632 89.8238 186.464 89.8238 187.488V195H88.4318L88.2158 192.96C87.8638 193.696 87.3038 194.272 86.5358 194.688C85.7838 195.088 84.9198 195.288 83.9438 195.288ZM84.3278 193.944C85.5598 193.944 86.5118 193.552 87.1838 192.768C87.8558 191.984 88.1918 190.968 88.1918 189.72V189.096L84.7598 189.36C83.6718 189.456 82.8878 189.728 82.4078 190.176C81.9278 190.624 81.6878 191.168 81.6878 191.808C81.6878 192.512 81.9278 193.048 82.4078 193.416C82.8878 193.768 83.5278 193.944 84.3278 193.944Z" fill="black"/>
<path d="M68.0298 195H66.5898V177.504H68.2458V185.64C68.6458 184.776 69.2218 184.136 69.9738 183.72C70.7418 183.288 71.6218 183.072 72.6138 183.072C73.7498 183.072 74.7098 183.344 75.4938 183.888C76.2938 184.416 76.9018 185.144 77.3178 186.072C77.7498 187 77.9658 188.048 77.9658 189.216C77.9658 190.368 77.7498 191.408 77.3178 192.336C76.8858 193.248 76.2698 193.968 75.4698 194.496C74.6698 195.024 73.7018 195.288 72.5658 195.288C71.6058 195.288 70.7418 195.072 69.9738 194.64C69.2058 194.192 68.6138 193.52 68.1978 192.624L68.0298 195ZM68.2698 189.168C68.2698 190.064 68.4298 190.864 68.7498 191.568C69.0698 192.256 69.5258 192.8 70.1178 193.2C70.7258 193.584 71.4538 193.776 72.3018 193.776C73.1498 193.776 73.8698 193.584 74.4618 193.2C75.0538 192.8 75.5018 192.256 75.8058 191.568C76.1258 190.864 76.2858 190.064 76.2858 189.168C76.2858 188.272 76.1258 187.48 75.8058 186.792C75.5018 186.104 75.0538 185.56 74.4618 185.16C73.8698 184.76 73.1498 184.56 72.3018 184.56C71.4538 184.56 70.7258 184.76 70.1178 185.16C69.5258 185.56 69.0698 186.104 68.7498 186.792C68.4298 187.48 68.2698 188.272 68.2698 189.168Z" fill="black"/>
<path d="M57.3891 195.288C56.1571 195.288 55.1891 194.968 54.4851 194.328C53.7971 193.688 53.4531 192.864 53.4531 191.856C53.4531 190.784 53.8371 189.928 54.6051 189.288C55.3731 188.648 56.4371 188.272 57.7971 188.16L61.6371 187.848V187.464C61.6371 186.696 61.5011 186.096 61.2291 185.664C60.9571 185.216 60.5891 184.904 60.1251 184.728C59.6611 184.552 59.1411 184.464 58.5651 184.464C57.5411 184.464 56.7491 184.68 56.1891 185.112C55.6291 185.544 55.3491 186.152 55.3491 186.936H53.8371C53.8371 186.152 54.0371 185.472 54.4371 184.896C54.8371 184.32 55.3971 183.872 56.1171 183.552C56.8371 183.232 57.6691 183.072 58.6131 183.072C59.5251 183.072 60.3251 183.232 61.0131 183.552C61.7011 183.856 62.2451 184.336 62.6451 184.992C63.0611 185.632 63.2691 186.464 63.2691 187.488V195H61.8771L61.6611 192.96C61.3091 193.696 60.7491 194.272 59.9811 194.688C59.2291 195.088 58.3651 195.288 57.3891 195.288ZM57.7731 193.944C59.0051 193.944 59.9571 193.552 60.6291 192.768C61.3011 191.984 61.6371 190.968 61.6371 189.72V189.096L58.2051 189.36C57.1171 189.456 56.3331 189.728 55.8531 190.176C55.3731 190.624 55.1331 191.168 55.1331 191.808C55.1331 192.512 55.3731 193.048 55.8531 193.416C56.3331 193.768 56.9731 193.944 57.7731 193.944Z" fill="black"/>
<path d="M45.7969 183.384H52.0849V184.776H45.7969V183.384ZM49.7569 195H48.1249V179.712H49.7569V195Z" fill="black"/>
<path d="M38.1001 195.288C36.8681 195.288 35.9001 194.968 35.1961 194.328C34.5081 193.688 34.1641 192.864 34.1641 191.856C34.1641 190.784 34.5481 189.928 35.3161 189.288C36.0841 188.648 37.1481 188.272 38.5081 188.16L42.3481 187.848V187.464C42.3481 186.696 42.2121 186.096 41.9401 185.664C41.6681 185.216 41.3001 184.904 40.8361 184.728C40.3721 184.552 39.8521 184.464 39.2761 184.464C38.2521 184.464 37.4601 184.68 36.9001 185.112C36.3401 185.544 36.0601 186.152 36.0601 186.936H34.5481C34.5481 186.152 34.7481 185.472 35.1481 184.896C35.5481 184.32 36.1081 183.872 36.8281 183.552C37.5481 183.232 38.3801 183.072 39.3241 183.072C40.2361 183.072 41.0361 183.232 41.7241 183.552C42.4121 183.856 42.9561 184.336 43.3561 184.992C43.7721 185.632 43.9801 186.464 43.9801 187.488V195H42.5881L42.3721 192.96C42.0201 193.696 41.4601 194.272 40.6921 194.688C39.9401 195.088 39.0761 195.288 38.1001 195.288ZM38.4841 193.944C39.7161 193.944 40.6681 193.552 41.3401 192.768C42.0121 191.984 42.3481 190.968 42.3481 189.72V189.096L38.9161 189.36C37.8281 189.456 37.0441 189.728 36.5641 190.176C36.0841 190.624 35.8441 191.168 35.8441 191.808C35.8441 192.512 36.0841 193.048 36.5641 193.416C37.0441 193.768 37.6841 193.944 38.4841 193.944Z" fill="black"/>
<path d="M23.4117 195H18.1797V177.816H23.3637C25.0917 177.816 26.6037 178.176 27.8997 178.896C29.1957 179.616 30.2037 180.624 30.9237 181.92C31.6437 183.2 32.0037 184.696 32.0037 186.408C32.0037 188.12 31.6437 189.624 30.9237 190.92C30.2197 192.2 29.2197 193.2 27.9237 193.92C26.6437 194.64 25.1397 195 23.4117 195ZM19.9077 178.632V194.184L19.1157 193.416H23.3397C24.7477 193.416 25.9637 193.128 26.9877 192.552C28.0117 191.976 28.8037 191.168 29.3637 190.128C29.9397 189.072 30.2277 187.832 30.2277 186.408C30.2277 184.984 29.9397 183.744 29.3637 182.688C28.8037 181.632 28.0037 180.824 26.9637 180.264C25.9397 179.688 24.7157 179.4 23.2917 179.4H19.1157L19.9077 178.632Z" fill="black"/>
<rect x="157" y="156" width="176" height="60" rx="16" fill="white"/>
<path d="M303.711 188.856C303.711 187.8 303.927 186.84 304.359 185.976C304.791 185.096 305.415 184.392 306.231 183.864C307.047 183.336 308.023 183.072 309.159 183.072C310.263 183.072 311.207 183.344 311.991 183.888C312.775 184.432 313.335 185.216 313.671 186.24L313.407 186.576L313.623 183.384H315.063V194.64C315.063 195.792 314.831 196.792 314.367 197.64C313.903 198.504 313.247 199.168 312.399 199.632C311.567 200.112 310.583 200.352 309.447 200.352C307.959 200.352 306.727 199.952 305.751 199.152C304.775 198.352 304.167 197.256 303.927 195.864H305.583C305.759 196.808 306.183 197.536 306.855 198.048C307.543 198.576 308.415 198.84 309.471 198.84C310.671 198.84 311.631 198.472 312.351 197.736C313.071 197 313.431 196.024 313.431 194.808V191.16L313.671 191.472C313.335 192.448 312.751 193.224 311.919 193.8C311.103 194.36 310.143 194.64 309.039 194.64C307.935 194.64 306.983 194.376 306.183 193.848C305.383 193.32 304.767 192.624 304.335 191.76C303.919 190.88 303.711 189.912 303.711 188.856ZM305.367 188.832C305.367 189.632 305.519 190.36 305.823 191.016C306.143 191.672 306.591 192.192 307.167 192.576C307.759 192.96 308.463 193.152 309.279 193.152C310.111 193.152 310.823 192.968 311.415 192.6C312.023 192.216 312.487 191.704 312.807 191.064C313.127 190.408 313.287 189.664 313.287 188.832C313.287 188 313.127 187.264 312.807 186.624C312.503 185.984 312.055 185.48 311.463 185.112C310.887 184.728 310.167 184.536 309.303 184.536C308.471 184.536 307.759 184.736 307.167 185.136C306.591 185.52 306.143 186.04 305.823 186.696C305.519 187.336 305.367 188.048 305.367 188.832Z" fill="black"/>
<path d="M292.679 195H291.023V183.384H292.463L292.703 185.4C293.087 184.664 293.631 184.096 294.335 183.696C295.055 183.28 295.839 183.072 296.687 183.072C298.287 183.072 299.439 183.512 300.143 184.392C300.847 185.272 301.199 186.44 301.199 187.896V195H299.543V188.256C299.543 186.896 299.255 185.944 298.679 185.4C298.119 184.856 297.359 184.584 296.399 184.584C295.215 184.584 294.295 184.984 293.639 185.784C292.999 186.568 292.679 187.616 292.679 188.928V195Z" fill="black"/>
<path d="M285.916 195V183.384H287.572V195H285.916ZM286.732 180.192C286.396 180.192 286.108 180.072 285.868 179.832C285.628 179.592 285.508 179.304 285.508 178.968C285.508 178.632 285.628 178.344 285.868 178.104C286.108 177.848 286.396 177.72 286.732 177.72C287.068 177.72 287.356 177.848 287.596 178.104C287.852 178.344 287.98 178.632 287.98 178.968C287.98 179.304 287.852 179.592 287.596 179.832C287.356 180.072 287.068 180.192 286.732 180.192Z" fill="black"/>
<path d="M267.367 195H265.711V183.384H267.151L267.391 185.568L267.151 185.496C267.391 184.76 267.839 184.176 268.495 183.744C269.167 183.296 269.951 183.072 270.847 183.072C271.887 183.072 272.751 183.36 273.439 183.936C274.143 184.496 274.591 185.264 274.783 186.24H274.423C274.583 185.264 275.015 184.496 275.719 183.936C276.439 183.36 277.335 183.072 278.407 183.072C279.655 183.072 280.663 183.456 281.431 184.224C282.199 184.992 282.583 186.048 282.583 187.392V195H280.975V187.728C280.975 186.736 280.719 185.96 280.207 185.4C279.695 184.84 278.991 184.56 278.095 184.56C277.455 184.56 276.903 184.712 276.439 185.016C275.975 185.304 275.615 185.696 275.359 186.192C275.119 186.688 274.999 187.232 274.999 187.824V195H273.367V187.704C273.367 186.712 273.103 185.944 272.575 185.4C272.063 184.856 271.367 184.584 270.487 184.584C269.847 184.584 269.287 184.728 268.807 185.016C268.343 185.304 267.983 185.696 267.727 186.192C267.487 186.672 267.367 187.208 267.367 187.8V195Z" fill="black"/>
<path d="M247.164 195H245.508V183.384H246.948L247.188 185.568L246.948 185.496C247.188 184.76 247.636 184.176 248.292 183.744C248.964 183.296 249.748 183.072 250.644 183.072C251.684 183.072 252.548 183.36 253.236 183.936C253.94 184.496 254.388 185.264 254.58 186.24H254.22C254.38 185.264 254.812 184.496 255.516 183.936C256.236 183.36 257.132 183.072 258.204 183.072C259.452 183.072 260.46 183.456 261.228 184.224C261.996 184.992 262.38 186.048 262.38 187.392V195H260.772V187.728C260.772 186.736 260.516 185.96 260.004 185.4C259.492 184.84 258.788 184.56 257.892 184.56C257.252 184.56 256.7 184.712 256.236 185.016C255.772 185.304 255.412 185.696 255.156 186.192C254.916 186.688 254.796 187.232 254.796 187.824V195H253.164V187.704C253.164 186.712 252.9 185.944 252.372 185.4C251.86 184.856 251.164 184.584 250.284 184.584C249.644 184.584 249.084 184.728 248.604 185.016C248.14 185.304 247.78 185.696 247.524 186.192C247.284 186.672 247.164 187.208 247.164 187.8V195Z" fill="black"/>
<path d="M236.307 195.288C235.075 195.288 234.107 194.968 233.403 194.328C232.715 193.688 232.371 192.864 232.371 191.856C232.371 190.784 232.755 189.928 233.523 189.288C234.291 188.648 235.355 188.272 236.715 188.16L240.555 187.848V187.464C240.555 186.696 240.419 186.096 240.147 185.664C239.875 185.216 239.507 184.904 239.043 184.728C238.579 184.552 238.059 184.464 237.483 184.464C236.459 184.464 235.667 184.68 235.107 185.112C234.547 185.544 234.267 186.152 234.267 186.936H232.755C232.755 186.152 232.955 185.472 233.355 184.896C233.755 184.32 234.315 183.872 235.035 183.552C235.755 183.232 236.587 183.072 237.531 183.072C238.443 183.072 239.243 183.232 239.931 183.552C240.619 183.856 241.163 184.336 241.563 184.992C241.979 185.632 242.187 186.464 242.187 187.488V195H240.795L240.579 192.96C240.227 193.696 239.667 194.272 238.899 194.688C238.147 195.088 237.283 195.288 236.307 195.288ZM236.691 193.944C237.923 193.944 238.875 193.552 239.547 192.768C240.219 191.984 240.555 190.968 240.555 189.72V189.096L237.123 189.36C236.035 189.456 235.251 189.728 234.771 190.176C234.291 190.624 234.051 191.168 234.051 191.808C234.051 192.512 234.291 193.048 234.771 193.416C235.251 193.768 235.891 193.944 236.691 193.944Z" fill="black"/>
<path d="M231.236 183.24V184.728H230.324C229.252 184.728 228.396 185.056 227.756 185.712C227.132 186.368 226.82 187.256 226.82 188.376V195H225.164V183.384H226.724L226.868 185.664H226.7C226.86 184.912 227.252 184.304 227.876 183.84C228.5 183.36 229.26 183.12 230.156 183.12C230.332 183.12 230.508 183.128 230.684 183.144C230.86 183.16 231.044 183.192 231.236 183.24Z" fill="black"/>
<path d="M210.359 188.856C210.359 187.8 210.575 186.84 211.007 185.976C211.439 185.096 212.063 184.392 212.879 183.864C213.695 183.336 214.671 183.072 215.807 183.072C216.911 183.072 217.855 183.344 218.639 183.888C219.423 184.432 219.983 185.216 220.319 186.24L220.055 186.576L220.271 183.384H221.711V194.64C221.711 195.792 221.479 196.792 221.015 197.64C220.551 198.504 219.895 199.168 219.047 199.632C218.215 200.112 217.231 200.352 216.095 200.352C214.607 200.352 213.375 199.952 212.399 199.152C211.423 198.352 210.815 197.256 210.575 195.864H212.231C212.407 196.808 212.831 197.536 213.503 198.048C214.191 198.576 215.063 198.84 216.119 198.84C217.319 198.84 218.279 198.472 218.999 197.736C219.719 197 220.079 196.024 220.079 194.808V191.16L220.319 191.472C219.983 192.448 219.399 193.224 218.567 193.8C217.751 194.36 216.791 194.64 215.687 194.64C214.583 194.64 213.631 194.376 212.831 193.848C212.031 193.32 211.415 192.624 210.983 191.76C210.567 190.88 210.359 189.912 210.359 188.856ZM212.015 188.832C212.015 189.632 212.167 190.36 212.471 191.016C212.791 191.672 213.239 192.192 213.815 192.576C214.407 192.96 215.111 193.152 215.927 193.152C216.759 193.152 217.471 192.968 218.063 192.6C218.671 192.216 219.135 191.704 219.455 191.064C219.775 190.408 219.935 189.664 219.935 188.832C219.935 188 219.775 187.264 219.455 186.624C219.151 185.984 218.703 185.48 218.111 185.112C217.535 184.728 216.815 184.536 215.951 184.536C215.119 184.536 214.407 184.736 213.815 185.136C213.239 185.52 212.791 186.04 212.471 186.696C212.167 187.336 212.015 188.048 212.015 188.832Z" fill="black"/>
<path d="M196.691 189.192C196.691 187.992 196.947 186.936 197.459 186.024C197.971 185.112 198.675 184.392 199.571 183.864C200.467 183.336 201.475 183.072 202.595 183.072C203.731 183.072 204.739 183.336 205.619 183.864C206.515 184.392 207.219 185.112 207.731 186.024C208.243 186.936 208.499 187.992 208.499 189.192C208.499 190.36 208.243 191.408 207.731 192.336C207.219 193.248 206.515 193.968 205.619 194.496C204.739 195.024 203.731 195.288 202.595 195.288C201.475 195.288 200.467 195.024 199.571 194.496C198.675 193.968 197.971 193.248 197.459 192.336C196.947 191.408 196.691 190.36 196.691 189.192ZM198.371 189.168C198.371 190.08 198.547 190.888 198.899 191.592C199.267 192.28 199.763 192.824 200.387 193.224C201.027 193.608 201.763 193.8 202.595 193.8C203.427 193.8 204.155 193.608 204.779 193.224C205.419 192.824 205.915 192.28 206.267 191.592C206.635 190.888 206.819 190.08 206.819 189.168C206.819 188.272 206.635 187.48 206.267 186.792C205.915 186.104 205.419 185.56 204.779 185.16C204.155 184.76 203.427 184.56 202.595 184.56C201.763 184.56 201.027 184.76 200.387 185.16C199.763 185.56 199.267 186.104 198.899 186.792C198.547 187.48 198.371 188.272 198.371 189.168Z" fill="black"/>
<path d="M195.752 183.24V184.728H194.84C193.768 184.728 192.912 185.056 192.272 185.712C191.648 186.368 191.336 187.256 191.336 188.376V195H189.68V183.384H191.24L191.384 185.664H191.216C191.376 184.912 191.768 184.304 192.392 183.84C193.016 183.36 193.776 183.12 194.672 183.12C194.848 183.12 195.024 183.128 195.2 183.144C195.376 183.16 195.56 183.192 195.752 183.24Z" fill="black"/>
<path d="M177.029 177.816V195H175.301V177.816H177.029ZM181.853 188.688H176.669V187.128H181.517C182.765 187.128 183.733 186.768 184.421 186.048C185.109 185.312 185.453 184.36 185.453 183.192C185.453 182.008 185.109 181.08 184.421 180.408C183.733 179.72 182.797 179.376 181.613 179.376H175.925V177.816H181.853C182.957 177.816 183.909 178.04 184.709 178.488C185.525 178.936 186.149 179.568 186.581 180.384C187.029 181.2 187.253 182.144 187.253 183.216C187.253 184.256 187.029 185.192 186.581 186.024C186.149 186.856 185.525 187.512 184.709 187.992C183.909 188.456 182.957 188.688 181.853 188.688Z" fill="black"/>
</svg>
