<svg width="1000" height="152" viewBox="0 0 1000 152" fill="none" xmlns="http://www.w3.org/2000/svg">
<rect x="143" width="228" height="60" rx="16" fill="white"/>
<path d="M347.809 27.3839H354.097V28.7759H347.809V27.3839ZM351.769 38.9999H350.137V23.7119H351.769V38.9999Z" fill="#0D1117"/>
<path d="M337.281 39.0003H335.625V27.3843H337.065L337.305 29.4003C337.689 28.6643 338.233 28.0963 338.937 27.6963C339.657 27.2803 340.441 27.0723 341.289 27.0723C342.889 27.0723 344.041 27.5123 344.745 28.3923C345.449 29.2723 345.801 30.4403 345.801 31.8963V39.0003H344.145V32.2563C344.145 30.8963 343.857 29.9443 343.281 29.4003C342.721 28.8563 341.961 28.5843 341.001 28.5843C339.817 28.5843 338.897 28.9843 338.241 29.7843C337.601 30.5683 337.281 31.6163 337.281 32.9283V39.0003Z" fill="#0D1117"/>
<path d="M327.817 39.2883C326.697 39.2883 325.705 39.0323 324.841 38.5203C323.993 38.0083 323.329 37.2963 322.849 36.3843C322.369 35.4723 322.129 34.4083 322.129 33.1923C322.129 31.9923 322.361 30.9363 322.825 30.0243C323.305 29.0963 323.961 28.3763 324.793 27.8643C325.625 27.3363 326.593 27.0723 327.697 27.0723C328.753 27.0723 329.673 27.3043 330.457 27.7683C331.257 28.2323 331.873 28.8803 332.305 29.7123C332.753 30.5283 332.977 31.4883 332.977 32.5923V33.4083H323.041L323.089 32.2083H331.321C331.321 31.0883 330.985 30.1923 330.313 29.5203C329.657 28.8323 328.785 28.4883 327.697 28.4883C326.897 28.4883 326.193 28.6723 325.585 29.0403C324.993 29.4083 324.537 29.9363 324.217 30.6243C323.897 31.2963 323.737 32.0963 323.737 33.0243C323.737 34.5603 324.089 35.7523 324.793 36.6003C325.513 37.4483 326.529 37.8723 327.841 37.8723C328.785 37.8723 329.561 37.6723 330.169 37.2723C330.777 36.8723 331.185 36.2883 331.393 35.5203H332.977C332.673 36.7363 332.081 37.6723 331.201 38.3283C330.321 38.9683 329.193 39.2883 327.817 39.2883Z" fill="#0D1117"/>
<path d="M304.398 39.0003H302.742V27.3843H304.182L304.422 29.5683L304.182 29.4963C304.422 28.7603 304.87 28.1763 305.526 27.7443C306.198 27.2963 306.982 27.0723 307.878 27.0723C308.918 27.0723 309.782 27.3603 310.47 27.9363C311.174 28.4963 311.622 29.2643 311.814 30.2403H311.454C311.614 29.2643 312.046 28.4963 312.75 27.9363C313.47 27.3603 314.366 27.0723 315.438 27.0723C316.686 27.0723 317.694 27.4563 318.462 28.2243C319.23 28.9923 319.614 30.0483 319.614 31.3923V39.0003H318.006V31.7283C318.006 30.7363 317.75 29.9603 317.238 29.4003C316.726 28.8403 316.022 28.5603 315.126 28.5603C314.486 28.5603 313.934 28.7123 313.47 29.0163C313.006 29.3043 312.646 29.6963 312.39 30.1923C312.15 30.6883 312.03 31.2323 312.03 31.8243V39.0003H310.398V31.7043C310.398 30.7123 310.134 29.9443 309.606 29.4003C309.094 28.8563 308.398 28.5843 307.518 28.5843C306.878 28.5843 306.318 28.7283 305.838 29.0163C305.374 29.3043 305.014 29.6963 304.758 30.1923C304.518 30.6723 304.398 31.2083 304.398 31.8003V39.0003Z" fill="#0D1117"/>
<path d="M288.727 44.0643V27.3843H290.167L290.335 29.7363C290.751 28.8403 291.343 28.1763 292.111 27.7443C292.895 27.2963 293.767 27.0723 294.727 27.0723C295.847 27.0723 296.807 27.3363 297.607 27.8643C298.407 28.3923 299.023 29.1123 299.455 30.0243C299.887 30.9363 300.103 31.9763 300.103 33.1443C300.103 34.3123 299.887 35.3603 299.455 36.2883C299.039 37.2163 298.431 37.9523 297.631 38.4963C296.847 39.0243 295.879 39.2883 294.727 39.2883C293.735 39.2883 292.863 39.0803 292.111 38.6643C291.359 38.2323 290.783 37.6003 290.383 36.7683V44.0643H288.727ZM290.407 33.1923C290.407 34.0723 290.567 34.8643 290.887 35.5683C291.207 36.2563 291.663 36.8003 292.255 37.2003C292.863 37.6003 293.591 37.8003 294.439 37.8003C295.287 37.8003 296.007 37.6003 296.599 37.2003C297.191 36.8003 297.639 36.2563 297.943 35.5683C298.263 34.8643 298.423 34.0723 298.423 33.1923C298.423 32.2963 298.263 31.5043 297.943 30.8163C297.639 30.1123 297.191 29.5683 296.599 29.1843C296.007 28.7843 295.287 28.5843 294.439 28.5843C293.591 28.5843 292.863 28.7843 292.255 29.1843C291.663 29.5683 291.207 30.1123 290.887 30.8163C290.567 31.5043 290.407 32.2963 290.407 33.1923Z" fill="#0D1117"/>
<path d="M274.27 33.1923C274.27 31.9923 274.526 30.9363 275.038 30.0243C275.55 29.1123 276.254 28.3923 277.15 27.8643C278.046 27.3363 279.054 27.0723 280.174 27.0723C281.31 27.0723 282.318 27.3363 283.198 27.8643C284.094 28.3923 284.798 29.1123 285.31 30.0243C285.822 30.9363 286.078 31.9923 286.078 33.1923C286.078 34.3603 285.822 35.4083 285.31 36.3363C284.798 37.2483 284.094 37.9683 283.198 38.4963C282.318 39.0243 281.31 39.2883 280.174 39.2883C279.054 39.2883 278.046 39.0243 277.15 38.4963C276.254 37.9683 275.55 37.2483 275.038 36.3363C274.526 35.4083 274.27 34.3603 274.27 33.1923ZM275.95 33.1683C275.95 34.0803 276.126 34.8883 276.478 35.5923C276.846 36.2803 277.342 36.8243 277.966 37.2243C278.606 37.6083 279.342 37.8003 280.174 37.8003C281.006 37.8003 281.734 37.6083 282.358 37.2243C282.998 36.8243 283.494 36.2803 283.846 35.5923C284.214 34.8883 284.398 34.0803 284.398 33.1683C284.398 32.2723 284.214 31.4803 283.846 30.7923C283.494 30.1043 282.998 29.5603 282.358 29.1603C281.734 28.7603 281.006 28.5603 280.174 28.5603C279.342 28.5603 278.606 28.7603 277.966 29.1603C277.342 29.5603 276.846 30.1043 276.478 30.7923C276.126 31.4803 275.95 32.2723 275.95 33.1683Z" fill="#0D1117"/>
<path d="M271.566 38.9999H269.91V21.5039H271.566V38.9999Z" fill="#0D1117"/>
<path d="M262.028 39.2883C260.908 39.2883 259.916 39.0323 259.052 38.5203C258.204 38.0083 257.54 37.2963 257.06 36.3843C256.58 35.4723 256.34 34.4083 256.34 33.1923C256.34 31.9923 256.572 30.9363 257.036 30.0243C257.516 29.0963 258.172 28.3763 259.004 27.8643C259.836 27.3363 260.804 27.0723 261.908 27.0723C262.964 27.0723 263.884 27.3043 264.668 27.7683C265.468 28.2323 266.084 28.8803 266.516 29.7123C266.964 30.5283 267.188 31.4883 267.188 32.5923V33.4083H257.252L257.3 32.2083H265.532C265.532 31.0883 265.196 30.1923 264.524 29.5203C263.868 28.8323 262.996 28.4883 261.908 28.4883C261.108 28.4883 260.404 28.6723 259.796 29.0403C259.204 29.4083 258.748 29.9363 258.428 30.6243C258.108 31.2963 257.948 32.0963 257.948 33.0243C257.948 34.5603 258.3 35.7523 259.004 36.6003C259.724 37.4483 260.74 37.8723 262.052 37.8723C262.996 37.8723 263.772 37.6723 264.38 37.2723C264.988 36.8723 265.396 36.2883 265.604 35.5203H267.188C266.884 36.7363 266.292 37.6723 265.412 38.3283C264.532 38.9683 263.404 39.2883 262.028 39.2883Z" fill="#0D1117"/>
<path d="M249.24 38.9998L244.488 27.3838H246.264L249.264 34.8718C249.44 35.3038 249.592 35.7198 249.72 36.1198C249.864 36.5038 249.992 36.8878 250.104 37.2718C250.216 36.8718 250.344 36.4798 250.488 36.0958C250.632 35.6958 250.792 35.2878 250.968 34.8718L254.016 27.3838H255.72L250.896 38.9998H249.24Z" fill="#0D1117"/>
<path d="M238.52 39.2883C237.4 39.2883 236.408 39.0323 235.544 38.5203C234.696 38.0083 234.032 37.2963 233.552 36.3843C233.072 35.4723 232.832 34.4083 232.832 33.1923C232.832 31.9923 233.064 30.9363 233.528 30.0243C234.008 29.0963 234.664 28.3763 235.496 27.8643C236.328 27.3363 237.296 27.0723 238.4 27.0723C239.456 27.0723 240.376 27.3043 241.16 27.7683C241.96 28.2323 242.576 28.8803 243.008 29.7123C243.456 30.5283 243.68 31.4883 243.68 32.5923V33.4083H233.744L233.792 32.2083H242.024C242.024 31.0883 241.688 30.1923 241.016 29.5203C240.36 28.8323 239.488 28.4883 238.4 28.4883C237.6 28.4883 236.896 28.6723 236.288 29.0403C235.696 29.4083 235.24 29.9363 234.92 30.6243C234.6 31.2963 234.44 32.0963 234.44 33.0243C234.44 34.5603 234.792 35.7523 235.496 36.6003C236.216 37.4483 237.232 37.8723 238.544 37.8723C239.488 37.8723 240.264 37.6723 240.872 37.2723C241.48 36.8723 241.888 36.2883 242.096 35.5203H243.68C243.376 36.7363 242.784 37.6723 241.904 38.3283C241.024 38.9683 239.896 39.2883 238.52 39.2883Z" fill="#0D1117"/>
<path d="M222.298 39.0004H217.066V21.8164H222.25C223.978 21.8164 225.49 22.1764 226.786 22.8964C228.082 23.6164 229.09 24.6244 229.81 25.9204C230.53 27.2004 230.89 28.6964 230.89 30.4084C230.89 32.1204 230.53 33.6244 229.81 34.9204C229.106 36.2004 228.106 37.2004 226.81 37.9204C225.53 38.6404 224.026 39.0004 222.298 39.0004ZM218.794 22.6324V38.1844L218.002 37.4164H222.226C223.634 37.4164 224.85 37.1284 225.874 36.5524C226.898 35.9764 227.69 35.1684 228.25 34.1284C228.826 33.0724 229.114 31.8324 229.114 30.4084C229.114 28.9844 228.826 27.7444 228.25 26.6884C227.69 25.6324 226.89 24.8244 225.85 24.2644C224.826 23.6884 223.602 23.4004 222.178 23.4004H218.002L218.794 22.6324Z" fill="#0D1117"/>
<path d="M197.471 38.9999H196.031V21.5039H197.687V29.6399C198.087 28.7759 198.663 28.1359 199.415 27.7199C200.183 27.2879 201.063 27.0719 202.055 27.0719C203.191 27.0719 204.151 27.3439 204.935 27.8879C205.735 28.4159 206.343 29.1439 206.759 30.0719C207.191 30.9999 207.407 32.0479 207.407 33.2159C207.407 34.3679 207.191 35.4079 206.759 36.3359C206.327 37.2479 205.711 37.9679 204.911 38.4959C204.111 39.0239 203.143 39.2879 202.007 39.2879C201.047 39.2879 200.183 39.0719 199.415 38.6399C198.647 38.1919 198.055 37.5199 197.639 36.6239L197.471 38.9999ZM197.711 33.1679C197.711 34.0639 197.871 34.8639 198.191 35.5679C198.511 36.2559 198.967 36.7999 199.559 37.1999C200.167 37.5839 200.895 37.7759 201.743 37.7759C202.591 37.7759 203.311 37.5839 203.903 37.1999C204.495 36.7999 204.943 36.2559 205.247 35.5679C205.567 34.8639 205.727 34.0639 205.727 33.1679C205.727 32.2719 205.567 31.4799 205.247 30.7919C204.943 30.1039 204.495 29.5599 203.903 29.1599C203.311 28.7599 202.591 28.5599 201.743 28.5599C200.895 28.5599 200.167 28.7599 199.559 29.1599C198.967 29.5599 198.511 30.1039 198.191 30.7919C197.871 31.4799 197.711 32.2719 197.711 33.1679Z" fill="#0D1117"/>
<path d="M188.223 39.2883C187.103 39.2883 186.111 39.0323 185.247 38.5203C184.399 38.0083 183.735 37.2963 183.255 36.3843C182.775 35.4723 182.535 34.4083 182.535 33.1923C182.535 31.9923 182.767 30.9363 183.231 30.0243C183.711 29.0963 184.367 28.3763 185.199 27.8643C186.031 27.3363 186.999 27.0723 188.103 27.0723C189.159 27.0723 190.079 27.3043 190.863 27.7683C191.663 28.2323 192.279 28.8803 192.711 29.7123C193.159 30.5283 193.383 31.4883 193.383 32.5923V33.4083H183.447L183.495 32.2083H191.727C191.727 31.0883 191.391 30.1923 190.719 29.5203C190.063 28.8323 189.191 28.4883 188.103 28.4883C187.303 28.4883 186.599 28.6723 185.991 29.0403C185.399 29.4083 184.943 29.9363 184.623 30.6243C184.303 31.2963 184.143 32.0963 184.143 33.0243C184.143 34.5603 184.495 35.7523 185.199 36.6003C185.919 37.4483 186.935 37.8723 188.247 37.8723C189.191 37.8723 189.967 37.6723 190.575 37.2723C191.183 36.8723 191.591 36.2883 191.799 35.5203H193.383C193.079 36.7363 192.487 37.6723 191.607 38.3283C190.727 38.9683 189.599 39.2883 188.223 39.2883Z" fill="#0D1117"/>
<path d="M164.948 39.0004L159.836 21.8164H161.636L165.116 33.6244C165.244 34.0404 165.356 34.4724 165.452 34.9204C165.564 35.3684 165.676 35.8804 165.788 36.4564C165.932 35.8324 166.068 35.3124 166.196 34.8964C166.324 34.4644 166.452 34.0404 166.58 33.6244L170.324 21.8164H172.124L175.868 33.6244C175.996 34.0564 176.124 34.5044 176.252 34.9684C176.38 35.4164 176.508 35.9124 176.636 36.4564C176.764 35.8004 176.884 35.2484 176.996 34.8004C177.108 34.3524 177.212 33.9684 177.308 33.6484L180.86 21.8164H182.612L177.452 39.0004H175.82L171.212 24.4084L166.604 39.0004H164.948Z" fill="#0D1117"/>
<rect x="403" width="222" height="60" rx="16" fill="white"/>
<path d="M602.137 27.3839H608.425V28.7759H602.137V27.3839ZM606.097 38.9999H604.465V23.7119H606.097V38.9999Z" fill="#0D1117"/>
<path d="M591.609 39.0003H589.953V27.3843H591.393L591.633 29.4003C592.017 28.6643 592.561 28.0963 593.265 27.6963C593.985 27.2803 594.769 27.0723 595.617 27.0723C597.217 27.0723 598.369 27.5123 599.073 28.3923C599.777 29.2723 600.129 30.4403 600.129 31.8963V39.0003H598.473V32.2563C598.473 30.8963 598.185 29.9443 597.609 29.4003C597.049 28.8563 596.289 28.5843 595.329 28.5843C594.145 28.5843 593.225 28.9843 592.569 29.7843C591.929 30.5683 591.609 31.6163 591.609 32.9283V39.0003Z" fill="#0D1117"/>
<path d="M582.145 39.2883C581.025 39.2883 580.033 39.0323 579.169 38.5203C578.321 38.0083 577.657 37.2963 577.177 36.3843C576.697 35.4723 576.457 34.4083 576.457 33.1923C576.457 31.9923 576.689 30.9363 577.153 30.0243C577.633 29.0963 578.289 28.3763 579.121 27.8643C579.953 27.3363 580.921 27.0723 582.025 27.0723C583.081 27.0723 584.001 27.3043 584.785 27.7683C585.585 28.2323 586.201 28.8803 586.633 29.7123C587.081 30.5283 587.305 31.4883 587.305 32.5923V33.4083H577.369L577.417 32.2083H585.649C585.649 31.0883 585.313 30.1923 584.641 29.5203C583.985 28.8323 583.113 28.4883 582.025 28.4883C581.225 28.4883 580.521 28.6723 579.913 29.0403C579.321 29.4083 578.865 29.9363 578.545 30.6243C578.225 31.2963 578.065 32.0963 578.065 33.0243C578.065 34.5603 578.417 35.7523 579.121 36.6003C579.841 37.4483 580.857 37.8723 582.169 37.8723C583.113 37.8723 583.889 37.6723 584.497 37.2723C585.105 36.8723 585.513 36.2883 585.721 35.5203H587.305C587.001 36.7363 586.409 37.6723 585.529 38.3283C584.649 38.9683 583.521 39.2883 582.145 39.2883Z" fill="#0D1117"/>
<path d="M558.726 39.0003H557.07V27.3843H558.51L558.75 29.5683L558.51 29.4963C558.75 28.7603 559.198 28.1763 559.854 27.7443C560.526 27.2963 561.31 27.0723 562.206 27.0723C563.246 27.0723 564.11 27.3603 564.798 27.9363C565.502 28.4963 565.95 29.2643 566.142 30.2403H565.782C565.942 29.2643 566.374 28.4963 567.078 27.9363C567.798 27.3603 568.694 27.0723 569.766 27.0723C571.014 27.0723 572.022 27.4563 572.79 28.2243C573.558 28.9923 573.942 30.0483 573.942 31.3923V39.0003H572.334V31.7283C572.334 30.7363 572.078 29.9603 571.566 29.4003C571.054 28.8403 570.35 28.5603 569.454 28.5603C568.814 28.5603 568.262 28.7123 567.798 29.0163C567.334 29.3043 566.974 29.6963 566.718 30.1923C566.478 30.6883 566.358 31.2323 566.358 31.8243V39.0003H564.726V31.7043C564.726 30.7123 564.462 29.9443 563.934 29.4003C563.422 28.8563 562.726 28.5843 561.846 28.5843C561.206 28.5843 560.646 28.7283 560.166 29.0163C559.702 29.3043 559.342 29.6963 559.086 30.1923C558.846 30.6723 558.726 31.2083 558.726 31.8003V39.0003Z" fill="#0D1117"/>
<path d="M543.055 44.0643V27.3843H544.495L544.663 29.7363C545.079 28.8403 545.671 28.1763 546.439 27.7443C547.223 27.2963 548.095 27.0723 549.055 27.0723C550.175 27.0723 551.135 27.3363 551.935 27.8643C552.735 28.3923 553.351 29.1123 553.783 30.0243C554.215 30.9363 554.431 31.9763 554.431 33.1443C554.431 34.3123 554.215 35.3603 553.783 36.2883C553.367 37.2163 552.759 37.9523 551.959 38.4963C551.175 39.0243 550.207 39.2883 549.055 39.2883C548.063 39.2883 547.191 39.0803 546.439 38.6643C545.687 38.2323 545.111 37.6003 544.711 36.7683V44.0643H543.055ZM544.735 33.1923C544.735 34.0723 544.895 34.8643 545.215 35.5683C545.535 36.2563 545.991 36.8003 546.583 37.2003C547.191 37.6003 547.919 37.8003 548.767 37.8003C549.615 37.8003 550.335 37.6003 550.927 37.2003C551.519 36.8003 551.967 36.2563 552.271 35.5683C552.591 34.8643 552.751 34.0723 552.751 33.1923C552.751 32.2963 552.591 31.5043 552.271 30.8163C551.967 30.1123 551.519 29.5683 550.927 29.1843C550.335 28.7843 549.615 28.5843 548.767 28.5843C547.919 28.5843 547.191 28.7843 546.583 29.1843C545.991 29.5683 545.535 30.1123 545.215 30.8163C544.895 31.5043 544.735 32.2963 544.735 33.1923Z" fill="#0D1117"/>
<path d="M528.598 33.1923C528.598 31.9923 528.854 30.9363 529.366 30.0243C529.878 29.1123 530.582 28.3923 531.478 27.8643C532.374 27.3363 533.382 27.0723 534.502 27.0723C535.638 27.0723 536.646 27.3363 537.526 27.8643C538.422 28.3923 539.126 29.1123 539.638 30.0243C540.15 30.9363 540.406 31.9923 540.406 33.1923C540.406 34.3603 540.15 35.4083 539.638 36.3363C539.126 37.2483 538.422 37.9683 537.526 38.4963C536.646 39.0243 535.638 39.2883 534.502 39.2883C533.382 39.2883 532.374 39.0243 531.478 38.4963C530.582 37.9683 529.878 37.2483 529.366 36.3363C528.854 35.4083 528.598 34.3603 528.598 33.1923ZM530.278 33.1683C530.278 34.0803 530.454 34.8883 530.806 35.5923C531.174 36.2803 531.67 36.8243 532.294 37.2243C532.934 37.6083 533.67 37.8003 534.502 37.8003C535.334 37.8003 536.062 37.6083 536.686 37.2243C537.326 36.8243 537.822 36.2803 538.174 35.5923C538.542 34.8883 538.726 34.0803 538.726 33.1683C538.726 32.2723 538.542 31.4803 538.174 30.7923C537.822 30.1043 537.326 29.5603 536.686 29.1603C536.062 28.7603 535.334 28.5603 534.502 28.5603C533.67 28.5603 532.934 28.7603 532.294 29.1603C531.67 29.5603 531.174 30.1043 530.806 30.7923C530.454 31.4803 530.278 32.2723 530.278 33.1683Z" fill="#0D1117"/>
<path d="M525.894 38.9999H524.238V21.5039H525.894V38.9999Z" fill="#0D1117"/>
<path d="M516.356 39.2883C515.236 39.2883 514.244 39.0323 513.38 38.5203C512.532 38.0083 511.868 37.2963 511.388 36.3843C510.908 35.4723 510.668 34.4083 510.668 33.1923C510.668 31.9923 510.9 30.9363 511.364 30.0243C511.844 29.0963 512.5 28.3763 513.332 27.8643C514.164 27.3363 515.132 27.0723 516.236 27.0723C517.292 27.0723 518.212 27.3043 518.996 27.7683C519.796 28.2323 520.412 28.8803 520.844 29.7123C521.292 30.5283 521.516 31.4883 521.516 32.5923V33.4083H511.58L511.628 32.2083H519.86C519.86 31.0883 519.524 30.1923 518.852 29.5203C518.196 28.8323 517.324 28.4883 516.236 28.4883C515.436 28.4883 514.732 28.6723 514.124 29.0403C513.532 29.4083 513.076 29.9363 512.756 30.6243C512.436 31.2963 512.276 32.0963 512.276 33.0243C512.276 34.5603 512.628 35.7523 513.332 36.6003C514.052 37.4483 515.068 37.8723 516.38 37.8723C517.324 37.8723 518.1 37.6723 518.708 37.2723C519.316 36.8723 519.724 36.2883 519.932 35.5203H521.516C521.212 36.7363 520.62 37.6723 519.74 38.3283C518.86 38.9683 517.732 39.2883 516.356 39.2883Z" fill="#0D1117"/>
<path d="M503.568 38.9998L498.816 27.3838H500.592L503.592 34.8718C503.768 35.3038 503.92 35.7198 504.048 36.1198C504.192 36.5038 504.32 36.8878 504.432 37.2718C504.544 36.8718 504.672 36.4798 504.816 36.0958C504.96 35.6958 505.12 35.2878 505.296 34.8718L508.344 27.3838H510.048L505.224 38.9998H503.568Z" fill="#0D1117"/>
<path d="M492.848 39.2883C491.728 39.2883 490.736 39.0323 489.872 38.5203C489.024 38.0083 488.36 37.2963 487.88 36.3843C487.4 35.4723 487.16 34.4083 487.16 33.1923C487.16 31.9923 487.392 30.9363 487.856 30.0243C488.336 29.0963 488.992 28.3763 489.824 27.8643C490.656 27.3363 491.624 27.0723 492.728 27.0723C493.784 27.0723 494.704 27.3043 495.488 27.7683C496.288 28.2323 496.904 28.8803 497.336 29.7123C497.784 30.5283 498.008 31.4883 498.008 32.5923V33.4083H488.072L488.12 32.2083H496.352C496.352 31.0883 496.016 30.1923 495.344 29.5203C494.688 28.8323 493.816 28.4883 492.728 28.4883C491.928 28.4883 491.224 28.6723 490.616 29.0403C490.024 29.4083 489.568 29.9363 489.248 30.6243C488.928 31.2963 488.768 32.0963 488.768 33.0243C488.768 34.5603 489.12 35.7523 489.824 36.6003C490.544 37.4483 491.56 37.8723 492.872 37.8723C493.816 37.8723 494.592 37.6723 495.2 37.2723C495.808 36.8723 496.216 36.2883 496.424 35.5203H498.008C497.704 36.7363 497.112 37.6723 496.232 38.3283C495.352 38.9683 494.224 39.2883 492.848 39.2883Z" fill="#0D1117"/>
<path d="M476.627 39.0004H471.395V21.8164H476.579C478.307 21.8164 479.819 22.1764 481.115 22.8964C482.411 23.6164 483.419 24.6244 484.139 25.9204C484.859 27.2004 485.219 28.6964 485.219 30.4084C485.219 32.1204 484.859 33.6244 484.139 34.9204C483.435 36.2004 482.435 37.2004 481.139 37.9204C479.859 38.6404 478.355 39.0004 476.627 39.0004ZM473.123 22.6324V38.1844L472.331 37.4164H476.555C477.963 37.4164 479.179 37.1284 480.203 36.5524C481.227 35.9764 482.019 35.1684 482.579 34.1284C483.155 33.0724 483.443 31.8324 483.443 30.4084C483.443 28.9844 483.155 27.7444 482.579 26.6884C482.019 25.6324 481.219 24.8244 480.179 24.2644C479.155 23.6884 477.931 23.4004 476.507 23.4004H472.331L473.123 22.6324Z" fill="#0D1117"/>
<path d="M450.359 44.0643V27.3843H451.799L451.967 29.7363C452.383 28.8403 452.975 28.1763 453.743 27.7443C454.527 27.2963 455.399 27.0723 456.359 27.0723C457.479 27.0723 458.439 27.3363 459.239 27.8643C460.039 28.3923 460.655 29.1123 461.087 30.0243C461.519 30.9363 461.735 31.9763 461.735 33.1443C461.735 34.3123 461.519 35.3603 461.087 36.2883C460.671 37.2163 460.063 37.9523 459.263 38.4963C458.479 39.0243 457.511 39.2883 456.359 39.2883C455.367 39.2883 454.495 39.0803 453.743 38.6643C452.991 38.2323 452.415 37.6003 452.015 36.7683V44.0643H450.359ZM452.039 33.1923C452.039 34.0723 452.199 34.8643 452.519 35.5683C452.839 36.2563 453.295 36.8003 453.887 37.2003C454.495 37.6003 455.223 37.8003 456.071 37.8003C456.919 37.8003 457.639 37.6003 458.231 37.2003C458.823 36.8003 459.271 36.2563 459.575 35.5683C459.895 34.8643 460.055 34.0723 460.055 33.1923C460.055 32.2963 459.895 31.5043 459.575 30.8163C459.271 30.1123 458.823 29.5683 458.231 29.1843C457.639 28.7843 456.919 28.5843 456.071 28.5843C455.223 28.5843 454.495 28.7843 453.887 29.1843C453.295 29.5683 452.839 30.1123 452.519 30.8163C452.199 31.5043 452.039 32.2963 452.039 33.1923Z" fill="#0D1117"/>
<path d="M436.344 44.0643V27.3843H437.784L437.952 29.7363C438.368 28.8403 438.96 28.1763 439.728 27.7443C440.512 27.2963 441.384 27.0723 442.344 27.0723C443.464 27.0723 444.424 27.3363 445.224 27.8643C446.024 28.3923 446.64 29.1123 447.072 30.0243C447.504 30.9363 447.72 31.9763 447.72 33.1443C447.72 34.3123 447.504 35.3603 447.072 36.2883C446.656 37.2163 446.048 37.9523 445.248 38.4963C444.464 39.0243 443.496 39.2883 442.344 39.2883C441.352 39.2883 440.48 39.0803 439.728 38.6643C438.976 38.2323 438.4 37.6003 438 36.7683V44.0643H436.344ZM438.024 33.1923C438.024 34.0723 438.184 34.8643 438.504 35.5683C438.824 36.2563 439.28 36.8003 439.872 37.2003C440.48 37.6003 441.208 37.8003 442.056 37.8003C442.904 37.8003 443.624 37.6003 444.216 37.2003C444.808 36.8003 445.256 36.2563 445.56 35.5683C445.88 34.8643 446.04 34.0723 446.04 33.1923C446.04 32.2963 445.88 31.5043 445.56 30.8163C445.256 30.1123 444.808 29.5683 444.216 29.1843C443.624 28.7843 442.904 28.5843 442.056 28.5843C441.208 28.5843 440.48 28.7843 439.872 29.1843C439.28 29.5683 438.824 30.1123 438.504 30.8163C438.184 31.5043 438.024 32.2963 438.024 33.1923Z" fill="#0D1117"/>
<path d="M421.236 39.0004H419.484L425.796 21.8164H427.932L434.316 39.0004H432.516L430.836 34.4404H422.916L421.236 39.0004ZM426.636 24.2404L423.444 32.9284H430.284L427.068 24.2404C427.036 24.1124 426.996 23.9844 426.948 23.8564C426.9 23.7284 426.868 23.6244 426.852 23.5444C426.836 23.6244 426.804 23.7364 426.756 23.8804C426.724 24.0084 426.684 24.1284 426.636 24.2404Z" fill="#0D1117"/>
<rect x="657" width="197" height="60" rx="16" fill="white"/>
<path d="M828.336 35.7363H829.92C829.92 36.4083 830.16 36.9443 830.64 37.3443C831.12 37.7283 831.76 37.9203 832.56 37.9203C833.456 37.9203 834.152 37.7443 834.648 37.3923C835.16 37.0243 835.416 36.5283 835.416 35.9043C835.416 35.4243 835.28 35.0403 835.008 34.7523C834.736 34.4643 834.256 34.2323 833.568 34.0563L831.576 33.5523C830.568 33.2963 829.816 32.9043 829.32 32.3763C828.824 31.8483 828.576 31.1923 828.576 30.4083C828.576 29.7363 828.752 29.1523 829.104 28.6563C829.456 28.1443 829.944 27.7523 830.568 27.4803C831.208 27.2083 831.944 27.0723 832.776 27.0723C833.592 27.0723 834.304 27.2163 834.912 27.5043C835.52 27.7923 835.992 28.2003 836.328 28.7283C836.68 29.2403 836.864 29.8563 836.88 30.5763H835.272C835.256 29.8883 835.024 29.3603 834.576 28.9923C834.128 28.6243 833.512 28.4403 832.728 28.4403C831.912 28.4403 831.28 28.6083 830.832 28.9443C830.4 29.2803 830.184 29.7603 830.184 30.3843C830.184 31.2803 830.816 31.8883 832.08 32.2083L834.072 32.7123C835.08 32.9683 835.816 33.3443 836.28 33.8403C836.76 34.3363 837 35.0003 837 35.8323C837 36.5203 836.816 37.1283 836.448 37.6563C836.08 38.1843 835.56 38.5923 834.888 38.8803C834.232 39.1523 833.464 39.2883 832.584 39.2883C831.288 39.2883 830.256 38.9683 829.488 38.3283C828.72 37.6723 828.336 36.8083 828.336 35.7363Z" fill="#0D1117"/>
<path d="M817.64 39.0003H815.984V27.3843H817.424L817.664 29.4003C818.048 28.6643 818.592 28.0963 819.296 27.6963C820.016 27.2803 820.8 27.0723 821.648 27.0723C823.248 27.0723 824.4 27.5123 825.104 28.3923C825.808 29.2723 826.16 30.4403 826.16 31.8963V39.0003H824.504V32.2563C824.504 30.8963 824.216 29.9443 823.64 29.4003C823.08 28.8563 822.32 28.5843 821.36 28.5843C820.176 28.5843 819.256 28.9843 818.6 29.7843C817.96 30.5683 817.64 31.6163 817.64 32.9283V39.0003Z" fill="#0D1117"/>
<path d="M801.527 33.1923C801.527 31.9923 801.783 30.9363 802.295 30.0243C802.807 29.1123 803.511 28.3923 804.407 27.8643C805.303 27.3363 806.311 27.0723 807.431 27.0723C808.567 27.0723 809.575 27.3363 810.455 27.8643C811.351 28.3923 812.055 29.1123 812.567 30.0243C813.079 30.9363 813.335 31.9923 813.335 33.1923C813.335 34.3603 813.079 35.4083 812.567 36.3363C812.055 37.2483 811.351 37.9683 810.455 38.4963C809.575 39.0243 808.567 39.2883 807.431 39.2883C806.311 39.2883 805.303 39.0243 804.407 38.4963C803.511 37.9683 802.807 37.2483 802.295 36.3363C801.783 35.4083 801.527 34.3603 801.527 33.1923ZM803.207 33.1683C803.207 34.0803 803.383 34.8883 803.735 35.5923C804.103 36.2803 804.599 36.8243 805.223 37.2243C805.863 37.6083 806.599 37.8003 807.431 37.8003C808.263 37.8003 808.991 37.6083 809.615 37.2243C810.255 36.8243 810.751 36.2803 811.103 35.5923C811.471 34.8883 811.655 34.0803 811.655 33.1683C811.655 32.2723 811.471 31.4803 811.103 30.7923C810.751 30.1043 810.255 29.5603 809.615 29.1603C808.991 28.7603 808.263 28.5603 807.431 28.5603C806.599 28.5603 805.863 28.7603 805.223 29.1603C804.599 29.5603 804.103 30.1043 803.735 30.7923C803.383 31.4803 803.207 32.2723 803.207 33.1683Z" fill="#0D1117"/>
<path d="M797.236 38.9997V27.3837H798.892V38.9997H797.236ZM798.052 24.1917C797.716 24.1917 797.428 24.0717 797.188 23.8317C796.948 23.5917 796.828 23.3037 796.828 22.9677C796.828 22.6317 796.948 22.3437 797.188 22.1037C797.428 21.8477 797.716 21.7197 798.052 21.7197C798.388 21.7197 798.676 21.8477 798.916 22.1037C799.172 22.3437 799.3 22.6317 799.3 22.9677C799.3 23.3037 799.172 23.5917 798.916 23.8317C798.676 24.0717 798.388 24.1917 798.052 24.1917Z" fill="#0D1117"/>
<path d="M788.793 27.3839H795.081V28.7759H788.793V27.3839ZM792.753 38.9999H791.121V23.7119H792.753V38.9999Z" fill="#0D1117"/>
<path d="M784.984 27.3844H786.64V39.0004H785.2L784.984 37.0324C784.664 37.7044 784.128 38.2484 783.376 38.6644C782.64 39.0804 781.816 39.2884 780.904 39.2884C779.544 39.2884 778.496 38.8564 777.76 37.9924C777.04 37.1284 776.68 35.9924 776.68 34.5844V27.3604H778.36V34.0564C778.36 35.4324 778.64 36.4004 779.2 36.9604C779.776 37.5204 780.52 37.8004 781.432 37.8004C782.552 37.8004 783.424 37.4404 784.048 36.7204C784.672 35.9844 784.984 34.9284 784.984 33.5524V27.3844Z" fill="#0D1117"/>
<path d="M773.301 38.9999H771.645V21.5039H773.301V38.9999Z" fill="#0D1117"/>
<path d="M757.113 33.1923C757.113 31.9923 757.369 30.9363 757.881 30.0243C758.393 29.1123 759.097 28.3923 759.993 27.8643C760.889 27.3363 761.897 27.0723 763.017 27.0723C764.153 27.0723 765.161 27.3363 766.041 27.8643C766.937 28.3923 767.641 29.1123 768.153 30.0243C768.665 30.9363 768.921 31.9923 768.921 33.1923C768.921 34.3603 768.665 35.4083 768.153 36.3363C767.641 37.2483 766.937 37.9683 766.041 38.4963C765.161 39.0243 764.153 39.2883 763.017 39.2883C761.897 39.2883 760.889 39.0243 759.993 38.4963C759.097 37.9683 758.393 37.2483 757.881 36.3363C757.369 35.4083 757.113 34.3603 757.113 33.1923ZM758.793 33.1683C758.793 34.0803 758.969 34.8883 759.321 35.5923C759.689 36.2803 760.185 36.8243 760.809 37.2243C761.449 37.6083 762.185 37.8003 763.017 37.8003C763.849 37.8003 764.577 37.6083 765.201 37.2243C765.841 36.8243 766.337 36.2803 766.689 35.5923C767.057 34.8883 767.241 34.0803 767.241 33.1683C767.241 32.2723 767.057 31.4803 766.689 30.7923C766.337 30.1043 765.841 29.5603 765.201 29.1603C764.577 28.7603 763.849 28.5603 763.017 28.5603C762.185 28.5603 761.449 28.7603 760.809 29.1603C760.185 29.5603 759.689 30.1043 759.321 30.7923C758.969 31.4803 758.793 32.2723 758.793 33.1683Z" fill="#0D1117"/>
<path d="M743.736 26.2799C743.736 25.3199 743.976 24.4879 744.456 23.7839C744.936 23.0639 745.608 22.5039 746.472 22.1039C747.336 21.7039 748.344 21.5039 749.496 21.5039C750.536 21.5039 751.44 21.6879 752.208 22.0559C752.992 22.4239 753.616 22.9519 754.08 23.6399C754.544 24.3279 754.816 25.1519 754.896 26.1119H753.144C753.048 25.1519 752.68 24.4079 752.04 23.8799C751.4 23.3359 750.544 23.0639 749.472 23.0639C748.272 23.0639 747.304 23.3519 746.568 23.9279C745.832 24.5039 745.464 25.2799 745.464 26.2559C745.464 27.0079 745.688 27.6319 746.136 28.1279C746.584 28.6079 747.256 28.9599 748.152 29.1839L751.104 29.9039C752.448 30.2239 753.464 30.7679 754.152 31.5359C754.84 32.2879 755.184 33.2479 755.184 34.4159C755.184 35.3919 754.944 36.2479 754.464 36.9839C753.984 37.7199 753.304 38.2879 752.424 38.6879C751.544 39.0879 750.512 39.2879 749.328 39.2879C748.224 39.2879 747.24 39.1039 746.376 38.7359C745.528 38.3679 744.856 37.8399 744.36 37.1519C743.88 36.4639 743.6 35.6559 743.52 34.7279H745.296C745.344 35.6399 745.736 36.3679 746.472 36.9119C747.208 37.4399 748.16 37.7039 749.328 37.7039C750.592 37.7039 751.592 37.4159 752.328 36.8399C753.08 36.2639 753.456 35.4879 753.456 34.5119C753.456 33.7279 753.232 33.0959 752.784 32.6159C752.352 32.1199 751.672 31.7599 750.744 31.5359L747.84 30.8159C746.496 30.4959 745.472 29.9599 744.768 29.2079C744.08 28.4399 743.736 27.4639 743.736 26.2799Z" fill="#0D1117"/>
<path d="M728.294 39.2879C727.174 39.2879 726.214 39.0239 725.414 38.4959C724.614 37.9679 723.998 37.2479 723.566 36.3359C723.134 35.4079 722.918 34.3679 722.918 33.2159C722.918 32.0479 723.134 30.9999 723.566 30.0719C723.998 29.1439 724.614 28.4159 725.414 27.8879C726.23 27.3439 727.214 27.0719 728.366 27.0719C729.326 27.0719 730.174 27.2799 730.91 27.6959C731.662 28.1119 732.238 28.7439 732.638 29.5919V21.5039H734.294V38.9999H732.854L732.686 36.6239C732.27 37.5199 731.678 38.1919 730.91 38.6399C730.142 39.0719 729.27 39.2879 728.294 39.2879ZM728.582 37.7759C729.446 37.7759 730.174 37.5839 730.766 37.1999C731.358 36.7999 731.814 36.2559 732.134 35.5679C732.454 34.8639 732.614 34.0639 732.614 33.1679C732.614 32.2719 732.454 31.4799 732.134 30.7919C731.814 30.1039 731.358 29.5599 730.766 29.1599C730.174 28.7599 729.446 28.5599 728.582 28.5599C727.75 28.5599 727.03 28.7599 726.422 29.1599C725.83 29.5599 725.374 30.1039 725.054 30.7919C724.75 31.4799 724.598 32.2719 724.598 33.1679C724.598 34.0639 724.75 34.8639 725.054 35.5679C725.374 36.2559 725.83 36.7999 726.422 37.1999C727.03 37.5839 727.75 37.7759 728.582 37.7759Z" fill="#0D1117"/>
<path d="M718.867 27.3844H720.523V39.0004H719.083L718.867 37.0324C718.547 37.7044 718.01 38.2484 717.258 38.6644C716.522 39.0804 715.698 39.2884 714.786 39.2884C713.426 39.2884 712.379 38.8564 711.643 37.9924C710.923 37.1284 710.562 35.9924 710.562 34.5844V27.3604H712.243V34.0564C712.243 35.4324 712.523 36.4004 713.083 36.9604C713.659 37.5204 714.402 37.8004 715.314 37.8004C716.434 37.8004 717.306 37.4404 717.931 36.7204C718.555 35.9844 718.867 34.9284 718.867 33.5524V27.3844Z" fill="#0D1117"/>
<path d="M696.527 33.1923C696.527 31.9923 696.783 30.9363 697.295 30.0243C697.807 29.1123 698.511 28.3923 699.407 27.8643C700.303 27.3363 701.311 27.0723 702.431 27.0723C703.567 27.0723 704.575 27.3363 705.455 27.8643C706.351 28.3923 707.055 29.1123 707.567 30.0243C708.079 30.9363 708.335 31.9923 708.335 33.1923C708.335 34.3603 708.079 35.4083 707.567 36.3363C707.055 37.2483 706.351 37.9683 705.455 38.4963C704.575 39.0243 703.567 39.2883 702.431 39.2883C701.311 39.2883 700.303 39.0243 699.407 38.4963C698.511 37.9683 697.807 37.2483 697.295 36.3363C696.783 35.4083 696.527 34.3603 696.527 33.1923ZM698.207 33.1683C698.207 34.0803 698.383 34.8883 698.735 35.5923C699.103 36.2803 699.599 36.8243 700.223 37.2243C700.863 37.6083 701.599 37.8003 702.431 37.8003C703.263 37.8003 703.991 37.6083 704.615 37.2243C705.255 36.8243 705.751 36.2803 706.103 35.5923C706.471 34.8883 706.655 34.0803 706.655 33.1683C706.655 32.2723 706.471 31.4803 706.103 30.7923C705.751 30.1043 705.255 29.5603 704.615 29.1603C703.991 28.7603 703.263 28.5603 702.431 28.5603C701.599 28.5603 700.863 28.7603 700.223 29.1603C699.599 29.5603 699.103 30.1043 698.735 30.7923C698.383 31.4803 698.207 32.2723 698.207 33.1683Z" fill="#0D1117"/>
<path d="M693.824 38.9999H692.168V21.5039H693.824V38.9999Z" fill="#0D1117"/>
<path d="M682.095 39.2643C680.495 39.2643 679.087 38.8963 677.871 38.1603C676.671 37.4083 675.727 36.3683 675.039 35.0403C674.367 33.7123 674.031 32.1683 674.031 30.4083C674.031 28.6483 674.375 27.1043 675.063 25.7763C675.751 24.4323 676.711 23.3923 677.943 22.6563C679.175 21.9043 680.591 21.5283 682.191 21.5283C683.439 21.5283 684.567 21.7603 685.575 22.2243C686.583 22.6883 687.431 23.3443 688.119 24.1923C688.807 25.0243 689.263 26.0163 689.487 27.1683H687.639C687.271 25.9203 686.599 24.9443 685.623 24.2403C684.647 23.5363 683.479 23.1843 682.119 23.1843C680.871 23.1843 679.767 23.4883 678.807 24.0963C677.863 24.6883 677.127 25.5283 676.599 26.6163C676.087 27.6883 675.831 28.9523 675.831 30.4083C675.831 31.8323 676.095 33.0883 676.623 34.1763C677.151 35.2643 677.887 36.1123 678.831 36.7203C679.775 37.3123 680.871 37.6083 682.119 37.6083C683.479 37.6083 684.663 37.2643 685.671 36.5763C686.679 35.8883 687.367 34.9763 687.735 33.8403H689.583C689.327 34.9123 688.839 35.8563 688.119 36.6723C687.415 37.4883 686.543 38.1283 685.503 38.5923C684.463 39.0403 683.327 39.2643 682.095 39.2643Z" fill="#0D1117"/>
<rect x="280" y="92" width="182" height="60" rx="16" fill="white"/>
<path d="M436.312 127.736H437.896C437.896 128.408 438.137 128.944 438.617 129.344C439.097 129.728 439.736 129.92 440.536 129.92C441.432 129.92 442.128 129.744 442.624 129.392C443.136 129.024 443.393 128.528 443.393 127.904C443.393 127.424 443.256 127.04 442.984 126.752C442.712 126.464 442.232 126.232 441.544 126.056L439.552 125.552C438.544 125.296 437.792 124.904 437.296 124.376C436.8 123.848 436.552 123.192 436.552 122.408C436.552 121.736 436.728 121.152 437.08 120.656C437.432 120.144 437.92 119.752 438.544 119.48C439.184 119.208 439.921 119.072 440.753 119.072C441.569 119.072 442.281 119.216 442.889 119.504C443.497 119.792 443.969 120.2 444.305 120.728C444.657 121.24 444.84 121.856 444.856 122.576H443.249C443.233 121.888 443 121.36 442.552 120.992C442.104 120.624 441.488 120.44 440.704 120.44C439.888 120.44 439.257 120.608 438.809 120.944C438.377 121.28 438.16 121.76 438.16 122.384C438.16 123.28 438.793 123.888 440.057 124.208L442.048 124.712C443.056 124.968 443.793 125.344 444.257 125.84C444.737 126.336 444.977 127 444.977 127.832C444.977 128.52 444.792 129.128 444.424 129.656C444.056 130.184 443.537 130.592 442.865 130.88C442.209 131.152 441.441 131.288 440.561 131.288C439.265 131.288 438.232 130.968 437.464 130.328C436.696 129.672 436.312 128.808 436.312 127.736Z" fill="#0D1117"/>
<path d="M429.489 131.288C428.369 131.288 427.377 131.032 426.513 130.52C425.665 130.008 425.001 129.296 424.521 128.384C424.041 127.472 423.801 126.408 423.801 125.192C423.801 123.992 424.033 122.936 424.497 122.024C424.977 121.096 425.633 120.376 426.465 119.864C427.297 119.336 428.265 119.072 429.369 119.072C430.425 119.072 431.345 119.304 432.129 119.768C432.929 120.232 433.545 120.88 433.977 121.712C434.425 122.528 434.649 123.488 434.649 124.592V125.408H424.713L424.761 124.208H432.993C432.993 123.088 432.657 122.192 431.985 121.52C431.329 120.832 430.457 120.488 429.369 120.488C428.569 120.488 427.865 120.672 427.257 121.04C426.665 121.408 426.209 121.936 425.889 122.624C425.569 123.296 425.409 124.096 425.409 125.024C425.409 126.56 425.761 127.752 426.465 128.6C427.185 129.448 428.201 129.872 429.513 129.872C430.457 129.872 431.233 129.672 431.841 129.272C432.449 128.872 432.857 128.288 433.065 127.52H434.649C434.345 128.736 433.753 129.672 432.873 130.328C431.993 130.968 430.865 131.288 429.489 131.288Z" fill="#0D1117"/>
<path d="M422.861 119.24V120.728H421.949C420.877 120.728 420.021 121.056 419.381 121.712C418.757 122.368 418.445 123.256 418.445 124.376V131H416.789V119.384H418.349L418.493 121.664H418.325C418.485 120.912 418.877 120.304 419.501 119.84C420.125 119.36 420.885 119.12 421.781 119.12C421.957 119.12 422.133 119.128 422.309 119.144C422.485 119.16 422.669 119.192 422.861 119.24Z" fill="#0D1117"/>
<path d="M402.332 125.192C402.332 123.992 402.588 122.936 403.1 122.024C403.612 121.112 404.316 120.392 405.212 119.864C406.108 119.336 407.116 119.072 408.236 119.072C409.372 119.072 410.38 119.336 411.26 119.864C412.156 120.392 412.86 121.112 413.372 122.024C413.884 122.936 414.14 123.992 414.14 125.192C414.14 126.36 413.884 127.408 413.372 128.336C412.86 129.248 412.156 129.968 411.26 130.496C410.38 131.024 409.372 131.288 408.236 131.288C407.116 131.288 406.108 131.024 405.212 130.496C404.316 129.968 403.612 129.248 403.1 128.336C402.588 127.408 402.332 126.36 402.332 125.192ZM404.012 125.168C404.012 126.08 404.188 126.888 404.54 127.592C404.908 128.28 405.404 128.824 406.028 129.224C406.668 129.608 407.404 129.8 408.236 129.8C409.068 129.8 409.796 129.608 410.42 129.224C411.06 128.824 411.556 128.28 411.908 127.592C412.276 126.888 412.46 126.08 412.46 125.168C412.46 124.272 412.276 123.48 411.908 122.792C411.556 122.104 411.06 121.56 410.42 121.16C409.796 120.76 409.068 120.56 408.236 120.56C407.404 120.56 406.668 120.76 406.028 121.16C405.404 121.56 404.908 122.104 404.54 122.792C404.188 123.48 404.012 124.272 404.012 125.168Z" fill="#0D1117"/>
<path d="M394.824 119.384H401.112V120.776H394.824V119.384ZM398.784 131H397.152V115.712H398.784V131Z" fill="#0D1117"/>
<path d="M381.923 118.28C381.923 117.32 382.163 116.488 382.643 115.784C383.123 115.064 383.795 114.504 384.659 114.104C385.523 113.704 386.531 113.504 387.683 113.504C388.723 113.504 389.627 113.688 390.395 114.056C391.179 114.424 391.803 114.952 392.267 115.64C392.731 116.328 393.003 117.152 393.083 118.112H391.331C391.235 117.152 390.867 116.408 390.227 115.88C389.587 115.336 388.731 115.064 387.659 115.064C386.459 115.064 385.491 115.352 384.755 115.928C384.019 116.504 383.651 117.28 383.651 118.256C383.651 119.008 383.875 119.632 384.323 120.128C384.771 120.608 385.443 120.96 386.339 121.184L389.291 121.904C390.635 122.224 391.651 122.768 392.339 123.536C393.027 124.288 393.371 125.248 393.371 126.416C393.371 127.392 393.131 128.248 392.651 128.984C392.171 129.72 391.491 130.288 390.611 130.688C389.731 131.088 388.699 131.288 387.515 131.288C386.411 131.288 385.427 131.104 384.563 130.736C383.715 130.368 383.043 129.84 382.547 129.152C382.067 128.464 381.787 127.656 381.707 126.728H383.483C383.531 127.64 383.923 128.368 384.659 128.912C385.395 129.44 386.347 129.704 387.515 129.704C388.779 129.704 389.779 129.416 390.515 128.84C391.267 128.264 391.643 127.488 391.643 126.512C391.643 125.728 391.419 125.096 390.971 124.616C390.539 124.12 389.859 123.76 388.931 123.536L386.027 122.816C384.683 122.496 383.659 121.96 382.955 121.208C382.267 120.44 381.923 119.464 381.923 118.28Z" fill="#0D1117"/>
<path d="M364.881 119.384L369.249 131.24L368.025 132.2L363.129 119.384H364.881ZM363.465 136.064V134.696H364.737C365.073 134.696 365.401 134.664 365.721 134.6C366.057 134.552 366.361 134.416 366.633 134.192C366.921 133.968 367.153 133.592 367.329 133.064L372.297 119.384H374.001L368.673 133.664C368.337 134.576 367.881 135.232 367.305 135.632C366.745 136.032 366.049 136.232 365.217 136.232C364.881 136.232 364.569 136.216 364.281 136.184C363.993 136.168 363.721 136.128 363.465 136.064Z" fill="#0D1117"/>
<path d="M356.223 119.384H362.391V120.776H356.223V119.384ZM362.487 113.6V115.016C362.375 115.016 362.231 115.016 362.055 115.016C361.879 115.016 361.695 115.016 361.503 115.016C360.767 115.016 360.271 115.2 360.015 115.568C359.775 115.92 359.655 116.44 359.655 117.128V131H357.999V117.128C357.999 116.264 358.143 115.568 358.431 115.04C358.719 114.496 359.103 114.104 359.583 113.864C360.079 113.624 360.623 113.504 361.215 113.504C361.423 113.504 361.639 113.512 361.863 113.528C362.087 113.544 362.295 113.568 362.487 113.6Z" fill="#0D1117"/>
<path d="M352.408 131V119.384H354.064V131H352.408ZM353.224 116.192C352.888 116.192 352.6 116.072 352.36 115.832C352.12 115.592 352 115.304 352 114.968C352 114.632 352.12 114.344 352.36 114.104C352.6 113.848 352.888 113.72 353.224 113.72C353.56 113.72 353.848 113.848 354.088 114.104C354.344 114.344 354.472 114.632 354.472 114.968C354.472 115.304 354.344 115.592 354.088 115.832C353.848 116.072 353.56 116.192 353.224 116.192Z" fill="#0D1117"/>
<path d="M338.391 136.064V119.384H339.831L339.999 121.736C340.415 120.84 341.007 120.176 341.775 119.744C342.559 119.296 343.431 119.072 344.391 119.072C345.511 119.072 346.471 119.336 347.271 119.864C348.071 120.392 348.687 121.112 349.119 122.024C349.551 122.936 349.767 123.976 349.767 125.144C349.767 126.312 349.551 127.36 349.119 128.288C348.703 129.216 348.095 129.952 347.295 130.496C346.511 131.024 345.543 131.288 344.391 131.288C343.399 131.288 342.527 131.08 341.775 130.664C341.023 130.232 340.447 129.6 340.047 128.768V136.064H338.391ZM340.071 125.192C340.071 126.072 340.231 126.864 340.551 127.568C340.871 128.256 341.327 128.8 341.919 129.2C342.527 129.6 343.255 129.8 344.103 129.8C344.951 129.8 345.671 129.6 346.263 129.2C346.855 128.8 347.303 128.256 347.607 127.568C347.927 126.864 348.087 126.072 348.087 125.192C348.087 124.296 347.927 123.504 347.607 122.816C347.303 122.112 346.855 121.568 346.263 121.184C345.671 120.784 344.951 120.584 344.103 120.584C343.255 120.584 342.527 120.784 341.919 121.184C341.327 121.568 340.871 122.112 340.551 122.816C340.231 123.504 340.071 124.296 340.071 125.192Z" fill="#0D1117"/>
<path d="M323.934 125.192C323.934 123.992 324.19 122.936 324.702 122.024C325.214 121.112 325.918 120.392 326.814 119.864C327.71 119.336 328.718 119.072 329.838 119.072C330.974 119.072 331.982 119.336 332.862 119.864C333.758 120.392 334.462 121.112 334.974 122.024C335.486 122.936 335.742 123.992 335.742 125.192C335.742 126.36 335.486 127.408 334.974 128.336C334.462 129.248 333.758 129.968 332.862 130.496C331.982 131.024 330.974 131.288 329.838 131.288C328.718 131.288 327.71 131.024 326.814 130.496C325.918 129.968 325.214 129.248 324.702 128.336C324.19 127.408 323.934 126.36 323.934 125.192ZM325.614 125.168C325.614 126.08 325.79 126.888 326.142 127.592C326.51 128.28 327.006 128.824 327.63 129.224C328.27 129.608 329.006 129.8 329.838 129.8C330.67 129.8 331.398 129.608 332.022 129.224C332.662 128.824 333.158 128.28 333.51 127.592C333.878 126.888 334.062 126.08 334.062 125.168C334.062 124.272 333.878 123.48 333.51 122.792C333.158 122.104 332.662 121.56 332.022 121.16C331.398 120.76 330.67 120.56 329.838 120.56C329.006 120.56 328.27 120.76 327.63 121.16C327.006 121.56 326.51 122.104 326.142 122.792C325.79 123.48 325.614 124.272 325.614 125.168Z" fill="#0D1117"/>
<path d="M312.929 130.976H311.273V113.504H312.929V121.4C313.297 120.696 313.825 120.136 314.513 119.72C315.217 119.288 316.057 119.072 317.033 119.072C318.569 119.072 319.689 119.512 320.393 120.392C321.097 121.272 321.449 122.44 321.449 123.896V131H319.793V124.256C319.793 123.344 319.665 122.624 319.409 122.096C319.153 121.552 318.793 121.168 318.329 120.944C317.865 120.704 317.329 120.584 316.721 120.584C315.889 120.584 315.193 120.768 314.633 121.136C314.073 121.504 313.649 122 313.361 122.624C313.073 123.232 312.929 123.912 312.929 124.664V130.976Z" fill="#0D1117"/>
<path d="M297.079 118.28C297.079 117.32 297.319 116.488 297.799 115.784C298.279 115.064 298.951 114.504 299.815 114.104C300.679 113.704 301.687 113.504 302.839 113.504C303.879 113.504 304.783 113.688 305.551 114.056C306.335 114.424 306.959 114.952 307.423 115.64C307.887 116.328 308.159 117.152 308.239 118.112H306.487C306.391 117.152 306.023 116.408 305.383 115.88C304.743 115.336 303.887 115.064 302.815 115.064C301.615 115.064 300.647 115.352 299.911 115.928C299.175 116.504 298.807 117.28 298.807 118.256C298.807 119.008 299.031 119.632 299.479 120.128C299.927 120.608 300.599 120.96 301.495 121.184L304.447 121.904C305.791 122.224 306.807 122.768 307.495 123.536C308.183 124.288 308.527 125.248 308.527 126.416C308.527 127.392 308.287 128.248 307.807 128.984C307.327 129.72 306.647 130.288 305.767 130.688C304.887 131.088 303.855 131.288 302.671 131.288C301.567 131.288 300.583 131.104 299.719 130.736C298.871 130.368 298.199 129.84 297.703 129.152C297.223 128.464 296.943 127.656 296.863 126.728H298.639C298.687 127.64 299.079 128.368 299.815 128.912C300.551 129.44 301.503 129.704 302.671 129.704C303.935 129.704 304.935 129.416 305.671 128.84C306.423 128.264 306.799 127.488 306.799 126.512C306.799 125.728 306.575 125.096 306.127 124.616C305.695 124.12 305.015 123.76 304.087 123.536L301.183 122.816C299.839 122.496 298.815 121.96 298.111 121.208C297.423 120.44 297.079 119.464 297.079 118.28Z" fill="#0D1117"/>
<rect x="494" y="92" width="181" height="60" rx="16" fill="white"/>
<path d="M649.273 127.736H650.857C650.857 128.408 651.097 128.944 651.577 129.344C652.057 129.728 652.697 129.92 653.497 129.92C654.393 129.92 655.089 129.744 655.585 129.392C656.097 129.024 656.353 128.528 656.353 127.904C656.353 127.424 656.217 127.04 655.945 126.752C655.673 126.464 655.193 126.232 654.505 126.056L652.513 125.552C651.505 125.296 650.753 124.904 650.257 124.376C649.761 123.848 649.513 123.192 649.513 122.408C649.513 121.736 649.689 121.152 650.041 120.656C650.393 120.144 650.881 119.752 651.505 119.48C652.145 119.208 652.881 119.072 653.713 119.072C654.529 119.072 655.241 119.216 655.849 119.504C656.457 119.792 656.929 120.2 657.265 120.728C657.617 121.24 657.801 121.856 657.817 122.576H656.209C656.193 121.888 655.961 121.36 655.513 120.992C655.065 120.624 654.449 120.44 653.665 120.44C652.849 120.44 652.217 120.608 651.769 120.944C651.337 121.28 651.121 121.76 651.121 122.384C651.121 123.28 651.753 123.888 653.017 124.208L655.009 124.712C656.017 124.968 656.753 125.344 657.217 125.84C657.697 126.336 657.937 127 657.937 127.832C657.937 128.52 657.753 129.128 657.385 129.656C657.017 130.184 656.497 130.592 655.825 130.88C655.169 131.152 654.401 131.288 653.521 131.288C652.225 131.288 651.193 130.968 650.425 130.328C649.657 129.672 649.273 128.808 649.273 127.736Z" fill="#0D1117"/>
<path d="M638.578 131H636.922V119.384H638.362L638.602 121.4C638.986 120.664 639.53 120.096 640.234 119.696C640.954 119.28 641.738 119.072 642.586 119.072C644.186 119.072 645.338 119.512 646.042 120.392C646.746 121.272 647.098 122.44 647.098 123.896V131H645.442V124.256C645.442 122.896 645.154 121.944 644.578 121.4C644.018 120.856 643.258 120.584 642.298 120.584C641.114 120.584 640.194 120.984 639.538 121.784C638.898 122.568 638.578 123.616 638.578 124.928V131Z" fill="#0D1117"/>
<path d="M622.117 124.856C622.117 123.8 622.333 122.84 622.765 121.976C623.197 121.096 623.821 120.392 624.637 119.864C625.453 119.336 626.429 119.072 627.565 119.072C628.669 119.072 629.613 119.344 630.397 119.888C631.181 120.432 631.741 121.216 632.077 122.24L631.813 122.576L632.029 119.384H633.469V130.64C633.469 131.792 633.237 132.792 632.773 133.64C632.309 134.504 631.653 135.168 630.805 135.632C629.973 136.112 628.989 136.352 627.853 136.352C626.365 136.352 625.133 135.952 624.157 135.152C623.181 134.352 622.573 133.256 622.333 131.864H623.989C624.165 132.808 624.589 133.536 625.261 134.048C625.949 134.576 626.821 134.84 627.877 134.84C629.077 134.84 630.037 134.472 630.757 133.736C631.477 133 631.837 132.024 631.837 130.808V127.16L632.077 127.472C631.741 128.448 631.157 129.224 630.325 129.8C629.509 130.36 628.549 130.64 627.445 130.64C626.341 130.64 625.389 130.376 624.589 129.848C623.789 129.32 623.173 128.624 622.741 127.76C622.325 126.88 622.117 125.912 622.117 124.856ZM623.773 124.832C623.773 125.632 623.925 126.36 624.229 127.016C624.549 127.672 624.997 128.192 625.573 128.576C626.165 128.96 626.869 129.152 627.685 129.152C628.517 129.152 629.229 128.968 629.821 128.6C630.429 128.216 630.893 127.704 631.213 127.064C631.533 126.408 631.693 125.664 631.693 124.832C631.693 124 631.533 123.264 631.213 122.624C630.909 121.984 630.461 121.48 629.869 121.112C629.293 120.728 628.573 120.536 627.709 120.536C626.877 120.536 626.165 120.736 625.573 121.136C624.997 121.52 624.549 122.04 624.229 122.696C623.925 123.336 623.773 124.048 623.773 124.832Z" fill="#0D1117"/>
<path d="M617.799 131V119.384H619.455V131H617.799ZM618.615 116.192C618.279 116.192 617.991 116.072 617.751 115.832C617.511 115.592 617.391 115.304 617.391 114.968C617.391 114.632 617.511 114.344 617.751 114.104C617.991 113.848 618.279 113.72 618.615 113.72C618.951 113.72 619.239 113.848 619.479 114.104C619.735 114.344 619.863 114.632 619.863 114.968C619.863 115.304 619.735 115.592 619.479 115.832C619.239 116.072 618.951 116.192 618.615 116.192Z" fill="#0D1117"/>
<path d="M606.406 127.736H607.99C607.99 128.408 608.23 128.944 608.71 129.344C609.19 129.728 609.83 129.92 610.63 129.92C611.526 129.92 612.222 129.744 612.718 129.392C613.23 129.024 613.486 128.528 613.486 127.904C613.486 127.424 613.35 127.04 613.078 126.752C612.806 126.464 612.326 126.232 611.638 126.056L609.646 125.552C608.638 125.296 607.886 124.904 607.39 124.376C606.894 123.848 606.646 123.192 606.646 122.408C606.646 121.736 606.822 121.152 607.174 120.656C607.526 120.144 608.014 119.752 608.638 119.48C609.278 119.208 610.014 119.072 610.846 119.072C611.662 119.072 612.374 119.216 612.982 119.504C613.59 119.792 614.062 120.2 614.398 120.728C614.75 121.24 614.934 121.856 614.95 122.576H613.342C613.326 121.888 613.094 121.36 612.646 120.992C612.198 120.624 611.582 120.44 610.798 120.44C609.982 120.44 609.35 120.608 608.902 120.944C608.47 121.28 608.254 121.76 608.254 122.384C608.254 123.28 608.886 123.888 610.15 124.208L612.142 124.712C613.15 124.968 613.886 125.344 614.35 125.84C614.83 126.336 615.07 127 615.07 127.832C615.07 128.52 614.886 129.128 614.518 129.656C614.15 130.184 613.63 130.592 612.958 130.88C612.302 131.152 611.534 131.288 610.654 131.288C609.358 131.288 608.326 130.968 607.558 130.328C606.79 129.672 606.406 128.808 606.406 127.736Z" fill="#0D1117"/>
<path d="M599.583 131.288C598.463 131.288 597.471 131.032 596.607 130.52C595.759 130.008 595.095 129.296 594.615 128.384C594.135 127.472 593.895 126.408 593.895 125.192C593.895 123.992 594.127 122.936 594.591 122.024C595.071 121.096 595.727 120.376 596.559 119.864C597.391 119.336 598.359 119.072 599.463 119.072C600.519 119.072 601.439 119.304 602.223 119.768C603.023 120.232 603.639 120.88 604.071 121.712C604.519 122.528 604.743 123.488 604.743 124.592V125.408H594.807L594.855 124.208H603.087C603.087 123.088 602.751 122.192 602.079 121.52C601.423 120.832 600.551 120.488 599.463 120.488C598.663 120.488 597.959 120.672 597.351 121.04C596.759 121.408 596.303 121.936 595.983 122.624C595.663 123.296 595.503 124.096 595.503 125.024C595.503 126.56 595.855 127.752 596.559 128.6C597.279 129.448 598.295 129.872 599.607 129.872C600.551 129.872 601.327 129.672 601.935 129.272C602.543 128.872 602.951 128.288 603.159 127.52H604.743C604.439 128.736 603.847 129.672 602.967 130.328C602.087 130.968 600.959 131.288 599.583 131.288Z" fill="#0D1117"/>
<path d="M585.255 131.288C584.135 131.288 583.175 131.024 582.375 130.496C581.575 129.968 580.959 129.248 580.527 128.336C580.095 127.408 579.879 126.368 579.879 125.216C579.879 124.048 580.095 123 580.527 122.072C580.959 121.144 581.575 120.416 582.375 119.888C583.191 119.344 584.175 119.072 585.327 119.072C586.287 119.072 587.135 119.28 587.871 119.696C588.623 120.112 589.199 120.744 589.599 121.592V113.504H591.255V131H589.815L589.647 128.624C589.231 129.52 588.639 130.192 587.871 130.64C587.103 131.072 586.231 131.288 585.255 131.288ZM585.543 129.776C586.407 129.776 587.135 129.584 587.727 129.2C588.319 128.8 588.775 128.256 589.095 127.568C589.415 126.864 589.575 126.064 589.575 125.168C589.575 124.272 589.415 123.48 589.095 122.792C588.775 122.104 588.319 121.56 587.727 121.16C587.135 120.76 586.407 120.56 585.543 120.56C584.711 120.56 583.991 120.76 583.383 121.16C582.791 121.56 582.335 122.104 582.015 122.792C581.711 123.48 581.559 124.272 581.559 125.168C581.559 126.064 581.711 126.864 582.015 127.568C582.335 128.256 582.791 128.8 583.383 129.2C583.991 129.584 584.711 129.776 585.543 129.776Z" fill="#0D1117"/>
<path d="M563.953 122.432L557.953 113.816H559.993L563.185 118.328C563.601 118.888 563.945 119.408 564.217 119.888C564.505 120.352 564.753 120.776 564.961 121.16L569.953 113.816H571.945L566.041 122.384L572.041 131H569.977L566.713 126.392C566.425 125.992 566.121 125.552 565.801 125.072C565.497 124.576 565.233 124.136 565.009 123.752L559.993 131H557.977L563.953 122.432Z" fill="#0D1117"/>
<path d="M542.945 125.024V113.816H544.673V124.952C544.673 126.456 545.073 127.608 545.873 128.408C546.673 129.208 547.825 129.608 549.329 129.608C550.785 129.608 551.913 129.208 552.713 128.408C553.513 127.592 553.913 126.44 553.913 124.952V113.816H555.641V125.024C555.641 126.32 555.385 127.44 554.873 128.384C554.377 129.312 553.657 130.032 552.713 130.544C551.769 131.04 550.641 131.288 549.329 131.288C548.001 131.288 546.857 131.04 545.897 130.544C544.953 130.048 544.225 129.328 543.713 128.384C543.201 127.44 542.945 126.32 542.945 125.024Z" fill="#0D1117"/>
<path d="M534.241 131H532.609L539.305 113.816H540.985L534.241 131Z" fill="#0D1117"/>
<path d="M530.521 113.816V131H528.793V113.816H530.521Z" fill="#0D1117"/>
<path d="M512.031 125.024V113.816H513.759V124.952C513.759 126.456 514.159 127.608 514.959 128.408C515.759 129.208 516.911 129.608 518.415 129.608C519.871 129.608 520.999 129.208 521.799 128.408C522.599 127.592 522.999 126.44 522.999 124.952V113.816H524.727V125.024C524.727 126.32 524.471 127.44 523.959 128.384C523.463 129.312 522.743 130.032 521.799 130.544C520.855 131.04 519.727 131.288 518.415 131.288C517.087 131.288 515.943 131.04 514.983 130.544C514.039 130.048 513.311 129.328 512.799 128.384C512.287 127.44 512.031 126.32 512.031 125.024Z" fill="#0D1117"/>
</svg>
