<svg width="1000" height="200" viewBox="0 0 1000 200" fill="none" xmlns="http://www.w3.org/2000/svg">
<mask id="path-1-inside-1_486_579" fill="white">
<path d="M0 0H333V200H0V0Z"/>
</mask>
<path d="M333 0H334V-1H333V0ZM333 200V201H334V200H333ZM0 0V1H333V0V-1H0V0ZM333 0H332V200H333H334V0H333ZM333 200V199H0V200V201H333V200Z" fill="white" fill-opacity="0.15" mask="url(#path-1-inside-1_486_579)"/>
<mask id="path-3-inside-2_486_579" fill="white">
<path d="M333 0H667V200H333V0Z"/>
</mask>
<path d="M333 0V1H667V0V-1H333V0ZM667 200V199H333V200V201H667V200Z" fill="white" fill-opacity="0.15" mask="url(#path-3-inside-2_486_579)"/>
<mask id="path-5-inside-3_486_579" fill="white">
<path d="M667 0H1000V200H667V0Z"/>
</mask>
<path d="M667 0V-1H666V0H667ZM667 200H666V201H667V200ZM667 0V1H1000V0V-1H667V0ZM1000 200V199H667V200V201H1000V200ZM667 200H668V0H667H666V200H667Z" fill="white" fill-opacity="0.15" mask="url(#path-5-inside-3_486_579)"/>
<path d="M105.524 108.68V123H104.084V108.68H105.524ZM109.624 116.46H105.164V115.2H109.484C110.39 115.2 111.084 114.967 111.564 114.5C112.057 114.02 112.304 113.353 112.304 112.5C112.304 111.7 112.044 111.08 111.524 110.64C111.004 110.187 110.264 109.96 109.304 109.96H104.604V108.68H109.324C110.71 108.68 111.797 109.013 112.584 109.68C113.384 110.333 113.784 111.233 113.784 112.38C113.784 113.287 113.564 114.04 113.124 114.64C112.697 115.227 112.05 115.653 111.184 115.92V115.68C112.144 115.92 112.864 116.34 113.344 116.94C113.824 117.527 114.064 118.293 114.064 119.24C114.064 120 113.884 120.667 113.524 121.24C113.164 121.8 112.65 122.233 111.984 122.54C111.317 122.847 110.53 123 109.624 123H104.604V121.7H109.624C110.557 121.7 111.284 121.467 111.804 121C112.337 120.533 112.604 119.887 112.604 119.06C112.604 118.247 112.337 117.613 111.804 117.16C111.284 116.693 110.557 116.46 109.624 116.46ZM119.142 123.24C118.115 123.24 117.309 122.973 116.722 122.44C116.149 121.907 115.862 121.22 115.862 120.38C115.862 119.487 116.182 118.773 116.822 118.24C117.462 117.707 118.349 117.393 119.482 117.3L122.682 117.04V116.72C122.682 116.08 122.569 115.58 122.342 115.22C122.115 114.847 121.809 114.587 121.422 114.44C121.035 114.293 120.602 114.22 120.122 114.22C119.269 114.22 118.609 114.4 118.142 114.76C117.675 115.12 117.442 115.627 117.442 116.28H116.182C116.182 115.627 116.349 115.06 116.682 114.58C117.015 114.1 117.482 113.727 118.082 113.46C118.682 113.193 119.375 113.06 120.162 113.06C120.922 113.06 121.589 113.193 122.162 113.46C122.735 113.713 123.189 114.113 123.522 114.66C123.869 115.193 124.042 115.887 124.042 116.74V123H122.882L122.702 121.3C122.409 121.913 121.942 122.393 121.302 122.74C120.675 123.073 119.955 123.24 119.142 123.24ZM119.462 122.12C120.489 122.12 121.282 121.793 121.842 121.14C122.402 120.487 122.682 119.64 122.682 118.6V118.08L119.822 118.3C118.915 118.38 118.262 118.607 117.862 118.98C117.462 119.353 117.262 119.807 117.262 120.34C117.262 120.927 117.462 121.373 117.862 121.68C118.262 121.973 118.795 122.12 119.462 122.12ZM125.991 120.28H127.311C127.311 120.84 127.511 121.287 127.911 121.62C128.311 121.94 128.844 122.1 129.511 122.1C130.258 122.1 130.838 121.953 131.251 121.66C131.678 121.353 131.891 120.94 131.891 120.42C131.891 120.02 131.778 119.7 131.551 119.46C131.324 119.22 130.924 119.027 130.351 118.88L128.691 118.46C127.851 118.247 127.224 117.92 126.811 117.48C126.398 117.04 126.191 116.493 126.191 115.84C126.191 115.28 126.338 114.793 126.631 114.38C126.924 113.953 127.331 113.627 127.851 113.4C128.384 113.173 128.998 113.06 129.691 113.06C130.371 113.06 130.964 113.18 131.471 113.42C131.978 113.66 132.371 114 132.651 114.44C132.944 114.867 133.098 115.38 133.111 115.98H131.771C131.758 115.407 131.564 114.967 131.191 114.66C130.818 114.353 130.304 114.2 129.651 114.2C128.971 114.2 128.444 114.34 128.071 114.62C127.711 114.9 127.531 115.3 127.531 115.82C127.531 116.567 128.058 117.073 129.111 117.34L130.771 117.76C131.611 117.973 132.224 118.287 132.611 118.7C133.011 119.113 133.211 119.667 133.211 120.36C133.211 120.933 133.058 121.44 132.751 121.88C132.444 122.32 132.011 122.66 131.451 122.9C130.904 123.127 130.264 123.24 129.531 123.24C128.451 123.24 127.591 122.973 126.951 122.44C126.311 121.893 125.991 121.173 125.991 120.28ZM139.543 123.24C138.61 123.24 137.783 123.027 137.063 122.6C136.356 122.173 135.803 121.58 135.403 120.82C135.003 120.06 134.803 119.173 134.803 118.16C134.803 117.16 134.996 116.28 135.383 115.52C135.783 114.747 136.33 114.147 137.023 113.72C137.716 113.28 138.523 113.06 139.443 113.06C140.323 113.06 141.09 113.253 141.743 113.64C142.41 114.027 142.923 114.567 143.283 115.26C143.656 115.94 143.843 116.74 143.843 117.66V118.34H135.563L135.603 117.34H142.463C142.463 116.407 142.183 115.66 141.623 115.1C141.076 114.527 140.35 114.24 139.443 114.24C138.776 114.24 138.19 114.393 137.683 114.7C137.19 115.007 136.81 115.447 136.543 116.02C136.276 116.58 136.143 117.247 136.143 118.02C136.143 119.3 136.436 120.293 137.023 121C137.623 121.707 138.47 122.06 139.563 122.06C140.35 122.06 140.996 121.893 141.503 121.56C142.01 121.227 142.35 120.74 142.523 120.1H143.843C143.59 121.113 143.096 121.893 142.363 122.44C141.63 122.973 140.69 123.24 139.543 123.24ZM149.849 123.24C148.916 123.24 148.116 123.02 147.449 122.58C146.783 122.14 146.269 121.54 145.909 120.78C145.549 120.007 145.369 119.14 145.369 118.18C145.369 117.207 145.549 116.333 145.909 115.56C146.269 114.787 146.783 114.18 147.449 113.74C148.129 113.287 148.949 113.06 149.909 113.06C150.709 113.06 151.416 113.233 152.029 113.58C152.656 113.927 153.136 114.453 153.469 115.16V108.42H154.849V123H153.649L153.509 121.02C153.163 121.767 152.669 122.327 152.029 122.7C151.389 123.06 150.663 123.24 149.849 123.24ZM150.089 121.98C150.809 121.98 151.416 121.82 151.909 121.5C152.403 121.167 152.783 120.713 153.049 120.14C153.316 119.553 153.449 118.887 153.449 118.14C153.449 117.393 153.316 116.733 153.049 116.16C152.783 115.587 152.403 115.133 151.909 114.8C151.416 114.467 150.809 114.3 150.089 114.3C149.396 114.3 148.796 114.467 148.289 114.8C147.796 115.133 147.416 115.587 147.149 116.16C146.896 116.733 146.769 117.393 146.769 118.14C146.769 118.887 146.896 119.553 147.149 120.14C147.416 120.713 147.796 121.167 148.289 121.5C148.796 121.82 149.396 121.98 150.089 121.98ZM163.276 123V113.32H164.656V123H163.276ZM163.956 110.66C163.676 110.66 163.436 110.56 163.236 110.36C163.036 110.16 162.936 109.92 162.936 109.64C162.936 109.36 163.036 109.12 163.236 108.92C163.436 108.707 163.676 108.6 163.956 108.6C164.236 108.6 164.476 108.707 164.676 108.92C164.889 109.12 164.996 109.36 164.996 109.64C164.996 109.92 164.889 110.16 164.676 110.36C164.476 110.56 164.236 110.66 163.956 110.66ZM168.914 123H167.534V113.32H168.734L168.934 115C169.254 114.387 169.707 113.913 170.294 113.58C170.894 113.233 171.547 113.06 172.254 113.06C173.587 113.06 174.547 113.427 175.134 114.16C175.72 114.893 176.014 115.867 176.014 117.08V123H174.634V117.38C174.634 116.247 174.394 115.453 173.914 115C173.447 114.547 172.814 114.32 172.014 114.32C171.027 114.32 170.26 114.653 169.714 115.32C169.18 115.973 168.914 116.847 168.914 117.94V123ZM188.971 123H184.611V108.68H188.931C190.371 108.68 191.631 108.98 192.711 109.58C193.791 110.18 194.631 111.02 195.231 112.1C195.831 113.167 196.131 114.413 196.131 115.84C196.131 117.267 195.831 118.52 195.231 119.6C194.644 120.667 193.811 121.5 192.731 122.1C191.664 122.7 190.411 123 188.971 123ZM186.051 109.36V122.32L185.391 121.68H188.911C190.084 121.68 191.098 121.44 191.951 120.96C192.804 120.48 193.464 119.807 193.931 118.94C194.411 118.06 194.651 117.027 194.651 115.84C194.651 114.653 194.411 113.62 193.931 112.74C193.464 111.86 192.798 111.187 191.931 110.72C191.078 110.24 190.058 110 188.871 110H185.391L186.051 109.36ZM202.492 123.24C201.559 123.24 200.732 123.027 200.012 122.6C199.306 122.173 198.752 121.58 198.352 120.82C197.952 120.06 197.752 119.173 197.752 118.16C197.752 117.16 197.946 116.28 198.332 115.52C198.732 114.747 199.279 114.147 199.972 113.72C200.666 113.28 201.472 113.06 202.392 113.06C203.272 113.06 204.039 113.253 204.692 113.64C205.359 114.027 205.872 114.567 206.232 115.26C206.606 115.94 206.792 116.74 206.792 117.66V118.34H198.512L198.552 117.34H205.412C205.412 116.407 205.132 115.66 204.572 115.1C204.026 114.527 203.299 114.24 202.392 114.24C201.726 114.24 201.139 114.393 200.632 114.7C200.139 115.007 199.759 115.447 199.492 116.02C199.226 116.58 199.092 117.247 199.092 118.02C199.092 119.3 199.386 120.293 199.972 121C200.572 121.707 201.419 122.06 202.512 122.06C203.299 122.06 203.946 121.893 204.452 121.56C204.959 121.227 205.299 120.74 205.472 120.1H206.792C206.539 121.113 206.046 121.893 205.312 122.44C204.579 122.973 203.639 123.24 202.492 123.24ZM210.439 123H209.059V108.42H210.439V123ZM214.754 122.98H213.374V108.42H214.754V115C215.06 114.413 215.5 113.947 216.074 113.6C216.66 113.24 217.36 113.06 218.174 113.06C219.454 113.06 220.387 113.427 220.974 114.16C221.56 114.893 221.854 115.867 221.854 117.08V123H220.474V117.38C220.474 116.62 220.367 116.02 220.154 115.58C219.94 115.127 219.64 114.807 219.254 114.62C218.867 114.42 218.42 114.32 217.914 114.32C217.22 114.32 216.64 114.473 216.174 114.78C215.707 115.087 215.354 115.5 215.114 116.02C214.874 116.527 214.754 117.093 214.754 117.72V122.98ZM224.604 123V113.32H225.984V123H224.604ZM225.284 110.66C225.004 110.66 224.764 110.56 224.564 110.36C224.364 110.16 224.264 109.92 224.264 109.64C224.264 109.36 224.364 109.12 224.564 108.92C224.764 108.707 225.004 108.6 225.284 108.6C225.564 108.6 225.804 108.707 226.004 108.92C226.217 109.12 226.324 109.36 226.324 109.64C226.324 109.92 226.217 110.16 226.004 110.36C225.804 110.56 225.564 110.66 225.284 110.66ZM230.342 122.8H230.442C230.375 122.867 230.289 122.92 230.182 122.96C230.089 123 229.969 123.02 229.822 123.02C229.555 123.02 229.315 122.927 229.102 122.74C228.889 122.54 228.782 122.273 228.782 121.94C228.782 121.593 228.889 121.307 229.102 121.08C229.329 120.853 229.615 120.74 229.962 120.74C230.322 120.74 230.635 120.88 230.902 121.16C231.169 121.44 231.302 121.827 231.302 122.32C231.302 122.733 231.202 123.12 231.002 123.48C230.815 123.84 230.555 124.133 230.222 124.36C229.889 124.6 229.515 124.753 229.102 124.82V124.08C229.462 124.013 229.755 123.86 229.982 123.62C230.222 123.393 230.342 123.12 230.342 122.8ZM149.41 135.68V150H147.97V135.68H149.41ZM153.972 150H152.592V140.32H153.792L153.992 142C154.312 141.387 154.766 140.913 155.352 140.58C155.952 140.233 156.606 140.06 157.312 140.06C158.646 140.06 159.606 140.427 160.192 141.16C160.779 141.893 161.072 142.867 161.072 144.08V150H159.692V144.38C159.692 143.247 159.452 142.453 158.972 142C158.506 141.547 157.872 141.32 157.072 141.32C156.086 141.32 155.319 141.653 154.772 142.32C154.239 142.973 153.972 143.847 153.972 144.94V150ZM167.623 150.24C166.689 150.24 165.889 150.02 165.223 149.58C164.556 149.14 164.043 148.54 163.683 147.78C163.323 147.007 163.143 146.14 163.143 145.18C163.143 144.207 163.323 143.333 163.683 142.56C164.043 141.787 164.556 141.18 165.223 140.74C165.903 140.287 166.723 140.06 167.683 140.06C168.483 140.06 169.189 140.233 169.803 140.58C170.429 140.927 170.909 141.453 171.243 142.16V135.42H172.623V150H171.423L171.283 148.02C170.936 148.767 170.443 149.327 169.803 149.7C169.163 150.06 168.436 150.24 167.623 150.24ZM167.863 148.98C168.583 148.98 169.189 148.82 169.683 148.5C170.176 148.167 170.556 147.713 170.823 147.14C171.089 146.553 171.223 145.887 171.223 145.14C171.223 144.393 171.089 143.733 170.823 143.16C170.556 142.587 170.176 142.133 169.683 141.8C169.189 141.467 168.583 141.3 167.863 141.3C167.169 141.3 166.569 141.467 166.063 141.8C165.569 142.133 165.189 142.587 164.923 143.16C164.669 143.733 164.543 144.393 164.543 145.14C164.543 145.887 164.669 146.553 164.923 147.14C165.189 147.713 165.569 148.167 166.063 148.5C166.569 148.82 167.169 148.98 167.863 148.98ZM175.503 150V140.32H176.883V150H175.503ZM176.183 137.66C175.903 137.66 175.663 137.56 175.463 137.36C175.263 137.16 175.163 136.92 175.163 136.64C175.163 136.36 175.263 136.12 175.463 135.92C175.663 135.707 175.903 135.6 176.183 135.6C176.463 135.6 176.703 135.707 176.903 135.92C177.116 136.12 177.223 136.36 177.223 136.64C177.223 136.92 177.116 137.16 176.903 137.36C176.703 137.56 176.463 137.66 176.183 137.66ZM182.54 150.24C181.514 150.24 180.707 149.973 180.12 149.44C179.547 148.907 179.26 148.22 179.26 147.38C179.26 146.487 179.58 145.773 180.22 145.24C180.86 144.707 181.747 144.393 182.88 144.3L186.08 144.04V143.72C186.08 143.08 185.967 142.58 185.74 142.22C185.514 141.847 185.207 141.587 184.82 141.44C184.434 141.293 184 141.22 183.52 141.22C182.667 141.22 182.007 141.4 181.54 141.76C181.074 142.12 180.84 142.627 180.84 143.28H179.58C179.58 142.627 179.747 142.06 180.08 141.58C180.414 141.1 180.88 140.727 181.48 140.46C182.08 140.193 182.774 140.06 183.56 140.06C184.32 140.06 184.987 140.193 185.56 140.46C186.134 140.713 186.587 141.113 186.92 141.66C187.267 142.193 187.44 142.887 187.44 143.74V150H186.28L186.1 148.3C185.807 148.913 185.34 149.393 184.7 149.74C184.074 150.073 183.354 150.24 182.54 150.24ZM182.86 149.12C183.887 149.12 184.68 148.793 185.24 148.14C185.8 147.487 186.08 146.64 186.08 145.6V145.08L183.22 145.3C182.314 145.38 181.66 145.607 181.26 145.98C180.86 146.353 180.66 146.807 180.66 147.34C180.66 147.927 180.86 148.373 181.26 148.68C181.66 148.973 182.194 149.12 182.86 149.12Z" fill="white"/>
<path opacity="0.2" d="M177.5 62C177.5 72.5 167 78.5 167 78.5C167 78.5 156.5 72.5 156.5 62C156.5 59.2152 157.606 56.5445 159.575 54.5754C161.545 52.6062 164.215 51.5 167 51.5C169.785 51.5 172.455 52.6062 174.425 54.5754C176.394 56.5445 177.5 59.2152 177.5 62Z" fill="#0D47D4"/>
<path d="M164 62C164 61.4067 164.176 60.8266 164.506 60.3333C164.835 59.8399 165.304 59.4554 165.852 59.2284C166.4 59.0013 167.003 58.9419 167.585 59.0576C168.167 59.1734 168.702 59.4591 169.121 59.8787C169.541 60.2982 169.827 60.8328 169.942 61.4147C170.058 61.9967 169.999 62.5999 169.772 63.148C169.545 63.6962 169.16 64.1648 168.667 64.4944C168.173 64.8241 167.593 65 167 65C166.204 65 165.441 64.6839 164.879 64.1213C164.316 63.5587 164 62.7956 164 62ZM155 62C155 58.8174 156.264 55.7652 158.515 53.5147C160.765 51.2643 163.817 50 167 50C170.183 50 173.235 51.2643 175.485 53.5147C177.736 55.7652 179 58.8174 179 62C179 73.2406 168.204 79.5387 167.75 79.8031C167.523 79.9327 167.267 80.0009 167.006 80.0009C166.745 80.0009 166.488 79.9327 166.261 79.8031C165.796 79.5387 155 73.25 155 62ZM158 62C158 69.9125 164.72 75.1644 167 76.7188C169.278 75.1663 176 69.9125 176 62C176 59.6131 175.052 57.3239 173.364 55.636C171.676 53.9482 169.387 53 167 53C164.613 53 162.324 53.9482 160.636 55.636C158.948 57.3239 158 59.6131 158 62ZM181.019 74.6806C180.65 74.5587 180.248 74.5848 179.898 74.7536C179.548 74.9223 179.276 75.2205 179.142 75.5852C179.007 75.95 179.019 76.3527 179.176 76.7087C179.332 77.0646 179.621 77.3458 179.981 77.4931C183.076 78.6388 185 80.1725 185 81.5C185 84.005 178.152 87.5 167 87.5C155.848 87.5 149 84.005 149 81.5C149 80.1725 150.924 78.6387 154.019 77.495C154.379 77.3477 154.668 77.0665 154.824 76.7105C154.981 76.3546 154.993 75.9518 154.858 75.5871C154.724 75.2224 154.452 74.9242 154.102 74.7554C153.752 74.5867 153.35 74.5605 152.981 74.6825C148.479 76.3419 146 78.7644 146 81.5C146 87.3463 156.821 90.5 167 90.5C177.179 90.5 188 87.3463 188 81.5C188 78.7644 185.521 76.3419 181.019 74.6806Z" fill="#0D47D4"/>
<path d="M448.166 123H446.706L451.966 108.68H453.746L459.066 123H457.566L456.166 119.2H449.566L448.166 123ZM452.666 110.7L450.006 117.94H455.706L453.026 110.7C452.999 110.593 452.966 110.487 452.926 110.38C452.886 110.273 452.859 110.187 452.846 110.12C452.832 110.187 452.806 110.28 452.766 110.4C452.739 110.507 452.706 110.607 452.666 110.7ZM462.812 123L458.852 113.32H460.332L462.832 119.56C462.979 119.92 463.105 120.267 463.212 120.6C463.332 120.92 463.439 121.24 463.532 121.56C463.625 121.227 463.732 120.9 463.852 120.58C463.972 120.247 464.105 119.907 464.252 119.56L466.792 113.32H468.212L464.192 123H462.812ZM472.189 123.24C471.162 123.24 470.355 122.973 469.769 122.44C469.195 121.907 468.909 121.22 468.909 120.38C468.909 119.487 469.229 118.773 469.869 118.24C470.509 117.707 471.395 117.393 472.529 117.3L475.729 117.04V116.72C475.729 116.08 475.615 115.58 475.389 115.22C475.162 114.847 474.855 114.587 474.469 114.44C474.082 114.293 473.649 114.22 473.169 114.22C472.315 114.22 471.655 114.4 471.189 114.76C470.722 115.12 470.489 115.627 470.489 116.28H469.229C469.229 115.627 469.395 115.06 469.729 114.58C470.062 114.1 470.529 113.727 471.129 113.46C471.729 113.193 472.422 113.06 473.209 113.06C473.969 113.06 474.635 113.193 475.209 113.46C475.782 113.713 476.235 114.113 476.569 114.66C476.915 115.193 477.089 115.887 477.089 116.74V123H475.929L475.749 121.3C475.455 121.913 474.989 122.393 474.349 122.74C473.722 123.073 473.002 123.24 472.189 123.24ZM472.509 122.12C473.535 122.12 474.329 121.793 474.889 121.14C475.449 120.487 475.729 119.64 475.729 118.6V118.08L472.869 118.3C471.962 118.38 471.309 118.607 470.909 118.98C470.509 119.353 470.309 119.807 470.309 120.34C470.309 120.927 470.509 121.373 470.909 121.68C471.309 121.973 471.842 122.12 472.509 122.12ZM479.858 123V113.32H481.238V123H479.858ZM480.538 110.66C480.258 110.66 480.018 110.56 479.818 110.36C479.618 110.16 479.518 109.92 479.518 109.64C479.518 109.36 479.618 109.12 479.818 108.92C480.018 108.707 480.258 108.6 480.538 108.6C480.818 108.6 481.058 108.707 481.258 108.92C481.471 109.12 481.578 109.36 481.578 109.64C481.578 109.92 481.471 110.16 481.258 110.36C481.058 110.56 480.818 110.66 480.538 110.66ZM485.556 123H484.176V108.42H485.556V123ZM491.271 123.24C490.244 123.24 489.437 122.973 488.851 122.44C488.277 121.907 487.991 121.22 487.991 120.38C487.991 119.487 488.311 118.773 488.951 118.24C489.591 117.707 490.477 117.393 491.611 117.3L494.811 117.04V116.72C494.811 116.08 494.697 115.58 494.471 115.22C494.244 114.847 493.937 114.587 493.551 114.44C493.164 114.293 492.731 114.22 492.251 114.22C491.397 114.22 490.737 114.4 490.271 114.76C489.804 115.12 489.571 115.627 489.571 116.28H488.311C488.311 115.627 488.477 115.06 488.811 114.58C489.144 114.1 489.611 113.727 490.211 113.46C490.811 113.193 491.504 113.06 492.291 113.06C493.051 113.06 493.717 113.193 494.291 113.46C494.864 113.713 495.317 114.113 495.651 114.66C495.997 115.193 496.171 115.887 496.171 116.74V123H495.011L494.831 121.3C494.537 121.913 494.071 122.393 493.431 122.74C492.804 123.073 492.084 123.24 491.271 123.24ZM491.591 122.12C492.617 122.12 493.411 121.793 493.971 121.14C494.531 120.487 494.811 119.64 494.811 118.6V118.08L491.951 118.3C491.044 118.38 490.391 118.607 489.991 118.98C489.591 119.353 489.391 119.807 489.391 120.34C489.391 120.927 489.591 121.373 489.991 121.68C490.391 121.973 490.924 122.12 491.591 122.12ZM500.14 123H498.94V108.42H500.32V115.2C500.653 114.48 501.133 113.947 501.76 113.6C502.4 113.24 503.133 113.06 503.96 113.06C504.907 113.06 505.707 113.287 506.36 113.74C507.027 114.18 507.533 114.787 507.88 115.56C508.24 116.333 508.42 117.207 508.42 118.18C508.42 119.14 508.24 120.007 507.88 120.78C507.52 121.54 507.007 122.14 506.34 122.58C505.673 123.02 504.867 123.24 503.92 123.24C503.12 123.24 502.4 123.06 501.76 122.7C501.12 122.327 500.627 121.767 500.28 121.02L500.14 123ZM500.34 118.14C500.34 118.887 500.473 119.553 500.74 120.14C501.007 120.713 501.387 121.167 501.88 121.5C502.387 121.82 502.993 121.98 503.7 121.98C504.407 121.98 505.007 121.82 505.5 121.5C505.993 121.167 506.367 120.713 506.62 120.14C506.887 119.553 507.02 118.887 507.02 118.14C507.02 117.393 506.887 116.733 506.62 116.16C506.367 115.587 505.993 115.133 505.5 114.8C505.007 114.467 504.407 114.3 503.7 114.3C502.993 114.3 502.387 114.467 501.88 114.8C501.387 115.133 501.007 115.587 500.74 116.16C500.473 116.733 500.34 117.393 500.34 118.14ZM512.06 123H510.68V108.42H512.06V123ZM519.055 123.24C518.121 123.24 517.295 123.027 516.575 122.6C515.868 122.173 515.315 121.58 514.915 120.82C514.515 120.06 514.315 119.173 514.315 118.16C514.315 117.16 514.508 116.28 514.895 115.52C515.295 114.747 515.841 114.147 516.535 113.72C517.228 113.28 518.035 113.06 518.955 113.06C519.835 113.06 520.601 113.253 521.255 113.64C521.921 114.027 522.435 114.567 522.795 115.26C523.168 115.94 523.355 116.74 523.355 117.66V118.34H515.075L515.115 117.34H521.975C521.975 116.407 521.695 115.66 521.135 115.1C520.588 114.527 519.861 114.24 518.955 114.24C518.288 114.24 517.701 114.393 517.195 114.7C516.701 115.007 516.321 115.447 516.055 116.02C515.788 116.58 515.655 117.247 515.655 118.02C515.655 119.3 515.948 120.293 516.535 121C517.135 121.707 517.981 122.06 519.075 122.06C519.861 122.06 520.508 121.893 521.015 121.56C521.521 121.227 521.861 120.74 522.035 120.1H523.355C523.101 121.113 522.608 121.893 521.875 122.44C521.141 122.973 520.201 123.24 519.055 123.24ZM530.028 113.32H535.168V114.48H530.028V113.32ZM535.248 108.5V109.68C535.155 109.68 535.035 109.68 534.888 109.68C534.741 109.68 534.588 109.68 534.428 109.68C533.815 109.68 533.401 109.833 533.188 110.14C532.988 110.433 532.888 110.867 532.888 111.44V123H531.508V111.44C531.508 110.72 531.628 110.14 531.868 109.7C532.108 109.247 532.428 108.92 532.828 108.72C533.241 108.52 533.695 108.42 534.188 108.42C534.361 108.42 534.541 108.427 534.728 108.44C534.915 108.453 535.088 108.473 535.248 108.5ZM536.073 118.16C536.073 117.16 536.286 116.28 536.713 115.52C537.139 114.76 537.726 114.16 538.473 113.72C539.219 113.28 540.059 113.06 540.993 113.06C541.939 113.06 542.779 113.28 543.513 113.72C544.259 114.16 544.846 114.76 545.273 115.52C545.699 116.28 545.913 117.16 545.913 118.16C545.913 119.133 545.699 120.007 545.273 120.78C544.846 121.54 544.259 122.14 543.513 122.58C542.779 123.02 541.939 123.24 540.993 123.24C540.059 123.24 539.219 123.02 538.473 122.58C537.726 122.14 537.139 121.54 536.713 120.78C536.286 120.007 536.073 119.133 536.073 118.16ZM537.473 118.14C537.473 118.9 537.619 119.573 537.913 120.16C538.219 120.733 538.633 121.187 539.153 121.52C539.686 121.84 540.299 122 540.993 122C541.686 122 542.293 121.84 542.813 121.52C543.346 121.187 543.759 120.733 544.053 120.16C544.359 119.573 544.513 118.9 544.513 118.14C544.513 117.393 544.359 116.733 544.053 116.16C543.759 115.587 543.346 115.133 542.813 114.8C542.293 114.467 541.686 114.3 540.993 114.3C540.299 114.3 539.686 114.467 539.153 114.8C538.633 115.133 538.219 115.587 537.913 116.16C537.619 116.733 537.473 117.393 537.473 118.14ZM553.18 113.2V114.44H552.42C551.526 114.44 550.813 114.713 550.28 115.26C549.76 115.807 549.5 116.547 549.5 117.48V123H548.12V113.32H549.42L549.54 115.22H549.4C549.533 114.593 549.86 114.087 550.38 113.7C550.9 113.3 551.533 113.1 552.28 113.1C552.426 113.1 552.573 113.107 552.72 113.12C552.866 113.133 553.02 113.16 553.18 113.2ZM481.386 150L477.126 135.68H478.626L481.526 145.52C481.633 145.867 481.726 146.227 481.806 146.6C481.9 146.973 481.993 147.4 482.086 147.88C482.206 147.36 482.32 146.927 482.426 146.58C482.533 146.22 482.64 145.867 482.746 145.52L485.866 135.68H487.366L490.486 145.52C490.593 145.88 490.7 146.253 490.806 146.64C490.913 147.013 491.02 147.427 491.126 147.88C491.233 147.333 491.333 146.873 491.426 146.5C491.52 146.127 491.606 145.807 491.686 145.54L494.646 135.68H496.106L491.806 150H490.446L486.606 137.84L482.766 150H481.386ZM496.024 145.16C496.024 144.16 496.237 143.28 496.664 142.52C497.09 141.76 497.677 141.16 498.424 140.72C499.17 140.28 500.01 140.06 500.944 140.06C501.89 140.06 502.73 140.28 503.464 140.72C504.21 141.16 504.797 141.76 505.224 142.52C505.65 143.28 505.864 144.16 505.864 145.16C505.864 146.133 505.65 147.007 505.224 147.78C504.797 148.54 504.21 149.14 503.464 149.58C502.73 150.02 501.89 150.24 500.944 150.24C500.01 150.24 499.17 150.02 498.424 149.58C497.677 149.14 497.09 148.54 496.664 147.78C496.237 147.007 496.024 146.133 496.024 145.16ZM497.424 145.14C497.424 145.9 497.57 146.573 497.864 147.16C498.17 147.733 498.584 148.187 499.104 148.52C499.637 148.84 500.25 149 500.944 149C501.637 149 502.244 148.84 502.764 148.52C503.297 148.187 503.71 147.733 504.004 147.16C504.31 146.573 504.464 145.9 504.464 145.14C504.464 144.393 504.31 143.733 504.004 143.16C503.71 142.587 503.297 142.133 502.764 141.8C502.244 141.467 501.637 141.3 500.944 141.3C500.25 141.3 499.637 141.467 499.104 141.8C498.584 142.133 498.17 142.587 497.864 143.16C497.57 143.733 497.424 144.393 497.424 145.14ZM513.131 140.2V141.44H512.371C511.478 141.44 510.764 141.713 510.231 142.26C509.711 142.807 509.451 143.547 509.451 144.48V150H508.071V140.32H509.371L509.491 142.22H509.351C509.484 141.593 509.811 141.087 510.331 140.7C510.851 140.3 511.484 140.1 512.231 140.1C512.378 140.1 512.524 140.107 512.671 140.12C512.818 140.133 512.971 140.16 513.131 140.2ZM516.405 150H515.025V135.42H516.405V145.32L521.205 140.32H522.945L519.225 144.18L522.965 150H521.365L518.285 145.16L516.405 147.1V150Z" fill="white"/>
<path opacity="0.2" d="M518 71C518 74.5601 516.944 78.0402 514.966 81.0003C512.989 83.9604 510.177 86.2675 506.888 87.6298C503.599 88.9922 499.98 89.3487 496.488 88.6541C492.997 87.9596 489.789 86.2453 487.272 83.7279C484.755 81.2106 483.04 78.0033 482.346 74.5116C481.651 71.02 482.008 67.4008 483.37 64.1117C484.733 60.8226 487.04 58.0114 490 56.0335C492.96 54.0557 496.44 53 500 53C504.774 53 509.352 54.8964 512.728 58.2721C516.104 61.6477 518 66.2261 518 71Z" fill="#008000"/>
<path d="M508.561 65.4387C508.701 65.5781 508.811 65.7435 508.887 65.9256C508.962 66.1077 509.001 66.3029 509.001 66.5C509.001 66.6971 508.962 66.8923 508.887 67.0744C508.811 67.2565 508.701 67.4219 508.561 67.5613L498.061 78.0613C497.922 78.2007 497.757 78.3114 497.574 78.3868C497.392 78.4623 497.197 78.5012 497 78.5012C496.803 78.5012 496.608 78.4623 496.426 78.3868C496.244 78.3114 496.078 78.2007 495.939 78.0613L491.439 73.5613C491.157 73.2798 490.999 72.898 490.999 72.5C490.999 72.102 491.157 71.7202 491.439 71.4387C491.72 71.1573 492.102 70.9992 492.5 70.9992C492.898 70.9992 493.28 71.1573 493.561 71.4387L497 74.8794L506.439 65.4387C506.578 65.2993 506.744 65.1886 506.926 65.1132C507.108 65.0377 507.303 64.9988 507.5 64.9988C507.697 64.9988 507.892 65.0377 508.074 65.1132C508.257 65.1886 508.422 65.2993 508.561 65.4387ZM519.5 71C519.5 74.8567 518.356 78.6269 516.214 81.8336C514.071 85.0404 511.025 87.5397 507.462 89.0156C503.899 90.4916 499.978 90.8777 496.196 90.1253C492.413 89.3729 488.939 87.5157 486.211 84.7886C483.484 82.0615 481.627 78.5869 480.875 74.8043C480.122 71.0216 480.508 67.1008 481.984 63.5377C483.46 59.9745 485.96 56.929 489.166 54.7863C492.373 52.6437 496.143 51.5 500 51.5C505.17 51.5055 510.127 53.5617 513.783 57.2174C517.438 60.8732 519.495 65.83 519.5 71ZM516.5 71C516.5 67.7366 515.532 64.5465 513.719 61.8331C511.906 59.1197 509.329 57.0048 506.314 55.756C503.299 54.5071 499.982 54.1804 496.781 54.817C493.58 55.4537 490.64 57.0252 488.333 59.3327C486.025 61.6403 484.454 64.5803 483.817 67.781C483.18 70.9817 483.507 74.2993 484.756 77.3143C486.005 80.3293 488.12 82.9062 490.833 84.7192C493.547 86.5323 496.737 87.5 500 87.5C504.375 87.495 508.569 85.7551 511.662 82.6618C514.755 79.5685 516.495 75.3745 516.5 71Z" fill="#008000"/>
<path d="M796.825 108.68V123H795.385V108.68H796.825ZM803.825 110H795.445V108.68H803.825V110ZM802.685 116.7H795.445V115.4H802.685V116.7ZM810.398 113.2V114.44H809.638C808.745 114.44 808.032 114.713 807.498 115.26C806.978 115.807 806.718 116.547 806.718 117.48V123H805.338V113.32H806.638L806.758 115.22H806.618C806.752 114.593 807.078 114.087 807.598 113.7C808.118 113.3 808.752 113.1 809.498 113.1C809.645 113.1 809.792 113.107 809.938 113.12C810.085 113.133 810.238 113.16 810.398 113.2ZM811.182 118.16C811.182 117.16 811.395 116.28 811.822 115.52C812.249 114.76 812.835 114.16 813.582 113.72C814.329 113.28 815.169 113.06 816.102 113.06C817.049 113.06 817.889 113.28 818.622 113.72C819.369 114.16 819.955 114.76 820.382 115.52C820.809 116.28 821.022 117.16 821.022 118.16C821.022 119.133 820.809 120.007 820.382 120.78C819.955 121.54 819.369 122.14 818.622 122.58C817.889 123.02 817.049 123.24 816.102 123.24C815.169 123.24 814.329 123.02 813.582 122.58C812.835 122.14 812.249 121.54 811.822 120.78C811.395 120.007 811.182 119.133 811.182 118.16ZM812.582 118.14C812.582 118.9 812.729 119.573 813.022 120.16C813.329 120.733 813.742 121.187 814.262 121.52C814.795 121.84 815.409 122 816.102 122C816.795 122 817.402 121.84 817.922 121.52C818.455 121.187 818.869 120.733 819.162 120.16C819.469 119.573 819.622 118.9 819.622 118.14C819.622 117.393 819.469 116.733 819.162 116.16C818.869 115.587 818.455 115.133 817.922 114.8C817.402 114.467 816.795 114.3 816.102 114.3C815.409 114.3 814.795 114.467 814.262 114.8C813.742 115.133 813.329 115.587 813.022 116.16C812.729 116.733 812.582 117.393 812.582 118.14ZM824.609 123H823.229V113.32H824.429L824.629 115C824.949 114.387 825.402 113.913 825.989 113.58C826.589 113.233 827.242 113.06 827.949 113.06C829.282 113.06 830.242 113.427 830.829 114.16C831.416 114.893 831.709 115.867 831.709 117.08V123H830.329V117.38C830.329 116.247 830.089 115.453 829.609 115C829.142 114.547 828.509 114.32 827.709 114.32C826.722 114.32 825.956 114.653 825.409 115.32C824.876 115.973 824.609 116.847 824.609 117.94V123ZM833.38 113.32H838.62V114.48H833.38V113.32ZM836.68 123H835.32V110.26H836.68V123ZM844.379 123.24C843.446 123.24 842.619 123.027 841.899 122.6C841.192 122.173 840.639 121.58 840.239 120.82C839.839 120.06 839.639 119.173 839.639 118.16C839.639 117.16 839.832 116.28 840.219 115.52C840.619 114.747 841.166 114.147 841.859 113.72C842.552 113.28 843.359 113.06 844.279 113.06C845.159 113.06 845.926 113.253 846.579 113.64C847.246 114.027 847.759 114.567 848.119 115.26C848.492 115.94 848.679 116.74 848.679 117.66V118.34H840.399L840.439 117.34H847.299C847.299 116.407 847.019 115.66 846.459 115.1C845.912 114.527 845.186 114.24 844.279 114.24C843.612 114.24 843.026 114.393 842.519 114.7C842.026 115.007 841.646 115.447 841.379 116.02C841.112 116.58 840.979 117.247 840.979 118.02C840.979 119.3 841.272 120.293 841.859 121C842.459 121.707 843.306 122.06 844.399 122.06C845.186 122.06 845.832 121.893 846.339 121.56C846.846 121.227 847.186 120.74 847.359 120.1H848.679C848.426 121.113 847.932 121.893 847.199 122.44C846.466 122.973 845.526 123.24 844.379 123.24ZM852.265 123H850.885V113.32H852.085L852.285 115C852.605 114.387 853.059 113.913 853.645 113.58C854.245 113.233 854.899 113.06 855.605 113.06C856.939 113.06 857.899 113.427 858.485 114.16C859.072 114.893 859.365 115.867 859.365 117.08V123H857.985V117.38C857.985 116.247 857.745 115.453 857.265 115C856.799 114.547 856.165 114.32 855.365 114.32C854.379 114.32 853.612 114.653 853.065 115.32C852.532 115.973 852.265 116.847 852.265 117.94V123ZM865.916 123.24C864.982 123.24 864.182 123.02 863.516 122.58C862.849 122.14 862.336 121.54 861.976 120.78C861.616 120.007 861.436 119.14 861.436 118.18C861.436 117.207 861.616 116.333 861.976 115.56C862.336 114.787 862.849 114.18 863.516 113.74C864.196 113.287 865.016 113.06 865.976 113.06C866.776 113.06 867.482 113.233 868.096 113.58C868.722 113.927 869.202 114.453 869.536 115.16V108.42H870.916V123H869.716L869.576 121.02C869.229 121.767 868.736 122.327 868.096 122.7C867.456 123.06 866.729 123.24 865.916 123.24ZM866.156 121.98C866.876 121.98 867.482 121.82 867.976 121.5C868.469 121.167 868.849 120.713 869.116 120.14C869.382 119.553 869.516 118.887 869.516 118.14C869.516 117.393 869.382 116.733 869.116 116.16C868.849 115.587 868.469 115.133 867.976 114.8C867.482 114.467 866.876 114.3 866.156 114.3C865.462 114.3 864.862 114.467 864.356 114.8C863.862 115.133 863.482 115.587 863.216 116.16C862.962 116.733 862.836 117.393 862.836 118.14C862.836 118.887 862.962 119.553 863.216 120.14C863.482 120.713 863.862 121.167 864.356 121.5C864.862 121.82 865.462 121.98 866.156 121.98ZM794.52 150H790.16V135.68H794.48C795.92 135.68 797.18 135.98 798.26 136.58C799.34 137.18 800.18 138.02 800.78 139.1C801.38 140.167 801.68 141.413 801.68 142.84C801.68 144.267 801.38 145.52 800.78 146.6C800.193 147.667 799.36 148.5 798.28 149.1C797.213 149.7 795.96 150 794.52 150ZM791.6 136.36V149.32L790.94 148.68H794.46C795.633 148.68 796.647 148.44 797.5 147.96C798.353 147.48 799.013 146.807 799.48 145.94C799.96 145.06 800.2 144.027 800.2 142.84C800.2 141.653 799.96 140.62 799.48 139.74C799.013 138.86 798.347 138.187 797.48 137.72C796.627 137.24 795.607 137 794.42 137H790.94L791.6 136.36ZM808.041 150.24C807.108 150.24 806.281 150.027 805.561 149.6C804.854 149.173 804.301 148.58 803.901 147.82C803.501 147.06 803.301 146.173 803.301 145.16C803.301 144.16 803.494 143.28 803.881 142.52C804.281 141.747 804.828 141.147 805.521 140.72C806.214 140.28 807.021 140.06 807.941 140.06C808.821 140.06 809.588 140.253 810.241 140.64C810.908 141.027 811.421 141.567 811.781 142.26C812.154 142.94 812.341 143.74 812.341 144.66V145.34H804.061L804.101 144.34H810.961C810.961 143.407 810.681 142.66 810.121 142.1C809.574 141.527 808.848 141.24 807.941 141.24C807.274 141.24 806.688 141.393 806.181 141.7C805.688 142.007 805.308 142.447 805.041 143.02C804.774 143.58 804.641 144.247 804.641 145.02C804.641 146.3 804.934 147.293 805.521 148C806.121 148.707 806.968 149.06 808.061 149.06C808.848 149.06 809.494 148.893 810.001 148.56C810.508 148.227 810.848 147.74 811.021 147.1H812.341C812.088 148.113 811.594 148.893 810.861 149.44C810.128 149.973 809.188 150.24 808.041 150.24ZM816.974 150L813.014 140.32H814.494L816.994 146.56C817.141 146.92 817.267 147.267 817.374 147.6C817.494 147.92 817.601 148.24 817.694 148.56C817.787 148.227 817.894 147.9 818.014 147.58C818.134 147.247 818.267 146.907 818.414 146.56L820.954 140.32H822.374L818.354 150H816.974ZM827.631 150.24C826.698 150.24 825.871 150.027 825.151 149.6C824.444 149.173 823.891 148.58 823.491 147.82C823.091 147.06 822.891 146.173 822.891 145.16C822.891 144.16 823.084 143.28 823.471 142.52C823.871 141.747 824.418 141.147 825.111 140.72C825.804 140.28 826.611 140.06 827.531 140.06C828.411 140.06 829.178 140.253 829.831 140.64C830.498 141.027 831.011 141.567 831.371 142.26C831.744 142.94 831.931 143.74 831.931 144.66V145.34H823.651L823.691 144.34H830.551C830.551 143.407 830.271 142.66 829.711 142.1C829.164 141.527 828.438 141.24 827.531 141.24C826.864 141.24 826.278 141.393 825.771 141.7C825.278 142.007 824.898 142.447 824.631 143.02C824.364 143.58 824.231 144.247 824.231 145.02C824.231 146.3 824.524 147.293 825.111 148C825.711 148.707 826.558 149.06 827.651 149.06C828.438 149.06 829.084 148.893 829.591 148.56C830.098 148.227 830.438 147.74 830.611 147.1H831.931C831.678 148.113 831.184 148.893 830.451 149.44C829.718 149.973 828.778 150.24 827.631 150.24ZM835.577 150H834.197V135.42H835.577V150ZM837.832 145.16C837.832 144.16 838.046 143.28 838.472 142.52C838.899 141.76 839.486 141.16 840.232 140.72C840.979 140.28 841.819 140.06 842.752 140.06C843.699 140.06 844.539 140.28 845.272 140.72C846.019 141.16 846.606 141.76 847.032 142.52C847.459 143.28 847.672 144.16 847.672 145.16C847.672 146.133 847.459 147.007 847.032 147.78C846.606 148.54 846.019 149.14 845.272 149.58C844.539 150.02 843.699 150.24 842.752 150.24C841.819 150.24 840.979 150.02 840.232 149.58C839.486 149.14 838.899 148.54 838.472 147.78C838.046 147.007 837.832 146.133 837.832 145.16ZM839.232 145.14C839.232 145.9 839.379 146.573 839.672 147.16C839.979 147.733 840.392 148.187 840.912 148.52C841.446 148.84 842.059 149 842.752 149C843.446 149 844.052 148.84 844.572 148.52C845.106 148.187 845.519 147.733 845.812 147.16C846.119 146.573 846.272 145.9 846.272 145.14C846.272 144.393 846.119 143.733 845.812 143.16C845.519 142.587 845.106 142.133 844.572 141.8C844.052 141.467 843.446 141.3 842.752 141.3C842.059 141.3 841.446 141.467 840.912 141.8C840.392 142.133 839.979 142.587 839.672 143.16C839.379 143.733 839.232 144.393 839.232 145.14ZM849.879 154.22V140.32H851.079L851.219 142.28C851.566 141.533 852.059 140.98 852.699 140.62C853.353 140.247 854.079 140.06 854.879 140.06C855.813 140.06 856.613 140.28 857.279 140.72C857.946 141.16 858.459 141.76 858.819 142.52C859.179 143.28 859.359 144.147 859.359 145.12C859.359 146.093 859.179 146.967 858.819 147.74C858.473 148.513 857.966 149.127 857.299 149.58C856.646 150.02 855.839 150.24 854.879 150.24C854.053 150.24 853.326 150.067 852.699 149.72C852.073 149.36 851.593 148.833 851.259 148.14V154.22H849.879ZM851.279 145.16C851.279 145.893 851.413 146.553 851.679 147.14C851.946 147.713 852.326 148.167 852.819 148.5C853.326 148.833 853.933 149 854.639 149C855.346 149 855.946 148.833 856.439 148.5C856.933 148.167 857.306 147.713 857.559 147.14C857.826 146.553 857.959 145.893 857.959 145.16C857.959 144.413 857.826 143.753 857.559 143.18C857.306 142.593 856.933 142.14 856.439 141.82C855.946 141.487 855.346 141.32 854.639 141.32C853.933 141.32 853.326 141.487 852.819 141.82C852.326 142.14 851.946 142.593 851.679 143.18C851.413 143.753 851.279 144.413 851.279 145.16ZM865.619 150.24C864.686 150.24 863.859 150.027 863.139 149.6C862.432 149.173 861.879 148.58 861.479 147.82C861.079 147.06 860.879 146.173 860.879 145.16C860.879 144.16 861.072 143.28 861.459 142.52C861.859 141.747 862.406 141.147 863.099 140.72C863.792 140.28 864.599 140.06 865.519 140.06C866.399 140.06 867.166 140.253 867.819 140.64C868.486 141.027 868.999 141.567 869.359 142.26C869.732 142.94 869.919 143.74 869.919 144.66V145.34H861.639L861.679 144.34H868.539C868.539 143.407 868.259 142.66 867.699 142.1C867.152 141.527 866.426 141.24 865.519 141.24C864.852 141.24 864.266 141.393 863.759 141.7C863.266 142.007 862.886 142.447 862.619 143.02C862.352 143.58 862.219 144.247 862.219 145.02C862.219 146.3 862.512 147.293 863.099 148C863.699 148.707 864.546 149.06 865.639 149.06C866.426 149.06 867.072 148.893 867.579 148.56C868.086 148.227 868.426 147.74 868.599 147.1H869.919C869.666 148.113 869.172 148.893 868.439 149.44C867.706 149.973 866.766 150.24 865.619 150.24ZM877.186 140.2V141.44H876.426C875.532 141.44 874.819 141.713 874.286 142.26C873.766 142.807 873.506 143.547 873.506 144.48V150H872.126V140.32H873.426L873.546 142.22H873.406C873.539 141.593 873.866 141.087 874.386 140.7C874.906 140.3 875.539 140.1 876.286 140.1C876.432 140.1 876.579 140.107 876.726 140.12C876.872 140.133 877.026 140.16 877.186 140.2Z" fill="white"/>
<path opacity="0.2" d="M843.093 65L840.91 77H828.91L831.093 65H843.093Z" fill="#FFB901"/>
<path d="M854 63.4995H844.887L846.476 54.7677C846.539 54.3794 846.448 53.9817 846.221 53.6601C845.995 53.3385 845.651 53.1189 845.264 53.0486C844.877 52.9782 844.477 53.0628 844.152 53.2841C843.827 53.5053 843.601 53.8455 843.524 54.2314L841.837 63.4995H832.888L834.476 54.7677C834.539 54.3794 834.448 53.9817 834.221 53.6601C833.995 53.3385 833.651 53.1189 833.264 53.0486C832.877 52.9782 832.477 53.0628 832.152 53.2841C831.827 53.5053 831.601 53.8455 831.524 54.2314L829.839 63.4995H821C820.602 63.4995 820.221 63.6576 819.939 63.9389C819.658 64.2202 819.5 64.6017 819.5 64.9995C819.5 65.3974 819.658 65.7789 819.939 66.0602C820.221 66.3415 820.602 66.4995 821 66.4995H829.293L827.656 75.4995H818C817.602 75.4995 817.221 75.6576 816.939 75.9389C816.658 76.2202 816.5 76.6017 816.5 76.9995C816.5 77.3974 816.658 77.7789 816.939 78.0602C817.221 78.3415 817.602 78.4995 818 78.4995H827.112L825.524 87.2314C825.453 87.6228 825.541 88.0263 825.767 88.3533C825.993 88.6803 826.341 88.904 826.732 88.9752C826.82 88.9915 826.91 88.9997 827 88.9995C827.351 88.999 827.691 88.8755 827.96 88.6504C828.229 88.4253 828.411 88.113 828.474 87.7677L830.161 78.4995H839.113L837.524 87.2314C837.453 87.6228 837.541 88.0263 837.767 88.3533C837.993 88.6803 838.341 88.904 838.732 88.9752C838.82 88.9915 838.91 88.9997 839 88.9995C839.351 88.999 839.691 88.8755 839.96 88.6504C840.229 88.4253 840.411 88.113 840.474 87.7677L842.161 78.4995H851C851.398 78.4995 851.779 78.3415 852.061 78.0602C852.342 77.7789 852.5 77.3974 852.5 76.9995C852.5 76.6017 852.342 76.2202 852.061 75.9389C851.779 75.6576 851.398 75.4995 851 75.4995H842.707L844.344 66.4995H854C854.398 66.4995 854.779 66.3415 855.061 66.0602C855.342 65.7789 855.5 65.3974 855.5 64.9995C855.5 64.6017 855.342 64.2202 855.061 63.9389C854.779 63.6576 854.398 63.4995 854 63.4995ZM839.656 75.4995H830.707L832.344 66.4995H841.293L839.656 75.4995Z" fill="#FFD600"/>
</svg>
